<svg width="145" height="145" viewBox="0 0 145 145" fill="none" xmlns="http://www.w3.org/2000/svg">
<path d="M72.386 144.772C112.364 144.772 144.772 112.364 144.772 72.386C144.772 32.4083 112.364 0 72.386 0C32.4083 0 0 32.4083 0 72.386C0 112.364 32.4083 144.772 72.386 144.772Z" fill="#2E5871"/>
<mask id="mask0_1160_409" style="mask-type:luminance" maskUnits="userSpaceOnUse" x="0" y="0" width="145" height="145">
<path d="M72.386 144.772C112.364 144.772 144.772 112.364 144.772 72.386C144.772 32.4083 112.364 0 72.386 0C32.4083 0 0 32.4083 0 72.386C0 112.364 32.4083 144.772 72.386 144.772Z" fill="white"/>
</mask>
<g mask="url(#mask0_1160_409)">
<path d="M107.052 116.94C102.386 108.107 72.3857 102.564 72.3857 102.564C72.3857 102.564 42.3857 108.107 37.7197 116.94C34.2707 129.198 31.3857 144.773 31.3857 144.773H72.3857H113.386C113.386 144.773 111.437 128.073 107.052 116.94Z" fill="#F1C9A5"/>
<path d="M72.3857 102.564C72.3857 102.564 102.386 108.107 107.052 116.94C111.438 128.073 113.386 144.773 113.386 144.773H72.3857V102.564Z" fill="#E4B692"/>
<path d="M80.5527 84.606H64.2188V111.942H80.5527V84.606Z" fill="#F1C9A5"/>
<path d="M80.5527 84.606H72.3857V111.942H80.5527V84.606Z" fill="#E4B692"/>
<path opacity="0.1" d="M64.2188 97.273C65.6877 101.49 71.6157 103.907 75.9697 103.907C77.5447 103.907 79.0767 103.643 80.5527 103.16V84.606H64.2188V97.273Z" fill="#DDAC8C"/>
<path d="M107.052 116.94C104.326 111.782 92.9698 107.749 83.9868 105.284C83.6358 111.394 78.5848 116.244 72.3858 116.244C66.1878 116.244 61.1368 111.394 60.7848 105.284C51.8018 107.749 40.4448 111.782 37.7188 116.94C34.2698 129.198 31.3848 144.773 31.3848 144.773H72.3848H113.385C113.385 144.773 111.437 128.073 107.052 116.94Z" fill="white"/>
<path d="M93.3857 67.357C93.3857 50.283 83.9837 40.574 72.3857 40.574C60.7877 40.574 51.3857 50.283 51.3857 67.357C51.3857 74.51 53.5737 90.348 57.3097 93.576C59.8747 95.855 68.2477 99.759 72.3427 99.759C72.3567 99.759 72.3717 99.757 72.3867 99.757C72.4007 99.757 72.4147 99.759 72.4277 99.759H72.4297C76.5257 99.759 84.8987 95.856 87.4627 93.576C91.3467 89.474 93.3857 73.923 93.3857 67.357Z" fill="#F1C9A5"/>
<path d="M72.3867 99.757C72.4007 99.757 72.4147 99.759 72.4277 99.759H72.4297C76.5257 99.759 84.8987 95.856 87.4627 93.576C91.3467 89.473 93.3857 73.923 93.3857 67.357C93.3857 50.283 83.9837 40.574 72.3857 40.574L72.3867 99.757Z" fill="#E4B692"/>
<path d="M90.1886 79.197C86.3816 78.799 83.8116 74.697 84.4566 70.041C85.0936 65.381 88.6986 61.921 92.5076 62.317C96.3126 62.713 98.8786 66.813 98.2366 71.473C97.5976 76.134 93.9956 79.591 90.1886 79.197Z" fill="#E4B692"/>
<path d="M46.6836 71.474C46.0406 66.814 48.6076 62.714 52.4106 62.318C56.2206 61.921 59.8266 65.381 60.4656 70.042C61.1086 74.698 58.5356 78.8 54.7316 79.198C50.9236 79.591 47.3216 76.134 46.6836 71.474Z" fill="#F1C9A5"/>
<path d="M37.7197 116.94C34.2707 129.198 31.3857 144.773 31.3857 144.773H61.1627C56.1087 122.468 55.9137 106.75 55.9137 106.72C48.0937 109.196 39.9687 112.684 37.7197 116.94Z" fill="#FB6020"/>
<path d="M107.052 116.94C111.722 128.473 113.386 144.773 113.386 144.773H83.6079C88.6619 122.468 88.8569 106.75 88.8569 106.72C96.6779 109.196 104.803 112.684 107.052 116.94Z" fill="#FB6020"/>
<path d="M52.6709 78.725C52.6709 78.725 55.7379 89.056 59.0589 90.81C60.5919 90.81 61.7419 90.81 61.7419 90.81L65.0619 86.105L72.3429 84.076V99.76H62.8899L53.4379 91.272L52.6709 78.725Z" fill="#915F2C"/>
<path d="M92.0577 78.725C92.0577 78.725 88.9907 89.056 85.6697 90.81C84.1367 90.81 82.9867 90.81 82.9867 90.81L79.6667 86.105L72.3857 84.076V99.76H81.8387L91.2907 91.272L92.0577 78.725Z" fill="#915F2C"/>
<path d="M75.7539 89.241C75.7539 89.241 75.2539 87.015 72.3369 87.015C69.6699 87.015 68.9199 89.241 68.9199 89.241H75.7539Z" fill="white"/>
<path d="M51.4189 62.366C51.4189 62.366 54.2019 62.945 55.9999 65.035C55.6829 61.378 54.9799 49.23 59.4199 46.182C63.8599 43.135 65.9369 46.313 72.3859 46.313C72.3859 41.524 72.3859 37.431 72.3859 37.431C72.3859 37.431 64.6349 37.431 61.9039 37.431C59.1719 37.431 50.5029 38.737 50.5029 46.922C50.5019 55.108 51.4189 62.366 51.4189 62.366Z" fill="#915F2C"/>
<path d="M93.3518 62.366C93.3518 62.366 90.5688 62.945 88.7708 65.035C89.0878 61.378 89.7908 49.23 85.3508 46.182C80.9118 43.135 78.8338 46.313 72.3848 46.313C72.3848 41.524 72.3848 37.431 72.3848 37.431C72.3848 37.431 80.1358 37.431 82.8668 37.431C85.5988 37.431 94.2678 38.737 94.2678 46.922C94.2688 55.108 93.3518 62.366 93.3518 62.366Z" fill="#915F2C"/>
</g>
</svg>
