<svg width="110" height="110" viewBox="0 0 110 110" fill="none" xmlns="http://www.w3.org/2000/svg">
<rect x="1.5" y="1.5" width="107" height="107" rx="18.5" fill="white" fill-opacity="0.1" stroke="#F28705" stroke-width="3"/>
<path d="M15 65C15 74.9375 23.0625 83 33 83H79C87.8375 83 95 75.8375 95 67C95 59.2625 89.5 52.8 82.2 51.325C82.7125 49.9875 83 48.525 83 47C83 40.375 77.625 35 71 35C68.5375 35 66.2375 35.75 64.3375 37.025C60.875 31.025 54.4125 27 47 27C35.95 27 27 35.95 27 47C27 47.3375 27.0125 47.675 27.025 48.0125C20.025 50.475 15 57.15 15 65Z" fill="#F28705"/>
</svg>
