<svg width="616" height="396" viewBox="0 0 616 396" fill="none" xmlns="http://www.w3.org/2000/svg">
<path d="M604.688 325.72C578.676 365.177 534.078 388.37 486.818 388.37H94.5669C15.7249 388.37 -28.4861 296.187 22.6449 244.28C73.7769 192.373 28.6129 148.04 107.481 106.415C183.888 66.089 209.974 152.047 280.363 95.803C350.752 39.559 453.229 44.865 475.744 102.17C498.259 159.475 492.953 179.642 540.707 192.375C588.461 205.107 635.154 277.269 606.502 322.901C605.905 323.852 605.3 324.792 604.688 325.72Z" fill="#BDCAE0"/>
<path d="M587.251 341.715C545.928 345.22 518.073 422.677 414.773 376.12C414.773 376.12 426.116 342.306 476.928 321.23C527.74 300.154 587.251 341.715 587.251 341.715Z" fill="#CDDCF4"/>
<path d="M428.879 370.32C439.663 364.713 450.85 359.879 462.274 355.674C465.117 354.582 467.999 353.6 470.89 352.643C473.768 351.645 476.684 350.763 479.595 349.862C482.496 348.927 485.449 348.167 488.392 347.37C489.865 346.978 491.332 346.562 492.811 346.191L497.26 345.123L501.72 344.1L506.212 343.216L510.703 342.334C512.201 342.048 513.713 341.824 515.222 341.595C518.243 341.15 521.252 340.643 524.295 340.352C527.333 340.037 530.355 339.599 533.413 339.485C545.582 338.601 557.887 338.802 569.886 340.832C557.732 340.538 545.681 341.257 533.729 342.73L531.487 342.985L529.254 343.328L524.787 343.98C521.803 344.363 518.849 344.961 515.887 345.496C514.41 345.786 512.92 345.993 511.446 346.3L507.024 347.218L502.603 348.137L498.209 349.19L493.805 350.197C492.34 350.547 490.886 350.944 489.426 351.315L485.049 352.447C483.588 352.817 482.149 353.27 480.691 353.652C477.783 354.45 474.869 355.23 471.987 356.126C469.1 357.005 466.195 357.827 463.319 358.75C451.783 362.344 440.349 366.3 428.879 370.32Z" fill="#B0BDD1"/>
<path d="M592.308 209.901C541.888 245.942 565.213 366.723 396.954 385.74C396.954 385.74 385.722 333.637 434.924 267.777C484.126 201.918 592.308 209.901 592.308 209.901Z" fill="#DBE9FF"/>
<path d="M408.147 371.189C415.486 355.289 424.543 340.169 434.734 325.856C444.895 311.513 456.287 298.016 468.696 285.517C481.119 273.04 494.58 261.535 509.148 251.602C523.67 241.674 539.338 233.131 556.047 227.807C540.538 235.94 526.166 245.606 512.517 256.207C498.917 266.868 486.059 278.43 473.876 290.675C461.685 302.916 450.197 315.856 439.262 329.293C428.36 342.767 418.115 356.79 408.147 371.189Z" fill="#CDDCF4"/>
<path d="M48.4077 330.95C89.3817 337.356 111.713 416.582 218.035 377.415C218.035 377.415 209.101 342.886 159.9 318.284C110.698 293.683 48.4077 330.95 48.4077 330.95Z" fill="#CDDCF4"/>
<path d="M204.373 370.637C193.214 365.819 182.088 361.068 170.834 356.67C168.03 355.547 165.19 354.522 162.372 353.442C159.561 352.345 156.708 351.362 153.864 350.361C152.436 349.877 151.033 349.324 149.601 348.852L145.315 347.415C143.885 346.942 142.462 346.444 141.026 345.991L136.704 344.676L132.395 343.317L128.05 342.089L123.704 340.861C122.255 340.452 120.783 340.14 119.33 339.746C116.414 339.004 113.509 338.199 110.559 337.607L106.149 336.642L103.946 336.143L101.728 335.731C89.9089 333.419 77.9379 331.854 65.7939 331.291C77.9059 330.111 90.1949 330.777 102.271 332.516C105.313 332.845 108.296 333.494 111.305 334.023C114.32 334.528 117.286 335.246 120.268 335.902C121.757 336.237 123.249 336.566 124.724 336.958L129.142 338.154L133.56 339.352L137.937 340.686L142.3 342.065C143.749 342.539 145.183 343.058 146.625 343.552C149.504 344.555 152.396 345.521 155.225 346.658C158.066 347.762 160.912 348.847 163.713 350.045C166.53 351.203 169.335 352.386 172.094 353.675C183.192 358.674 194.011 364.284 204.373 370.637Z" fill="#B0BDD1"/>
<path d="M75.6455 204.353C121.048 241.907 90.8425 354.887 249.135 384.186C249.135 384.186 263.276 335.527 221.025 269.776C178.773 204.025 75.6455 204.353 75.6455 204.353Z" fill="#DBE9FF"/>
<path d="M239.493 369.638C230.937 355.348 222.128 341.389 212.674 327.901C203.183 314.447 193.151 301.42 182.414 289.002C171.686 276.58 160.28 264.754 148.122 253.718C135.91 242.736 122.962 232.581 108.833 223.763C124.357 229.863 138.677 238.988 151.807 249.361C164.982 259.739 176.993 271.55 187.945 284.221C198.881 296.912 208.778 310.488 217.433 324.791C226.12 339.065 233.665 354.035 239.493 369.638Z" fill="#CDDCF4"/>
<path d="M342.65 309.532C336.966 316.281 331.815 327.471 328.618 329.248C325.421 331.024 320.03 331.642 314.936 348.038C309.842 364.435 335.561 362.19 335.561 362.19C335.561 362.19 346.558 355.874 350.999 340.615L362.011 330.846L342.65 309.532Z" fill="#F6A397"/>
<path d="M322.755 360.392C322.755 360.392 331.079 357.681 338.14 350.224C345.227 342.738 346.141 329.42 346.141 329.42L349.536 335.763L356.326 328.506L359.599 328.189L362.012 330.845L351 340.614C346.56 355.873 335.562 362.189 335.562 362.189C335.562 362.189 328.472 362.804 322.474 361.018C322.628 360.631 322.755 360.392 322.755 360.392Z" fill="#D65863"/>
<path d="M381.208 250.802C373.33 256.561 368.63 260.74 364.713 268.574C360.796 276.408 336.249 304.554 334.682 307.064C333.115 309.574 348.477 336.21 360.774 342.739C360.774 342.739 379.338 321.325 390.044 313.23C400.751 305.135 397.095 276.409 392.133 266.747C387.171 257.084 381.208 250.802 381.208 250.802Z" fill="#F28705"/>
<path d="M380.921 302.633V286.644C380.921 286.644 383.005 285.809 384.631 291.206C385.281 293.365 385.23 295.635 384.941 297.589L396.893 288.6C397.387 298.663 395.772 308.898 390.044 313.229C379.337 321.324 360.774 342.738 360.774 342.738C357.602 341.054 354.227 338.027 350.99 334.425C358.547 326.9 372.888 312.371 380.921 302.633Z" fill="#F28705"/>
<path d="M304.553 355.874C302.509 356.512 300.999 357.489 300.999 360.064C300.999 362.639 301.443 366.725 302.42 368.323C303.397 369.922 308.442 370.879 308.442 370.879C308.442 370.879 308.104 360.241 307.039 358.287C305.972 356.334 304.553 355.874 304.553 355.874Z" fill="#F6A397"/>
<path d="M302.419 368.324C302.144 367.875 301.916 367.217 301.724 366.463C302.819 367.539 303.186 367.547 304.526 367.689L308.356 368.883C308.415 370.08 308.44 370.88 308.44 370.88C308.44 370.88 303.396 369.922 302.419 368.324Z" fill="#D65863"/>
<path d="M309.435 351.983C306.948 352.249 304.462 354.114 304.462 356.69C304.462 359.266 303.574 366.459 304.462 367.614C305.35 368.769 309.702 372.055 311.212 372.321C312.722 372.587 315.286 372.143 314.936 371.344C314.586 370.544 309.435 351.983 309.435 351.983Z" fill="#F6A397"/>
<path d="M304.085 365.68C305.971 367.808 310.792 367.617 310.792 367.617C310.792 367.617 312.911 369.88 313.172 370.607C313.33 371.046 314.197 371.624 314.316 372.071C313.518 372.375 312.158 372.487 311.212 372.32C309.732 372.059 305.529 368.9 304.527 367.688L304.085 365.684C304.085 365.684 304.085 365.682 304.085 365.68Z" fill="#D65863"/>
<path d="M318.753 347.734C311.123 348.164 309.702 348.874 309.436 351.983C309.17 355.091 309.347 364.15 310.324 366.459C311.301 368.768 311.834 370.811 313.077 372.054C314.32 373.297 316.18 373.302 316.18 373.302C316.18 373.302 320.359 367.17 320.537 362.019C320.714 356.867 318.753 347.734 318.753 347.734Z" fill="#F6A397"/>
<path d="M314.364 368.199C314.751 366.089 315.609 363.841 315.718 356.782C315.759 354.13 318.218 367.98 317.12 371.78C316.573 372.723 316.18 373.301 316.18 373.301C316.18 373.301 314.32 373.297 313.077 372.053C311.834 370.81 311.301 368.767 310.324 366.458C310.26 366.308 310.201 366.127 310.144 365.923C310.641 367.219 312.223 368.069 314.364 368.199Z" fill="#D65863"/>
<path d="M335.457 363.35C334.977 367.594 329.418 369.123 328.796 371.254C328.174 373.385 328.618 375.339 327.553 375.872C326.487 376.405 322.047 373.918 322.224 371.076C322.224 371.076 321.069 373.474 318.494 373.918C315.918 374.362 315.297 372.481 315.741 369.647C316.185 366.813 316.096 365.303 316.007 361.929C315.918 358.554 315.119 355.446 316.629 351.716C318.139 347.986 320.181 344.7 324.267 345.322C328.352 345.944 330.839 351.095 333.059 352.871C335.279 354.647 335.99 358.643 335.457 363.35Z" fill="#F6A397"/>
<path d="M322.224 371.077C322.473 365.68 322.755 361.263 322.755 360.392C322.755 359.521 322.473 353.793 324.51 353.445C324.819 353.392 329.298 356.23 329.385 358.146C329.472 360.061 329.385 363.499 327.992 364.479C326.598 365.458 322.224 371.077 322.224 371.077Z" fill="#D65863"/>
<path d="M507.296 262.307C499.201 252.035 496.415 250.991 488.059 246.116C479.702 241.241 448.017 228.881 441.489 227.314C434.96 225.747 408.63 238.021 399.99 241.938C391.35 245.855 380.357 249.709 378.483 253.527C372.213 266.306 384.631 284.417 384.697 322.369C384.731 342.247 389.261 386.946 389.261 386.946C389.261 386.946 488.756 387.132 490.149 385.043C491.542 382.954 495.024 311.575 496.764 296.951C498.504 282.328 507.296 262.307 507.296 262.307Z" fill="#F28705"/>
<path d="M378.848 273.536C378.102 271.133 377.659 268.687 377.287 266.23C376.946 263.769 376.678 261.297 376.715 258.781C377.463 261.183 377.906 263.63 378.276 266.087C378.615 268.548 378.882 271.02 378.848 273.536Z" fill="#F28705"/>
<path d="M416.054 258.585C412.21 257.149 403.102 259.646 401.437 260.226C399.772 260.805 402.416 253.689 403.395 252.808C404.374 251.927 405.941 249.875 408.944 250.803C411.947 251.731 414.471 255.169 414.907 256.301C415.343 257.432 416.054 258.585 416.054 258.585Z" fill="#F28705"/>
<path d="M448.084 264.526C446.713 264.461 438.716 260.783 436.8 259.869C434.884 258.955 426.21 258.528 420.385 260.156C420.385 260.156 431.599 252.579 438.128 252.644C444.657 252.709 447.137 255.06 447.66 257.149C448.182 259.238 448.084 264.526 448.084 264.526Z" fill="#F28705"/>
<path d="M405.313 370.942C406.381 369.897 471.358 371.987 472.664 365.197C473.97 358.407 474.868 346.059 474.868 346.059C467.046 350.237 455.689 348.498 455.689 348.498C463.262 346.025 474.23 333.599 474.752 329.943C476.361 318.68 470.344 287.629 470.344 287.629L474.752 278.759L479.91 275.886C479.91 275.886 489.69 280.757 498.054 289.717C497.489 292.196 497.038 294.642 496.763 296.952C495.122 310.74 491.933 374.964 490.406 384.019C470.281 384.761 433.798 386.097 409.386 386.935C397.558 386.963 389.259 386.948 389.259 386.948C389.259 386.948 389.106 381.069 388.751 372.637C395.562 372.237 404.65 371.589 405.313 370.942Z" fill="#F28705"/>
<path d="M418.508 260.479C425.519 259.634 436.788 253.559 441.227 255.648C445.666 257.737 446.711 263.09 447.625 264.004C448.539 264.918 452.456 260.348 452.456 249.119C452.456 237.89 452.801 226.392 444.533 224.829C436.265 223.266 414.852 231.362 410.543 234.626C406.234 237.89 404.406 241.196 403.231 244.375C402.056 247.553 398.922 260.349 400.358 260.48C401.794 260.61 405.842 252.254 408.845 251.993C411.849 251.73 416.609 260.708 418.508 260.479Z" fill="#F28705"/>
<path d="M414.519 250.425C412.731 246.182 410.773 242.46 410.838 239.522C410.903 236.584 411.556 234.56 414.82 233.646C418.084 232.732 419.455 234.495 419.651 238.934C419.848 243.374 414.519 250.425 414.519 250.425Z" fill="#F28705"/>
<path d="M440.115 242.514C446.94 236.323 447.713 229.403 447.072 227.967C446.431 226.531 443.612 225.486 443.612 225.486C443.612 225.486 442.502 229.991 443.155 231.101C443.808 232.21 440.115 242.514 440.115 242.514Z" fill="#F28705"/>
<path d="M429.251 257.48C430.914 256.733 432.649 256.15 434.419 255.67C436.197 255.237 438.024 254.893 439.921 255.016C440.857 255.087 441.863 255.29 442.7 255.953C443.438 256.65 444.001 257.28 444.628 257.996C445.872 259.408 446.728 261.122 447.516 262.734C447.691 263.105 447.965 263.542 448.086 263.581C448.1 263.586 448.094 263.609 448.235 263.521C448.353 263.438 448.49 263.296 448.616 263.14C449.124 262.489 449.541 261.676 449.949 260.884C450.77 259.321 451.212 257.589 451.561 255.825C451.902 254.06 452.097 252.258 452.224 250.451C452.38 248.644 452.431 246.828 452.456 245.007C452.815 248.633 452.821 252.305 452.319 255.952C452.075 257.77 451.619 259.608 450.798 261.302C450.392 262.133 449.981 262.954 449.381 263.748C449.222 263.945 449.051 264.143 448.799 264.326C448.678 264.417 448.512 264.503 448.314 264.551C448.108 264.6 447.859 264.567 447.673 264.479C447.299 264.291 447.141 264.041 446.99 263.828C446.845 263.608 446.732 263.395 446.624 263.185C445.834 261.531 445.051 259.951 443.902 258.602C443.352 257.933 442.708 257.196 442.141 256.628C441.549 256.135 440.702 255.89 439.846 255.782C438.109 255.576 436.292 255.818 434.527 256.149C432.744 256.461 430.992 256.945 429.251 257.48Z" fill="#F28705"/>
<path d="M413.175 255.138C412.419 254.468 411.666 253.799 410.845 253.244C410.44 252.965 410.025 252.699 409.597 252.516C409.382 252.434 409.173 252.37 408.978 252.344C408.892 252.353 408.8 252.345 408.732 252.367C408.669 252.41 408.63 252.393 408.507 252.484C406.824 253.522 405.513 254.948 404.4 256.581C403.835 257.369 403.34 258.27 402.672 259.088C402.339 259.493 401.984 259.885 401.534 260.234C401.299 260.398 401.061 260.587 400.639 260.637C400.437 260.67 400.156 260.584 399.985 260.432C399.814 260.277 399.727 260.099 399.679 259.947C399.495 259.329 399.554 258.814 399.602 258.291C399.667 257.775 399.758 257.271 399.874 256.775C400.124 255.787 400.4 254.815 400.755 253.866C400.62 254.869 400.44 255.859 400.357 256.856C400.301 257.351 400.263 257.847 400.256 258.334C400.254 258.808 400.263 259.328 400.407 259.667C400.437 259.753 400.486 259.798 400.503 259.81C400.527 259.808 400.503 259.818 400.552 259.803C400.636 259.795 400.834 259.682 400.992 259.545C401.326 259.261 401.639 258.891 401.925 258.505C402.513 257.746 402.986 256.871 403.577 256.012C404.171 255.174 404.821 254.361 405.576 253.637C406.33 252.916 407.203 252.296 408.104 251.819C408.187 251.761 408.397 251.685 408.569 251.637C408.741 251.603 408.91 251.622 409.071 251.632C409.375 251.693 409.638 251.802 409.881 251.93C410.354 252.199 410.76 252.523 411.147 252.863C411.894 253.569 412.583 254.314 413.175 255.138Z" fill="#F28705"/>
<path d="M413.561 224.919C413.577 227.678 413.686 230.429 413.973 233.174C414.677 239.907 413.987 248.786 414.519 250.425C415.113 252.253 418.638 258.782 418.638 258.782C418.638 258.782 424.905 255.909 427.517 252.776C430.129 249.643 433.523 249.484 438.093 244.863C442.663 240.242 445.77 232.902 444.752 226.793C444.622 226.01 443.819 218.189 443.642 210.093C443.465 201.998 434.959 195.847 426.864 195.847C418.769 195.847 413.923 207.859 413.669 215.955C413.565 219.276 413.547 222.395 413.561 224.919Z" fill="#F6A397"/>
<path d="M443.643 210.092C443.82 218.187 444.622 226.008 444.753 226.792C445.068 228.681 444.986 230.687 444.591 232.694C442.8 233.025 419.744 233.581 413.771 230.8C413.635 228.844 413.572 226.884 413.561 224.92C413.547 222.396 413.565 219.277 413.67 215.955C413.778 212.523 414.713 208.39 416.369 204.764L435.335 198.042C439.989 200.525 443.529 204.904 443.643 210.092Z" fill="#D65863"/>
<path d="M399.359 176.383C387.109 176.383 382.525 185.792 382.525 192.845C382.525 199.174 384.554 209.307 399.359 209.307C406.762 209.307 411.773 201.937 411.773 192.845C411.773 183.754 406.762 176.383 399.359 176.383Z" fill="#504984"/>
<path d="M398.818 180.415C389.568 180.415 386.106 187.52 386.106 192.845C386.106 197.624 387.638 205.276 398.818 205.276C404.408 205.276 408.192 199.711 408.192 192.845C408.192 185.98 404.408 180.415 398.818 180.415Z" fill="#372D5B"/>
<path d="M383.904 181.94C384.628 186.232 386.752 187.873 387.701 193.659C388.65 199.445 386.119 207.854 389.893 215.177C393.668 222.5 399.771 232.129 403.297 232.536C406.823 232.943 435.064 228.173 444.592 209.224C447.327 203.785 453.173 182.456 448.17 169.433C443.168 156.41 435.031 144.476 416.225 144.114C397.42 143.752 380.069 159.192 383.904 181.94Z" fill="#F6A397"/>
<path d="M399.632 205.401C400.637 205.424 401.74 205.041 402.235 204.382C402.669 203.805 402.85 203.045 402.722 202.335C401.252 203.547 399.45 203.755 397.64 203.439C397.416 204.79 398.457 205.374 399.632 205.401Z" fill="#D65863"/>
<path d="M432.9 181.94C432.184 177.475 429.2 174.899 429.2 174.899C429.2 174.899 422.012 171.915 416.452 171.373C410.892 170.83 405.196 169.203 405.196 169.203C405.196 169.203 406.959 173.668 409.943 175.571C409.943 175.571 396.653 174.898 392.448 170.966C392.448 170.966 393.262 174.207 394.075 176.384C394.075 176.384 387.565 175.713 385.531 173.136C385.531 173.136 383.904 178.81 383.904 181.94C383.904 181.94 376.083 171.237 378.073 162.738C380.062 154.239 382.774 150.985 382.774 150.985C382.774 150.985 377.169 151.527 374.095 150.985C374.095 150.985 381.328 144.656 386.753 140.497C392.178 136.338 408.452 136.157 408.452 136.157C408.452 136.157 407.186 131.817 408.633 124.946C408.633 124.946 415.595 135.162 422.963 138.282C430.331 141.402 429.339 141.137 437.152 143.108C444.965 145.08 452.392 150.081 455.511 154.285C458.63 158.489 462.021 162.829 464.055 163.507C464.055 163.507 459.173 162.829 456.732 160.795C456.732 160.795 460.803 170.04 455.422 181.94C450.042 193.84 436.562 190.319 433.948 187.692C431.333 185.065 432.9 181.94 432.9 181.94Z" fill="#BA6454"/>
<path d="M433.946 187.692C431.332 185.065 432.899 181.94 432.899 181.94C432.466 179.239 431.205 177.235 430.274 176.068C432.23 164.208 431.432 151.9 427.959 140.393C429.989 141.218 431.194 141.588 434.133 142.343C437.741 147.77 440.439 153.876 442.297 160.061C444.663 167.937 445.808 176.446 443.601 184.368C443.035 186.399 442.21 188.38 441.167 190.235C437.823 189.955 435.001 188.751 433.946 187.692Z" fill="#874438"/>
<path d="M437.628 177.52C437.628 177.52 438.558 147.775 422.962 138.282C422.962 138.282 435.032 136.926 441.948 148.996C448.864 161.066 448.396 171.418 448.222 177.22C448.048 183.021 437.628 177.52 437.628 177.52Z" fill="#504984"/>
<path d="M442.383 176.383C454.633 176.383 459.217 185.792 459.217 192.845C459.217 199.174 457.188 209.307 442.383 209.307C434.98 209.307 429.969 201.937 429.969 192.845C429.968 183.754 434.98 176.383 442.383 176.383Z" fill="#504984"/>
<path d="M435.779 192.845C435.779 184.774 441.107 178.231 447.679 178.231C454.251 178.231 459.217 184.774 459.217 192.845C459.217 200.916 454.251 207.459 447.679 207.459C441.106 207.459 435.779 200.916 435.779 192.845Z" fill="#372D5B"/>
<path d="M449.249 202.79C453.722 202.79 457.347 198.337 457.347 192.845C457.347 187.352 453.722 182.9 449.249 182.9C444.777 182.9 441.151 187.352 441.151 192.845C441.151 198.337 444.777 202.79 449.249 202.79Z" fill="#504984"/>
<path d="M411.333 209.307C408.023 211.13 397.21 211.737 396.474 211.636C395.738 211.535 397.249 219.745 399.897 220.049C402.545 220.353 407.841 219.644 410.048 217.518C412.255 215.39 411.333 209.307 411.333 209.307Z" fill="#D65863"/>
<path d="M409.874 189.681C409.874 188.183 410.613 186.969 411.524 186.969C412.435 186.969 413.174 188.183 413.174 189.681C413.174 191.179 412.435 192.393 411.524 192.393C410.613 192.393 409.874 191.179 409.874 189.681Z" fill="#3F1751"/>
<path d="M390.994 190.946C390.994 189.448 391.629 188.234 392.413 188.234C393.196 188.234 393.831 189.448 393.831 190.946C393.831 192.444 393.196 193.658 392.413 193.658C391.629 193.659 390.994 192.444 390.994 190.946Z" fill="#3F1751"/>
<path d="M419.112 179.107C417.985 178.487 416.771 178.058 415.525 177.7C414.274 177.364 412.977 177.166 411.659 177.12C410.35 177.054 408.965 177.018 407.697 177.507C406.426 177.945 405.273 178.744 404.424 179.797L404.52 179.958C405.882 179.811 407.007 179.477 408.195 179.32C409.356 179.146 410.483 178.721 411.697 178.623C414.098 178.419 416.614 178.609 419.035 179.278L419.112 179.107Z" fill="#3F1751"/>
<path d="M386.222 182.612C386.81 182.384 387.429 182.241 388.046 182.169C388.66 182.086 389.275 182.056 389.883 182.049C390.497 182.041 391.105 182.26 391.703 182.113C392.005 182.045 392.312 181.987 392.627 181.856C392.943 181.748 393.266 181.608 393.613 181.365L393.633 181.178C393.043 180.602 392.375 180.356 391.697 180.233C391.012 180.104 390.334 180.379 389.676 180.559C389.014 180.732 388.366 180.963 387.757 181.274C387.158 181.606 386.572 181.953 386.106 182.463L386.222 182.612Z" fill="#3F1751"/>
<path d="M405.313 377.377C405.321 377.797 404.733 378.405 403.297 378.405C401.861 378.405 363.234 378.405 358.011 378.405C352.788 378.405 351.57 376.339 353.136 373.728C354.703 371.117 361.318 365.371 377.683 361.367C394.048 357.363 402.653 366.725 405.313 370.942C407.264 374.034 405.313 377.377 405.313 377.377Z" fill="#504984"/>
<path d="M352.75 374.511C353.651 377.507 388.206 375.944 388.206 375.944C388.206 375.944 384.703 371.211 380.829 371.076C376.955 370.941 375.071 372.287 369.877 373.181C364.682 374.075 368.534 371.067 368.534 371.067C368.534 371.067 364.864 370.254 363.37 369.096C363.37 369.096 371.929 366.567 375.52 365.979C379.111 365.391 388.251 365.783 389.426 365.979C390.257 366.118 394.474 363.668 399.572 364.898C402.417 366.976 404.3 369.332 405.314 370.941C407.265 374.033 405.314 377.376 405.314 377.376C405.322 377.796 404.734 378.404 403.298 378.404C401.862 378.404 363.235 378.404 358.012 378.404C353.324 378.404 351.869 376.739 352.75 374.511Z" fill="#372D5B"/>
<path d="M500.55 349.063C500.55 349.063 468.345 354.043 450.889 357.167C434.353 360.126 420.074 361.41 416.027 360.627C411.979 359.844 398.139 354.751 393.699 352.923C389.259 351.095 380.381 350.051 375.811 351.487C371.241 352.923 367.498 354.49 365.67 354.49C363.842 354.49 364.19 357.45 366.627 358.059C369.064 358.668 371.241 358.581 371.241 358.581C371.241 358.581 362.972 363.107 361.492 363.543C360.012 363.979 361.765 366.677 363.768 366.503C363.768 366.503 362.015 367.548 362.624 368.592C363.233 369.637 367.586 369.637 367.586 369.637C367.586 369.637 362.276 372.248 366.715 373.293C371.154 374.337 376.464 369.376 378.641 368.941C380.817 368.506 385.866 368.767 388.303 370.595C390.74 372.423 401.186 380.867 415.462 375.818C415.462 375.818 512.358 379.744 522.02 379.744C531.682 379.744 537.518 371.204 534.42 354.752C531.322 338.3 525.316 326.026 525.316 326.026L491.89 328.376L500.55 349.063Z" fill="#F6A397"/>
<path d="M378.87 355.966C379.723 355.765 380.403 355.648 380.829 355.622C380.829 355.622 380.002 355.764 378.87 355.966Z" fill="#D65863"/>
<path d="M371.241 358.581C371.241 358.581 369.065 358.668 366.627 358.059C365.942 357.888 365.428 357.528 365.075 357.103C367.786 358.301 371.122 357.536 372.949 357.101C374.102 356.826 376.934 356.31 378.869 355.965C376.932 356.421 374.091 357.312 371.241 358.581Z" fill="#D65863"/>
<path d="M371.667 362.498C371.876 362.403 372.053 362.328 372.167 362.293C372.167 362.293 371.98 362.371 371.667 362.498Z" fill="#D65863"/>
<path d="M361.509 365.482C361.54 365.51 362.496 366.352 364.508 365.477C366.184 364.748 370.251 363.079 371.668 362.499C369.886 363.308 365.054 366.035 363.768 366.503C362.878 366.58 362.039 366.089 361.509 365.482Z" fill="#D65863"/>
<path d="M366.51 368.678C367.99 368.243 371.08 366.371 372.973 365.476C374.866 364.581 377.282 364.477 377.282 364.477C377.282 364.477 376.564 364.542 374.67 365.476C372.777 366.409 367.585 369.635 367.585 369.635C367.585 369.635 364.792 369.634 363.369 369.096C363.384 369.097 365.036 369.112 366.51 368.678Z" fill="#D65863"/>
<path d="M394.06 370.811C396.802 372.509 404.897 374.728 409.728 373.814C414.559 372.9 415.604 368.852 415.604 368.852L416.953 373.204C416.953 373.204 484.153 375.119 497.82 374.505C511.33 373.898 532.401 373.591 535.153 365.476C534.398 374.894 529.296 379.742 522.02 379.742C512.358 379.742 415.462 375.816 415.462 375.816C401.186 380.865 390.741 372.421 388.303 370.593C386.277 369.073 382.451 368.639 379.966 368.785C383.673 367.486 391.318 369.114 394.06 370.811Z" fill="#D65863"/>
<path d="M500.55 349.063C500.55 349.063 513.14 347.352 515.665 347.091L513.75 339.257L497.82 342.478L500.55 349.063Z" fill="#D65863"/>
<path d="M534.198 327.133C534.672 328.359 534.371 329.738 533.431 330.657C527.579 336.371 519.898 344.153 511.997 345.35C503.379 346.656 489.016 347.178 488.233 345.35C487.45 343.522 484.577 320.28 479.354 308.529C474.131 296.778 470.736 290.771 469.431 283.982C468.125 277.192 479.877 261.263 485.099 259.957C490.322 258.651 502.334 257.868 507.296 262.307C512.258 266.746 515.914 283.721 521.659 296.517C526.295 306.841 532.121 321.758 534.198 327.133Z" fill="#F28705"/>
<path d="M501.875 259.729C500.276 259.545 498.677 259.412 497.076 259.376C495.477 259.311 493.878 259.317 492.288 259.411C490.698 259.508 489.115 259.666 487.556 259.947C486.773 260.072 486.005 260.254 485.234 260.426C484.517 260.687 483.779 260.878 483.118 261.29C482.416 261.605 481.806 262.101 481.161 262.531C480.575 263.048 479.948 263.518 479.412 264.098C478.264 265.177 477.297 266.443 476.317 267.692C475.362 268.965 474.493 270.307 473.668 271.678C472.819 273.037 472.063 274.452 471.329 275.885C472.408 272.846 473.901 269.958 475.689 267.248C476.599 265.903 477.587 264.599 478.741 263.43C479.283 262.814 479.948 262.311 480.56 261.761C481.245 261.291 481.887 260.76 482.655 260.404C483.374 259.969 484.204 259.749 485.001 259.477C485.801 259.309 486.596 259.117 487.405 259.013C489.018 258.782 490.642 258.629 492.265 258.644C495.505 258.639 498.745 258.953 501.875 259.729Z" fill="#F28705"/>
<path d="M527.678 331.944C527.635 327.772 518.824 289.519 511.041 268.199C514.35 275.484 517.442 287.123 521.659 296.516C526.295 306.841 532.121 321.758 534.198 327.133C534.672 328.359 534.372 329.738 533.431 330.657C531.19 332.846 528.678 335.336 525.99 337.645C526.193 337.448 527.718 335.84 527.678 331.944Z" fill="#F28705"/>
<path d="M107.624 288.85C107.465 290.137 107.734 291.434 108.359 292.571C110.638 296.716 111.793 301.477 111.644 306.206C111.546 309.322 110.906 312.509 111.754 315.509C113.217 320.684 118.679 323.884 120.437 328.967C121.995 333.473 120.546 339.14 123.785 342.639C124.588 343.506 125.834 344.17 126.931 343.731C127.482 343.51 127.895 343.05 128.287 342.605C132 338.388 135.975 333.263 134.83 327.763C133.754 322.596 128.429 319.104 127.419 313.923C126.594 309.69 128.758 304.806 126.333 301.24C125.664 300.256 124.706 299.503 123.975 298.565C121.091 294.861 122.159 288.958 118.836 285.643C117.752 284.562 116.396 283.949 114.918 283.633C111.433 282.886 108.062 285.314 107.624 288.85Z" fill="url(#paint0_linear_306_664)"/>
<path d="M128.74 354.508C128.963 351.751 129.058 348.994 129.161 346.229C129.035 343.473 128.888 340.716 128.652 337.962C128.416 335.208 128.106 332.453 127.619 329.715C127.124 326.994 126.47 324.215 125.325 321.656C123.326 316.6 121.709 311.314 120.076 306.075L117.708 298.177C116.735 295.597 115.785 293.012 114.867 290.408C115.269 293.148 115.896 295.837 116.446 298.546L118.82 306.462C120.463 311.727 122.064 316.981 124.113 322.163C125.221 324.64 125.834 327.262 126.325 329.945C126.802 332.625 127.108 335.346 127.342 338.074C127.571 340.803 127.732 343.542 127.837 346.285L128.74 354.508Z" fill="#FFA6A4"/>
<path d="M114.188 298.64C114.642 299.328 115.228 299.844 115.857 300.3C116.18 300.517 116.559 300.658 116.911 300.836C117.268 301.007 117.58 301.237 117.87 301.499L117.996 301.613L118.108 301.442C118.371 301.04 118.691 300.667 118.942 300.259C119.185 299.847 119.44 299.442 119.656 299.017C120.076 298.161 120.389 297.252 120.548 296.266L120.47 296.227C119.781 296.95 119.246 297.748 118.818 298.601C118.61 299.03 118.441 299.479 118.26 299.921C118.088 300.368 117.984 300.848 117.822 301.301L118.059 301.244C117.724 301.045 117.411 300.815 117.143 300.524C116.87 300.241 116.624 299.921 116.322 299.677C115.701 299.211 115.037 298.805 114.241 298.572L114.188 298.64Z" fill="#FFA6A4"/>
<path d="M114.858 308.063C115.332 308.453 115.82 308.875 116.331 309.227C116.842 309.589 117.361 309.937 117.922 310.218C118.489 310.49 119.091 310.705 119.636 311.014C120.184 311.317 120.684 311.699 121.173 312.096L121.345 312.236L121.519 312.008C122.275 311.018 122.921 309.966 123.531 308.893C124.105 307.8 124.617 306.672 124.984 305.462L124.908 305.419C124.061 306.358 123.359 307.378 122.719 308.434C122.115 309.51 121.547 310.607 121.089 311.765L121.435 311.677C120.863 311.41 120.3 311.13 119.784 310.773C119.265 310.422 118.801 309.98 118.301 309.598C117.795 309.224 117.243 308.923 116.68 308.641C116.109 308.368 115.543 308.102 114.876 307.976L114.858 308.063Z" fill="#FFA6A4"/>
<path d="M118.206 320.5C118.725 321.023 119.304 321.408 119.901 321.756C120.49 322.119 121.137 322.36 121.827 322.523C122.514 322.69 123.137 322.993 123.691 323.417C124.244 323.837 124.785 324.3 125.339 324.662L125.757 324.936L126.068 324.47C126.526 323.784 126.942 323.074 127.265 322.314C127.589 321.554 127.877 320.774 128.037 319.924L127.941 319.871C127.309 320.462 126.804 321.122 126.336 321.803C125.867 322.483 125.49 323.214 125.156 323.969L125.885 323.777C125.253 323.428 124.581 323.228 123.916 322.995C123.252 322.767 122.645 322.438 122.098 321.982C121.554 321.52 120.959 321.156 120.304 320.916C119.656 320.664 118.985 320.46 118.251 320.399L118.206 320.5Z" fill="#FFA6A4"/>
<path d="M133.124 355.047C135.278 354.693 143.355 352.109 142.791 350C140.37 340.948 137.949 330.679 146.333 326.251C150.368 324.121 155.432 323.038 157.729 319.096C160.095 315.036 158.353 309.875 156.23 305.683C154.107 301.491 151.55 297.003 152.46 292.393C153.413 287.565 157.978 284.002 158.709 279.136C159.706 272.491 153.254 267.137 147.055 264.543C144.947 263.661 142.629 262.907 140.407 263.443C138.82 263.826 137.444 264.843 136.356 266.06C132.002 270.928 132.18 278.274 133.173 284.73C134.166 291.186 135.687 298.003 133.256 304.066C131.529 308.372 127.832 312.422 128.822 316.954C129.219 318.769 130.351 320.353 130.782 322.16C131.946 327.033 127.898 331.422 126.043 336.075C123.649 342.079 125.292 349.416 129.83 353.971C130.694 354.837 131.917 355.246 133.124 355.047Z" fill="url(#paint1_linear_306_664)"/>
<path d="M132.362 355.147C132.861 351.564 133.36 347.993 133.999 344.449C134.151 343.562 134.337 342.681 134.479 341.795C134.614 340.908 134.693 340.013 134.84 339.128C135.108 337.354 135.406 335.586 135.744 333.828C136.428 330.317 137.246 326.821 138.446 323.496C139.048 321.841 139.762 320.221 140.705 318.824C141.173 318.128 141.726 317.511 142.338 317.095C143.145 316.565 143.915 315.882 144.517 315.069C145.759 313.423 146.134 311.332 146.089 309.447C146.047 307.537 145.686 305.714 145.282 303.933C144.452 300.378 143.407 296.944 142.826 293.447C142.236 289.968 142.121 286.404 143.04 283.067C143.323 282.252 143.545 281.424 143.813 280.594C144.087 279.768 144.442 278.965 144.843 278.18C145.648 276.608 146.697 275.145 147.859 273.754C146.434 274.872 145.113 276.163 144.01 277.657C143.456 278.4 142.938 279.183 142.497 280.013C142.041 280.835 141.655 281.709 141.455 282.632C140.45 286.285 140.593 290.109 141.205 293.718C141.81 297.346 142.873 300.832 143.68 304.3C144.075 306.032 144.41 307.772 144.445 309.474C144.481 311.169 144.153 312.824 143.195 314.09C142.721 314.726 142.127 315.264 141.428 315.724C140.545 316.326 139.891 317.096 139.351 317.89C138.274 319.488 137.534 321.202 136.901 322.93C135.651 326.396 134.824 329.95 134.129 333.515C133.785 335.299 133.484 337.089 133.213 338.882C133.089 339.78 132.922 340.672 132.813 341.572C132.721 342.474 132.681 343.382 132.624 344.287C132.43 347.91 132.295 351.529 132.362 355.147Z" fill="#FFA6A4"/>
<path d="M146.669 284.493C146.049 284.709 145.529 285.071 145.047 285.456C144.57 285.849 144.114 286.264 143.778 286.79C143.438 287.312 143.135 287.864 142.699 288.291C142.28 288.736 141.774 289.097 141.288 289.487L141.927 289.527C141.712 289.063 141.446 288.629 141.202 288.184C140.951 287.743 140.699 287.304 140.401 286.896C140.122 286.477 139.802 286.081 139.498 285.679C139.192 285.276 138.846 284.904 138.569 284.476L138.461 284.494C138.437 285.058 138.608 285.582 138.78 286.076C138.969 286.567 139.18 287.044 139.435 287.494C139.673 287.954 139.974 288.372 140.28 288.787C140.594 289.196 140.895 289.611 141.256 289.989L141.656 290.409L141.895 290.029C142.222 289.51 142.537 288.971 142.945 288.52C143.336 288.052 143.867 287.716 144.369 287.357C144.874 287.001 145.273 286.547 145.663 286.085C146.051 285.617 146.412 285.134 146.737 284.58L146.669 284.493Z" fill="#FFA6A4"/>
<path d="M138.839 298.199C139.095 298.815 139.43 299.377 139.803 299.905C140.184 300.426 140.581 300.934 141.037 301.386C141.503 301.83 142.037 302.208 142.537 302.617C143.027 303.035 143.459 303.505 143.851 304.018L143.976 304.181L144.152 304.04C144.804 303.521 145.322 303.047 145.836 302.495C146.323 301.939 146.841 301.412 147.294 300.834C147.751 300.259 148.177 299.662 148.582 299.048C148.991 298.437 149.358 297.797 149.784 297.2L149.722 297.109C149.007 297.447 148.45 297.97 147.898 298.469C147.354 298.982 146.85 299.526 146.383 300.097C145.911 300.664 145.51 301.287 145.072 301.877C144.644 302.454 144.283 303.171 143.877 303.678L144.178 303.701C143.682 303.294 143.235 302.836 142.851 302.322C142.476 301.798 142.14 301.241 141.746 300.739C141.342 300.246 140.882 299.805 140.425 299.361C139.959 298.924 139.465 298.514 138.924 298.13L138.839 298.199Z" fill="#FFA6A4"/>
<path d="M153.241 308.779C152.561 309.578 151.856 310.313 151.135 311.015C150.412 311.72 149.635 312.335 148.88 313.012C148.109 313.667 147.236 314.253 146.247 314.541C145.266 314.85 144.225 314.889 143.221 314.878L143.67 315.194C143.493 314.348 143.23 313.551 142.953 312.745C142.681 311.94 142.333 311.158 141.912 310.411C141.496 309.662 141.002 308.948 140.42 308.303C139.828 307.674 139.142 307.084 138.323 306.791L138.268 306.886C138.888 307.448 139.366 308.096 139.781 308.788C140.203 309.474 140.561 310.199 140.912 310.929L141.92 313.154C142.251 313.899 142.543 314.676 142.833 315.43L142.973 315.795L143.282 315.747C144.351 315.58 145.365 315.218 146.356 314.869C147.335 314.487 148.342 314.151 149.305 313.659C150.278 313.183 151.098 312.444 151.785 311.622C152.471 310.798 153.031 309.861 153.337 308.829L153.241 308.779Z" fill="#FFA6A4"/>
<path d="M133.764 316.876C133.434 317.669 133.321 318.533 133.343 319.389C133.379 320.243 133.514 321.105 133.813 321.911C134.128 322.711 134.589 323.446 135.106 324.112L136.613 326.115L136.72 326.258L136.894 326.134C137.709 325.555 138.637 325.115 139.522 324.654C140.405 324.179 141.32 323.775 142.236 323.385C143.151 322.991 144.064 322.591 145.004 322.239C145.936 321.857 146.895 321.552 147.868 321.186L147.852 321.078C145.775 321.033 143.677 321.474 141.767 322.315C140.809 322.733 139.908 323.269 139.036 323.836C138.167 324.416 137.392 325.114 136.633 325.834L136.914 325.853C136.356 325.265 135.847 324.615 135.523 323.867C135.161 323.138 134.983 322.344 134.735 321.601C134.253 320.101 133.947 318.557 133.872 316.904L133.764 316.876Z" fill="#FFA6A4"/>
<path d="M118.48 378.404H141.536C143.676 378.404 145.495 376.554 145.817 374.05L149.467 345.688C149.866 342.585 147.837 339.79 145.186 339.79H114.83C112.178 339.79 110.149 342.585 110.549 345.688L114.199 374.05C114.521 376.554 116.34 378.404 118.48 378.404Z" fill="#504984"/>
<path d="M114.831 339.791H130.35C127.698 339.791 125.669 342.586 126.069 345.689L129.719 374.051C130.041 376.555 131.86 378.405 134 378.405H118.48C116.34 378.405 114.521 376.555 114.199 374.051L110.549 345.689C110.15 342.586 112.179 339.791 114.831 339.791Z" fill="#372D5B"/>
<path d="M325.011 370.616H228.581C227.61 370.616 226.823 371.403 226.823 372.374V376.646C226.823 377.617 227.61 378.404 228.581 378.404H325.011V370.616Z" fill="#282142"/>
<path d="M349.828 375.988V377.725C349.828 378.1 349.524 378.404 349.149 378.404H324.858C324.102 378.404 323.489 377.791 323.489 377.036V371.976C323.489 371.159 324.2 370.524 325.011 370.616L349.224 375.314C349.568 375.352 349.828 375.643 349.828 375.988Z" fill="#504984"/>
<path d="M156.491 206.719H336.717C340.363 206.719 343.618 209.006 344.853 212.437L384.268 321.895C385.916 327.54 381.786 331.77 375.149 332.485C374.132 332.595 369.291 330.419 361.688 326.843H200.565C196.919 326.843 193.664 324.556 192.429 321.125L156.823 222.246C150.803 219.104 147.371 217.308 147.371 217.308C147.371 217.308 145.143 206.719 156.491 206.719Z" fill="#504984"/>
<path d="M331.074 212.361H150.849C148.289 212.361 146.505 214.9 147.372 217.309L186.787 326.767C188.022 330.198 191.277 332.485 194.923 332.485H375.149C377.709 332.485 379.493 329.946 378.626 327.537L339.21 218.079C337.975 214.648 334.721 212.361 331.074 212.361Z" fill="#372D5B"/>
<path d="M290.387 332.485L282.387 302.813L252.066 332.485H290.387Z" fill="#282142"/>
<path d="M246.507 250.802C247.3 255.696 250.466 257.668 254.258 257.668C258.05 257.668 260.903 254.535 260.239 250.802C259.575 247.07 256.28 243.936 252.488 243.936C248.696 243.936 245.9 247.059 246.507 250.802Z" fill="#504984"/>
<path d="M331.207 314.271L328.889 307.835H331.802L334.12 314.271H331.207Z" fill="#282142"/>
<path d="M325.072 314.271L322.755 307.835H325.668L327.986 314.271H325.072Z" fill="#282142"/>
<path d="M318.938 314.271L316.62 307.835H319.533L321.851 314.271H318.938Z" fill="#282142"/>
<path d="M312.803 314.271L310.486 307.835H313.399L315.717 314.271H312.803Z" fill="#282142"/>
<path d="M225.668 314.271L223.351 307.835H226.264L228.581 314.271H225.668Z" fill="#282142"/>
<path d="M219.534 314.271L217.216 307.835H220.129L222.447 314.271H219.534Z" fill="#282142"/>
<path d="M213.399 314.271L211.082 307.835H213.995L216.312 314.271H213.399Z" fill="#282142"/>
<path d="M207.265 314.271L204.947 307.835H207.86L210.178 314.271H207.265Z" fill="#282142"/>
<path d="M229.529 367.826C231.308 362.712 252.874 293.121 252.874 293.121H280.558L282.387 302.813C282.387 302.813 263.825 362.712 262.047 367.826C261.912 368.216 261.782 368.607 261.661 368.998H261.663C260.036 373.998 264.328 373.977 269.161 373.977C273.995 373.977 317.984 373.977 317.984 373.977V378.404H269.161H236.643C226.861 378.404 227.75 372.94 229.529 367.826Z" fill="#372D5B"/>
<path d="M280.558 293.121C280.558 293.121 258.991 362.712 257.213 367.826C255.434 372.94 254.545 378.404 264.328 378.404H231.81C222.027 378.404 222.917 372.94 224.695 367.826C226.474 362.712 248.04 293.121 248.04 293.121H280.558Z" fill="#504984"/>
<path d="M273.778 293.121C271.633 293.022 269.488 292.973 267.343 292.903C265.198 292.829 263.053 292.813 260.909 292.766C258.764 292.732 256.619 292.669 254.474 292.669L248.039 292.629L247.68 292.627L247.568 292.975C246.671 295.778 245.787 298.584 244.944 301.404L242.378 309.851C240.727 315.501 239.074 321.149 237.564 326.843C239.546 321.296 241.383 315.704 243.223 310.113L245.894 301.699C246.797 298.898 247.658 296.084 248.507 293.267L248.037 293.613L254.472 293.573C256.617 293.572 258.762 293.51 260.907 293.476C263.052 293.428 265.197 293.412 267.341 293.339C269.489 293.27 271.633 293.22 273.778 293.121Z" fill="#7F74D1"/>
<path d="M85.1768 395.489H562.521C567.239 395.489 571.063 391.665 571.063 386.947C571.063 382.229 567.238 378.405 562.521 378.405H85.1768C80.4588 378.405 76.6348 382.23 76.6348 386.947C76.6348 391.664 80.4588 395.489 85.1768 395.489Z" fill="#8E5058"/>
<path d="M85.1768 395.489H562.521C567.239 395.489 571.063 391.665 571.063 386.947H76.6348C76.6348 391.664 80.4588 395.489 85.1768 395.489Z" fill="#64364A"/>
<path d="M184.147 124.395C193.191 85.757 169.2 47.1035 130.562 38.06C91.9236 29.0166 53.2701 53.0077 44.2267 91.6458C35.1832 130.284 59.1744 168.937 97.8124 177.981C136.45 187.024 175.104 163.033 184.147 124.395Z" fill="#7337D4"/>
<mask id="mask0_306_664" style="mask-type:luminance" maskUnits="userSpaceOnUse" x="42" y="22" width="145" height="158">
<path d="M186.038 108.028C186.038 147.71 153.869 179.878 114.188 179.878C74.5059 179.878 42.3379 147.709 42.3379 108.028C42.3379 68.346 74.5069 22.226 114.188 22.226C153.87 22.225 186.038 68.346 186.038 108.028Z" fill="white"/>
</mask>
<g mask="url(#mask0_306_664)">
<path d="M215.218 165.367C216.583 172.224 210.236 178.317 208.249 179.46C206.262 180.602 192.925 185.934 184.913 186.125C176.902 186.315 166.329 169.368 170.656 167.464C174.984 165.56 204.462 163.465 207.699 163.465C210.936 163.464 215.218 165.367 215.218 165.367Z" fill="#FFC5C7"/>
<path d="M194.208 161.75C190.712 182.316 182.407 198.311 179.815 198.597C177.224 198.883 152.328 190.313 145.464 187.172C138.601 184.03 147.572 135.763 151.843 136.613C156.114 137.463 165.479 146.736 173.212 151.182C180.946 155.628 194.208 161.75 194.208 161.75Z" fill="white"/>
<path d="M153.202 170.299C155.602 174.415 175.386 184.847 186.282 188.65C183.589 194.723 181.052 198.46 179.816 198.596C177.597 198.841 159.028 192.594 149.428 188.82C150.232 181.179 153.202 170.299 153.202 170.299Z" fill="#DCEDFF"/>
<path d="M215.247 164.416C215.443 172.575 208.094 173.747 199.296 171.652C190.499 169.557 176.135 149.753 169.74 140.804C163.346 131.854 151.415 115.906 148.948 114.478C146.481 113.05 140.823 112.292 135.982 104.245C131.141 96.1979 137.509 79.3449 139.797 77.3459C142.085 75.3459 161.689 82.0219 163.966 85.3969C166.243 88.7709 162.353 106.909 163.043 109.194C163.734 111.479 180.418 130.14 187.703 134.71C194.987 139.28 215.105 158.513 215.247 164.416Z" fill="#FFC5C7"/>
<path d="M149.837 90.8089C147.531 89.6659 146.974 84.4769 148.424 85.3919C149.875 86.3059 152.412 86.2869 155.844 86.2389C159.277 86.1909 160.684 85.8949 160.684 85.8949C160.684 85.8949 161.036 88.1429 161.018 89.9849C161.018 89.9849 152.143 91.9519 149.837 90.8089Z" fill="#FE8A8B"/>
<path d="M134.571 91.9889C135.969 89.3899 137.048 87.4189 137.048 87.4189L150.534 100.4C154.222 97.2019 158.733 94.2839 158.733 94.2839L159.92 96.3999C157.738 100.092 155.837 107.899 155.794 109.803C155.794 109.803 153.723 112.088 152.567 112.279C152.567 112.279 166.995 135.13 176.27 146.365C185.49 157.534 191.805 167.194 196.152 170.299C187.382 165.243 175.42 148.754 169.739 140.803C163.345 131.853 151.414 115.905 148.947 114.477C146.48 113.049 140.822 112.291 135.981 104.244C134.061 101.052 133.918 96.4759 134.571 91.9889Z" fill="#FE8A8B"/>
<path d="M162.641 93.2929C162.478 94.6239 149.076 106.242 147.673 107.575C147.568 107.675 146.521 107.828 146.232 107.575C142.668 104.443 127.105 76.1829 126.827 75.1629C126.568 74.2119 136.899 64.4899 140.054 61.8899C140.484 61.5359 142.254 61.7499 142.545 62.1799C145.729 66.8939 162.853 91.5719 162.641 93.2929Z" fill="#0C0835"/>
<path d="M161.201 93.2929C161.038 94.6239 147.636 106.242 146.233 107.575C144.831 108.908 125.688 76.2649 125.388 75.1629C125.128 74.2119 136.631 64.6479 139.786 62.0469C140.215 61.6929 140.815 61.7489 141.105 62.1789C144.289 66.8939 161.412 91.5719 161.201 93.2929Z" fill="#252384"/>
<path d="M158.945 91.3829C158.792 92.6279 146.255 103.497 144.943 104.744C143.631 105.991 125.723 75.4529 125.442 74.4219C125.199 73.5319 135.96 64.585 138.911 62.152C139.313 61.821 139.874 61.873 140.146 62.276C143.123 66.686 159.143 89.7729 158.945 91.3829Z" fill="#57AFF7"/>
<path d="M150.906 75.4539C148.831 74.2029 146.283 69.9659 146.054 68.5379C145.825 67.1099 145.966 65.8239 147.081 65.5389C148.197 65.2529 151.632 69.7279 153.344 71.0609C155.056 72.3939 157.14 75.1549 156.291 77.0119C155.442 78.8689 151.638 78.1539 151.23 77.8689C150.823 77.5829 150.906 75.4539 150.906 75.4539Z" fill="#FFC5C7"/>
<path d="M146.44 65.9139C145.782 67.5369 150.069 74.0539 153.828 75.9289L152.43 77.5269C152.43 77.5269 151.796 77.3869 150.981 77.1939C150.87 76.4709 150.906 75.4539 150.906 75.4539C148.831 74.2029 146.283 69.9659 146.054 68.5379C145.881 67.4549 145.925 66.4599 146.44 65.9139Z" fill="#FE8A8B"/>
<path d="M155.733 82.037C152.162 80.129 149.362 80.343 147.419 79.558C145.477 78.773 145.124 75.773 146.445 75.273C147.767 74.773 155.814 76.059 157.889 76.987C159.963 77.915 160.955 82.192 160.955 82.192L155.733 82.037Z" fill="#FFC5C7"/>
<path d="M154.169 79.8119C156.188 80.1929 156.883 79.8119 156.883 79.8119C156.826 80.6009 157.57 80.9939 158.409 82.1159L155.733 82.0369C152.162 80.1289 149.362 80.3429 147.42 79.5579C146.534 79.1999 145.996 78.3799 145.78 77.5479C146.644 79.1929 152.159 79.4329 154.169 79.8119Z" fill="#FE8A8B"/>
<path d="M163.964 85.3959C162.058 88.0329 152.716 86.8899 150.832 86.6039C148.949 86.3179 147.767 85.1289 147.96 83.9289C148.348 81.5099 160.694 81.9379 161.714 82.3189C162.734 82.7009 163.964 85.3959 163.964 85.3959Z" fill="#FFC5C7"/>
<path d="M148.028 84.5119C149.304 85.7809 152.373 86.5039 155.722 86.7739C158.621 87.0079 160.289 86.8959 160.674 86.8619C157.153 87.4229 152.156 86.8039 150.833 86.6039C149.261 86.3659 148.23 85.4909 148.028 84.5119Z" fill="#FE8A8B"/>
<path d="M120.241 122.332C140.072 132.424 143.326 132.034 151.844 136.612C160.362 141.19 157.827 189.361 157.287 196.788C156.747 204.214 154.694 233.73 155.826 241.728C156.958 249.726 161.366 279.432 163.318 284.002C165.27 288.572 168.994 296.284 163.234 300.854C157.474 305.424 145.288 308.566 118.829 306.852C92.3697 305.138 63.8487 288.857 62.5867 286.572C61.3247 284.287 75.2347 242.299 75.8167 234.301C76.3987 226.303 77.9777 220.305 78.8197 216.592C79.6617 212.879 71.2446 195.455 69.8996 184.315C68.5546 173.175 56.4517 142.445 58.7467 136.816C61.0417 131.187 82.1217 124.915 96.4757 117.757C110.83 110.598 120.241 122.332 120.241 122.332Z" fill="white"/>
<path d="M139.902 134.823C136.637 145.553 129.99 155.228 121.144 162.124C110.404 159.489 99.4845 154.757 90.6895 148.054C100.517 155.293 111.236 161.382 122.712 165.54C132.405 157.601 138.157 147.229 139.902 134.823Z" fill="#DCEDFF"/>
<path d="M135.854 129.715C132.045 128.09 127.151 125.848 120.241 122.332C120.241 122.332 110.83 110.598 96.4749 117.756C91.4939 120.24 85.7049 122.617 80.1709 124.897C88.7219 139.445 102.577 150.825 118.569 156.237C127.003 149.596 133.067 140.08 135.854 129.715Z" fill="#FFC5C7"/>
<path d="M62.5868 286.572C61.3248 284.287 75.2348 242.299 75.8168 234.301C76.3988 226.304 77.9778 220.305 78.8198 216.592C79.6618 212.879 71.2448 195.455 69.8998 184.315C69.6658 182.379 69.1028 179.844 68.3518 176.959L77.2938 170.299C82.5378 184.926 85.8088 210.633 90.7788 216.917C95.7488 223.201 108.13 225.772 108.13 225.772C108.13 225.772 95.9008 228.628 90.5688 227.486C90.5688 227.486 84.8758 250.051 84.8108 261.191C84.7468 272.331 85.7808 289.183 85.9118 291.468C85.9608 292.321 85.7728 295.295 85.5178 298.686C72.7028 293.613 63.2998 287.862 62.5868 286.572Z" fill="#DCEDFF"/>
<path d="M98.7277 97.4639C98.5237 109.383 97.7367 117.571 95.0947 119.857C95.0947 119.857 99.6367 139.636 117.772 137.947C123.907 137.376 123.322 127.093 120.241 122.332L122.067 107.712L98.7277 97.4639Z" fill="#FFC5C7"/>
<path d="M96.4756 117.757C98.0276 114.101 98.5646 106.977 98.7276 97.4639L122.067 107.713L120.896 117.088C116.759 118.944 96.4756 117.757 96.4756 117.757Z" fill="#FE8A8B"/>
<path d="M72.5429 185.54C78.0038 174.804 80.1899 157.37 75.2609 148.194C70.3319 139.018 61.0289 135.715 58.7469 136.816C56.4639 137.917 50.2839 152.232 44.4809 158.838C38.6779 165.445 22.8308 183.98 22.3508 185.54C21.8708 187.1 33.8049 199.691 56.2509 208.939C58.9229 210.04 72.5429 185.54 72.5429 185.54Z" fill="white"/>
<path d="M55.894 193.864L52.313 201.207C52.313 201.207 69.953 183.523 77.277 170.327C76.389 175.832 74.738 181.227 72.544 185.54C72.544 185.54 58.924 210.04 56.251 208.939C52.41 207.357 48.902 205.674 45.686 203.968L55.894 193.864Z" fill="#DCEDFF"/>
<path d="M123.416 98.5329C122.203 93.6189 122.229 88.5939 121.936 83.5689C121.717 79.8119 121.526 76.3729 118.116 74.1259C115.624 72.4839 112.499 72.1609 109.567 72.5329C101.687 73.5329 99.992 81.2119 100.595 88.4819C101.057 94.0469 103.231 99.3909 105.389 104.51C102.491 104.382 98.534 102.863 96.804 100.451C97.581 103.625 99.053 106.541 101.355 108.786C92.956 108.641 85.162 103.146 80.713 95.7659C76.265 88.3859 74.855 79.3759 75.329 70.6889C75.891 60.3809 79.105 50.0489 85.481 42.1119C98.305 26.1489 123.011 24.2879 138.056 38.0059C143.228 42.7219 146.98 49.0429 148.856 55.8989C151.323 64.9109 151.272 74.5809 149.35 83.6969C148.554 87.4719 148.19 90.7389 147.815 94.5189C147.699 95.6909 146.278 109.297 147.1 109.248C141.795 109.57 135.701 108.499 132.107 104.444C133.718 107.229 135.109 109.912 136.719 112.697C130.02 111.582 125.097 105.34 123.416 98.5329Z" fill="#372D5B"/>
<path d="M95.887 79.99C93.517 78.589 90.668 77.829 88.47 80.058C85.232 83.343 89.832 98.624 96.815 94.911C96.815 94.911 106.926 109.05 114.347 113.049C121.768 117.048 127.055 115.049 129.834 112.192C132.613 109.336 142.09 97.619 143.795 85.2C144.403 80.773 143.751 72.061 143.886 70.204C144.302 64.492 146.466 59.802 141.96 55.318C137.408 50.789 131.103 48.049 124.685 47.822C116.602 47.537 108.522 51.169 103.169 57.233C97.256 63.934 96.231 71.499 95.887 79.99Z" fill="#FFC5C7"/>
<path d="M89.6182 84.2349C90.2222 81.4349 92.6102 80.8839 94.3862 82.8349C96.2072 84.8349 96.5132 91.1679 96.0452 92.1009C95.5772 93.0339 92.4492 92.9679 91.8562 91.0349C91.2632 89.1019 93.0852 87.8899 94.8432 88.4629C94.8432 88.4629 95.3342 85.6409 93.8972 83.8239C92.4602 82.0069 90.9622 82.7019 90.5952 83.1689C90.2282 83.6349 89.6182 84.2349 89.6182 84.2349Z" fill="#FE8A8B"/>
<path d="M108.946 71.8499C109.622 71.2199 110.339 70.6359 111.091 70.0809C111.848 69.5349 112.656 69.0449 113.514 68.6439C114.365 68.2439 115.256 67.8119 116.199 67.7399C117.133 67.6569 118.072 67.7329 118.926 68.0999L118.914 68.2279C118.457 68.4109 118.022 68.5279 117.594 68.6519L116.335 69.0009C115.516 69.2419 114.667 69.3149 113.837 69.5909C113.012 69.8659 112.198 70.2169 111.396 70.6209C110.588 71.0149 109.807 71.4829 109.018 71.9499L108.946 71.8499Z" fill="#3F1751"/>
<path d="M140.536 68.644C139.771 68.239 138.961 67.943 138.119 67.766C137.282 67.578 136.425 67.483 135.565 67.462C134.7 67.444 133.841 67.621 132.987 67.614C132.126 67.617 131.261 67.6429 130.316 67.5479L130.289 67.425C131.098 66.838 132.019 66.5209 132.949 66.3399C133.886 66.1509 134.824 66.306 135.728 66.441C136.638 66.574 137.523 66.808 138.354 67.154C139.178 67.51 139.962 67.952 140.615 68.537L140.536 68.644Z" fill="#3F1751"/>
<path d="M117.427 76.871C117.395 75.663 116.787 74.741 116.068 74.811C115.349 74.882 114.792 75.918 114.824 77.127C114.856 78.335 115.464 79.257 116.183 79.187C116.902 79.116 117.458 78.079 117.427 76.871Z" fill="#3F1751"/>
<path d="M136.505 75.3459C136.473 74.1379 135.971 73.2049 135.384 73.2629C134.796 73.3199 134.346 74.3469 134.377 75.5549C134.409 76.7629 134.911 77.6959 135.498 77.6379C136.086 77.5799 136.536 76.5539 136.505 75.3459Z" fill="#3F1751"/>
<path d="M123.401 88.614C125.055 89.764 127.493 89.739 129.293 88.554C129.088 89.485 128.672 90.392 127.766 90.723C126.861 91.054 125.86 90.957 125.028 90.575C124.196 90.192 123.927 89.355 123.401 88.614Z" fill="#FE8A8B"/>
<path d="M116.781 95.702C120.766 95.766 130.344 95.031 133.467 94.587C132.236 98.623 129.006 102.61 124.497 102.612C120.436 102.615 117.754 99.278 116.781 95.702Z" fill="#C31F2A"/>
<path d="M120.436 101.294C122.021 100.805 123.633 101.056 124.281 101.257C124.281 101.257 126.388 99.782 129.45 100.752C128.057 101.876 126.399 102.612 124.496 102.613C122.929 102.613 121.574 102.11 120.436 101.294Z" fill="#FB8384"/>
<path d="M130.764 97.963C126.731 99.22 122.329 98.858 118.53 97.489C118.505 96.893 118.459 96.292 118.413 95.692C122.351 95.608 128.725 95.131 132.138 94.751C131.844 95.867 131.401 96.958 130.764 97.963Z" fill="white"/>
<path d="M99.8721 66.8439C106.37 66.5669 112.817 65.1359 118.822 62.6369C119.965 59.9939 120.004 57.6479 120.175 54.7739C121.808 57.7699 122.779 61.1229 122.946 64.5309C126.73 64.2859 130.533 64.0819 134.317 63.8369C135.377 60.8379 135.505 57.7499 135.337 54.5739C136.616 57.5579 137.258 61.3139 137.695 64.5309C139.979 63.7179 142.874 64.9029 145.26 65.3309C148.217 58.7429 148.024 46.8079 141.768 41.8119C135.675 36.9459 125.092 35.6209 117.647 36.6989C101.807 38.9919 89.3591 52.1439 90.3421 68.5279C90.9031 77.8749 95.5921 86.7139 102.316 93.2309C98.3181 85.2549 97.5241 75.4509 99.8721 66.8439Z" fill="#372D5B"/>
</g>
<path d="M297.754 123.32C303.557 100.987 290.158 78.1779 267.825 72.3743C245.491 66.5706 222.682 79.9704 216.879 102.303C211.075 124.636 224.475 147.446 246.808 153.249C269.141 159.053 291.95 145.653 297.754 123.32Z" fill="url(#paint2_linear_306_664)"/>
<path d="M236.723 129.159H277.949C279.841 129.159 281.375 127.625 281.375 125.733V99.873C281.375 97.981 279.841 96.447 277.949 96.447H236.723C234.831 96.447 233.297 97.981 233.297 99.873V125.734C233.297 127.625 234.831 129.159 236.723 129.159Z" fill="#DBE9FF"/>
<path d="M236.723 129.159H277.949C279.841 129.159 281.375 127.625 281.375 125.733L257.336 110.616L233.297 125.733C233.297 127.625 234.831 129.159 236.723 129.159Z" fill="#CDDCF4"/>
<path d="M236.723 96.446H277.949C279.841 96.446 281.375 97.98 281.375 99.872L257.336 114.989L233.297 99.872C233.297 97.98 234.831 96.446 236.723 96.446Z" fill="#7337D4"/>
<path d="M562.993 213.64C585.473 208.432 599.475 185.986 594.267 163.505C589.059 141.024 566.612 127.022 544.132 132.23C521.651 137.439 507.649 159.885 512.857 182.366C518.065 204.846 540.512 218.849 562.993 213.64Z" fill="url(#paint3_linear_306_664)"/>
<path d="M565.28 164.757H561.079C560.699 163.1 560.045 161.551 559.168 160.153L562.141 157.18C562.546 156.774 562.546 156.117 562.141 155.712L558.837 152.408C558.431 152.003 557.774 152.003 557.369 152.408L554.396 155.381C552.998 154.504 551.449 153.85 549.792 153.47V149.269C549.792 148.696 549.327 148.231 548.754 148.231H544.082C543.509 148.231 543.044 148.696 543.044 149.269V153.47C541.387 153.85 539.838 154.504 538.44 155.381L535.467 152.408C535.061 152.003 534.404 152.003 533.999 152.408L530.695 155.712C530.289 156.117 530.289 156.775 530.695 157.18L533.668 160.153C532.791 161.551 532.137 163.1 531.757 164.757H527.556C526.983 164.757 526.518 165.222 526.518 165.795V170.467C526.518 171.04 526.983 171.505 527.556 171.505H531.757C532.137 173.162 532.791 174.711 533.668 176.109L530.695 179.082C530.289 179.488 530.289 180.145 530.695 180.55L533.999 183.854C534.405 184.26 535.062 184.26 535.467 183.854L538.44 180.881C539.838 181.758 541.387 182.412 543.044 182.792V186.993C543.044 187.566 543.509 188.031 544.082 188.031H548.754C549.328 188.031 549.792 187.566 549.792 186.993V182.792C551.449 182.412 552.998 181.758 554.396 180.881L557.369 183.854C557.775 184.26 558.432 184.26 558.837 183.854L562.141 180.55C562.546 180.144 562.546 179.487 562.141 179.082L559.168 176.109C560.045 174.711 560.699 173.162 561.079 171.505H565.28C565.853 171.505 566.318 171.04 566.318 170.467V165.795C566.318 165.222 565.853 164.757 565.28 164.757ZM546.417 174.579C542.857 174.579 539.97 171.693 539.97 168.132C539.97 164.572 542.856 161.685 546.417 161.685C549.977 161.685 552.864 164.571 552.864 168.132C552.864 171.692 549.978 174.579 546.417 174.579Z" fill="#DBE9FF"/>
<path d="M546.417 159.158C541.461 159.158 537.443 163.176 537.443 168.132C537.443 173.088 541.461 177.106 546.417 177.106C551.373 177.106 555.391 173.088 555.391 168.132C555.391 163.176 551.373 159.158 546.417 159.158ZM546.417 173.612C543.391 173.612 540.937 171.159 540.937 168.132C540.937 165.105 543.39 162.652 546.417 162.652C549.443 162.652 551.897 165.105 551.897 168.132C551.897 171.159 549.444 173.612 546.417 173.612Z" fill="#7337D4"/>
<path d="M583.222 183.16H581.076C580.882 182.313 580.548 181.522 580.1 180.808L581.619 179.289C581.826 179.082 581.826 178.746 581.619 178.539L579.931 176.851C579.724 176.644 579.388 176.644 579.181 176.851L577.662 178.37C576.948 177.922 576.156 177.588 575.31 177.394V175.248C575.31 174.955 575.072 174.718 574.78 174.718H572.393C572.1 174.718 571.863 174.955 571.863 175.248V177.394C571.016 177.588 570.225 177.922 569.511 178.37L567.992 176.851C567.785 176.644 567.449 176.644 567.242 176.851L565.554 178.539C565.347 178.746 565.347 179.082 565.554 179.289L567.073 180.808C566.625 181.522 566.291 182.314 566.097 183.16H563.951C563.658 183.16 563.42 183.398 563.42 183.69V186.077C563.42 186.37 563.658 186.607 563.951 186.607H566.097C566.291 187.454 566.625 188.245 567.073 188.959L565.554 190.478C565.347 190.685 565.347 191.021 565.554 191.228L567.242 192.916C567.449 193.123 567.785 193.123 567.992 192.916L569.511 191.397C570.225 191.845 571.016 192.179 571.863 192.373V194.519C571.863 194.812 572.1 195.049 572.393 195.049H574.78C575.073 195.049 575.31 194.812 575.31 194.519V192.373C576.157 192.179 576.948 191.845 577.662 191.397L579.181 192.916C579.388 193.123 579.724 193.123 579.931 192.916L581.619 191.228C581.826 191.021 581.826 190.685 581.619 190.478L580.1 188.959C580.548 188.245 580.882 187.454 581.076 186.607H583.222C583.515 186.607 583.752 186.37 583.752 186.077V183.69C583.753 183.398 583.516 183.16 583.222 183.16ZM573.586 188.178C571.767 188.178 570.293 186.703 570.293 184.885C570.293 183.066 571.767 181.592 573.586 181.592C575.405 181.592 576.879 183.067 576.879 184.885C576.88 186.703 575.405 188.178 573.586 188.178Z" fill="#DBE9FF"/>
<path d="M573.586 180.3C571.054 180.3 569.002 182.353 569.002 184.885C569.002 187.417 571.055 189.469 573.586 189.469C576.118 189.469 578.171 187.417 578.171 184.885C578.171 182.352 576.118 180.3 573.586 180.3ZM573.586 187.684C572.04 187.684 570.787 186.431 570.787 184.885C570.787 183.339 572.04 182.086 573.586 182.086C575.132 182.086 576.385 183.339 576.385 184.885C576.386 186.43 575.133 187.684 573.586 187.684Z" fill="#7337D4"/>
<path d="M380.658 93.3549C402.068 84.7452 412.445 60.4094 403.835 38.9994C395.225 17.5894 370.89 7.21269 349.48 15.8224C328.07 24.4321 317.693 48.7679 326.303 70.1779C334.912 91.5879 359.248 101.965 380.658 93.3549Z" fill="url(#paint4_linear_306_664)"/>
<path d="M344.328 76.053H385.8C387.625 76.053 389.104 74.574 389.104 72.749V38.246C389.104 36.421 387.625 34.942 385.8 34.942H344.328C342.504 34.942 341.025 36.421 341.025 38.246V72.75C341.025 74.574 342.504 76.053 344.328 76.053Z" fill="white"/>
<path d="M341.025 43.546H389.104V38.246C389.104 36.421 387.625 34.942 385.8 34.942H344.328C342.504 34.942 341.025 36.421 341.025 38.246V43.546Z" fill="#7337D4"/>
<path d="M377.619 36.777C378.157 36.777 378.594 36.34 378.594 35.802V34.083C378.594 33.545 378.157 33.108 377.619 33.108C377.081 33.108 376.644 33.545 376.644 34.083V35.802C376.644 36.34 377.08 36.777 377.619 36.777Z" fill="white"/>
<path d="M380.406 36.777C380.945 36.777 381.381 36.34 381.381 35.802V34.083C381.381 33.545 380.945 33.108 380.406 33.108C379.868 33.108 379.431 33.545 379.431 34.083V35.802C379.431 36.34 379.867 36.777 380.406 36.777Z" fill="white"/>
<path d="M349.722 36.777C350.261 36.777 350.697 36.34 350.697 35.802V34.083C350.697 33.545 350.261 33.108 349.722 33.108C349.184 33.108 348.747 33.545 348.747 34.083V35.802C348.747 36.34 349.184 36.777 349.722 36.777Z" fill="white"/>
<path d="M352.509 36.777C353.047 36.777 353.484 36.34 353.484 35.802V34.083C353.484 33.545 353.048 33.108 352.509 33.108C351.97 33.108 351.534 33.545 351.534 34.083V35.802C351.534 36.34 351.971 36.777 352.509 36.777Z" fill="white"/>
<path d="M368.098 52.8259H370.678C371.116 52.8259 371.471 52.4709 371.471 52.0329V49.4539C371.471 49.0159 371.116 48.6609 370.678 48.6609H368.098C367.66 48.6609 367.305 49.0159 367.305 49.4539V52.0329C367.305 52.4719 367.66 52.8259 368.098 52.8259Z" fill="#DBE9FF"/>
<path d="M358.187 52.826H360.767C361.205 52.826 361.56 52.471 361.56 52.033V49.453C361.56 49.015 361.205 48.66 360.767 48.66H358.188C357.75 48.66 357.395 49.015 357.395 49.453V52.033C357.395 52.472 357.749 52.826 358.187 52.826Z" fill="#DBE9FF"/>
<path d="M348.277 52.826H350.857C351.295 52.826 351.65 52.471 351.65 52.033V49.453C351.65 49.015 351.295 48.66 350.857 48.66H348.277C347.839 48.66 347.484 49.015 347.484 49.453V52.033C347.484 52.472 347.839 52.826 348.277 52.826Z" fill="#DBE9FF"/>
<path d="M378.009 61.361H380.589C381.027 61.361 381.382 61.006 381.382 60.568V57.988C381.382 57.55 381.027 57.195 380.589 57.195H378.01C377.572 57.195 377.217 57.55 377.217 57.988V60.567C377.216 61.006 377.571 61.361 378.009 61.361Z" fill="#DBE9FF"/>
<path d="M368.098 61.361H370.678C371.116 61.361 371.471 61.006 371.471 60.568V57.988C371.471 57.55 371.116 57.195 370.678 57.195H368.098C367.66 57.195 367.305 57.55 367.305 57.988V60.567C367.305 61.006 367.66 61.361 368.098 61.361Z" fill="#DBE9FF"/>
<path d="M358.187 61.361H360.766C361.204 61.361 361.559 61.006 361.559 60.568V57.988C361.559 57.55 361.204 57.195 360.766 57.195H358.186C357.748 57.195 357.393 57.55 357.393 57.988V60.568C357.395 61.006 357.749 61.361 358.187 61.361Z" fill="#DBE9FF"/>
<path d="M348.277 61.361H350.857C351.295 61.361 351.65 61.006 351.65 60.568V57.988C351.65 57.55 351.295 57.195 350.857 57.195H348.277C347.839 57.195 347.484 57.55 347.484 57.988V60.568C347.484 61.006 347.839 61.361 348.277 61.361Z" fill="#DBE9FF"/>
<path d="M378.009 69.895H380.589C381.027 69.895 381.382 69.54 381.382 69.102V66.522C381.382 66.084 381.027 65.729 380.589 65.729H378.01C377.572 65.729 377.217 66.084 377.217 66.522V69.102C377.216 69.54 377.571 69.895 378.009 69.895Z" fill="#DBE9FF"/>
<path d="M368.098 69.895H370.678C371.116 69.895 371.471 69.54 371.471 69.102V66.522C371.471 66.084 371.116 65.729 370.678 65.729H368.098C367.66 65.729 367.305 66.084 367.305 66.522V69.102C367.305 69.54 367.66 69.895 368.098 69.895Z" fill="#DBE9FF"/>
<path d="M358.187 69.895H360.766C361.204 69.895 361.559 69.54 361.559 69.102V66.522C361.559 66.084 361.204 65.729 360.766 65.729H358.187C357.749 65.729 357.394 66.084 357.394 66.522V69.102C357.395 69.54 357.749 69.895 358.187 69.895Z" fill="#DBE9FF"/>
<path d="M514.215 105.601C530.532 89.2835 530.532 62.8282 514.215 46.5111C497.898 30.194 471.442 30.194 455.125 46.5111C438.808 62.8282 438.808 89.2835 455.125 105.601C471.442 121.918 497.898 121.918 514.215 105.601Z" fill="url(#paint5_linear_306_664)"/>
<path d="M504.906 96.2916C516.082 85.1157 516.082 66.9959 504.906 55.82C493.73 44.6441 475.61 44.6441 464.435 55.82C453.259 66.996 453.259 85.1157 464.435 96.2916C475.61 107.468 493.73 107.468 504.906 96.2916Z" fill="white"/>
<path d="M484.675 47.4349C468.87 47.4349 456.057 60.2479 456.057 76.0529C456.057 91.8579 468.87 104.671 484.675 104.671C500.48 104.671 513.293 91.8579 513.293 76.0529C513.293 60.2479 500.48 47.4349 484.675 47.4349ZM487.074 100.436V96.5279C487.074 95.8009 486.485 95.2119 485.758 95.2119H483.59C482.863 95.2119 482.274 95.8009 482.274 96.5279V100.436C470.659 99.3069 461.42 90.0679 460.291 78.4529H464.199C464.926 78.4529 465.515 77.8639 465.515 77.1369V74.9699C465.515 74.2429 464.926 73.6539 464.199 73.6539H460.291C461.42 62.0389 470.659 52.7999 482.274 51.6709V55.5789C482.274 56.3059 482.863 56.8949 483.59 56.8949H485.758C486.485 56.8949 487.074 56.3059 487.074 55.5789V51.6709C498.689 52.7999 507.928 62.0389 509.057 73.6539H505.149C504.422 73.6539 503.833 74.2429 503.833 74.9699V77.1369C503.833 77.8639 504.422 78.4529 505.149 78.4529H509.057C507.928 90.0679 498.689 99.3069 487.074 100.436Z" fill="#7337D4"/>
<path d="M469.634 81.9999C469.675 81.1406 469.818 80.3836 470.064 79.7289C470.323 79.0742 470.753 78.4741 471.353 77.9285C471.967 77.3829 472.444 76.9942 472.785 76.7623C473.14 76.5168 473.753 76.1417 474.626 75.637C474.654 75.6097 474.674 75.5961 474.688 75.5961C474.701 75.5824 474.722 75.5688 474.749 75.5552C474.776 75.5415 474.797 75.5279 474.811 75.5142C474.838 75.5006 474.865 75.487 474.892 75.4733C475.97 74.8459 476.734 74.3071 477.184 73.857C477.634 73.3933 477.859 72.7727 477.859 71.9952C477.859 71.1359 477.579 70.4403 477.02 69.9083C476.475 69.3764 475.738 69.1104 474.811 69.1104C473.869 69.1104 473.126 69.4036 472.58 69.9902C472.048 70.563 471.783 71.4973 471.783 72.7931H469.982C469.982 71.1427 470.425 69.8742 471.312 68.9876C472.199 68.1147 473.412 67.6782 474.954 67.6782C476.359 67.6782 477.491 68.0806 478.35 68.8853C479.209 69.6901 479.639 70.7199 479.639 71.9747C479.639 72.4794 479.564 72.9432 479.414 73.366C479.264 73.7888 479.107 74.1298 478.943 74.389C478.78 74.6481 478.48 74.9482 478.043 75.2892C477.607 75.6165 477.279 75.8416 477.061 75.9644C476.856 76.0871 476.447 76.319 475.834 76.66C475.711 76.7282 475.615 76.7827 475.547 76.8237C474.892 77.1919 474.347 77.5125 473.91 77.7853C473.487 78.0581 473.044 78.44 472.58 78.931C472.117 79.4084 471.823 79.8858 471.701 80.3632H479.353V81.9999H469.634ZM486.89 81.9999V78.5627H480.281V77.0283L487.217 67.8419H488.567V77.1919H490.879V78.5627H488.567V81.9999H486.89ZM481.938 77.1306V77.1919H486.89V70.6244H486.849L481.938 77.1306ZM491.665 81.9999L497.476 67.3713H499.194L493.384 81.9999H491.665ZM501.985 81.9999C502.135 79.5857 502.776 77.2329 503.908 74.9414C505.04 72.6499 506.404 70.8563 508 69.5605V69.5196H500V67.9851H509.8V69.3968C508.218 70.7881 506.861 72.5885 505.729 74.7982C504.597 76.9942 503.962 79.3947 503.826 81.9999H501.985Z" fill="#D1C8D9"/>
<defs>
<linearGradient id="paint0_linear_306_664" x1="121.305" y1="283.498" x2="121.305" y2="343.87" gradientUnits="userSpaceOnUse">
<stop stop-color="#FFC444"/>
<stop offset="1" stop-color="#F36F56"/>
</linearGradient>
<linearGradient id="paint1_linear_306_664" x1="141.905" y1="263.264" x2="141.905" y2="355.097" gradientUnits="userSpaceOnUse">
<stop stop-color="#FB6FBB"/>
<stop offset="1" stop-color="#FF9085"/>
</linearGradient>
<linearGradient id="paint2_linear_306_664" x1="216.879" y1="102.303" x2="297.754" y2="123.32" gradientUnits="userSpaceOnUse">
<stop stop-color="#6763FF"/>
<stop offset="1" stop-color="#F9968B"/>
</linearGradient>
<linearGradient id="paint3_linear_306_664" x1="544.132" y1="132.23" x2="562.993" y2="213.64" gradientUnits="userSpaceOnUse">
<stop stop-color="#6763FF"/>
<stop offset="1" stop-color="#F9968B"/>
</linearGradient>
<linearGradient id="paint4_linear_306_664" x1="349.48" y1="15.8224" x2="380.658" y2="93.3549" gradientUnits="userSpaceOnUse">
<stop stop-color="#6763FF"/>
<stop offset="1" stop-color="#F9968B"/>
</linearGradient>
<linearGradient id="paint5_linear_306_664" x1="455.125" y1="46.5111" x2="514.215" y2="105.601" gradientUnits="userSpaceOnUse">
<stop stop-color="#6763FF"/>
<stop offset="1" stop-color="#F9968B"/>
</linearGradient>
</defs>
</svg>
