<svg width="196" height="114" viewBox="0 0 196 114" fill="none" xmlns="http://www.w3.org/2000/svg">
<path fill-rule="evenodd" clip-rule="evenodd" d="M0.940521 56.7011H12.6102V60.9448H9.00253V68.0512H22.1559V60.9448H18.4435V56.7011H30.3238V60.9448H26.5055V81.8417H30.3238V85.9786H18.4435V81.8417H22.1559V72.1881H9.00253V81.8417H12.6102V85.9786H0.940521V81.8417H4.65402V60.9448H0.940521V56.7011ZM140.536 56.7011H164.51V64.87H160.479V60.9448H148.81V67.9464H158.78V72.0822H148.81V81.8417H160.373V76.2201H164.615V85.9786H140.536V81.8417H144.461V60.9448H140.536V56.7011ZM35.7337 56.7011H59.8129V64.87H55.676V60.9448H44.0074V67.9464H53.9786V72.0822H44.0074V81.8417H55.5702V76.2201H59.8129V85.9786H35.7337V81.8417H39.6589V60.9448H35.7337V56.7011ZM147.537 52.777H156.129L158.251 55.3222H149.872L147.537 52.777ZM188.058 69.2185C185.087 68.4746 183.072 68.5825 179.996 67.6279C177.343 66.6733 176.815 65.0806 176.815 64.0202C176.815 62.853 177.98 59.9892 182.224 59.9892C186.467 59.9892 189.331 62.853 189.438 65.2923H193.574V56.7011H189.543V58.6124L189.755 59.1415C189.647 59.1415 189.543 58.823 189.117 58.5055V58.3997C187.952 57.3382 185.512 56.0651 181.905 56.0651C177.557 56.0651 172.465 58.823 172.465 64.0202C172.465 69.1127 176.071 70.8091 179.254 71.6579C182.33 72.5066 183.921 72.5066 186.572 73.2485C189.117 73.8845 190.816 75.4751 190.816 77.8097C190.816 79.9315 189.438 82.7953 183.921 82.7953C178.51 82.7953 176.283 79.8247 175.646 75.6878H171.721V85.9765H175.752V84.0673L175.646 83.5361C175.646 83.5361 175.752 83.8546 176.282 84.1721V84.28C178.296 85.8707 181.055 86.9311 184.449 86.9311C188.374 86.9311 195.058 84.9171 195.058 77.9155C195.06 72.8262 192.406 70.4916 188.058 69.2185ZM131.096 81.8417V60.9448H135.02V56.7011H124.413L117.305 73.8856L117.2 74.7353L116.988 73.8856L109.986 56.7011H99.2731V60.9448H103.197V81.8417H99.2731V85.9786H111.258V81.8417H107.546V61.3682L107.866 62.3248L116.033 81.8417H118.368L126.535 62.3248L126.747 61.2623L126.853 62.4296V81.8417H123.14V85.9786H135.02V81.8417H131.096ZM45.5991 45.4579H41.5681V44.3975H44.5386C44.6445 44.6092 45.2805 45.1394 45.5991 45.4579ZM146.901 45.4579C146.901 45.0335 147.325 44.6092 147.856 44.3975H149.978V45.4579H146.901ZM80.2854 46.1998C78.4821 47.0485 76.2544 46.9427 74.4511 46.1998H53.3425C52.3342 46.62 51.2526 46.8363 50.1603 46.8363C49.0679 46.8363 47.9863 46.62 46.978 46.1998H41.5681V48.2148H149.978V46.1998H80.2854ZM54.6156 45.4579C54.9342 45.2452 55.676 44.5033 55.7819 44.3975H72.1176C72.3292 44.716 72.8605 45.2462 73.178 45.4579H54.6156ZM77.4217 44.8208C80.1796 44.8208 82.5131 42.4873 82.5131 39.7294C82.5131 36.8657 80.1796 34.5311 77.4217 34.5311C76.0439 34.5336 74.7232 35.0821 73.749 36.0565C72.7749 37.0308 72.2266 38.3516 72.2244 39.7294C72.2244 42.4873 74.5579 44.8208 77.4217 44.8208V45.8812C73.9209 45.8812 71.163 43.1234 71.163 39.7294C71.163 36.2286 73.9209 33.4707 77.4217 33.4707C80.8156 33.4707 83.5735 36.2286 83.5735 39.7294C83.5724 41.3607 82.9239 42.9248 81.7704 44.0782C80.617 45.2317 79.0529 45.8801 77.4217 45.8812V44.8208ZM57.1608 38.8817C57.1608 35.0624 53.9786 31.8801 50.1603 31.8801C46.2351 31.8801 43.1587 35.0624 43.1587 38.8817C43.1587 42.8069 46.2351 45.8823 50.1603 45.8823C53.9786 45.8823 57.1608 42.8059 57.1608 38.8817H55.9935C55.9935 42.1698 53.3415 44.8219 50.1592 44.8219C49.3788 44.8231 48.6058 44.6703 47.8846 44.3722C47.1633 44.0741 46.508 43.6366 45.9562 43.0848C45.4043 42.5329 44.9668 41.8776 44.6687 41.1564C44.3706 40.4351 44.2178 39.6621 44.2191 38.8817C44.2191 35.5936 46.8711 33.0474 50.1592 33.0474C50.926 33.0452 51.6857 33.1946 52.3945 33.4871C53.1034 33.7795 53.7474 34.2091 54.2896 34.7513C54.8318 35.2936 55.2615 35.9376 55.5539 36.6464C55.8463 37.3553 55.9957 38.1149 55.9935 38.8817H57.1608Z" fill="#D76F2C"/>
<path fill-rule="evenodd" clip-rule="evenodd" d="M80.7098 43.2303L78.5889 40.7899V40.684C78.6958 40.5782 78.6958 40.4713 78.8006 40.3655L81.9829 41.2143C82.0887 41.2143 82.3014 41.3201 82.3014 41.4259C82.3014 41.3201 82.4083 40.8957 82.5131 40.684C82.4073 40.7899 82.1945 40.7899 81.9829 40.7899L79.0133 39.9422C78.9065 39.9422 78.9064 39.8353 78.9064 39.8353V39.3041L81.9829 38.1368C81.9829 38.1368 82.3014 38.1368 82.3014 38.2426C82.3014 38.1368 82.0887 37.6066 82.0887 37.5007C82.0887 37.6066 81.876 37.8193 81.7702 37.8193L81.9829 37.7124L78.8006 38.8797C78.8006 38.9855 78.8006 38.8797 78.6948 38.8797C78.6911 38.8245 78.6676 38.7725 78.6284 38.7333C78.5893 38.6942 78.5373 38.6706 78.4821 38.667C78.4821 38.5601 78.3762 38.4543 78.4821 38.4543L80.1796 35.8022C80.2864 35.6964 80.4981 35.5895 80.6039 35.5895C80.4971 35.5895 80.0737 35.271 79.861 35.1651C79.9679 35.1651 79.9679 35.4837 79.861 35.5895L78.1635 38.2416H77.9519C77.9519 38.2416 77.7392 38.1357 77.6333 38.1357C77.6333 38.1357 77.5265 38.1357 77.5265 38.0289L77.4206 34.9535C77.4206 34.7408 77.4206 34.5291 77.6333 34.5291H76.7846C76.8915 34.5291 76.9973 34.8476 76.9973 34.9535L77.1042 38.0289C77.1042 38.1357 76.9973 38.1357 76.9973 38.1357C76.9973 38.1357 76.7846 38.2416 76.6788 38.3484C76.6788 38.3484 76.5729 38.3485 76.5729 38.2416L74.558 35.8022C74.4511 35.6964 74.4511 35.4837 74.4511 35.3779C74.3452 35.4847 73.9209 35.8022 73.815 35.9081C73.9209 35.9081 74.1336 36.0149 74.2394 36.1208L76.2544 38.5601V38.667C76.1475 38.667 76.0417 38.8797 76.0417 38.9855C76.0417 38.9855 75.9359 39.0914 75.829 39.0914L72.8594 38.2426C72.6467 38.1368 72.5409 38.0299 72.5409 37.9241C72.5409 38.0299 72.3282 38.5601 72.3282 38.667C72.3282 38.667 72.6467 38.5601 72.7526 38.667L75.7221 39.4099C75.829 39.4099 75.829 39.5157 75.829 39.5157V40.0459L72.8594 41.319C72.7526 41.319 72.5409 41.4249 72.5409 41.319C72.5409 41.4249 72.6467 41.8493 72.7526 42.062C72.7526 41.9551 72.9653 41.7434 73.0711 41.7434L75.9359 40.4703C76.0417 40.4703 76.0417 40.5772 76.0417 40.5772C76.1475 40.5772 76.2544 40.683 76.2544 40.7888C76.3602 40.7888 76.3602 40.8957 76.3602 40.8957L74.5569 43.5478C74.45 43.6546 74.3442 43.7594 74.2384 43.7594C74.3442 43.8663 74.7686 44.1838 74.8744 44.1838C74.7675 44.1838 74.8744 43.8653 74.8744 43.7594L76.6777 41.2143C76.6777 41.1074 76.7836 41.1074 76.7836 41.1074C76.8904 41.2142 76.9963 41.2143 77.1021 41.2143C77.2079 41.2143 77.2079 41.2142 77.2079 41.3201L77.4206 44.5023C77.4206 44.6092 77.3138 44.8209 77.2079 44.8209H78.0567C77.844 44.8209 77.844 44.6092 77.844 44.3965L77.6323 41.3201C77.6323 41.2142 77.7381 41.2143 77.7381 41.2143C77.844 41.2143 78.0567 41.1074 78.1625 41.0015C78.1625 41.0015 78.2694 41.0015 78.2694 41.1074L80.3902 43.4419C80.3902 43.5478 80.496 43.7594 80.496 43.8663L81.0262 43.3361C80.9214 43.443 80.7098 43.2303 80.7098 43.2303ZM49.9476 34.8497C52.9171 34.8497 55.8877 35.1683 57.5852 35.6985C57.7969 35.6985 57.7969 35.9101 57.5852 36.017C55.7819 36.4414 52.8113 36.7589 50.0534 36.7589C47.2955 36.8657 44.3249 36.7589 42.4158 36.3345C42.2041 36.3345 42.2041 36.1218 42.4158 36.1218C44.1143 35.4868 46.978 34.9566 49.9476 34.8497V34.3195C46.7653 34.4264 43.583 35.1683 40.931 36.1228C40.6124 36.2287 40.6124 36.4414 40.931 36.4414C43.9016 37.1843 46.978 37.2901 50.0534 37.1843C53.024 37.0774 56.2063 36.8657 59.07 36.017C59.4943 35.9101 59.3885 35.6985 59.1758 35.6985C56.1844 34.7867 53.0748 34.3227 49.9476 34.3195V34.8497Z" fill="#D76F2C"/>
<path fill-rule="evenodd" clip-rule="evenodd" d="M81.4527 32.9406C80.7098 33.1533 79.4366 33.5767 78.8006 33.5767C78.2704 33.5767 75.6194 33.4708 73.815 33.5767C71.3746 33.6825 71.163 34.001 71.0571 33.7894C70.5269 32.9406 70.1026 31.6675 69.2538 30.9246C64.2682 31.7733 59.3885 31.0315 54.9342 29.4398V28.8028C55.2527 28.9096 55.4644 28.9096 55.676 28.9096C54.9342 27.8492 53.6611 27.5296 52.9181 26.3634C52.4938 26.0449 52.3879 25.4088 51.9636 25.0903C52.0694 26.2576 51.1148 27.1063 51.009 28.0598C51.645 28.2725 52.4938 28.2725 52.8123 28.1667C53.2367 28.0598 53.7669 28.1667 53.9796 28.4853C54.2981 28.5911 54.5098 28.8028 54.9342 28.8028V29.4398C54.4029 29.333 54.2981 29.2282 53.8738 29.0165C53.3436 29.2292 52.9192 29.1223 52.7065 28.9107C52.5996 28.8038 51.5392 28.8038 51.1148 28.8038C49.7359 28.8038 48.2511 29.334 47.5082 30.5013C47.1897 31.1373 47.2955 31.8802 47.614 32.4104C47.8267 32.729 48.7813 34.1079 49.4174 34.5312L48.5686 34.7439C47.2955 33.5767 46.3409 32.5163 46.5536 31.1373C47.1907 28.1678 49.9476 28.5911 50.6905 27.319C51.2207 26.1517 51.4323 22.7578 50.7963 21.8032C48.993 21.0603 46.7663 20.1057 46.3409 17.9839C46.2351 17.4537 46.4478 16.8166 46.978 16.7108C47.9315 16.4991 48.5686 17.0293 49.3115 17.3479C49.6301 17.1351 48.993 16.3933 49.7359 16.3933C50.6905 16.3933 51.3265 18.3024 51.645 18.4093L51.5392 19.1512C50.9032 18.9395 48.5686 17.6664 48.3569 17.5606C47.9326 17.3479 47.4024 17.0293 47.0838 17.4537C46.6595 17.9839 47.1907 18.621 47.5082 19.1512C52.4938 24.3484 60.7675 18.8326 66.1774 22.5451C66.2832 22.2266 66.1774 22.1207 65.9647 22.0149C62.2522 18.5151 56.3121 20.3185 51.5392 19.1512L51.645 18.4093C57.5852 19.8941 65.4355 17.4547 68.5109 24.2436C70.5259 27.1084 72.6478 31.6686 76.9963 31.7754C80.4971 31.8813 82.8306 30.5023 84.5281 27.9561C86.8616 23.7134 88.2405 18.8337 92.3774 15.9699C92.8017 15.7572 93.0134 15.9699 92.8017 16.0758C90.7867 18.0908 88.9824 20.7439 88.0278 22.9715C89.6184 29.0175 93.1192 27.7444 93.968 27.6386C93.7553 25.4109 93.968 18.8347 98.7419 17.2431C100.128 16.1758 101.777 15.5037 103.513 15.2982C105.25 15.0927 107.011 15.3614 108.607 16.0758C104.895 19.5766 102.667 24.5622 101.924 28.0619L97.7873 29.2292C98.1058 28.5921 98.1058 27.5317 98 26.3655C97.5756 26.5771 97.1513 26.8957 96.1967 27.4259C95.7723 27.5317 96.0898 26.8957 96.0898 26.8957C96.0898 26.684 97.1502 26.2596 97.999 25.7294C97.6804 23.289 97.4688 20.1068 99.4838 18.0918C95.348 19.4707 96.5142 28.1688 96.9386 29.2302C95.7713 29.7604 94.1807 29.7604 94.1807 29.7604L93.968 28.2746C92.1647 28.9117 89.0882 28.4873 87.7093 23.7134C86.2255 26.7888 84.9524 31.6675 81.4527 32.9406ZM146.159 19.9999C145.947 19.7872 145.839 19.6814 145.628 19.6814C145.52 19.5755 145.628 19.4687 145.734 19.4687C145.84 19.3628 146.052 19.4687 146.159 19.6814C146.265 19.7872 146.265 19.9999 146.159 19.9999Z" fill="#D76F2C"/>
<path fill-rule="evenodd" clip-rule="evenodd" d="M51.2207 40.4724L53.4473 43.0186C53.66 43.2313 53.66 43.5488 53.5542 43.6557C53.8727 43.5488 54.2971 43.0186 54.5088 42.8069C54.4019 42.9128 53.9785 42.9128 53.8727 42.7001L51.5392 40.1539V39.9422L51.645 39.8353C51.645 39.7295 51.7509 39.7295 51.7509 39.7295L55.039 40.8968C55.3575 41.1084 55.4633 41.3211 55.4633 41.427C55.5702 41.2153 55.7819 40.5793 55.8877 40.3666C55.7808 40.4734 55.4633 40.5793 55.2517 40.4734L51.9636 39.3062C51.8577 39.3062 51.8577 39.3062 51.8577 39.2003V38.9876C51.8577 38.8818 51.9636 38.8818 51.9636 38.8818L55.3575 38.3516C55.7819 38.2447 55.9935 38.4574 55.9935 38.5632C55.9935 38.3516 55.8877 37.6087 55.8877 37.396C55.8877 37.5028 55.675 37.8203 55.2517 37.9262L51.9636 38.4564C51.8577 38.4564 51.8577 38.3505 51.8577 38.3505C51.7509 38.2437 51.7509 38.1378 51.645 38.032V37.9262L54.2971 35.6995C54.6156 35.4868 54.9331 35.4868 55.039 35.5927C54.8273 35.3799 54.4029 34.8497 54.1912 34.6381C54.2981 34.7439 54.1913 35.0624 53.9785 35.3799L51.4323 37.5018C51.3255 37.6076 51.3255 37.6076 51.3255 37.5018C51.2196 37.5018 51.1138 37.5018 51.008 37.3949C51.008 37.3949 50.9021 37.2891 51.008 37.2891L52.1752 34.001C52.2148 33.8876 52.2855 33.7876 52.3793 33.7126C52.4731 33.6375 52.5861 33.5904 52.7054 33.5766C52.4927 33.4708 51.7509 33.1523 51.5382 33.1523C51.644 33.1523 51.8567 33.5766 51.7498 33.8941L50.5825 37.0764C50.5825 37.1833 50.4767 37.1833 50.4767 37.1833H50.1582L50.0513 37.0764L49.4153 33.6825C49.4153 33.2581 49.628 33.0464 49.628 33.0464C49.4153 33.0464 48.7792 33.1533 48.4607 33.2591C48.5665 33.2591 48.8851 33.4718 48.9909 33.7893L49.628 37.0774C49.628 37.1843 49.628 37.1843 49.5211 37.2901C49.4153 37.2901 49.3094 37.396 49.2026 37.396H49.0967L46.7663 34.8497C46.5536 34.5312 46.5536 34.2137 46.6605 34.2137C46.4478 34.3195 45.9176 34.7439 45.8117 34.9566C45.9186 34.9566 46.2361 34.9566 46.4488 35.1683L48.7823 37.7145V37.8214L48.5696 38.033H48.4638L45.2815 36.8668C44.963 36.7599 44.7513 36.4424 44.8572 36.3366C44.6445 36.6551 44.5386 37.2912 44.4328 37.5039C44.5386 37.397 44.8572 37.2912 45.1747 37.397L48.3569 38.4574V38.9876L44.963 39.6236C44.6445 39.6236 44.327 39.412 44.327 39.3051C44.327 39.6237 44.4338 40.3655 44.5397 40.5782C44.5397 40.4714 44.6455 40.1539 45.0699 40.048L48.358 39.412C48.358 39.412 48.4648 39.412 48.4648 39.5178C48.4648 39.6237 48.4648 39.6237 48.5707 39.7305V39.8364L45.9186 41.9572C45.6001 42.2757 45.2815 42.1699 45.2815 42.064C45.2815 42.3826 45.8117 42.9128 45.9186 43.0186C45.9186 42.9128 45.9186 42.5942 46.1313 42.3826L48.8892 40.2618C48.8892 40.1549 48.8892 40.1549 48.995 40.2618L49.2077 40.4734C49.3146 40.4734 49.3146 40.4734 49.3146 40.5803L48.1473 43.7615C48.0405 44.0801 47.723 44.2928 47.6171 44.1859C47.8298 44.2928 48.4659 44.6103 48.7844 44.6103C48.5717 44.6103 48.4659 44.2917 48.5717 43.9742L49.739 40.6861C49.739 40.6861 49.739 40.5803 49.8459 40.5803C49.9517 40.6861 50.0575 40.6861 50.1644 40.6861C50.1644 40.6861 50.2702 40.6861 50.2702 40.792L50.9073 44.0801C50.9073 44.5044 50.6946 44.7161 50.5888 44.8219C50.9073 44.8219 51.5433 44.6103 51.756 44.5034C51.6502 44.6103 51.3317 44.2917 51.3317 44.079L50.6956 40.6851V40.5793C50.8015 40.5793 50.9083 40.4724 51.0142 40.4724C51.1148 40.3655 51.1148 40.3655 51.2207 40.4724ZM144.674 20.4232C144.566 20.3174 144.674 20.2115 144.674 20.1047C144.779 19.7861 144.884 19.7861 144.884 19.4686C144.355 19.0443 144.248 18.1955 144.566 17.9839C144.884 17.6653 145.946 18.0897 145.946 18.0897C146.9 17.3478 147.219 16.8166 147.749 16.4991C148.491 16.4991 149.976 17.878 149.976 18.7268C149.763 19.0453 149.232 19.5755 148.385 20.6359C148.703 21.3778 148.703 21.909 148.172 22.3334C148.066 22.3334 147.854 22.3334 147.641 22.1207C147.749 23.1811 148.914 23.8171 149.34 24.6669C149.34 26.3644 151.143 28.4852 149.127 29.8642C148.703 30.0769 148.278 30.3944 148.067 30.8187C148.386 32.5162 149.022 34.3195 149.341 36.1229L147.325 36.2287C147.114 36.8658 146.478 38.032 146.688 38.6691C146.688 38.6691 146.583 38.5622 146.796 38.6691C147.115 39.0934 147.22 42.5943 147.115 42.9118C147.115 43.3361 147.433 43.3361 147.221 44.079C147.008 44.1849 146.161 44.7151 146.053 45.0336C145.522 45.5638 144.04 45.6707 144.04 45.458C144.04 44.9278 145.099 44.2907 145.313 43.6547C145.523 41.1084 145.313 38.5622 143.933 36.5472C143.404 36.2287 142.978 37.0774 142.66 37.5018C143.191 39.0924 144.145 40.7899 144.04 42.5932C144.04 43.1234 144.676 43.8663 144.358 44.6082L142.66 45.4569H136.507C136.296 45.1384 135.871 44.8199 135.978 44.3965H141.491C141.491 44.1838 142.022 44.2907 142.553 43.4419C142.553 40.8957 139.9 37.1833 140.326 35.9102C140.855 34.3185 141.599 33.0464 142.446 30.9246L142.871 30.8187C141.917 34.001 140.537 35.5927 140.749 36.5472C140.855 37.0774 141.068 37.5018 141.385 38.1378L141.598 38.7739C141.704 39.0924 142.021 39.8343 142.234 40.047C142.553 40.047 142.765 39.8343 142.976 39.7285C142.976 39.3041 142.657 38.7739 142.445 38.4553L141.598 38.7739L141.385 38.1378C142.021 38.1378 142.445 37.7135 141.917 37.3949C143.402 36.6531 141.598 36.8647 142.127 36.5472C142.976 36.1229 143.402 34.5312 143.507 33.5766C143.507 33.3639 143.613 33.2581 143.826 33.2581C144.462 34.9556 144.462 37.1833 145.522 38.7739V39.3041C145.416 39.7284 145.522 40.2587 145.735 40.5772C146.69 40.683 146.584 40.4703 146.371 39.3041C146.16 39.3041 145.735 39.1982 145.522 39.3041V38.7739C145.63 38.668 146.054 38.7739 146.16 38.668C145.84 38.1378 145.84 37.7135 145.84 37.1833C145.84 36.8647 146.052 36.2287 146.265 37.6076C146.584 37.7135 147.114 35.1672 147.22 34.3195C145.204 34.7439 147.22 32.4104 145.734 32.3046L146.478 31.0314C146.478 30.6071 146.159 30.2885 145.629 30.5012L145.204 29.97C144.885 29.8642 144.568 29.334 144.144 29.0154C143.826 29.334 143.296 29.97 143.19 30.3944C143.084 30.5012 143.402 30.606 143.508 30.5012C143.827 30.1827 144.04 30.8187 144.568 30.7129C144.78 30.5012 145.416 30.3944 145.204 29.97L145.629 30.5012C145.204 30.7129 145.204 31.4548 145.204 31.986C144.462 33.365 144.78 31.2441 143.931 31.2441C143.401 31.5627 143.189 30.7139 142.871 30.8198L142.446 30.9246C142.446 30.1827 142.554 29.335 142.446 28.4863C143.084 24.8796 143.826 24.9855 143.932 23.925C143.932 23.5007 145.522 22.6519 145.417 22.2276C145.523 22.2276 145.736 22.5461 145.736 22.6519C145.63 23.1821 144.569 23.1821 144.677 24.3484C145.313 23.1811 147.117 23.288 147.222 21.909C146.903 21.0603 147.645 21.5905 147.645 20.7417C147.435 20.529 146.798 19.893 146.691 19.5745C146.585 19.4676 147.009 18.8316 145.523 18.8316C145.417 18.9384 145.313 19.5745 145.1 19.892C144.994 19.9988 144.781 20.2105 144.887 20.3163C144.887 20.4222 145.1 20.528 145.1 20.9524C144.994 21.3768 145.1 21.5895 145.313 21.8011C146.161 22.2255 146.798 21.8011 145.842 22.3324C145.842 22.4382 145.842 22.5451 145.736 22.6519C145.736 22.5451 145.417 22.1207 145.313 22.0138C145.205 22.0138 144.677 21.6953 144.781 21.272C144.884 20.8486 144.884 20.637 144.674 20.4232ZM116.138 16.3932C116.246 17.1362 115.819 17.6664 115.819 18.4093C116.563 20.2126 115.819 21.5915 116.032 23.289C115.183 22.7588 114.973 21.3799 114.654 19.8951C114.442 18.622 114.76 18.1976 114.865 16.8187L116.138 16.3932ZM113.911 16.9235C113.805 19.1501 113.488 20.2115 115.079 23.7123C111.048 25.4088 107.758 26.5761 102.987 27.955C103.516 24.5611 106.805 18.0897 109.563 16.2864C111.896 16.9235 113.911 16.9235 113.911 16.9235Z" fill="#D76F2C"/>
<path fill-rule="evenodd" clip-rule="evenodd" d="M103.515 41.8514C102.455 42.1699 102.455 42.8059 103.091 43.443C103.515 43.7605 103.94 44.2918 103.94 44.3976H97.1513C97.1513 44.7161 97.4698 44.9278 97.6815 45.458H135.232C135.444 44.9278 134.808 44.2907 134.595 43.6547C131.942 42.7001 131.942 40.2608 131.838 37.5018C131.838 37.395 131.625 37.0775 131.625 36.5473C131.306 36.1229 129.505 31.7733 130.352 28.2725L130.988 27.1063C131.519 26.3634 130.882 25.939 131.306 25.0903L139.157 23.6055C139.263 23.4986 139.263 23.1811 139.051 23.0753C139.051 22.9695 139.157 23.0753 139.051 23.0753L131.413 24.4542C131.837 22.5451 130.14 21.908 130.882 20.3174C131.941 21.4836 134.807 23.4986 136.293 23.8172L137.036 23.7124C135.127 22.8636 131.733 20.8476 129.824 18.1966C129.611 18.1966 129.398 17.9839 129.188 17.8781C129.188 18.0897 129.717 18.7268 129.611 18.8326C129.611 18.8326 128.338 19.6814 126.003 18.6199C125.261 20.1047 116.988 23.8172 116.988 23.8172C117.306 26.1517 118.368 27.6365 119.533 28.9096C119.214 28.6969 119.641 29.1213 119.533 28.9096C121.231 30.2886 123.245 30.9246 125.475 31.349C125.898 32.6221 127.489 36.7589 127.595 37.395C127.808 38.031 128.126 38.031 128.126 38.031C128.339 38.2437 129.081 39.6226 129.081 40.1528L129.293 42.3805C129.399 42.9107 130.035 42.4864 130.142 43.0166L129.824 44.3955H131.414C130.566 43.6536 131.096 42.3805 130.034 41.8493C129.928 40.5762 129.824 39.6216 129.292 39.0914C128.869 37.8183 127.489 34.4244 126.639 31.3479L127.171 30.605C124.836 31.2421 123.035 30.3934 120.913 29.2261C119.322 28.4832 120.277 29.1192 120.805 28.8017C123.352 29.969 124.625 29.6505 126.533 29.4388C126.746 29.7573 127.171 30.0748 127.171 30.605L126.638 31.3479C127.17 30.8177 127.593 31.1352 127.911 32.621C128.337 33.8942 128.76 34.8477 129.079 35.9091C129.504 36.9695 129.823 38.3495 130.14 39.0914C130.14 39.0914 130.459 39.0914 130.669 39.5158C131.413 41.8493 131.624 42.1678 131.518 43.2282C131.731 44.077 132.898 43.3351 132.791 44.3955H104.894C105.317 42.698 104.362 41.2133 104.894 39.6216C103.832 37.9241 101.181 36.652 101.605 34.3175C102.878 32.5142 107.016 30.7109 106.061 28.589C109.879 26.6799 111.788 29.8621 115.29 29.5436C116.563 29.5436 117.941 29.3309 119.109 29.0134C117.623 27.8461 116.351 26.0438 115.609 24.4522C108.184 27.5276 100.97 29.9679 93.0134 31.5596L92.3774 31.3469C91.6355 31.4527 79.5425 34.2106 79.9669 34.7408C75.4056 35.0594 70.1015 36.9685 68.9353 37.6045C68.4051 37.9231 68.2982 38.1348 68.9353 38.3475C73.815 39.6206 77.845 38.666 85.3768 35.8012L84.8466 35.3769C84.4222 35.6954 78.2704 37.8172 75.83 38.1347C73.2838 38.4533 71.0561 38.3475 69.9957 38.0279C69.6772 37.922 69.6772 37.922 69.8888 37.8162C74.6627 35.9071 83.891 34.2096 85.1641 35.8012C85.906 36.0139 86.4372 36.4373 86.8616 36.9685C87.2859 37.4997 88.1347 37.287 88.7707 37.1812C89.6184 36.9685 89.7253 36.2266 89.7253 35.4837L88.7707 35.3769C88.3464 35.3769 86.6489 35.5896 86.4372 35.8012C85.8012 35.271 85.1641 34.7408 84.3154 34.5281C86.0128 33.7862 88.7707 33.1492 90.2555 33.0433C88.8766 33.9979 89.5136 35.1642 88.7707 35.3769L89.7253 35.4837C89.7253 35.0594 89.7253 34.7408 89.938 34.5292C90.8926 32.1956 94.9236 31.8771 96.9386 31.3469C96.9386 31.3469 95.8782 32.7258 95.1353 33.0444C94.9236 36.3325 93.7563 39.1972 93.5436 42.4853C94.4982 42.4853 94.4982 43.5457 94.7109 44.1828C94.3923 44.713 93.968 44.1828 93.5436 44.2897C92.0588 43.5468 93.8621 42.2747 92.6949 41.2133C93.3319 38.5612 94.2865 35.9091 94.2865 33.1512C93.8621 33.1512 93.7563 33.5756 93.5436 33.8931C93.2251 36.5452 92.4832 38.9845 91.8472 41.4239C92.0588 41.6366 92.5901 41.8483 92.5901 42.2726C91.7413 42.8028 92.5901 43.7574 92.2715 44.3934H82.6189L81.6643 45.4538H96.3025L96.4084 44.9236C94.2875 42.5901 95.0294 39.1952 96.0898 36.65L98.636 33.256C100.758 32.4073 102.031 29.8621 104.258 29.0134C104.258 30.1807 102.878 30.604 102.136 31.2411C101.287 33.0444 98.8467 33.256 98.5292 35.2721C99.4827 36.3325 100.864 37.0754 102.031 38.03C103.196 38.7729 102.878 40.3635 103.727 41.1064C103.941 41.3212 103.727 41.7455 103.515 41.8514Z" fill="#D76F2C"/>
<path fill-rule="evenodd" clip-rule="evenodd" d="M119.746 3.55839C119.322 4.19443 118.473 4.6188 119.004 5.78608C117.942 6.42315 118.26 7.37773 118.578 7.90793C118.047 8.43813 117.73 9.49958 118.473 10.1356C117.624 11.0902 118.685 11.9389 119.004 12.2564C118.578 13.211 119.004 13.9539 119.004 13.9539C118.896 14.59 117.729 15.6514 117.305 15.9689C116.669 17.5605 116.882 20.8486 116.987 23.0763C119.957 21.5916 122.927 20.2126 125.261 18.1966C123.245 16.8176 121.654 13.5295 119.427 13.7412C119.214 11.4077 118.26 7.27086 121.549 3.02819C121.972 2.81548 122.608 2.70965 122.927 2.49694C121.549 2.28528 119.746 3.13298 118.473 2.39111C118.473 2.39215 119.11 3.45256 119.746 3.55839Z" fill="#D76F2C"/>
<path fill-rule="evenodd" clip-rule="evenodd" d="M126.853 2.49692C126.853 2.60379 127.276 2.81545 127.276 2.81545C127.276 2.81545 127.702 2.70962 127.702 2.60379C127.702 2.49796 127.808 2.17942 127.702 2.07359C127.594 2.07359 127.276 1.96775 127.066 1.96775C127.066 1.96672 126.853 2.39212 126.853 2.49692L126.64 2.70962L125.155 1.64922L125.367 1.43651C125.367 1.43651 126.003 0.799437 126.322 0.799437C126.64 0.693604 128.338 0.799436 128.762 1.11797C129.081 1.43651 129.293 1.64818 129.717 2.39109C130.884 3.23879 132.793 3.23879 133.961 4.19336C133.748 4.5119 134.279 5.04211 133.855 5.25377C133.536 5.36064 132.793 5.14794 132.687 5.36064L132.582 5.99668L132.156 5.88981C132.156 5.88981 132.369 5.14794 132.156 5.14794C131.943 5.0421 131.52 4.8294 131.307 4.93524C131.202 5.04211 131.307 5.14794 131.415 5.35961C131.415 5.57127 131.944 5.67814 132.264 5.57127L132.687 5.67814L133.219 5.78397C133.006 6.31418 132.9 6.52585 132.157 6.31418C131.945 6.84438 133.112 7.26875 133.219 7.48146C133.111 7.69416 132.9 7.90583 132.157 7.48146C132.157 7.48146 129.081 10.4521 127.277 11.3008C125.368 12.1495 127.172 10.8764 127.172 10.8764C128.02 10.5579 131.733 7.37562 131.733 7.05812C131.625 6.84542 131.414 6.42209 131.414 6.10355C130.883 5.89085 129.824 6.20939 129.398 6.52689C129.611 7.48146 131.307 12.2554 130.034 19.4686L129.824 19.257C130.989 12.2554 129.08 6.63375 129.08 6.63375C128.02 7.05812 127.276 6.74063 126.747 6.84646C126.535 11.195 130.034 11.832 128.761 17.5605C125.049 16.9245 122.398 12.3622 120.276 12.7866C120.168 12.0437 119.427 10.7716 120.168 10.3462C119.957 9.71018 119.745 8.86144 120.699 8.33124C120.381 7.4825 120.276 6.74063 121.23 6.10459C121.018 5.57335 121.123 4.40711 122.29 4.1944C122.398 3.23983 122.821 2.49692 123.67 2.17942C122.715 1.75505 122.503 0.800474 122.503 0.800474C123.351 1.33172 124.093 1.64921 125.366 1.43755L126.853 2.49692ZM90.7868 81.8418L90.6799 75.9016C90.6799 74.0983 89.5137 72.1871 87.922 71.1267C87.6035 71.0208 87.0733 70.8081 86.6489 70.8081C87.0733 70.8081 87.6035 70.8082 88.1347 70.5954C89.7253 69.8536 91.6355 67.8375 91.6355 64.3378C91.6355 61.6847 90.5751 59.6707 88.6649 58.2908C86.8616 57.0177 84.8466 56.7001 82.7248 56.7001H66.3901V60.9439H70.1026V81.8418H66.3901V85.9776H78.0588V81.8418H74.3453V72.6125H82.4073C85.1651 72.7183 86.2256 74.5216 86.2256 76.0064L86.5441 85.9765H94.4992V81.8407L90.7868 81.8418ZM83.255 68.5825H74.3453V60.9449H82.7258C83.6804 60.9449 84.7408 60.9449 85.5895 61.2634C86.6499 61.7947 87.6055 62.962 87.6055 64.7632C87.6045 66.9919 85.5895 68.5825 83.255 68.5825ZM64.9043 96.3741C68.7236 96.3741 70.4201 98.496 70.4201 101.147C70.4201 103.8 68.6168 105.814 64.5858 105.814H61.8279V113.134H59.3885V96.3752L64.9043 96.3741ZM61.8279 103.694H64.7985C66.6018 103.694 67.8739 102.738 67.8739 101.041C67.8739 99.7681 67.132 98.496 64.9033 98.496H61.8268L61.8279 103.694ZM89.4078 113.134H86.7558L84.6349 108.149H77.3158L75.3009 113.134H72.6488L80.0737 96.2673H81.7712L89.4078 113.134ZM78.2704 105.921H83.6804L80.8166 99.3427L78.2704 105.921ZM117.305 113.134H114.866V96.3741H117.305V113.134ZM134.809 99.9797C133.219 98.7066 131.733 98.2833 130.461 98.2833C128.87 98.2833 127.595 99.0252 127.595 100.192C127.595 103.482 135.445 103.374 135.445 108.785C135.445 111.33 133.323 113.239 130.353 113.239C128.444 113.239 126.747 112.816 125.262 111.755V108.679C126.64 110.269 128.339 111.119 130.142 111.119C132.156 111.119 133.111 109.952 133.111 108.997C133.111 105.603 125.155 105.177 125.155 100.618C125.155 97.86 127.383 96.1614 130.67 96.1614C132.156 96.1614 133.428 96.48 134.808 97.3287V99.9797H134.809ZM107.017 111.119C106.698 110.694 106.381 110.27 106.062 109.739C104.789 107.617 103.727 106.132 102.137 105.178C104.046 104.436 105.107 102.951 105.107 101.042C105.107 98.1785 102.879 96.3752 99.2731 96.3752H94.9236V113.134H97.4688V105.814H98.5292C99.8013 105.814 100.864 106.239 103.09 109.634L105.425 113.134H108.289L107.017 111.119ZM99.0604 103.694H97.4688V98.3891H99.0604C101.501 98.3891 102.454 99.3437 102.454 100.936C102.56 102.314 101.819 103.694 99.0604 103.694Z" fill="#D76F2C"/>
</svg>
