<svg width="449" height="445" viewBox="0 0 449 445" fill="none" xmlns="http://www.w3.org/2000/svg">
<path d="M396.849 382.053C387.631 391.619 378.91 397.789 372.019 402.663C291.021 459.956 195.179 443.255 174.81 439.177C144.731 433.154 86.5897 421.513 44.5544 372.78C-19.0416 299.052 -9.1389 182.896 40.1905 106.219C49.2137 92.1938 96.8764 14.3493 193.751 1.86542C252.378 -5.68959 320.719 9.54809 370.209 50.4237C474.094 136.225 466.698 309.56 396.849 382.053Z" fill="white"/>
<path d="M444.181 179.218C444.569 177.568 442.247 176.47 440.825 177.623C426.386 189.332 391.692 224.396 400.338 285.671C411.186 362.55 392.64 390.602 369.555 407.714C369.555 407.714 401.259 399.667 421.205 371.202C470.179 301.313 437.286 208.57 444.181 179.218Z" fill="url(#paint0_linear_1745_1550)"/>
<path d="M433.193 203.231C431.387 211.789 429.777 220.374 428.533 228.997C427.236 237.613 426.243 246.26 425.563 254.92C424.922 263.582 424.469 272.253 424.443 280.928C424.372 289.602 424.733 298.269 425.13 306.97C425.471 315.668 425.872 324.428 425.235 333.251C424.609 342.055 422.755 350.937 419.078 359.263C418.158 361.338 417.192 363.406 416.093 365.405C415.038 367.422 413.878 369.4 412.678 371.358C410.255 375.266 407.527 379.042 404.487 382.626C398.386 389.781 391.027 396.128 382.92 401.5C382.067 402.065 380.844 401.926 380.19 401.189C379.547 400.466 379.69 399.435 380.504 398.863L380.509 398.859C382.438 397.504 384.347 396.132 386.178 394.691C387.107 393.983 387.998 393.241 388.904 392.514C389.778 391.758 390.686 391.031 391.531 390.252C394.974 387.188 398.163 383.92 401.056 380.463C406.876 373.583 411.534 365.916 415.064 357.968C416.777 353.975 418.147 349.88 419.147 345.709C420.143 341.536 420.77 337.291 421.117 333.012C421.811 324.448 421.497 315.775 421.229 307.075C420.973 298.374 420.786 289.628 421.015 280.889C421.117 276.52 421.309 272.153 421.591 267.791C421.718 265.61 421.894 263.431 422.065 261.252C422.26 259.074 422.469 256.898 422.699 254.724C423.636 246.027 424.88 237.36 426.44 228.738C428.047 220.123 429.919 211.548 432.17 203.049C432.234 202.807 432.514 202.655 432.796 202.71C433.069 202.764 433.242 202.995 433.193 203.231Z" fill="white"/>
<path d="M162.803 388.481C162.803 388.481 172.135 351.868 144.344 313.017C118.559 276.969 53.804 193.329 45.9886 148.367C45.6426 146.375 42.4947 146.807 41.8831 148.936C35.3208 171.765 23.5161 229.212 48.5294 288.089C80.785 364.014 162.803 388.481 162.803 388.481Z" fill="url(#paint1_linear_1745_1550)"/>
<g opacity="0.45">
<path d="M48.5046 189.922C47.7129 199.222 48.6694 208.572 50.3804 217.692C52.0929 226.83 54.8258 235.753 58.2827 244.363C60.0043 248.673 61.9474 252.89 64.0153 257.042C65.0884 259.099 66.1349 261.17 67.2942 263.18C68.3984 265.22 69.5991 267.206 70.7874 269.198C75.5656 277.163 81.1774 284.561 86.8528 291.966C92.5246 299.36 98.367 306.622 104.276 313.831C107.243 317.427 110.232 321.004 113.243 324.564L122.283 335.245C125.305 338.8 128.333 342.353 131.332 345.935C134.322 349.523 137.315 353.115 140.154 356.836C142.998 360.552 145.755 364.346 148.238 368.326C149.471 370.321 150.639 372.359 151.693 374.457C152.724 376.567 153.65 378.729 154.416 380.948C154.466 381.091 154.39 381.246 154.248 381.296C154.108 381.344 153.956 381.272 153.904 381.136L153.902 381.132C153.071 378.965 152.085 376.864 150.999 374.816C149.891 372.778 148.699 370.786 147.427 368.845C144.873 364.966 142.046 361.268 139.129 357.644C133.28 350.403 127.109 343.407 120.967 336.38C108.626 322.377 96.5671 308.078 85.1862 293.248C83.7611 291.397 82.3402 289.542 80.9386 287.672C80.2389 286.735 79.5226 285.817 78.836 284.865L76.7789 282.01L75.7511 280.582L74.7674 279.123L72.8004 276.205C72.1513 275.228 71.5429 274.224 70.912 273.235C70.2937 272.238 69.6424 271.262 69.0619 270.242C66.639 266.222 64.4018 262.092 62.3262 257.883C60.2916 253.655 58.3611 249.373 56.7001 244.983C53.3966 236.202 50.8372 227.132 49.3137 217.882C48.5525 213.257 48.092 208.587 47.8801 203.913C47.7132 199.239 47.7549 194.54 48.4377 189.912C48.4404 189.893 48.4577 189.881 48.476 189.883C48.4938 189.885 48.506 189.904 48.5046 189.922Z" fill="white"/>
</g>
<path d="M113.358 61.3717C114.236 59.0287 117.679 59.4209 117.997 61.9027C121.068 85.8962 131.09 148.559 155.406 184.61C194.997 243.308 214.04 331.959 177.389 371.025C177.389 371.025 17.701 316.65 113.358 61.3717Z" fill="url(#paint2_linear_1745_1550)"/>
<g opacity="0.43">
<path d="M113.749 95.028C113.728 95.6344 113.75 96.3256 113.757 96.9848L113.814 98.9845L113.971 102.985C114.092 105.652 114.241 108.318 114.396 110.983C114.724 116.313 115.117 121.639 115.56 126.961C116.432 137.604 117.503 148.232 118.782 158.833C121.376 180.028 124.633 201.148 128.965 222.053C131.172 232.494 133.479 242.917 136.197 253.238C136.515 254.533 136.865 255.82 137.224 257.105L138.286 260.963L139.347 264.821C139.711 266.104 140.106 267.378 140.484 268.657C141.256 271.21 141.99 273.775 142.794 276.318L145.254 283.932C145.649 285.206 146.085 286.466 146.53 287.723L147.849 291.5L149.169 295.277C149.624 296.53 150.112 297.771 150.583 299.019C151.545 301.505 152.451 304.016 153.461 306.484L156.534 313.871C160.755 323.669 165.445 333.263 170.675 342.572L170.677 342.574C170.751 342.706 170.704 342.872 170.573 342.946C170.443 343.018 170.28 342.974 170.205 342.847C164.729 333.651 159.9 324.081 155.5 314.322L152.338 306.942C151.298 304.476 150.364 301.967 149.372 299.481C148.886 298.234 148.383 296.993 147.913 295.741L146.55 291.965L145.186 288.189C144.726 286.932 144.276 285.672 143.866 284.398C137.025 264.107 131.639 243.349 127.351 222.384L125.784 214.514L124.336 206.621C123.836 203.993 123.427 201.349 122.971 198.714L122.303 194.758L121.688 190.794C120.028 180.226 118.586 169.624 117.421 158.991C116.245 148.36 115.236 137.711 114.504 127.041C114.146 121.706 113.838 116.367 113.595 111.026C113.482 108.354 113.375 105.683 113.298 103.01L113.204 98.9996L113.18 96.9926C113.186 96.3162 113.166 95.6711 113.21 94.9426C113.219 94.7933 113.347 94.6798 113.496 94.6889C113.643 94.6978 113.755 94.8219 113.75 94.9678L113.749 95.028Z" fill="white"/>
</g>
<path d="M381.642 67.3738L174.665 72.0633C163.246 72.3219 154.033 81.4838 153.711 92.9009L145.232 393.324C144.98 402.258 152.175 409.627 161.113 409.587L398.432 408.523C406.83 408.486 413.564 401.567 413.374 393.17L406.531 91.1609C406.227 77.7192 395.083 67.0693 381.642 67.3738Z" fill="url(#paint3_linear_1745_1550)"/>
<path d="M381.028 68.356C352.85 72.8294 255.924 86.886 175.426 82.5379C171.755 82.3396 168.637 85.1883 168.525 88.863L159.335 390.641C159.209 394.779 162.445 398.241 166.582 398.392C200.425 399.627 339.788 404.205 389.317 397.88C392.332 397.495 394.567 394.899 394.517 391.861L389.206 75.2255C389.134 70.9243 385.276 67.6815 381.028 68.356Z" fill="url(#paint4_linear_1745_1550)"/>
<path opacity="0.6" d="M378.178 76.2431C351.061 80.548 257.785 94.0753 180.318 89.8911C176.785 89.7002 173.785 92.4417 173.677 95.978L164.833 386.392C164.711 390.374 167.825 393.706 171.807 393.851C204.375 395.039 338.491 399.445 386.155 393.359C389.056 392.988 391.208 390.49 391.159 387.566L386.048 82.854C385.979 78.7149 382.266 75.5942 378.178 76.2431Z" fill="white"/>
<path opacity="0.78" d="M361.374 105.788L359.895 168.041C359.845 170.111 358.212 171.794 356.143 171.899C344.634 172.485 308.766 174.173 288.478 173.576C286.183 173.508 284.328 171.695 284.2 169.403C283.549 157.749 281.935 123.824 284.271 109.574C284.648 107.272 286.58 105.548 288.909 105.414L356.929 101.49C359.382 101.349 361.433 103.332 361.374 105.788Z" fill="white"/>
<path d="M322.351 141.956C329.736 141.956 335.723 135.969 335.723 128.584C335.723 121.199 329.736 115.213 322.351 115.213C314.966 115.213 308.979 121.199 308.979 128.584C308.979 135.969 314.966 141.956 322.351 141.956Z" fill="#F28705"/>
<path d="M343.721 167.835L301.131 168.8C298.52 168.859 296.89 166.011 298.246 163.779C301.736 158.037 309.116 149.549 322.233 149.627C334.875 149.703 342.533 157.045 346.42 162.347C348.069 164.597 346.511 167.771 343.721 167.835Z" fill="#F28705"/>
<g opacity="0.6">
<path d="M190.942 115.066C189.743 115.093 188.768 114.176 188.775 113.028C188.783 111.879 189.77 110.9 190.969 110.852L266.075 107.81C267.274 107.762 267.95 108.655 267.577 109.796L267.091 111.283C266.718 112.423 265.432 113.378 264.232 113.405L190.942 115.066Z" fill="white"/>
</g>
<g opacity="0.6">
<path d="M266.337 119.404C267.536 119.355 268.211 120.248 267.839 121.389L267.353 122.876C266.98 124.016 265.693 124.971 264.494 124.998L191.204 126.659C190.005 126.686 189.03 125.769 189.037 124.621C189.045 123.473 190.032 122.494 191.23 122.445L266.337 119.404Z" fill="white"/>
</g>
<g opacity="0.6">
<path d="M266.603 131.165C267.802 131.116 268.478 132.01 268.105 133.15L267.619 134.637C267.246 135.777 265.96 136.733 264.76 136.76L191.471 138.42C190.271 138.448 189.296 137.53 189.304 136.382C189.311 135.234 190.298 134.255 191.497 134.206L266.603 131.165Z" fill="white"/>
</g>
<path opacity="0.6" d="M217.73 142.574C211.963 142.264 201.176 142.303 195.239 142.355C192.724 142.377 190.557 144.13 190.022 146.589C188.985 151.363 187.591 159.644 187.988 168.376C188.107 170.991 190.297 173.031 192.914 172.944L214.81 172.212C217.503 172.122 219.692 170.012 219.882 167.324L221.341 146.677C221.491 144.541 219.868 142.69 217.73 142.574Z" fill="white"/>
<g opacity="0.6">
<path d="M231.365 152.75C230.165 152.777 229.176 151.86 229.167 150.712C229.158 149.565 230.13 148.568 231.327 148.498L266.233 146.447C267.43 146.376 268.264 147.289 268.085 148.475L267.889 149.773C267.71 150.959 266.583 151.952 265.383 151.979L231.365 152.75Z" fill="white"/>
</g>
<g opacity="0.6">
<path d="M266.629 160.098C267.829 160.072 268.628 161.015 268.406 162.193L268.163 163.483C267.941 164.662 266.778 165.613 265.578 165.596L231.554 165.122C230.355 165.105 229.4 164.153 229.432 163.006C229.465 161.858 230.473 160.898 231.672 160.871L266.629 160.098Z" fill="white"/>
</g>
<g opacity="0.6">
<path d="M185.505 195.305C184.306 195.332 183.365 194.415 183.415 193.265C183.465 192.116 184.487 191.146 185.686 191.11L361.024 185.754C362.224 185.717 362.611 186.469 361.885 187.424L360.201 189.64C359.475 190.596 357.9 191.399 356.7 191.427L185.505 195.305Z" fill="white"/>
</g>
<g opacity="0.6">
<path d="M361.287 197.347C362.486 197.311 362.874 198.062 362.148 199.017L360.464 201.234C359.738 202.189 358.162 202.993 356.963 203.02L185.768 206.899C184.568 206.926 183.628 206.008 183.678 204.859C183.727 203.71 184.749 202.739 185.948 202.703L361.287 197.347Z" fill="white"/>
</g>
<path opacity="0.25" d="M362.271 216.693C358.059 216.466 350.181 216.495 345.845 216.533C344.008 216.549 342.426 217.829 342.035 219.625C341.277 223.112 340.26 229.16 340.55 235.537C340.636 237.446 342.236 238.936 344.147 238.873L360.138 238.338C362.105 238.272 363.704 236.731 363.842 234.769L364.908 219.689C365.018 218.13 363.832 216.777 362.271 216.693Z" fill="white"/>
<g opacity="0.6">
<path d="M333.076 223.527C334.273 223.449 335.129 224.36 334.977 225.55L334.587 228.623C334.435 229.813 333.33 230.809 332.131 230.836L292.795 231.727C291.595 231.755 290.604 230.795 290.592 229.596L290.58 228.45C290.568 227.251 291.538 226.206 292.735 226.129L333.076 223.527Z" fill="white"/>
</g>
<path opacity="0.25" d="M275.131 218.667C270.919 218.44 263.042 218.469 258.706 218.507C256.869 218.523 255.286 219.804 254.896 221.599C254.138 225.086 253.12 231.134 253.41 237.511C253.497 239.421 255.097 240.911 257.007 240.847L272.999 240.312C274.965 240.246 276.564 238.706 276.703 236.743L277.768 221.664C277.878 220.104 276.693 218.752 275.131 218.667Z" fill="white"/>
<g opacity="0.6">
<path d="M245.936 225.501C247.133 225.424 247.989 226.334 247.837 227.524L247.447 230.597C247.296 231.787 246.191 232.783 244.991 232.81L205.655 233.702C204.456 233.729 203.465 232.77 203.452 231.57L203.441 230.425C203.428 229.225 204.398 228.18 205.595 228.103L245.936 225.501Z" fill="white"/>
</g>
<g opacity="0.6">
<path d="M196.632 272.554C195.433 272.581 194.49 271.664 194.538 270.515C194.585 269.365 195.606 268.395 196.805 268.358L367.112 263.118C368.311 263.081 368.709 263.84 367.996 264.805L366.389 266.983C365.676 267.948 364.111 268.76 362.912 268.787L196.632 272.554Z" fill="white"/>
</g>
<g opacity="0.6">
<path d="M367.375 274.711C368.574 274.674 368.972 275.433 368.259 276.398L366.651 278.576C365.939 279.541 364.374 280.353 363.175 280.38L196.895 284.147C195.695 284.175 194.753 283.257 194.801 282.108C194.848 280.959 195.868 279.988 197.068 279.951L367.375 274.711Z" fill="white"/>
</g>
<g opacity="0.6">
<path d="M367.641 286.472C368.84 286.436 369.238 287.195 368.526 288.16L366.918 290.337C366.205 291.303 364.641 292.115 363.442 292.142L197.161 295.909C195.962 295.936 195.02 295.018 195.067 293.869C195.115 292.72 196.135 291.75 197.334 291.713L367.641 286.472Z" fill="white"/>
</g>
<path d="M264.636 58.5785L288.073 55.9622L289.558 34.3766C289.857 30.0333 287.06 26.0642 282.858 24.927C278.251 23.6804 271.748 23.7246 264.389 29.0951C249.959 39.6277 264.636 58.5785 264.636 58.5785ZM269.122 40.5166C269.049 37.2825 271.611 34.6015 274.845 34.5281C278.079 34.4549 280.76 37.0172 280.834 40.2512C280.907 43.4853 278.345 46.1663 275.111 46.2395C271.877 46.3127 269.196 43.7506 269.122 40.5166Z" fill="url(#paint5_linear_1745_1550)"/>
<path d="M285.47 46.9531C285.158 46.9313 284.922 46.6611 284.944 46.3488L285.18 42.9111C285.201 42.5983 285.466 42.3614 285.785 42.3841C286.097 42.4059 286.333 42.6763 286.311 42.9885L286.074 46.4261C286.054 46.7211 285.812 46.9475 285.522 46.9541C285.505 46.9544 285.488 46.9544 285.47 46.9531ZM285.934 40.2165C285.621 40.1947 285.385 39.9245 285.407 39.6121L285.587 37.0024C285.835 33.4028 283.5 30.1098 280.037 29.1722C277.397 28.458 274.692 28.4091 271.995 29.025C271.688 29.0928 271.386 28.9037 271.316 28.599C271.246 28.2938 271.437 27.9894 271.742 27.9199C274.621 27.2611 277.511 27.3141 280.333 28.078C284.317 29.1565 287.003 32.9422 286.718 37.0797L286.538 39.6893C286.518 39.9843 286.275 40.2107 285.986 40.2174C285.969 40.2179 285.951 40.2177 285.934 40.2165Z" fill="white"/>
<path d="M320.439 69.157L320.194 58.3269C320.109 54.5882 316.943 51.6643 313.209 51.8769L238.599 56.1268C235.287 56.3155 232.663 58.9919 232.54 62.3062L232.151 72.7264L320.439 69.157Z" fill="url(#paint6_linear_1745_1550)"/>
<path d="M292.296 56.4337L295.507 56.3609C295.82 56.3538 296.068 56.0947 296.061 55.7814C296.053 55.4683 295.794 55.2206 295.481 55.2276L292.27 55.3003C291.957 55.3074 291.709 55.5666 291.716 55.8798C291.723 56.193 291.983 56.4407 292.296 56.4337Z" fill="white"/>
<path d="M316.321 65.8478C316.634 65.8406 316.882 65.5815 316.875 65.2682L316.776 60.8869C316.699 57.5019 313.883 54.8105 310.497 54.8872L298.692 55.1548C298.379 55.1619 298.131 55.421 298.138 55.7343C298.145 56.0476 298.404 56.2953 298.717 56.2882L310.523 56.0206C313.283 55.958 315.58 58.1529 315.642 60.9127L315.741 65.2939C315.749 65.6072 316.008 65.8549 316.321 65.8478Z" fill="white"/>
<path d="M343.746 64.6632L213.174 67.618C208.479 67.7242 204.542 71.1939 203.846 75.8381L203.75 76.479C202.987 81.5662 206.994 86.1123 212.136 85.9959L346.095 82.9608C349.173 82.8911 351.567 80.2623 351.35 77.1916L350.926 71.2025C350.661 67.4562 347.501 64.5783 343.746 64.6632Z" fill="url(#paint7_linear_1745_1550)"/>
<path d="M239.081 325.995L221.68 283.737C221.343 282.92 220.547 282.386 219.663 282.386H208.962C207.373 282.386 206.317 284.031 206.979 285.476L227.155 329.495C227.583 330.43 228.607 330.939 229.611 330.716L237.537 328.954C238.858 328.661 239.596 327.247 239.081 325.995Z" fill="url(#paint8_linear_1745_1550)"/>
<path d="M265.86 375.793H260.735V431.209H265.86V375.793Z" fill="url(#paint9_linear_1745_1550)"/>
<path d="M285.738 432.278H240.857V429.477C240.857 429.182 241.097 428.942 241.393 428.942H285.203C285.499 428.942 285.739 429.182 285.739 429.477L285.738 432.278Z" fill="url(#paint10_linear_1745_1550)"/>
<path d="M292.399 373.87C292.399 376.901 289.919 379.381 286.888 379.381H241.48C238.45 379.381 235.97 376.901 235.97 373.87V368.887C235.97 365.857 238.45 363.377 241.48 363.377H286.888C289.919 363.377 292.399 365.857 292.399 368.887V373.87Z" fill="url(#paint11_linear_1745_1550)"/>
<path d="M225.467 338.844C225.467 338.844 217.853 340.024 209.292 345.747C207.944 346.648 207.205 348.218 207.408 349.826C208.433 357.946 212.648 384.228 226.547 409.898C227.28 411.252 227.491 412.828 227.167 414.332L224.753 425.57L220.275 429.769H231.809L239.488 408.986L236.204 407.947C233.658 407.142 231.911 404.8 231.865 402.13L231.48 379.836C231.809 369.904 225.39 363.05 225.39 363.05L243.81 362.154L225.467 338.844Z" fill="url(#paint12_linear_1745_1550)"/>
<path d="M215.771 431.796C214.72 433.171 227.077 434.985 233.319 431.978C233.319 431.978 241.973 416.922 241.973 409.17C241.973 409.17 241.286 407.589 236.205 407.947C236.205 407.947 233.299 425.775 230.231 427.772C227.163 429.769 221.647 427.974 221.647 427.974C221.647 427.974 217.321 429.767 215.771 431.796Z" fill="url(#paint13_linear_1745_1550)"/>
<path d="M241.48 363.377C241.383 363.207 221.648 361.004 221.648 361.004C221.648 361.004 222.294 367.004 220.275 375.264C218.257 383.524 189.282 419.311 189.282 419.311L192.32 428.942C182.927 432.215 173.687 432.738 164.595 430.61L183.423 419.311C183.423 419.311 201.044 359.262 211.837 348.55L231.619 341.706L241.48 363.377Z" fill="url(#paint14_linear_1745_1550)"/>
<path d="M285.738 328.437C285.738 328.437 297.108 345.348 298.041 353.062C298.974 360.776 294.927 363.911 282.997 364.428C271.067 364.945 239.218 364.937 239.218 364.937L212.036 341.706C212.036 341.706 231.845 334.637 236.996 332.639C242.146 330.64 285.738 328.437 285.738 328.437Z" fill="url(#paint15_linear_1745_1550)"/>
<path d="M191.172 425.699C191.172 425.699 194.443 428.867 192.233 432.392C192.233 432.392 166.323 436.984 159.288 434.9C159.288 434.9 160.749 431.566 168.67 427.772L168.086 428.22C167.346 428.788 167.78 429.971 168.711 429.918C173.931 429.62 184.734 428.664 191.172 425.699Z" fill="url(#paint16_linear_1745_1550)"/>
<path d="M254.99 326.198C254.99 326.198 241.749 313.59 235.232 305.24C231.709 300.726 230.602 294.783 232.232 289.294C235.207 279.269 240.495 268.886 240.977 267.27C241.717 264.793 256.563 264.896 256.563 264.896C256.563 264.896 285.776 283.856 297.255 315.973L284.364 319.987C284.364 319.987 276.736 307.189 269.199 299.053C269.199 299.053 282.241 316.281 282.7 323.334L254.99 326.198Z" fill="url(#paint17_linear_1745_1550)"/>
<path d="M239.183 253.427C239.338 253.942 243.212 266.787 243.516 267.054C243.819 267.321 252.013 267.761 255.871 265.125L249.327 251.427L239.183 253.427Z" fill="url(#paint18_linear_1745_1550)"/>
<path d="M234.395 234.582C234.395 234.582 229.8 239.604 229.705 249.618C229.609 259.632 234.248 262.107 238.123 260.961C241.997 259.814 247.397 257.24 250.705 249.281C254.014 241.322 240.494 228.329 234.395 234.582Z" fill="url(#paint19_linear_1745_1550)"/>
<path d="M244.822 246.658C244.822 246.658 243.592 232.636 232.844 237.396L231.137 240.307C231.137 240.307 224.151 235.425 229.121 229.284C234.091 223.142 244.993 221.576 251.708 228.987C258.424 236.398 259.39 242.73 256.738 248.967C254.087 255.204 250.052 251.363 250.052 251.363C250.052 251.363 250.752 246.347 248.79 244.735C246.828 243.123 245.648 246.696 245.648 246.696L244.822 246.658Z" fill="url(#paint20_linear_1745_1550)"/>
<path d="M246.635 247.45C246.635 247.45 245.961 240.246 249.995 241.387C254.03 242.527 250.269 248.202 248.696 250.203L246.635 247.45Z" fill="url(#paint21_linear_1745_1550)"/>
<path d="M228.017 327.134L237.745 317.757L251.202 323.442C251.202 323.442 264.597 325.518 272.264 323.442C279.931 321.367 279.931 321.367 279.931 321.367L297.256 315.973L299.977 323.663C300.668 325.616 299.973 327.783 298.285 328.983C296.786 330.048 295.029 331.218 293.91 331.708C291.628 332.706 237.667 331.018 237.667 331.018L228.017 327.134Z" fill="url(#paint22_linear_1745_1550)"/>
<path d="M251.493 230.729C249.476 229.957 249.281 227.177 251.082 225.984C256.896 222.133 266.902 218.748 277.065 230.313C288.513 243.34 294.918 249.541 298.545 249.481C300.926 249.441 302.316 252.134 300.748 253.927C299.589 255.253 297.606 256.444 294.312 257.159C268.905 262.673 263.327 235.262 251.493 230.729Z" fill="url(#paint23_linear_1745_1550)"/>
<path d="M76.0495 435.288C75.7771 435.288 75.5003 435.236 75.2339 435.127C74.1854 434.698 73.7011 433.54 74.1521 432.542L117.492 336.607C117.943 335.609 119.158 335.148 120.207 335.577C121.256 336.007 121.74 337.164 121.289 338.162L77.9489 434.097C77.6126 434.842 76.8504 435.288 76.0495 435.288Z" fill="url(#paint24_linear_1745_1550)"/>
<path d="M124.874 435.288C124.073 435.288 123.311 434.842 122.975 434.097L79.6346 338.162C79.1835 337.164 79.6679 336.007 80.7164 335.577C81.764 335.148 82.98 335.609 83.4314 336.607L126.772 432.542C127.223 433.54 126.738 434.698 125.69 435.127C125.424 435.236 125.147 435.288 124.874 435.288Z" fill="url(#paint25_linear_1745_1550)"/>
<path d="M254.352 435.288C254.08 435.288 253.803 435.236 253.537 435.127C252.488 434.697 252.004 433.54 252.455 432.542L295.795 336.607C296.246 335.609 297.46 335.148 298.51 335.577C299.558 336.007 300.043 337.164 299.592 338.162L256.251 434.097C255.915 434.842 255.153 435.288 254.352 435.288Z" fill="url(#paint26_linear_1745_1550)"/>
<path d="M303.177 435.288C302.376 435.288 301.614 434.842 301.278 434.097L257.937 338.162C257.486 337.164 257.971 336.007 259.019 335.577C260.067 335.148 261.283 335.609 261.734 336.607L305.074 432.542C305.525 433.54 305.041 434.698 303.993 435.127C303.727 435.236 303.449 435.288 303.177 435.288Z" fill="url(#paint27_linear_1745_1550)"/>
<path d="M317.047 333.616C317.188 332.976 316.996 332.314 316.523 331.812C316.051 331.309 315.347 331.018 314.604 331.018H63.0341C62.0574 331.018 61.1482 331.454 60.622 332.176C60.0958 332.898 60.0253 333.806 60.4348 334.584L63.161 339.761C63.7853 340.947 65.1378 341.706 66.6262 341.706H312.878C314.262 341.706 315.452 340.844 315.715 339.651L317.047 333.616Z" fill="url(#paint28_linear_1745_1550)"/>
<path d="M31.5769 367.077C30.057 369.326 24.0166 420.245 23.0712 439.051C23.0072 440.323 24.0245 441.383 25.298 441.383C26.3961 441.383 27.3305 440.583 27.4998 439.499L38.5482 368.697L31.5769 367.077Z" fill="url(#paint29_linear_1745_1550)"/>
<path d="M80.1422 367.077C81.6621 369.326 87.7025 420.245 88.6479 439.051C88.7119 440.323 87.6945 441.383 86.4211 441.383C85.323 441.383 84.3885 440.583 84.2193 439.499L73.1709 368.697L80.1422 367.077Z" fill="url(#paint30_linear_1745_1550)"/>
<path d="M22.4399 363.103L22.4349 363.658C22.3983 367.653 25.8398 370.93 30.1488 371.003L81.2169 371.872C85.464 371.944 89.0042 368.875 89.2103 364.942L89.237 364.434C89.452 360.332 85.9689 356.877 81.5397 356.797L30.4502 355.882C26.0773 355.804 22.4769 359.049 22.4399 363.103Z" fill="url(#paint31_linear_1745_1550)"/>
<path d="M108.928 430.876C100.817 430.876 97.2285 430.18 95.624 429.546C95.9359 430.878 97.1221 431.929 98.6213 431.929H127.315C128.281 431.929 128.891 431.004 128.66 430.167C125.389 430.43 118.442 430.876 108.928 430.876Z" fill="url(#paint32_linear_1745_1550)"/>
<path d="M128.66 430.167C128.614 429.998 128.545 429.832 128.425 429.678C126.24 426.888 121.849 422.505 115.876 422.589C107.126 422.713 104.076 423.662 97.2766 422.643L95.6726 427.96C95.5092 428.501 95.5063 429.043 95.624 429.546C97.2285 430.18 100.817 430.876 108.928 430.876C118.442 430.876 125.389 430.43 128.66 430.167Z" fill="url(#paint33_linear_1745_1550)"/>
<path d="M99.2453 416.913L97.2764 423.61C97.2764 423.61 101.638 425.596 105.475 424.001L106.228 418.2L99.2453 416.913Z" fill="url(#paint34_linear_1745_1550)"/>
<path d="M158.717 426.659C152.394 431.739 149.163 433.447 147.517 433.96C148.59 434.798 150.17 434.87 151.339 433.931L173.707 415.959C174.46 415.354 174.359 414.254 173.657 413.749C171.271 416.002 166.134 420.699 158.717 426.659Z" fill="url(#paint35_linear_1745_1550)"/>
<path d="M173.656 413.749C173.514 413.648 173.358 413.561 173.168 413.518C169.725 412.722 163.57 412.072 158.967 415.878C152.223 421.454 150.437 424.101 144.501 427.569L146.565 432.699C146.776 433.221 147.111 433.643 147.516 433.96C149.162 433.447 152.393 431.739 158.716 426.659C166.133 420.699 171.27 416.002 173.656 413.749Z" fill="url(#paint36_linear_1745_1550)"/>
<path d="M57.1258 340.619C57.1258 340.619 105.685 344.584 115.647 349.273C125.609 353.963 107.518 419.687 107.518 419.687C107.518 419.687 104.806 420.993 98.7715 419.117C98.7715 419.117 104.96 370.614 100.355 360.097L47.7773 351.497L57.1258 340.619Z" fill="url(#paint37_linear_1745_1550)"/>
<path d="M139.677 418.336C140.128 418.747 144.502 427.569 144.502 427.569C144.502 427.569 149.371 426.516 150.364 423.434L145.982 415.472L139.677 418.336Z" fill="url(#paint38_linear_1745_1550)"/>
<path d="M27.8791 340.213C27.8791 340.213 26.2967 344.02 26.3613 349.081C26.4505 356.078 32.0765 361.757 39.0662 362.106L96.4717 364.724C97.684 364.779 98.7097 365.618 99.0134 366.793C100.362 372.011 106.956 388.034 139.187 420.007C140.045 420.858 141.381 421.002 142.402 420.357L146.99 417.459C147.472 417.155 147.626 416.523 147.338 416.032L113.913 358.954C112.158 356.057 109.336 353.964 106.054 353.125L57.1263 340.619L27.8791 340.213Z" fill="url(#paint39_linear_1745_1550)"/>
<path d="M27.7238 340.044C27.7238 340.044 27.1548 311.592 32.8426 284.815C34.943 274.927 40.4094 266.075 48.3495 259.819L51.0057 257.726L64.3097 263.131L71.1467 274.944C74.9105 282.472 73.9862 298.82 71.1467 306.742C66.3988 319.99 62.602 333.717 60.9837 340.46C60.9837 340.46 38.9491 343.37 27.7238 340.044Z" fill="url(#paint40_linear_1745_1550)"/>
<path d="M60.1525 236.523L49.7588 260.636C49.7588 260.636 53.0848 268.12 64.7257 265.209L68.8833 248.579L60.1525 236.523Z" fill="url(#paint41_linear_1745_1550)"/>
<path d="M80.7513 225.525C80.8766 225.862 81.1519 249.619 81.1519 249.619L67.5838 249.488L63.9775 227.01C63.9775 227.01 78.6534 219.887 80.7513 225.525Z" fill="url(#paint42_linear_1745_1550)"/>
<path d="M67.9569 231.332L68.9286 243.314C68.9412 243.467 68.9731 243.615 69.0268 243.759C69.3547 244.644 70.7056 247.605 73.651 246.038C76.3236 244.617 78.7839 243.359 80.7063 243.52C81.5694 243.593 82.2351 244.308 82.2449 245.174C82.2693 247.332 82.2346 252.197 81.5593 256.419C81.4222 257.276 80.6466 257.878 79.7811 257.816C77.1732 257.631 71.684 257.088 67.3704 255.616C66.7857 255.416 66.3562 254.92 66.2513 254.312C65.7398 251.345 64.1515 242.332 63.3205 239.889C62.5404 237.596 59.3498 236.812 57.9867 236.577C57.5397 236.501 57.1475 236.246 56.8942 235.87C55.999 234.541 54.4706 231.346 58.4157 229.049C59.2414 228.568 59.5026 227.51 58.9968 226.699C57.9902 225.085 57.1478 222.472 60.1126 220.291C63.1261 218.075 66.0025 219.315 67.6605 220.47C68.3308 220.936 69.2232 220.837 69.8059 220.264C70.1378 219.938 70.6155 219.752 71.2943 219.995C72.2089 220.323 73.2023 219.75 73.4336 218.807C73.8782 216.994 75.1269 214.885 78.5143 214.738C84.5253 214.478 86.5704 220.759 85.8548 224.854C85.1393 228.948 78.6062 228.86 75.0741 227.637C72.3885 226.708 69.6363 228.886 68.4715 229.983C68.1027 230.33 67.9159 230.827 67.9569 231.332Z" fill="url(#paint43_linear_1745_1550)"/>
<path d="M63.7177 244.248C63.7177 244.248 64.6582 237.06 61.8566 235.955C59.0552 234.85 55.6125 236.483 57.4558 241.144C59.7486 246.942 63.7177 244.248 63.7177 244.248Z" fill="url(#paint44_linear_1745_1550)"/>
<path d="M92.1766 317.192C57.9124 327.948 59.7353 279.722 59.5133 279.383C45.9301 258.626 38.3029 286.287 39.6192 290.186C51.6669 333.804 82.0383 331.644 93.8726 323.076C92.3989 320.784 92.0628 318.766 92.1766 317.192Z" fill="url(#paint45_linear_1745_1550)"/>
<path d="M65.9108 309.753C65.7217 309.694 65.5513 309.571 65.436 309.391C60.2445 301.301 58.7796 290.059 58.4646 282.053C58.4457 281.572 58.8204 281.167 59.3013 281.148C59.7826 281.129 60.1878 281.503 60.2066 281.985C60.4574 288.362 61.6608 300.28 66.9035 308.45C67.1634 308.855 67.0456 309.394 66.6406 309.654C66.4149 309.799 66.1482 309.826 65.9108 309.753Z" fill="url(#paint46_linear_1745_1550)"/>
<path d="M56.3414 320.712C56.2341 320.679 56.1317 320.624 56.0402 320.548C48.2094 313.985 42.3092 303.673 38.5043 289.898C38.3762 289.434 38.6485 288.954 39.1124 288.826C39.5767 288.698 40.0566 288.97 40.1849 289.434C43.8939 302.862 49.6051 312.88 57.1601 319.211C57.5289 319.521 57.5774 320.071 57.2684 320.44C57.0356 320.717 56.6669 320.813 56.3414 320.712Z" fill="url(#paint47_linear_1745_1550)"/>
<path d="M112.346 307.122C112.346 307.122 111.79 308.011 107.778 311.119C103.767 314.227 99.7277 316.021 102.795 311.749C105.861 307.477 104.369 305.273 100.869 309.875C97.3693 314.477 94.8672 316.254 94.8672 316.254C93.9461 316.607 93.0501 316.918 92.1766 317.192C92.0628 318.766 92.3989 320.784 93.8726 323.077C95.2607 322.618 96.0449 322.279 96.0449 322.279C96.0449 322.279 106.656 320.348 108.929 315.829C111.201 311.311 112.346 307.122 112.346 307.122Z" fill="url(#paint48_linear_1745_1550)"/>
<path d="M189.87 284.578C189.87 284.578 102.001 241.163 130.737 209.197C159.473 177.231 213.047 190.008 215.761 223.652C218.476 257.296 153.269 249.403 189.87 284.578Z" fill="white"/>
<path d="M138.17 218.339H176.95C177.439 218.339 177.836 217.943 177.836 217.453C177.836 216.964 177.439 216.567 176.95 216.567H138.17C137.681 216.567 137.284 216.963 137.284 217.453C137.284 217.943 137.681 218.339 138.17 218.339Z" fill="url(#paint49_linear_1745_1550)"/>
<path d="M188.465 218.339H199.972C200.461 218.339 200.858 217.943 200.858 217.453C200.858 216.964 200.461 216.567 199.972 216.567H188.465C187.976 216.567 187.579 216.963 187.579 217.453C187.579 217.943 187.976 218.339 188.465 218.339Z" fill="url(#paint50_linear_1745_1550)"/>
<path d="M136.864 226.19H151.426C151.915 226.19 152.311 225.793 152.311 225.304C152.311 224.814 151.915 224.418 151.426 224.418H136.864C136.375 224.418 135.979 224.814 135.979 225.304C135.979 225.794 136.375 226.19 136.864 226.19Z" fill="url(#paint51_linear_1745_1550)"/>
<path d="M172.792 226.19H198.666C199.155 226.19 199.552 225.793 199.552 225.304C199.552 224.814 199.155 224.418 198.666 224.418H172.792C172.303 224.418 171.906 224.814 171.906 225.304C171.906 225.794 172.303 226.19 172.792 226.19Z" fill="url(#paint52_linear_1745_1550)"/>
<path d="M135.558 234.041H174.266C174.755 234.041 175.152 233.645 175.152 233.155C175.152 232.666 174.755 232.269 174.266 232.269H135.558C135.069 232.269 134.672 232.666 134.672 233.155C134.672 233.645 135.069 234.041 135.558 234.041Z" fill="url(#paint53_linear_1745_1550)"/>
<path d="M183.958 234.041H197.359C197.848 234.041 198.245 233.645 198.245 233.155C198.245 232.666 197.848 232.269 197.359 232.269H183.958C183.469 232.269 183.072 232.666 183.072 233.155C183.072 233.645 183.469 234.041 183.958 234.041Z" fill="url(#paint54_linear_1745_1550)"/>
<defs>
<linearGradient id="paint0_linear_1745_1550" x1="478.909" y1="262.406" x2="334.206" y2="322.269" gradientUnits="userSpaceOnUse">
<stop stop-color="#A737D5"/>
<stop offset="1" stop-color="#EF497A"/>
</linearGradient>
<linearGradient id="paint1_linear_1745_1550" x1="123.203" y1="253.045" x2="54.6322" y2="303.483" gradientUnits="userSpaceOnUse">
<stop stop-color="#A737D5"/>
<stop offset="1" stop-color="#EF497A"/>
</linearGradient>
<linearGradient id="paint2_linear_1745_1550" x1="190.928" y1="378.895" x2="76.5956" y2="98.5971" gradientUnits="userSpaceOnUse">
<stop stop-color="#CE1567"/>
<stop offset="1" stop-color="#7A1DBC"/>
</linearGradient>
<linearGradient id="paint3_linear_1745_1550" x1="279.299" y1="394.981" x2="280.073" y2="-3.55993" gradientUnits="userSpaceOnUse">
<stop stop-color="#2B3582"/>
<stop offset="1" stop-color="#150E42"/>
</linearGradient>
<linearGradient id="paint4_linear_1745_1550" x1="442.592" y1="469.766" x2="193.114" y2="119.109" gradientUnits="userSpaceOnUse">
<stop stop-color="#F9968B"/>
<stop offset="1" stop-color="#6763FF"/>
</linearGradient>
<linearGradient id="paint5_linear_1745_1550" x1="311.25" y1="-6.50021" x2="211.813" y2="130.662" gradientUnits="userSpaceOnUse">
<stop stop-color="#2B3582"/>
<stop offset="1" stop-color="#150E42"/>
</linearGradient>
<linearGradient id="paint6_linear_1745_1550" x1="230.329" y1="6.89814" x2="328.379" y2="129.978" gradientUnits="userSpaceOnUse">
<stop stop-color="#2B3582"/>
<stop offset="1" stop-color="#150E42"/>
</linearGradient>
<linearGradient id="paint7_linear_1745_1550" x1="277.887" y1="94.519" x2="274.791" y2="-44.0036" gradientUnits="userSpaceOnUse">
<stop stop-color="#2B3582"/>
<stop offset="1" stop-color="#150E42"/>
</linearGradient>
<linearGradient id="paint8_linear_1745_1550" x1="235.541" y1="268.501" x2="213.891" y2="332.774" gradientUnits="userSpaceOnUse">
<stop stop-color="#53D8FF"/>
<stop offset="1" stop-color="#3840F7"/>
</linearGradient>
<linearGradient id="paint9_linear_1745_1550" x1="259.297" y1="428.664" x2="270.373" y2="358.996" gradientUnits="userSpaceOnUse">
<stop stop-color="#FDF53F"/>
<stop offset="1" stop-color="#D93C65"/>
</linearGradient>
<linearGradient id="paint10_linear_1745_1550" x1="263.581" y1="429.076" x2="275.111" y2="356.549" gradientUnits="userSpaceOnUse">
<stop stop-color="#FDF53F"/>
<stop offset="1" stop-color="#D93C65"/>
</linearGradient>
<linearGradient id="paint11_linear_1745_1550" x1="255.182" y1="428.009" x2="266.257" y2="358.342" gradientUnits="userSpaceOnUse">
<stop stop-color="#FDF53F"/>
<stop offset="1" stop-color="#D93C65"/>
</linearGradient>
<linearGradient id="paint12_linear_1745_1550" x1="197.959" y1="384.306" x2="234.395" y2="384.306" gradientUnits="userSpaceOnUse">
<stop stop-color="#F9B776"/>
<stop offset="1" stop-color="#F47960"/>
</linearGradient>
<linearGradient id="paint13_linear_1745_1550" x1="-689.628" y1="1009.34" x2="-567.753" y2="931.632" gradientUnits="userSpaceOnUse">
<stop stop-color="#53D8FF"/>
<stop offset="1" stop-color="#3840F7"/>
</linearGradient>
<linearGradient id="paint14_linear_1745_1550" x1="205.896" y1="399.555" x2="158.818" y2="318.581" gradientUnits="userSpaceOnUse">
<stop stop-color="#F9B776"/>
<stop offset="1" stop-color="#F47960"/>
</linearGradient>
<linearGradient id="paint15_linear_1745_1550" x1="236.135" y1="318.179" x2="308.635" y2="414.218" gradientUnits="userSpaceOnUse">
<stop stop-color="#2B3582"/>
<stop offset="1" stop-color="#150E42"/>
</linearGradient>
<linearGradient id="paint16_linear_1745_1550" x1="-700.82" y1="991.786" x2="-578.945" y2="914.08" gradientUnits="userSpaceOnUse">
<stop stop-color="#53D8FF"/>
<stop offset="1" stop-color="#3840F7"/>
</linearGradient>
<linearGradient id="paint17_linear_1745_1550" x1="263.103" y1="303.952" x2="303.957" y2="392.87" gradientUnits="userSpaceOnUse">
<stop stop-color="#F28705"/>
<stop offset="1" stop-color="#C45B2F"/>
</linearGradient>
<linearGradient id="paint18_linear_1745_1550" x1="250.955" y1="281.271" x2="247.109" y2="256.595" gradientUnits="userSpaceOnUse">
<stop stop-color="#F9B776"/>
<stop offset="1" stop-color="#F47960"/>
</linearGradient>
<linearGradient id="paint19_linear_1745_1550" x1="228.369" y1="245.554" x2="264.673" y2="251.653" gradientUnits="userSpaceOnUse">
<stop stop-color="#F9B776"/>
<stop offset="1" stop-color="#F47960"/>
</linearGradient>
<linearGradient id="paint20_linear_1745_1550" x1="260.462" y1="188.073" x2="236.206" y2="257.671" gradientUnits="userSpaceOnUse">
<stop stop-color="#2B3582"/>
<stop offset="1" stop-color="#150E42"/>
</linearGradient>
<linearGradient id="paint21_linear_1745_1550" x1="228.906" y1="242.35" x2="265.21" y2="248.449" gradientUnits="userSpaceOnUse">
<stop stop-color="#F9B776"/>
<stop offset="1" stop-color="#F47960"/>
</linearGradient>
<linearGradient id="paint22_linear_1745_1550" x1="273.033" y1="323.999" x2="345.258" y2="323.999" gradientUnits="userSpaceOnUse">
<stop stop-color="#F9B776"/>
<stop offset="1" stop-color="#F47960"/>
</linearGradient>
<linearGradient id="paint23_linear_1745_1550" x1="290.195" y1="198.435" x2="265.938" y2="268.033" gradientUnits="userSpaceOnUse">
<stop stop-color="#2B3582"/>
<stop offset="1" stop-color="#150E42"/>
</linearGradient>
<linearGradient id="paint24_linear_1745_1550" x1="73.9835" y1="385.352" x2="121.458" y2="385.352" gradientUnits="userSpaceOnUse">
<stop stop-color="#18459F"/>
<stop offset="1" stop-color="#2874B5"/>
</linearGradient>
<linearGradient id="paint25_linear_1745_1550" x1="79.4658" y1="385.352" x2="126.94" y2="385.352" gradientUnits="userSpaceOnUse">
<stop stop-color="#18459F"/>
<stop offset="1" stop-color="#2874B5"/>
</linearGradient>
<linearGradient id="paint26_linear_1745_1550" x1="252.286" y1="385.352" x2="299.761" y2="385.352" gradientUnits="userSpaceOnUse">
<stop stop-color="#18459F"/>
<stop offset="1" stop-color="#2874B5"/>
</linearGradient>
<linearGradient id="paint27_linear_1745_1550" x1="257.769" y1="385.352" x2="305.243" y2="385.352" gradientUnits="userSpaceOnUse">
<stop stop-color="#18459F"/>
<stop offset="1" stop-color="#2874B5"/>
</linearGradient>
<linearGradient id="paint28_linear_1745_1550" x1="60.1709" y1="336.362" x2="317.092" y2="336.362" gradientUnits="userSpaceOnUse">
<stop stop-color="#18459F"/>
<stop offset="1" stop-color="#2874B5"/>
</linearGradient>
<linearGradient id="paint29_linear_1745_1550" x1="69.4214" y1="475.282" x2="12.9828" y2="371.402" gradientUnits="userSpaceOnUse">
<stop stop-color="#FDF53F"/>
<stop offset="1" stop-color="#D93C65"/>
</linearGradient>
<linearGradient id="paint30_linear_1745_1550" x1="109.417" y1="453.552" x2="52.9787" y2="349.673" gradientUnits="userSpaceOnUse">
<stop stop-color="#FDF53F"/>
<stop offset="1" stop-color="#D93C65"/>
</linearGradient>
<linearGradient id="paint31_linear_1745_1550" x1="105.659" y1="455.595" x2="49.2201" y2="351.715" gradientUnits="userSpaceOnUse">
<stop stop-color="#FDF53F"/>
<stop offset="1" stop-color="#D93C65"/>
</linearGradient>
<linearGradient id="paint32_linear_1745_1550" x1="95.624" y1="430.737" x2="128.709" y2="430.737" gradientUnits="userSpaceOnUse">
<stop stop-color="#CB236D"/>
<stop offset="1" stop-color="#4C246D"/>
</linearGradient>
<linearGradient id="paint33_linear_1745_1550" x1="121.115" y1="367.118" x2="112.075" y2="429.575" gradientUnits="userSpaceOnUse">
<stop stop-color="#2B3582"/>
<stop offset="1" stop-color="#150E42"/>
</linearGradient>
<linearGradient id="paint34_linear_1745_1550" x1="97.2764" y1="420.767" x2="106.228" y2="420.767" gradientUnits="userSpaceOnUse">
<stop stop-color="#F9B776"/>
<stop offset="1" stop-color="#F47960"/>
</linearGradient>
<linearGradient id="paint35_linear_1745_1550" x1="147.517" y1="424.181" x2="174.229" y2="424.181" gradientUnits="userSpaceOnUse">
<stop stop-color="#CB236D"/>
<stop offset="1" stop-color="#4C246D"/>
</linearGradient>
<linearGradient id="paint36_linear_1745_1550" x1="165.89" y1="373.599" x2="156.85" y2="436.056" gradientUnits="userSpaceOnUse">
<stop stop-color="#2B3582"/>
<stop offset="1" stop-color="#150E42"/>
</linearGradient>
<linearGradient id="paint37_linear_1745_1550" x1="47.7773" y1="380.374" x2="118.641" y2="380.374" gradientUnits="userSpaceOnUse">
<stop stop-color="#2B3582"/>
<stop offset="1" stop-color="#150E42"/>
</linearGradient>
<linearGradient id="paint38_linear_1745_1550" x1="139.677" y1="421.52" x2="150.364" y2="421.52" gradientUnits="userSpaceOnUse">
<stop stop-color="#F9B776"/>
<stop offset="1" stop-color="#F47960"/>
</linearGradient>
<linearGradient id="paint39_linear_1745_1550" x1="112.147" y1="350.85" x2="34.35" y2="439.056" gradientUnits="userSpaceOnUse">
<stop stop-color="#2B3582"/>
<stop offset="1" stop-color="#150E42"/>
</linearGradient>
<linearGradient id="paint40_linear_1745_1550" x1="-0.382177" y1="226.515" x2="83.4164" y2="362.099" gradientUnits="userSpaceOnUse">
<stop stop-color="#53D8FF"/>
<stop offset="1" stop-color="#3840F7"/>
</linearGradient>
<linearGradient id="paint41_linear_1745_1550" x1="49.7587" y1="251.202" x2="68.8833" y2="251.202" gradientUnits="userSpaceOnUse">
<stop stop-color="#F9B776"/>
<stop offset="1" stop-color="#F47960"/>
</linearGradient>
<linearGradient id="paint42_linear_1745_1550" x1="75.7932" y1="227.538" x2="62.8216" y2="270.837" gradientUnits="userSpaceOnUse">
<stop stop-color="#F9B776"/>
<stop offset="1" stop-color="#F47960"/>
</linearGradient>
<linearGradient id="paint43_linear_1745_1550" x1="59.3168" y1="242.949" x2="89.8309" y2="231.595" gradientUnits="userSpaceOnUse">
<stop stop-color="#2B3582"/>
<stop offset="1" stop-color="#150E42"/>
</linearGradient>
<linearGradient id="paint44_linear_1745_1550" x1="48.3363" y1="268.221" x2="61.0043" y2="239.576" gradientUnits="userSpaceOnUse">
<stop stop-color="#F9B776"/>
<stop offset="1" stop-color="#F47960"/>
</linearGradient>
<linearGradient id="paint45_linear_1745_1550" x1="11.661" y1="219.072" x2="95.4596" y2="354.656" gradientUnits="userSpaceOnUse">
<stop stop-color="#53D8FF"/>
<stop offset="1" stop-color="#3840F7"/>
</linearGradient>
<linearGradient id="paint46_linear_1745_1550" x1="19.9788" y1="322.11" x2="70.5063" y2="290.64" gradientUnits="userSpaceOnUse">
<stop stop-color="#53D8FF"/>
<stop offset="1" stop-color="#3840F7"/>
</linearGradient>
<linearGradient id="paint47_linear_1745_1550" x1="20.0219" y1="322.181" x2="70.5478" y2="290.712" gradientUnits="userSpaceOnUse">
<stop stop-color="#53D8FF"/>
<stop offset="1" stop-color="#3840F7"/>
</linearGradient>
<linearGradient id="paint48_linear_1745_1550" x1="139.301" y1="282.9" x2="98.6598" y2="318.371" gradientUnits="userSpaceOnUse">
<stop stop-color="#F9B776"/>
<stop offset="1" stop-color="#F47960"/>
</linearGradient>
<linearGradient id="paint49_linear_1745_1550" x1="132.647" y1="259.05" x2="303.103" y2="-25.5637" gradientUnits="userSpaceOnUse">
<stop stop-color="#53D8FF"/>
<stop offset="1" stop-color="#3840F7"/>
</linearGradient>
<linearGradient id="paint50_linear_1745_1550" x1="159.628" y1="275.209" x2="330.084" y2="-9.40517" gradientUnits="userSpaceOnUse">
<stop stop-color="#53D8FF"/>
<stop offset="1" stop-color="#3840F7"/>
</linearGradient>
<linearGradient id="paint51_linear_1745_1550" x1="126.235" y1="255.209" x2="296.691" y2="-29.4053" gradientUnits="userSpaceOnUse">
<stop stop-color="#53D8FF"/>
<stop offset="1" stop-color="#3840F7"/>
</linearGradient>
<linearGradient id="paint52_linear_1745_1550" x1="156.841" y1="273.539" x2="327.297" y2="-11.075" gradientUnits="userSpaceOnUse">
<stop stop-color="#53D8FF"/>
<stop offset="1" stop-color="#3840F7"/>
</linearGradient>
<linearGradient id="paint53_linear_1745_1550" x1="137.62" y1="262.028" x2="308.076" y2="-22.5862" gradientUnits="userSpaceOnUse">
<stop stop-color="#53D8FF"/>
<stop offset="1" stop-color="#3840F7"/>
</linearGradient>
<linearGradient id="paint54_linear_1745_1550" x1="163.93" y1="277.785" x2="334.386" y2="-6.82949" gradientUnits="userSpaceOnUse">
<stop stop-color="#53D8FF"/>
<stop offset="1" stop-color="#3840F7"/>
</linearGradient>
</defs>
</svg>
