<svg width="456" height="454" viewBox="0 0 456 454" fill="none" xmlns="http://www.w3.org/2000/svg">
<path d="M449.363 319.466C436.099 370.465 398.75 417.699 308.279 442.136C275.586 450.971 237.539 455.309 203.62 452.629C153.7 448.683 101.378 426.147 59.7995 400.597C31.0242 382.916 19.5721 359.058 15.518 332.088C13.0085 315.412 13.3265 297.55 14.1269 279.222C15.3306 251.65 10.9472 223.885 4.45763 197.057C-5.5297 155.751 2.69741 112.423 27.3393 76.8912C51.9812 41.359 90.9199 16.6377 135.332 8.33106C210.155 -5.6593 286.062 3.57294 286.062 3.57294C386.038 13.9578 436.644 113.212 448.988 194.003C454.632 230.926 460.531 276.53 449.363 319.466Z" fill="#F4F7FA"/>
<path d="M47.2058 242.632C49.941 240.724 53.9208 239.889 57.2238 239.926C80.6389 240.189 80.0384 289.127 75.5772 299.709C71.116 310.29 73.1343 314.051 91.0009 321.247C108.867 328.442 99.1724 338.674 96.4111 344.897C93.65 351.119 88.7804 356.167 101.623 363.631C114.465 371.094 109.497 374.657 109.497 374.657C109.497 374.657 82.7774 397.844 84.802 389.884C86.8266 381.924 85.3612 369.533 63.3385 366.791C53.8528 365.611 39.6495 359.873 37.259 349.415C36.7024 346.98 36.4773 343.312 37.2508 340.903C38.3238 337.561 40.7809 335.059 42.2864 331.954C45.7946 324.718 38.9858 318.648 35.2187 313.309C33.2521 310.522 31.2922 307.668 29.8664 304.558C26.9062 298.099 28.7481 291.585 32.9913 286.204C35.0259 283.624 37.7799 280.935 38.837 277.745C39.9725 274.318 39.6256 269.48 39.7195 265.867C39.7933 263.033 39.7556 260.2 40.1463 257.385C40.8736 252.149 42.6333 245.823 47.2058 242.632Z" fill="url(#paint0_linear_37_30)"/>
<path d="M7.49515 278.851C9.6841 276.335 13.3412 274.557 16.5542 273.79C39.3301 268.35 50.6499 315.965 48.8961 327.314C47.1424 338.663 50.0148 341.82 69.0949 344.454C88.1751 347.088 81.2596 359.371 80.0945 366.078C78.9296 372.786 75.4341 378.866 89.7061 382.982C103.978 387.098 100.025 391.762 100.025 391.762C100.025 391.762 79.7474 420.751 79.7753 412.538C79.8031 404.324 75.3682 392.662 53.34 395.359C43.8519 396.521 28.6795 394.409 23.8176 384.847C22.6853 382.621 21.5749 379.118 21.7392 376.592C21.9673 373.089 23.7422 370.065 24.4473 366.687C26.0903 358.815 18.0095 354.584 13.0574 350.322C10.472 348.096 7.87665 345.805 5.73719 343.134C1.29525 337.59 1.49741 330.823 4.30447 324.572C5.65051 321.574 7.66803 318.296 7.91741 314.945C8.18539 311.345 6.67229 306.737 5.88453 303.209C5.26674 300.442 4.5414 297.704 4.2359 294.878C3.6676 289.622 3.83579 283.058 7.49515 278.851Z" fill="url(#paint1_linear_37_30)"/>
<path d="M260.826 413.806L30.6721 411.801V417.732C30.6721 419.342 31.676 420.71 33.0356 420.954L98.1163 432.634C98.8887 432.772 99.672 432.809 100.451 432.743L258.325 419.427C259.735 419.308 260.826 417.935 260.826 416.281L260.826 413.806Z" fill="url(#paint2_linear_37_30)"/>
<path d="M186.737 404.191L33.2051 415.041C30.4577 415.235 28.2239 413.172 28.2239 410.433V300.676C28.2239 297.936 30.4577 295.716 33.2051 295.716H186.737C189 295.716 190.83 297.723 190.83 300.2V399.418C190.83 401.894 189 404.031 186.737 404.191Z" fill="url(#paint3_linear_37_30)"/>
<path d="M189.185 404.191L35.6531 415.041C32.9057 415.235 30.672 413.172 30.672 410.433V300.676C30.672 297.936 32.9057 295.716 35.6531 295.716H189.185C191.448 295.716 193.278 297.723 193.278 300.2V399.418C193.278 401.894 191.448 404.031 189.185 404.191Z" fill="url(#paint4_linear_37_30)"/>
<path d="M185.354 403.699L30.672 415.12L98.1162 427.223C98.8886 427.361 99.6718 427.398 100.451 427.332L260.826 413.805L187.814 403.777C186.998 403.664 186.174 403.639 185.354 403.699Z" fill="url(#paint5_linear_37_30)"/>
<path opacity="0.3" d="M53.2425 415.407L182.02 405.757L221.875 411.188L94.2073 421.503L53.2425 415.407Z" fill="url(#paint6_linear_37_30)"/>
<path d="M187.797 320.667L37.3331 322.537V305.539C37.3331 303.633 38.8782 302.088 40.7841 302.088H184.346C186.252 302.088 187.797 303.633 187.797 305.539L187.797 320.667Z" fill="url(#paint7_linear_37_30)"/>
<path d="M131.665 366.204L46.5956 369.719V329.535L131.665 328.109V366.204Z" fill="url(#paint8_linear_37_30)"/>
<path d="M180.067 364.204L136.682 365.997V328.024L180.067 327.297V364.204Z" fill="url(#paint9_linear_37_30)"/>
<path d="M180.067 391.6L46.5956 399.547V374.967L180.067 369.024V391.6Z" fill="url(#paint10_linear_37_30)"/>
<path d="M48.121 311.587C48.121 312.638 47.1893 313.496 46.0384 313.504C44.886 313.512 43.9506 312.665 43.9506 311.611C43.9506 310.558 44.886 309.7 46.0384 309.695C47.1893 309.689 48.121 310.537 48.121 311.587Z" fill="#9D3060"/>
<path d="M55.6522 311.544C55.6522 312.589 54.729 313.444 53.5889 313.451C52.4471 313.459 51.5203 312.616 51.5203 311.568C51.5203 310.519 52.4471 309.665 53.5889 309.66C54.729 309.654 55.6522 310.498 55.6522 311.544Z" fill="#9D3060"/>
<path d="M63.1143 311.5C63.1143 312.541 62.1996 313.391 61.0698 313.399C59.9384 313.407 59.0201 312.567 59.0201 311.524C59.0201 310.48 59.9384 309.63 61.0698 309.625C62.1998 309.62 63.1143 310.459 63.1143 311.5Z" fill="#9D3060"/>
<path d="M354.789 410.053C351.233 408.888 348.576 405.905 347.826 402.239L342.652 376.924L299.42 378.479L293.972 404.852C293.209 408.546 295.228 412.25 298.746 413.61L317.266 420.772C320.711 422.105 324.413 422.635 328.093 422.324L367.233 419.015C368.378 418.918 369.295 418.029 369.428 416.888C369.562 415.748 368.873 414.671 367.782 414.314L354.789 410.053Z" fill="url(#paint11_linear_37_30)"/>
<path d="M425.55 360.236V245.278C425.55 242.921 423.608 240.915 421.227 240.819L223.728 232.88C220.722 232.759 218.256 234.836 218.256 237.495V364.541L425.55 360.236Z" fill="url(#paint12_linear_37_30)"/>
<path d="M420.947 260.802V250.644C420.947 248.48 419.159 246.642 416.968 246.561L229.341 239.561C226.608 239.459 224.365 241.361 224.365 243.787V255.176L420.947 260.802Z" fill="url(#paint13_linear_37_30)"/>
<path d="M238.08 247.449C238.08 248.302 237.302 248.969 236.342 248.939C235.381 248.908 234.6 248.19 234.6 247.335C234.6 246.48 235.381 245.814 236.342 245.846C237.302 245.879 238.08 246.597 238.08 247.449Z" fill="#9D3060"/>
<path d="M245.568 247.695C245.568 248.543 244.8 249.206 243.851 249.176C242.901 249.146 242.129 248.432 242.129 247.582C242.129 246.732 242.901 246.069 243.851 246.102C244.8 246.134 245.568 246.848 245.568 247.695Z" fill="#9D3060"/>
<path d="M252.969 247.938C252.969 248.781 252.21 249.44 251.272 249.411C250.333 249.381 249.571 248.672 249.571 247.827C249.571 246.982 250.333 246.322 251.272 246.354C252.21 246.386 252.969 247.096 252.969 247.938Z" fill="#9D3060"/>
<path d="M218.256 364.541V389.913C218.256 392.573 220.722 394.644 223.727 394.517L421.227 386.168C423.607 386.067 425.55 384.056 425.55 381.699V359.499L218.256 364.541Z" fill="url(#paint14_linear_37_30)"/>
<path d="M347.662 310.796L238.756 311.386V265.912L347.662 267.893V310.796Z" fill="url(#paint15_linear_37_30)"/>
<path d="M409.158 310.462L354.051 310.761V268.009L409.158 269.012V310.462Z" fill="url(#paint16_linear_37_30)"/>
<path d="M409.158 341.23L238.756 345.139V317.324L409.158 315.875V341.23Z" fill="url(#paint17_linear_37_30)"/>
<path d="M122.346 202.958C134.719 203.594 144.976 215.155 145.491 228.778C145.54 230.073 145.502 231.345 145.375 232.584C147.454 231.641 149.746 231.151 152.162 231.217C161.869 231.482 169.943 240.603 170.35 251.587C170.736 262.022 164.085 270.625 155.122 271.535C154.647 271.58 154.167 271.61 153.681 271.614L66.3855 272.074C61.0564 271.09 56.821 266.208 56.5793 260.299C56.307 253.638 61.2162 248.289 67.4859 248.359C68.802 248.373 70.0779 248.625 71.2656 249.079C70.7259 247.036 70.3958 244.912 70.3077 242.729C69.7009 227.705 80.578 215.952 94.3125 216.482C96.8303 216.579 99.2643 217.088 101.564 217.935C104.659 208.669 112.741 202.465 122.346 202.958Z" fill="#413974"/>
<path d="M128.024 198.378C140.276 199.06 150.432 210.605 150.943 224.164C150.991 225.453 150.953 226.719 150.828 227.951C152.886 227.021 155.156 226.543 157.549 226.618C167.162 226.923 175.159 236.033 175.562 246.967C175.945 257.353 169.357 265.887 160.48 266.754C160.01 266.797 159.535 266.825 159.053 266.827L72.6324 266.91C67.3587 265.908 63.1675 261.034 62.9285 255.154C62.6591 248.527 67.5168 243.227 73.7214 243.323C75.0238 243.343 76.2864 243.598 77.4619 244.055C76.9279 242.021 76.6012 239.906 76.5141 237.734C75.9136 222.786 86.6785 211.138 100.273 211.721C102.765 211.827 105.174 212.344 107.45 213.195C110.514 203.989 118.515 197.848 128.024 198.378Z" fill="url(#paint18_linear_37_30)"/>
<path d="M201.508 192.074C200.265 192.074 199.258 191.067 199.258 189.824V182.791C199.258 181.548 200.265 180.54 201.508 180.54C202.751 180.54 203.759 181.548 203.759 182.791V189.824C203.759 191.067 202.751 192.074 201.508 192.074Z" fill="#413974"/>
<path d="M201.508 323.51C200.265 323.51 199.258 322.503 199.258 321.26V308.116C199.258 306.873 200.265 305.866 201.508 305.866C202.751 305.866 203.759 306.873 203.759 308.116V321.26C203.759 322.503 202.751 323.51 201.508 323.51ZM201.508 297.223C200.265 297.223 199.258 296.215 199.258 294.973V281.829C199.258 280.586 200.265 279.578 201.508 279.578C202.751 279.578 203.759 280.586 203.759 281.829V294.973C203.759 296.215 202.751 297.223 201.508 297.223ZM201.508 270.936C200.265 270.936 199.258 269.928 199.258 268.685V255.542C199.258 254.299 200.265 253.291 201.508 253.291C202.751 253.291 203.759 254.299 203.759 255.542V268.685C203.759 269.928 202.751 270.936 201.508 270.936ZM201.508 244.649C200.265 244.649 199.258 243.641 199.258 242.398V229.254C199.258 228.012 200.265 227.004 201.508 227.004C202.751 227.004 203.759 228.012 203.759 229.254V242.398C203.759 243.641 202.751 244.649 201.508 244.649ZM201.508 218.361C200.265 218.361 199.258 217.354 199.258 216.111V202.967C199.258 201.724 200.265 200.717 201.508 200.717C202.751 200.717 203.759 201.724 203.759 202.967V216.111C203.759 217.354 202.751 218.361 201.508 218.361Z" fill="#413974"/>
<path d="M203.759 343.732L190.819 343.475C189.577 343.451 188.589 342.424 188.614 341.181C188.638 339.938 189.65 338.954 190.909 338.975L199.257 339.141V334.404C199.257 333.161 200.265 332.153 201.508 332.153C202.751 332.153 203.759 333.161 203.759 334.404L203.759 343.732Z" fill="#413974"/>
<path d="M295.791 198.243C294.548 198.243 293.541 197.236 293.541 195.993V188.96C293.541 187.717 294.548 186.709 295.791 186.709C297.034 186.709 298.042 187.717 298.042 188.96V195.993C298.042 197.236 297.034 198.243 295.791 198.243Z" fill="#413974"/>
<path d="M295.791 221.648C294.548 221.648 293.541 220.64 293.541 219.397V207.695C293.541 206.452 294.548 205.445 295.791 205.445C297.034 205.445 298.042 206.452 298.042 207.695V219.397C298.042 220.64 297.034 221.648 295.791 221.648Z" fill="#413974"/>
<path d="M295.791 240.383C294.548 240.383 293.541 239.375 293.541 238.132V231.099C293.541 229.857 294.548 228.849 295.791 228.849C297.034 228.849 298.042 229.857 298.042 231.099V238.132C298.042 239.375 297.034 240.383 295.791 240.383Z" fill="#413974"/>
<path d="M354.051 206.469C352.808 206.469 351.801 205.461 351.801 204.218V197.185C351.801 195.942 352.808 194.935 354.051 194.935C355.294 194.935 356.302 195.942 356.302 197.185V204.218C356.302 205.461 355.294 206.469 354.051 206.469Z" fill="#413974"/>
<path d="M354.051 225.418C352.808 225.418 351.801 224.41 351.801 223.167V213.693C351.801 212.45 352.808 211.442 354.051 211.442C355.294 211.442 356.302 212.45 356.302 213.693V223.167C356.302 224.41 355.294 225.418 354.051 225.418Z" fill="#413974"/>
<path d="M354.051 241.925C352.808 241.925 351.801 240.918 351.801 239.675V232.642C351.801 231.399 352.808 230.391 354.051 230.391C355.294 230.391 356.302 231.399 356.302 232.642V239.675C356.302 240.918 355.294 241.925 354.051 241.925Z" fill="#413974"/>
<path d="M136.682 259.872C135.439 259.872 134.431 258.865 134.431 257.622V250.589C134.431 249.346 135.439 248.338 136.682 248.338C137.925 248.338 138.932 249.346 138.932 250.589V257.622C138.933 258.865 137.925 259.872 136.682 259.872Z" fill="#413974"/>
<path d="M136.682 278.821C135.439 278.821 134.431 277.813 134.431 276.571V267.096C134.431 265.853 135.439 264.846 136.682 264.846C137.925 264.846 138.932 265.853 138.932 267.096V276.571C138.933 277.813 137.925 278.821 136.682 278.821Z" fill="#413974"/>
<path d="M136.682 295.328C135.439 295.328 134.431 294.321 134.431 293.078V286.045C134.431 284.802 135.439 283.794 136.682 283.794C137.925 283.794 138.932 284.802 138.932 286.045V293.078C138.933 294.321 137.925 295.328 136.682 295.328Z" fill="#413974"/>
<path d="M361.024 170.86C358.076 178.551 353.287 185.123 347.2 189.984C340.532 195.318 332.301 198.593 323.214 199.054C321.948 199.11 320.665 199.122 319.372 199.076L99.1256 190.187C86.4494 187.289 76.4346 175.316 75.8662 161.351C75.3598 148.894 82.5223 138.621 92.9311 135.189C95.6708 134.283 98.6419 133.855 101.753 133.984C104.915 134.12 107.97 134.817 110.823 135.987C110.176 133.568 109.664 131.104 109.276 128.594C108.882 126.034 108.629 123.435 108.522 120.802C107.475 95.0496 120.793 73.5118 140.885 64.0876C148.706 60.4192 157.55 58.5849 166.975 59.0519C167.036 59.0576 167.098 59.0576 167.16 59.0632C173.321 59.3839 179.313 60.6779 184.979 62.7766C185.829 60.3122 186.83 57.9323 187.978 55.6593C193.43 44.8229 202.083 36.2875 212.723 31.3363C220.155 27.876 228.555 26.16 237.501 26.6325C269.437 28.3148 296.286 57.2346 297.648 91.235C297.777 94.4759 297.676 97.6436 297.344 100.721C302.835 98.4818 308.901 97.3903 315.32 97.6885C341.314 98.8926 363.19 122.467 364.298 150.346C364.591 157.711 363.404 164.648 361.024 170.86Z" fill="#413974"/>
<path d="M366.442 172.193C361.913 180.07 355.24 186.282 347.2 189.984C342.496 192.15 337.32 193.455 331.828 193.731C330.562 193.793 329.285 193.804 327.991 193.754L108.111 184.763C95.4516 181.86 85.4534 169.892 84.885 155.939C84.5418 147.561 87.6757 140.168 92.9309 135.188C97.2126 131.132 102.906 128.679 109.276 128.594C109.759 128.583 110.243 128.589 110.733 128.611C113.884 128.746 116.933 129.444 119.786 130.614C118.486 125.725 117.698 120.638 117.49 115.44C116.607 93.7499 125.918 75.0531 140.885 64.0874C148.689 58.3541 158.034 54.7363 168.274 53.8922C170.75 53.6841 173.276 53.6391 175.841 53.7687C179.982 53.9768 184.039 54.6182 187.978 55.6591C189.958 56.1766 191.905 56.7957 193.818 57.5045C197.526 46.7467 204.142 37.694 212.722 31.3361C222.001 24.4607 233.58 20.7358 246.256 21.411C278.141 23.1103 304.945 52.0188 306.301 85.9909C306.431 89.2317 306.329 92.3938 305.997 95.4714C311.483 93.2377 317.537 92.1462 323.951 92.4444C349.9 93.6654 371.736 117.229 372.845 145.085C373.244 155.185 370.87 164.485 366.442 172.193Z" fill="url(#paint19_linear_37_30)"/>
<path opacity="0.2" d="M366.442 172.193C361.913 180.07 355.24 186.282 347.2 189.984C340.532 195.318 332.301 198.592 323.214 199.054C321.948 199.11 320.665 199.121 319.371 199.076L99.1255 190.187C86.4493 187.289 76.4345 175.316 75.866 161.351C75.3597 148.894 82.5221 138.62 92.9309 135.189C97.2126 131.132 102.906 128.679 109.276 128.594C108.882 126.034 108.629 123.435 108.522 120.802C107.475 95.0495 120.793 73.5116 140.885 64.0874C148.689 58.3541 158.034 54.7363 168.274 53.8922C167.886 55.4171 167.498 57.1555 167.16 59.0631C164.628 73.416 164.966 97.1763 190.121 109.701C191.708 110.494 193.396 111.237 195.185 111.935C197.813 112.953 200.665 113.87 203.76 114.658C221.241 119.12 248.591 101.953 272.599 109.268C273.139 109.431 273.679 109.814 274.214 109.814H274.219C275.992 110.376 277.747 111.198 279.474 112.126C282.423 113.713 285.298 115.761 288.072 118.377C292.73 122.76 297.096 128.727 301.052 136.716C316.867 168.674 341.314 166.782 361.024 170.861C362.875 171.238 364.687 171.676 366.442 172.193Z" fill="url(#paint20_linear_37_30)"/>
<path d="M377.882 156.454C389.141 157.044 398.662 167.123 399.145 178.963C399.191 180.089 399.151 181.193 399.036 182.266C400.989 181.501 403.15 181.133 405.437 181.253C414.73 181.74 422.584 190.055 422.983 199.827C423.362 209.112 416.873 216.37 408.254 216.655C407.801 216.668 407.344 216.666 406.881 216.642L329.863 212.345C325.528 211.286 322.106 207.15 321.912 202.384C321.693 197.014 325.658 192.874 330.764 193.142C331.848 193.198 332.897 193.447 333.876 193.858C333.431 192.176 333.159 190.435 333.086 188.655C332.587 176.415 341.616 166.984 353.256 167.594C355.419 167.707 357.52 168.164 359.512 168.902C362.207 161.18 369.31 156.005 377.882 156.454Z" fill="#413974"/>
<path d="M382.766 152.451C394.025 153.041 403.546 163.12 404.029 174.96C404.075 176.087 404.035 177.19 403.92 178.263C405.872 177.498 408.033 177.13 410.321 177.25C419.613 177.737 427.468 186.052 427.867 195.824C428.246 205.109 421.757 212.367 413.138 212.653C412.685 212.665 412.228 212.663 411.765 212.639L334.747 208.342C330.412 207.283 326.99 203.148 326.796 198.381C326.577 193.011 330.542 188.871 335.648 189.139C336.732 189.196 337.781 189.444 338.76 189.855C338.315 188.173 338.043 186.432 337.97 184.653C337.471 172.412 346.5 162.981 358.14 163.591C360.303 163.705 362.404 164.161 364.396 164.899C367.091 157.177 374.194 152.002 382.766 152.451Z" fill="url(#paint21_linear_37_30)"/>
<mask id="mask0_37_30" style="mask-type:luminance" maskUnits="userSpaceOnUse" x="347" y="299" width="102" height="126">
<path d="M347.799 401.609C347.799 401.609 348.552 407.443 353.096 409.467C358.676 411.952 368.758 413.318 369.414 416.225C370.07 419.132 372.085 419.899 372.085 419.899L400.639 424.33L443.4 382.319L448.183 318.928L415.268 313.699V299.986H371.382V361.314L347.917 376.924L347.799 401.609Z" fill="white"/>
</mask>
<g mask="url(#mask0_37_30)">
<path d="M398.94 302.434C396.61 300.808 393.22 300.097 390.406 300.128C370.458 300.352 370.97 342.044 374.77 351.058C378.571 360.072 376.851 363.276 361.631 369.406C346.41 375.536 354.669 384.253 357.022 389.554C359.374 394.855 363.522 399.156 352.582 405.514C341.641 411.872 345.874 414.907 345.874 414.907C345.874 414.907 368.636 434.661 366.911 427.879C365.187 421.098 366.435 410.542 385.196 408.206C393.277 407.201 405.377 402.312 407.414 393.404C407.888 391.329 408.08 388.204 407.421 386.152C406.507 383.304 404.413 381.173 403.131 378.528C400.142 372.363 405.943 367.193 409.152 362.645C410.827 360.27 412.497 357.839 413.712 355.189C416.233 349.687 414.664 344.137 411.049 339.553C409.316 337.355 406.97 335.064 406.069 332.347C405.102 329.427 405.398 325.306 405.318 322.227C405.255 319.813 405.287 317.4 404.954 315.002C404.335 310.541 402.836 305.152 398.94 302.434Z" fill="url(#paint22_linear_37_30)"/>
<path d="M443.032 324.157C441.585 321.712 438.794 319.66 436.22 318.523C417.972 310.463 401.165 348.62 400.89 358.399C400.614 368.178 397.722 370.382 381.329 369.655C364.937 368.928 368.843 380.284 368.788 386.083C368.733 391.882 370.726 397.515 358.135 398.769C345.543 400.024 348.138 404.539 348.138 404.539C348.138 404.539 360.672 431.948 361.911 425.062C363.151 418.175 368.66 409.085 386.704 414.732C394.475 417.164 407.513 417.728 413.057 410.463C414.348 408.772 415.817 406.007 416.068 403.866C416.416 400.896 415.393 398.089 415.322 395.15C415.156 388.301 422.577 385.998 427.382 383.188C429.891 381.721 432.418 380.2 434.621 378.291C439.196 374.328 440.067 368.627 438.676 362.957C438.009 360.239 436.822 357.182 437.129 354.335C437.458 351.277 439.434 347.649 440.637 344.814C441.58 342.59 442.609 340.407 443.299 338.087C444.584 333.77 445.452 328.244 443.032 324.157Z" fill="url(#paint23_linear_37_30)"/>
</g>
<defs>
<linearGradient id="paint0_linear_37_30" x1="76.5679" y1="231.226" x2="56.3746" y2="525.15" gradientUnits="userSpaceOnUse">
<stop stop-color="#FFC444"/>
<stop offset="0.9964" stop-color="#F36F56"/>
</linearGradient>
<linearGradient id="paint1_linear_37_30" x1="2.28276" y1="343.681" x2="100.527" y2="343.681" gradientUnits="userSpaceOnUse">
<stop stop-color="#FF9085"/>
<stop offset="1" stop-color="#FB6FBB"/>
</linearGradient>
<linearGradient id="paint2_linear_37_30" x1="127.888" y1="422.653" x2="111.721" y2="429.443" gradientUnits="userSpaceOnUse">
<stop stop-color="#40447E"/>
<stop offset="0.9964" stop-color="#3C3B6B"/>
</linearGradient>
<linearGradient id="paint3_linear_37_30" x1="106.299" y1="351.395" x2="88.7531" y2="358.765" gradientUnits="userSpaceOnUse">
<stop stop-color="#40447E"/>
<stop offset="0.9964" stop-color="#3C3B6B"/>
</linearGradient>
<linearGradient id="paint4_linear_37_30" x1="30.672" y1="355.385" x2="193.278" y2="355.385" gradientUnits="userSpaceOnUse">
<stop stop-color="#40447E"/>
<stop offset="0.9964" stop-color="#3C3B6B"/>
</linearGradient>
<linearGradient id="paint5_linear_37_30" x1="30.672" y1="415.516" x2="260.826" y2="415.516" gradientUnits="userSpaceOnUse">
<stop stop-color="#40447E"/>
<stop offset="0.9964" stop-color="#3C3B6B"/>
</linearGradient>
<linearGradient id="paint6_linear_37_30" x1="53.2425" y1="413.63" x2="221.875" y2="413.63" gradientUnits="userSpaceOnUse">
<stop stop-color="#40447E"/>
<stop offset="0.9964" stop-color="#3C3B6B"/>
</linearGradient>
<linearGradient id="paint7_linear_37_30" x1="93.7337" y1="342.293" x2="150.415" y2="252.924" gradientUnits="userSpaceOnUse">
<stop stop-color="#FF9085"/>
<stop offset="1" stop-color="#FB6FBB"/>
</linearGradient>
<linearGradient id="paint8_linear_37_30" x1="80.8019" y1="330.861" x2="128.081" y2="433.343" gradientUnits="userSpaceOnUse">
<stop offset="0.0036" stop-color="#E38DDD"/>
<stop offset="1" stop-color="#9571F6"/>
</linearGradient>
<linearGradient id="paint9_linear_37_30" x1="138.738" y1="304.084" x2="183.954" y2="402.092" gradientUnits="userSpaceOnUse">
<stop offset="0.0036" stop-color="#E38DDD"/>
<stop offset="1" stop-color="#9571F6"/>
</linearGradient>
<linearGradient id="paint10_linear_37_30" x1="89.3967" y1="332.405" x2="132.66" y2="426.181" gradientUnits="userSpaceOnUse">
<stop offset="0.0036" stop-color="#E38DDD"/>
<stop offset="1" stop-color="#9571F6"/>
</linearGradient>
<linearGradient id="paint11_linear_37_30" x1="330.979" y1="387.181" x2="331.652" y2="412.44" gradientUnits="userSpaceOnUse">
<stop stop-color="#444B8C"/>
<stop offset="0.9964" stop-color="#26264F"/>
</linearGradient>
<linearGradient id="paint12_linear_37_30" x1="336.478" y1="355.78" x2="262.254" y2="95.1964" gradientUnits="userSpaceOnUse">
<stop stop-color="#444B8C"/>
<stop offset="0.9964" stop-color="#26264F"/>
</linearGradient>
<linearGradient id="paint13_linear_37_30" x1="262.245" y1="187.266" x2="397.514" y2="332.496" gradientUnits="userSpaceOnUse">
<stop stop-color="#FF9085"/>
<stop offset="1" stop-color="#FB6FBB"/>
</linearGradient>
<linearGradient id="paint14_linear_37_30" x1="218.256" y1="377.011" x2="425.55" y2="377.011" gradientUnits="userSpaceOnUse">
<stop stop-color="#444B8C"/>
<stop offset="0.9964" stop-color="#26264F"/>
</linearGradient>
<linearGradient id="paint15_linear_37_30" x1="282.782" y1="267.037" x2="342.025" y2="395.452" gradientUnits="userSpaceOnUse">
<stop offset="0.0036" stop-color="#E38DDD"/>
<stop offset="1" stop-color="#9571F6"/>
</linearGradient>
<linearGradient id="paint16_linear_37_30" x1="357.884" y1="238.471" x2="412.498" y2="356.849" gradientUnits="userSpaceOnUse">
<stop offset="0.0036" stop-color="#E38DDD"/>
<stop offset="1" stop-color="#9571F6"/>
</linearGradient>
<linearGradient id="paint17_linear_37_30" x1="292.614" y1="262.57" x2="349.325" y2="385.494" gradientUnits="userSpaceOnUse">
<stop offset="0.0036" stop-color="#E38DDD"/>
<stop offset="1" stop-color="#9571F6"/>
</linearGradient>
<linearGradient id="paint18_linear_37_30" x1="62.9178" y1="232.628" x2="175.578" y2="232.628" gradientUnits="userSpaceOnUse">
<stop offset="0.0036" stop-color="#E38DDD"/>
<stop offset="1" stop-color="#9571F6"/>
</linearGradient>
<linearGradient id="paint19_linear_37_30" x1="84.8596" y1="107.559" x2="372.888" y2="107.559" gradientUnits="userSpaceOnUse">
<stop offset="0.0036" stop-color="#E38DDD"/>
<stop offset="1" stop-color="#9571F6"/>
</linearGradient>
<linearGradient id="paint20_linear_37_30" x1="75.8409" y1="126.498" x2="366.442" y2="126.498" gradientUnits="userSpaceOnUse">
<stop offset="0.0036" stop-color="#E38DDD"/>
<stop offset="1" stop-color="#9571F6"/>
</linearGradient>
<linearGradient id="paint21_linear_37_30" x1="326.787" y1="182.542" x2="427.883" y2="182.542" gradientUnits="userSpaceOnUse">
<stop offset="0.0036" stop-color="#E38DDD"/>
<stop offset="1" stop-color="#9571F6"/>
</linearGradient>
<linearGradient id="paint22_linear_37_30" x1="386.227" y1="291.044" x2="368.572" y2="548.019" gradientUnits="userSpaceOnUse">
<stop stop-color="#FFC444"/>
<stop offset="0.9964" stop-color="#F36F56"/>
</linearGradient>
<linearGradient id="paint23_linear_37_30" x1="347.917" y1="371.792" x2="444.564" y2="371.792" gradientUnits="userSpaceOnUse">
<stop stop-color="#FF9085"/>
<stop offset="1" stop-color="#FB6FBB"/>
</linearGradient>
</defs>
</svg>
