<svg width="110" height="110" viewBox="0 0 110 110" fill="none" xmlns="http://www.w3.org/2000/svg">
<path d="M88 29.6071V36.5714C88 42.9844 73.4475 48.1786 55.5 48.1786C37.5525 48.1786 23 42.9844 23 36.5714V29.6071C23 23.1942 37.5525 18 55.5 18C73.4475 18 88 23.1942 88 29.6071ZM80.0491 49.1507C83.067 48.077 85.8382 46.6987 88 45.0011V59.7857C88 66.1987 73.4475 71.3929 55.5 71.3929C37.5525 71.3929 23 66.1987 23 59.7857V45.0011C25.1618 46.7132 27.933 48.077 30.9509 49.1507C37.4654 51.4721 46.1417 52.8214 55.5 52.8214C64.8583 52.8214 73.5346 51.4721 80.0491 49.1507ZM23 68.2154C25.1618 69.9275 27.933 71.2913 30.9509 72.365C37.4654 74.6864 46.1417 76.0357 55.5 76.0357C64.8583 76.0357 73.5346 74.6864 80.0491 72.365C83.067 71.2913 85.8382 69.9129 88 68.2154V80.6786C88 87.0915 73.4475 92.2857 55.5 92.2857C37.5525 92.2857 23 87.0915 23 80.6786V68.2154Z" fill="#F28705"/>
<rect x="1.5" y="1.5" width="107" height="107" rx="18.5" fill="white" fill-opacity="0.1" stroke="#F28705" stroke-width="3"/>
</svg>
