<svg width="493" height="370" viewBox="0 0 493 370" fill="none" xmlns="http://www.w3.org/2000/svg">
<path d="M208.981 71.0702C192.59 7.63491 118.729 -12.7995 76.4009 34.6089C75.7931 35.2892 75.1863 35.9821 74.5784 36.6852C13.8935 107.064 42.5612 280.5 169.21 324.457C295.858 368.415 427.589 288.144 434.99 216.386C442.391 144.629 383.961 122.082 293.286 142.146C242.055 153.482 219.184 110.56 208.981 71.0702Z" fill="#E0D5F8"/>
<path d="M314.334 81.9205C297.389 84.8638 292.693 100.88 305.776 112.243C310.101 115.998 316.277 119.119 325.075 120.675C358.59 126.608 376.375 110.788 362.94 90.2759C354.65 77.6166 331.128 79.0035 314.334 81.9205Z" fill="#E0D5F8"/>
<path d="M52.0893 211.559C43.7683 195.538 28.0519 196.233 22.448 213.209C20.5957 218.82 19.9292 226.075 21.5277 235.436C27.6157 271.094 47.5807 283.609 61.1377 263.191C69.5056 250.588 60.3357 227.437 52.0893 211.559Z" fill="#E0D5F8"/>
<path d="M446.934 224.726C445.372 233.444 452.121 239.62 459.767 236.26C462.294 235.149 464.843 233.008 467.111 229.245C475.75 214.907 471.374 202.609 459.346 203.872C451.921 204.651 448.48 216.086 446.934 224.726Z" fill="#E0D5F8"/>
<path d="M404.096 132.725C412.24 134.538 418.142 127.446 415.123 119.233C414.125 116.518 412.163 113.763 408.675 111.279C395.386 101.82 383.785 106.278 384.763 119.129C385.367 127.063 396.025 130.928 404.096 132.725Z" fill="#E0D5F8"/>
<path d="M206.152 39.4304C212.6 45.0393 220.9 41.6399 221.763 32.8659C222.049 29.9658 221.494 26.555 219.468 22.6378C211.749 7.71451 199.527 5.97723 194.852 17.8674C191.967 25.2079 199.762 33.8727 206.152 39.4304Z" fill="#E0D5F8"/>
<path d="M464.027 352.521C466.824 353.02 469.741 352.184 471.69 349.986C472.96 348.554 473.822 346.785 473.821 345.09C473.821 345.066 473.821 345.041 473.821 345.017C473.784 332.856 487.789 333.665 492.285 318.796C496.781 303.927 479.014 302.675 468.865 311.855C461.569 318.456 452.811 309.235 442.205 316.934C432.997 323.615 438.125 340.068 423.021 334.924C418.197 333.28 413.879 334.865 410.234 337.783C406.037 341.143 403.305 345.852 402.167 350.966L403.37 351.873C433.163 371.354 446.588 349.414 464.027 352.521Z" fill="#9C78ED"/>
<path d="M434.507 351.872L474.002 324.824C474.531 324.462 474.684 323.71 474.345 323.147C474.006 322.582 473.301 322.42 472.773 322.782L430.295 351.872H434.507Z" fill="#7846D1"/>
<path d="M432.38 271.401C430.713 244.889 430.438 217.088 432.288 198.655C434.704 174.573 440.169 157.809 448.533 148.83C449.088 148.235 449.989 148.232 450.548 148.823C451.105 149.415 451.108 150.378 450.554 150.973C435.933 166.67 430.675 208.818 435.32 272.946L432.38 271.401Z" fill="#5B23A9"/>
<path d="M436.118 177.38C436.118 177.38 424.213 177.359 425.064 155.03C425.064 155.03 443.279 160.574 436.118 177.38Z" fill="#7846D1"/>
<path d="M435.121 188.867C435.121 188.867 434.477 176.184 455.423 175.849C455.423 175.849 451.247 195.561 435.121 188.867Z" fill="#7846D1"/>
<path d="M444.225 157.545C444.225 157.545 439.655 145.816 459.296 138.049C459.296 138.049 461.521 158.12 444.225 157.545Z" fill="#7846D1"/>
<path d="M432.448 211.914C432.448 211.914 421.238 216.192 414.959 194.87C414.959 194.87 433.859 193.514 432.448 211.914Z" fill="#7846D1"/>
<path d="M433.093 223.781C433.093 223.781 430.403 211.408 450.978 207.213C450.978 207.213 450.06 227.398 433.093 223.781Z" fill="#7846D1"/>
<path d="M432.463 240.124C432.463 240.124 421.331 244.627 414.674 223.437C414.674 223.437 433.546 221.699 432.463 240.124Z" fill="#7846D1"/>
<path d="M86.9779 330.488L83.734 330.352L82.0139 330.278L77.1405 330.07C77.1405 330.07 32.0984 248.49 60.315 221.886C69.0018 213.696 84.1883 220.487 80.8313 258.129C77.7195 293.024 86.9779 330.488 86.9779 330.488Z" fill="#7846D1"/>
<path d="M83.7341 330.352L82.014 330.278C74.1505 310.511 70.1814 289.278 68.2107 274.374C65.871 256.677 65.7622 243.827 65.7622 243.699C65.758 243.241 66.1046 242.865 66.5343 242.864C66.9641 242.86 67.316 243.23 67.3181 243.687C67.3192 243.815 67.4258 256.576 69.7559 274.17C71.7383 289.146 75.75 310.553 83.7341 330.352Z" fill="#5B23A9"/>
<path d="M95.9262 346.833L91.521 348.578L89.1834 349.503L82.5622 352.122C82.5622 352.122 -20.2323 269.888 3.5791 217.566C10.9095 201.458 34.7486 201.504 49.9222 253.799C63.9889 302.274 95.9262 346.833 95.9262 346.833Z" fill="#9C78ED"/>
<path d="M91.5206 348.578L89.1831 349.503C68.3522 327.766 51.9586 301.752 41.5422 283.008C29.1731 260.751 22.3162 243.646 22.2512 243.475C22.0059 242.864 22.2736 242.158 22.8462 241.901C23.4189 241.639 24.0811 241.925 24.3232 242.533C24.3914 242.705 31.1993 259.692 43.5 281.816C53.9709 300.65 70.5117 326.87 91.5206 348.578Z" fill="#7846D1"/>
<path d="M447.295 351.486C447.245 349.591 447.036 347.676 446.647 345.776C442.95 327.727 453.004 324.322 466.261 318.622C479.513 312.921 481.09 295.988 471.705 281.918C462.317 267.845 479.183 256.535 472.974 235.357C466.763 214.178 445.194 228.265 440.475 247.789C437.085 261.828 419.841 258.79 413.455 276.996C407.908 292.799 426.499 307.396 405.028 314.641C398.17 316.952 394.379 322.568 392.393 329.14C390.108 336.707 390.557 344.56 393.166 351.485L447.295 351.486Z" fill="#7846D1"/>
<path d="M421.033 351.486L456.4 258.338C456.735 257.456 456.335 256.451 455.508 256.094C454.681 255.736 453.739 256.163 453.404 257.046L417.546 351.486H421.033Z" fill="#5B23A9"/>
<path d="M126.353 69.8767C126.353 69.8767 127.096 53.1068 117.536 49.886C102.649 44.8698 98.5051 53.1068 96.2081 58.5496C93.2638 65.5249 94.519 79.207 103.401 80.5279C116.66 82.5007 125.534 74.5629 126.353 69.8767Z" fill="#403657"/>
<path d="M135.949 125.955C143.685 125.955 150.368 120.171 151.953 112.091C153.094 106.272 154.208 101.12 154.208 98.2261V98.151C154.278 97.2363 154.316 96.3216 154.322 95.4205C154.424 82.1878 146.778 58.0194 119.881 61.8604C119.881 61.8604 97.564 64.5772 95.0238 87.8445C95.0238 87.8445 93.966 98.5788 93.2632 106.352C93.2504 106.489 93.2376 106.626 93.2248 106.761C92.2437 117.035 99.8162 125.953 109.495 125.953H135.949V125.955Z" fill="#403657"/>
<path d="M167.879 153.612C167.879 153.612 172.636 193.808 178.068 214.444C178.068 214.444 185.786 210.609 195.888 205.402C206.842 199.756 222.589 189.456 222.589 189.456L226.569 199.684C226.569 199.684 185.892 240.642 172.418 242.962C158.944 245.281 150.686 193.808 150.686 193.808L167.879 153.612Z" fill="#7846D1"/>
<path d="M221.756 190.655C221.756 190.655 220.638 184.944 223.033 181.079C225.428 177.214 229.075 169.978 233.357 168.467C236.94 167.203 231.654 173.655 231.496 177.749C231.496 177.749 236.825 177.035 240.668 175.703C244.048 174.531 250.738 173.069 253.84 172.418C254.69 172.24 255.236 173.383 254.581 173.989C253.523 174.967 251.313 176.197 246.741 177.372C246.741 177.372 257.884 175.122 259.04 176.942C260.196 178.762 246.216 181.304 246.216 181.304C246.216 181.304 257.063 180.619 257.345 182.435C257.517 183.54 246.28 186.071 246.28 186.071C246.28 186.071 256.535 186.364 254.054 188.092C253.332 188.594 233.48 190.978 226.569 199.684C226.569 199.684 221.92 194.557 221.756 190.655Z" fill="#FFA681"/>
<path d="M99.2886 145.695C99.2886 145.695 76.5318 152.855 56.9337 157.572C56.9337 157.572 56.4251 148.505 55.9121 136.548C55.3555 123.582 56.3568 103.904 56.3568 103.904L46.031 105.035C46.031 105.035 31.6123 162.693 36.1093 176.44C40.6073 190.188 97.721 170.93 97.721 170.93L99.2886 145.695Z" fill="#7846D1"/>
<path d="M55.7646 105.258C55.7646 105.258 61.0049 103.59 63.0513 99.5037C65.0987 95.417 70.7538 87.188 67.2635 84.1412C65.9892 83.0285 65.071 87.882 61.7705 89.9776C61.7705 89.9776 59.8244 84.6384 59.0939 80.397C58.4509 76.6665 56.4749 69.6946 55.5364 66.4737C55.2794 65.592 54.0765 65.6227 53.8899 66.5249C53.5871 67.9834 53.6244 70.6434 54.8305 75.4923C54.8305 75.4923 51.386 63.9651 49.3343 63.7466C47.2836 63.5282 51.8382 77.8553 51.8382 77.8553C51.8382 77.8553 47.2431 67.3509 45.6126 67.9505C44.6198 68.3145 47.8776 80.0637 47.8776 80.0637C47.8776 80.0637 42.7579 70.5797 42.5137 73.7289C42.4422 74.6459 49.9208 94.409 46.0306 105.036C46.0306 105.036 52.4695 106.96 55.7646 105.258Z" fill="#FFA681"/>
<path d="M167.029 309.353L167.21 310.212C149.49 323.013 83.2056 314.273 83.2056 314.273C83.3197 312.789 83.4668 311.237 83.6609 309.633C83.8678 307.844 84.1248 305.991 84.4191 304.077C85.22 298.929 86.2938 293.363 87.4999 287.635C87.8881 285.831 88.2752 284.002 88.6836 282.163C89.8801 276.697 91.1534 271.153 92.3584 265.753C92.7753 263.896 93.1848 262.066 93.5805 260.245C94.1328 257.718 94.6554 255.233 95.1566 252.823C95.8092 249.617 96.3915 246.537 96.8799 243.637C97.2083 241.686 97.4952 239.815 97.7138 238.039C97.9665 236.16 98.1393 234.384 98.2448 232.739C97.1912 228.585 96.2091 224.516 95.2952 220.569C94.8399 218.56 94.393 216.595 93.9548 214.652C92.593 208.434 91.3965 202.517 90.3514 196.974C89.9803 194.96 89.6135 193 89.2808 191.088C88.1216 184.551 87.1864 178.635 86.4325 173.473C86.1413 171.414 85.8673 169.495 85.6273 167.682C85.3618 165.699 85.1347 163.865 84.9363 162.202C84.0469 154.882 83.7398 150.733 83.7398 150.733C83.8955 150.599 84.0597 150.477 84.2282 150.346C86.2384 148.821 89.3821 147.388 92.8756 146.115C96.5631 144.766 100.642 143.593 104.237 142.666C104.781 142.528 105.316 142.392 105.839 142.261C110.563 141.084 114.095 140.4 114.095 140.4C130.167 143.993 134.753 141.681 134.753 141.681L142.924 144.252L143.885 144.612L149.84 146.842L150.08 146.936L160.759 150.947L167.88 153.612L165.116 167.213L163.911 173.151L160.27 191.054L159.074 196.972L155.449 214.812L154.257 220.67L151.256 235.452L151.854 238.276L153.026 243.756L154.885 252.47L156.575 260.351L157.739 265.813L161.236 282.246L162.404 287.678L165.872 303.922L167.029 309.353Z" fill="#9C78ED"/>
<path d="M143.884 144.612C142.173 155.33 137.302 166.113 127.176 167.277C114.942 168.689 108.599 152.317 105.839 142.26C110.563 141.082 115.459 139.931 115.459 139.931C131.532 143.523 134.633 141.335 134.633 141.335L142.923 144.252L143.884 144.612Z" fill="#FFA681"/>
<path d="M125.933 158.274C113.112 158.274 110.046 141.38 110.016 141.206C109.953 140.839 110.18 140.488 110.522 140.421C110.867 140.355 111.195 140.595 111.259 140.961C111.377 141.639 114.285 157.581 126.678 156.905C137.524 156.32 138.162 143.478 138.184 142.93C138.199 142.558 138.489 142.267 138.842 142.285C139.191 142.301 139.462 142.615 139.447 142.986C139.442 143.132 138.745 157.603 126.742 158.251C126.468 158.267 126.198 158.274 125.933 158.274Z" fill="white"/>
<path d="M102.933 153.615C102.933 155.46 101.531 156.955 99.8027 156.955C98.0741 156.955 96.6729 155.46 96.6729 153.615C96.6729 151.771 98.0741 150.276 99.8027 150.276C101.531 150.276 102.933 151.771 102.933 153.615Z" fill="#7846D1"/>
<path d="M96.664 169.906C96.664 171.751 95.2628 173.246 93.5341 173.246C91.8055 173.246 90.4043 171.751 90.4043 169.906C90.4043 168.062 91.8055 166.567 93.5341 166.567C95.2617 166.568 96.664 168.063 96.664 169.906Z" fill="#7846D1"/>
<path d="M116.646 177.609C116.646 179.453 115.245 180.948 113.516 180.948C111.787 180.948 110.386 179.453 110.386 177.609C110.386 175.764 111.787 174.269 113.516 174.269C115.246 174.269 116.646 175.765 116.646 177.609Z" fill="#7846D1"/>
<path d="M102.709 186.717C103.35 188.429 102.569 190.373 100.963 191.056C99.3581 191.74 97.5367 190.906 96.8958 189.194C96.2549 187.482 97.0366 185.538 98.6415 184.855C100.246 184.171 102.068 185.005 102.709 186.717Z" fill="#7846D1"/>
<path d="M129.838 192.883C129.838 194.728 128.437 196.223 126.708 196.223C124.98 196.223 123.579 194.728 123.579 192.883C123.579 191.039 124.98 189.544 126.708 189.544C128.437 189.544 129.838 191.039 129.838 192.883Z" fill="#7846D1"/>
<path d="M149.799 199.764C149.799 201.609 148.398 203.104 146.669 203.104C144.941 203.104 143.54 201.609 143.54 199.764C143.54 197.92 144.941 196.425 146.669 196.425C148.398 196.425 149.799 197.92 149.799 199.764Z" fill="#7846D1"/>
<path d="M153.815 156.953C153.815 158.798 152.414 160.293 150.685 160.293C148.956 160.293 147.555 158.798 147.555 156.953C147.555 155.109 148.956 153.614 150.685 153.614C152.414 153.615 153.815 155.109 153.815 156.953Z" fill="#7846D1"/>
<path d="M131.104 214.205C131.104 216.05 129.703 217.544 127.975 217.544C126.246 217.544 124.845 216.05 124.845 214.205C124.845 212.361 126.246 210.866 127.975 210.866C129.703 210.867 131.104 212.362 131.104 214.205Z" fill="#7846D1"/>
<path d="M111.824 224.558C111.824 226.403 110.422 227.898 108.694 227.898C106.965 227.898 105.564 226.403 105.564 224.558C105.564 222.714 106.965 221.219 108.694 221.219C110.422 221.22 111.824 222.715 111.824 224.558Z" fill="#7846D1"/>
<path d="M109.578 205.704C109.578 207.549 108.177 209.044 106.448 209.044C104.72 209.044 103.318 207.549 103.318 205.704C103.318 203.86 104.72 202.365 106.448 202.365C108.177 202.365 109.578 203.86 109.578 205.704Z" fill="#7846D1"/>
<path d="M140.411 178.482C140.411 180.327 139.009 181.822 137.281 181.822C135.552 181.822 134.151 180.327 134.151 178.482C134.151 176.638 135.552 175.143 137.281 175.143C139.009 175.143 140.411 176.638 140.411 178.482Z" fill="#7846D1"/>
<path d="M157.714 174.269C157.714 176.114 156.313 177.609 154.584 177.609C152.855 177.609 151.454 176.114 151.454 174.269C151.454 172.425 152.855 170.93 154.584 170.93C156.313 170.93 157.714 172.426 157.714 174.269Z" fill="#7846D1"/>
<path d="M146.669 219.73C146.669 221.574 145.268 223.069 143.54 223.069C141.811 223.069 140.41 221.574 140.41 219.73C140.41 217.886 141.811 216.391 143.54 216.391C145.268 216.391 146.669 217.886 146.669 219.73Z" fill="#7846D1"/>
<path d="M147.509 246.148C147.509 247.992 146.108 249.487 144.379 249.487C142.65 249.487 141.249 247.992 141.249 246.148C141.249 244.303 142.65 242.808 144.379 242.808C146.109 242.808 147.509 244.303 147.509 246.148Z" fill="#7846D1"/>
<path d="M131.579 235.126C132.22 236.838 131.44 238.781 129.834 239.465C128.229 240.149 126.407 239.315 125.766 237.602C125.126 235.89 125.907 233.947 127.512 233.263C129.118 232.579 130.938 233.413 131.579 235.126Z" fill="#7846D1"/>
<path d="M110.274 244.91C110.915 246.622 110.133 248.565 108.528 249.249C106.923 249.933 105.102 249.099 104.461 247.387C103.82 245.674 104.602 243.731 106.206 243.047C107.811 242.364 109.633 243.196 110.274 244.91Z" fill="#7846D1"/>
<path d="M173.66 351.462L173.012 347.301L170.486 331.164L169.62 325.636L167.209 310.212L162.826 310.423L104.718 313.234L83.2067 314.27L81.8236 326.266L81.1763 331.855L79.2664 348.427L78.9155 351.462H173.66Z" fill="#9C78ED"/>
<path d="M173.657 351.462L173.064 347.702L173.015 347.307L172.595 344.65L172.176 342.02L170.476 331.157L169.983 327.949L169.613 325.635L169.564 325.292L167.369 311.22L167.221 310.22L167.024 309.352L166.851 308.588L165.864 303.933L163.917 294.832L163.35 292.228L162.388 287.677L161.229 282.232L160.44 278.497L159.872 275.893L157.728 265.819L156.939 262.136L156.569 260.347L156.396 259.532L154.892 252.456C131.274 259.9 106.25 255.481 95.1554 252.825C94.6628 255.219 94.12 257.717 93.5772 260.243C93.4535 260.796 93.3308 261.347 93.2071 261.899C93.0099 262.767 92.8126 263.635 92.6153 264.503C92.5417 264.924 92.4425 265.319 92.3444 265.74C91.4327 269.87 90.4708 274.078 89.5334 278.261C89.3361 279.129 89.1634 279.997 88.9661 280.839C88.8669 281.286 88.7688 281.707 88.6707 282.154C88.2762 283.995 87.8816 285.837 87.487 287.625C86.9944 290.019 86.5251 292.359 86.0815 294.674C85.9088 295.542 85.736 296.384 85.5889 297.226C85.1452 299.568 84.7507 301.856 84.4052 304.065C84.1087 305.985 83.8624 307.826 83.6651 309.641C83.5915 310.193 83.5414 310.746 83.4678 311.271C83.3942 312.165 83.2951 313.034 83.2215 313.902C83.2215 314.034 83.1969 314.138 83.1969 314.27L81.816 326.264L81.5942 328.131L81.2988 330.735L81.1751 331.84L79.6469 344.964L79.3505 347.595L79.2524 348.437L78.9111 351.46H173.657V351.462Z" fill="#403657"/>
<path d="M145.075 99.7528C145.075 99.7528 148.917 94.5603 151.774 98.854C154.631 103.148 150.592 115.831 143.598 112.735L145.075 99.7528Z" fill="#F97853"/>
<path d="M145.124 108.816C145.382 108.816 145.62 108.643 145.693 108.378C146.776 104.463 150.778 102.875 150.819 102.86C151.123 102.742 151.276 102.396 151.161 102.087C151.046 101.778 150.705 101.622 150.4 101.739C150.213 101.811 145.803 103.546 144.555 108.055C144.466 108.373 144.65 108.703 144.964 108.793C145.018 108.809 145.072 108.816 145.124 108.816Z" fill="#EA5143"/>
<path d="M149.164 106.843C149.274 106.843 149.385 106.812 149.484 106.748C149.758 106.568 149.837 106.198 149.661 105.919C149.632 105.873 148.924 104.778 147.443 104.106C147.146 103.97 146.795 104.106 146.662 104.408C146.529 104.71 146.662 105.065 146.961 105.2C148.106 105.72 148.663 106.56 148.668 106.568C148.78 106.746 148.97 106.843 149.164 106.843Z" fill="#EA5143"/>
<path d="M143.345 112.653C142.684 113.438 142.278 114.472 142.278 115.607C142.278 118.056 144.146 120.05 146.442 120.05C148.738 120.05 150.606 118.056 150.606 115.607C150.606 114.195 149.987 112.938 149.022 112.125C148.538 111.717 147.968 111.421 147.345 111.273C147.241 110.973 147.292 110.692 147.495 110.432C148.291 110.618 149.015 111.006 149.62 111.545C150.713 112.514 151.408 113.978 151.408 115.609C151.408 118.532 149.182 120.907 146.442 120.907C143.705 120.907 141.476 118.532 141.476 115.609C141.476 114.35 141.895 113.198 142.586 112.29C142.839 112.41 143.092 112.532 143.345 112.653Z" fill="white"/>
<path d="M115.459 126.283V141.841C115.459 141.841 122.237 147.421 127.526 147.905C132.809 148.397 134.634 141.746 134.634 141.746V127.266L115.459 126.283Z" fill="#FFA681"/>
<path d="M115.459 127.808V134.014C119.007 138.214 125.307 139.703 134.632 138.235L134.634 128.791L115.459 127.808Z" fill="#F97853"/>
<path d="M147.384 105.668C147.216 107.17 147.016 108.699 146.763 110.221C145.088 120.339 139.09 131.266 131.515 133.1C115.16 137.061 108.368 123.356 105.753 113.245C105.464 112.122 106.006 110.835 105.778 109.505C105.236 106.355 104.043 102.776 103.772 99.2454C103.585 96.7993 103.453 94.3862 103.356 92.2064C103.091 86.0582 106.428 80.4072 111.646 78.2012C119.164 75.0111 130.581 72.4842 141.395 79.2513C145.39 81.7508 147.896 86.3768 147.987 91.4418C148.053 95.3112 147.962 100.369 147.384 105.668Z" fill="#FFA681"/>
<path d="M126.643 113.496C126.338 113.496 126.069 113.262 126.017 112.931C125.959 112.561 126.191 112.212 126.538 112.15L128.72 111.759L125.714 103.218C125.59 102.868 125.756 102.478 126.085 102.346C126.413 102.216 126.78 102.391 126.903 102.742L130.451 112.823L126.748 113.486C126.713 113.493 126.678 113.496 126.643 113.496Z" fill="#F97853"/>
<path d="M134.469 102.196C134.469 103.688 135.19 104.899 136.081 104.899C136.97 104.899 137.692 103.688 137.692 102.196C137.692 100.703 136.971 99.4923 136.081 99.4923C135.19 99.4923 134.469 100.703 134.469 102.196Z" fill="#403657"/>
<path d="M116.661 102.196C116.661 103.688 117.382 104.899 118.272 104.899C119.163 104.899 119.884 103.688 119.884 102.196C119.884 100.703 119.163 99.4923 118.272 99.4923C117.382 99.4923 116.661 100.703 116.661 102.196Z" fill="#403657"/>
<path d="M140.816 95.1053C139.521 94.8356 136.901 94.3908 134.112 94.4966C133.378 94.5239 132.789 95.1144 132.891 95.7378L132.893 95.7538C132.974 96.2509 133.474 96.5866 134.061 96.5388C135.962 96.3863 140.936 96.4193 143.251 97.1543C143.315 96.797 143.091 96.417 142.764 96.0848C142.269 95.5797 141.573 95.2623 140.816 95.1053Z" fill="#403657"/>
<path d="M114.916 95.4307C116.207 95.1428 118.821 94.6593 121.612 94.723C122.346 94.7401 122.941 95.3214 122.849 95.946L122.846 95.962C122.772 96.4614 122.277 96.8027 121.689 96.7641C119.786 96.6389 114.814 96.7447 112.509 97.5138C112.44 97.1566 112.659 96.7743 112.982 96.4364C113.469 95.9267 114.161 95.599 114.916 95.4307Z" fill="#403657"/>
<path d="M134.469 117.531C133.999 119.907 132.433 124.278 127.161 124.278C121.876 124.278 120.394 120.284 119.884 117.531H134.469Z" fill="white"/>
<path d="M127.235 128.363C128.757 128.363 130.1 127.489 130.157 127.451C130.449 127.258 130.54 126.85 130.36 126.537C130.18 126.225 129.797 126.128 129.504 126.319C129.493 126.326 128.397 127.034 127.236 127.034C125.98 127.034 124.855 126.324 124.844 126.317C124.549 126.128 124.167 126.23 123.99 126.544C123.813 126.858 123.907 127.265 124.2 127.455C124.257 127.492 125.623 128.363 127.235 128.363Z" fill="#F97853"/>
<path d="M148.045 104.08C147.893 104.216 147.745 104.168 147.608 103.902C145.447 99.8393 147.478 91.7331 141.085 88.6249C136.216 86.2551 134.468 81.3936 134.468 81.3936C133.354 83.4267 130.454 85.2914 130.454 85.2914C130.454 85.2914 123.1 89.9401 115.458 93.0813C113.187 94.0154 111.569 94.9631 110.437 95.7766C110.525 95.8027 110.572 95.8175 110.572 95.8175C110.572 95.8175 108.456 99.4844 110.004 105.185C111.552 110.883 109.56 120.285 106.123 122.455C106.184 122.295 108.762 115.793 107.306 110.489C106.467 107.448 106.474 102.611 105.678 99.7108C104.798 99.0634 102.761 97.9723 102.071 97.5343C101.875 95.0405 101.733 92.5819 101.634 90.3599C101.354 84.0923 104.871 78.3332 110.373 76.0817C118.297 72.8312 130.332 70.2577 141.732 77.1545C145.942 79.7019 148.585 84.4177 148.682 89.5806C148.752 93.5216 148.655 98.6777 148.045 104.08Z" fill="#403657"/>
<path d="M105.679 99.7107C105.679 99.7107 101.212 93.9278 98.5761 98.0975C95.94 102.267 99.8323 115.05 106.286 112.045L105.679 99.7107Z" fill="#FFA681"/>
<path d="M105.86 112.251C106.321 113.183 106.481 114.292 106.223 115.392C105.667 117.768 103.401 119.218 101.173 118.624C98.9452 118.029 97.5866 115.612 98.1433 113.236C98.4642 111.866 99.3515 110.807 100.473 110.269C101.035 109.998 101.655 109.858 102.293 109.875C102.403 109.621 102.46 109.346 102.338 109.021C101.524 108.994 100.732 109.183 100.024 109.55C98.7436 110.207 97.7359 111.446 97.3659 113.029C96.7015 115.864 98.3203 118.746 100.979 119.454C103.634 120.163 106.337 118.436 107.002 115.6C107.289 114.378 107.144 113.153 106.68 112.092C106.406 112.146 106.133 112.199 105.86 112.251Z" fill="white"/>
<path d="M104.711 107.77C104.472 107.77 104.254 107.602 104.187 107.345C103.186 103.542 99.4944 102.001 99.4571 101.986C99.1766 101.871 99.0348 101.536 99.1415 101.235C99.2481 100.935 99.5627 100.784 99.8442 100.897C100.017 100.967 104.086 102.652 105.238 107.031C105.319 107.34 105.151 107.661 104.86 107.749C104.81 107.763 104.76 107.77 104.711 107.77Z" fill="#F97853"/>
<path d="M100.984 105.855C100.883 105.855 100.78 105.826 100.69 105.763C100.436 105.589 100.363 105.23 100.527 104.959C100.554 104.915 101.207 103.851 102.574 103.199C102.847 103.067 103.171 103.199 103.295 103.492C103.418 103.786 103.295 104.13 103.02 104.262C101.963 104.766 101.449 105.582 101.445 105.589C101.339 105.761 101.163 105.855 100.984 105.855Z" fill="#F97853"/>
<path d="M342.293 225.277C331.898 233.239 315.634 238.7 315.634 238.7L312.304 225.921L309.706 215.952L307.873 208.925L289.232 208.912C290.242 212.639 291.285 216.445 292.334 220.195C293.678 225.032 295.02 229.768 296.295 234.135C298.094 240.279 299.753 245.683 301.091 249.545C301.403 250.446 301.767 251.427 302.173 252.473C304.664 259.653 306.676 267.441 316.185 262.556C324.557 258.254 335.909 252.291 341.583 248.332L342.293 225.277Z" fill="#FFA681"/>
<path d="M292.332 220.195C293.676 225.031 295.017 229.768 296.293 234.134C303.902 233.273 309.17 229.25 312.304 225.922L309.706 215.953L292.332 220.195Z" fill="#F97853"/>
<path d="M288.374 150.45C288.374 150.45 307.819 199.928 316.183 215.959C316.183 215.959 304.463 226.59 293.046 226.881C293.046 226.881 286.466 172.558 288.374 150.45Z" fill="#6020BD"/>
<path d="M242.845 351.497C243.04 348.034 243.224 344.739 243.393 341.683C244.081 329.194 244.524 320.669 244.524 320.669L239.94 320.449L237.355 320.325L206.185 318.848C206.185 318.848 205.618 328.382 204.949 342.383C204.813 345.248 204.671 348.301 204.529 351.496H242.845V351.497Z" fill="#9C78ED"/>
<path d="M239.939 320.45L244.523 320.67C244.523 320.67 244.081 329.195 243.392 341.684C231.416 342.749 218.342 343.183 204.949 342.384C205.617 328.383 206.185 318.85 206.185 318.85L237.354 320.326L239.939 320.45Z" fill="#7846D1"/>
<path d="M238.302 351.497C239.025 338.155 239.619 326.727 239.941 320.451L237.356 320.327C237.033 326.63 236.437 338.111 235.712 351.497H238.302Z" fill="#7846D1"/>
<path d="M252.89 351.497H291.205C291.063 348.301 290.923 345.249 290.785 342.384C290.116 328.384 289.549 318.85 289.549 318.85L258.38 320.326L255.796 320.45L251.211 320.67C251.211 320.67 251.654 329.195 252.342 341.685C252.51 344.739 252.695 348.035 252.89 351.497Z" fill="#9C78ED"/>
<path d="M255.796 320.45L251.21 320.67C251.21 320.67 251.653 329.195 252.342 341.685C264.317 342.749 277.392 343.183 290.785 342.384C290.117 328.384 289.549 318.85 289.549 318.85L258.38 320.326L255.796 320.45Z" fill="#7846D1"/>
<path d="M260.022 351.497C259.297 338.111 258.702 326.63 258.377 320.327L255.792 320.451C256.115 326.727 256.707 338.155 257.432 351.497H260.022Z" fill="#7846D1"/>
<path d="M199.42 295.139C199.416 295.823 199.42 296.499 199.42 297.165C199.434 309.327 199.491 318.752 199.547 323.379C210.558 326.561 221.567 328.617 232.582 329.567C233.084 329.607 233.576 329.646 234.078 329.686C234.346 329.707 234.612 329.726 234.88 329.741C235.471 329.786 236.066 329.826 236.652 329.856C237.309 329.901 237.961 329.935 238.622 329.971C246.115 330.34 253.608 330.196 261.107 329.541C262.621 329.405 264.127 329.251 265.641 329.075C265.739 329.065 265.833 329.055 265.932 329.046C266.317 329 266.701 328.95 267.09 328.9C267.325 328.871 267.559 328.84 267.789 328.81C276.505 327.7 285.223 325.884 293.945 323.378C293.968 321.276 293.978 318.16 293.978 314.233C293.978 313.502 293.978 312.753 293.974 311.966V311.962C293.969 306.344 293.936 299.35 293.88 291.446C293.876 290.77 293.87 290.089 293.866 289.399C293.823 284.136 293.772 278.498 293.706 272.62C293.696 271.94 293.692 271.259 293.683 270.574C293.612 264.546 293.528 258.282 293.43 251.924C293.369 248.042 293.303 244.125 293.228 240.202C293.154 236.23 293.074 232.253 292.984 228.3C292.965 227.44 292.947 226.579 292.923 225.719C292.07 188.343 290.593 153.99 288.15 150.158C286.458 147.506 282.579 144.39 278.012 141.249C277.454 140.869 276.887 140.483 276.31 140.098C274.364 138.803 258.492 133.049 256.475 131.784L239.698 130.534C239.594 130.598 223.553 136.372 223.45 136.432C222.761 136.851 222.062 137.277 221.373 137.702C215.432 141.359 209.57 145.211 206.194 148.529C205.701 149.009 205.261 149.479 204.886 149.94C204.586 150.305 204.318 150.66 204.103 151.01C203.901 151.325 203.704 151.855 203.516 152.581C201.486 160.451 200.422 191.377 199.892 225.026C199.854 227.438 199.821 229.864 199.788 232.295C199.774 233.361 199.76 234.432 199.746 235.502C199.732 236.237 199.722 236.978 199.718 237.714C199.714 238.084 199.708 238.449 199.704 238.82C199.68 240.65 199.661 242.476 199.647 244.293C199.634 245.639 199.62 246.979 199.605 248.321C199.453 265.267 199.406 281.726 199.42 295.139Z" fill="#7846D1"/>
<path d="M169.418 343.197C169.006 347.974 174.459 345.383 172.916 335.702C171.378 326.023 175.748 317.258 177.634 317.538C179.523 317.823 176.073 328.108 177.751 331.816C179.425 335.523 181.591 328.319 183.748 323.951C185.986 319.414 185.854 309.514 184.836 302.45C183.819 295.381 195.823 252.462 195.884 240.026L197.347 234.754L202.702 215.448L211.086 185.217C211.086 185.217 206.064 162.334 197.596 164.3C197.596 164.3 193.112 180.238 188.321 198.214C187.51 201.265 186.69 204.377 185.878 207.479C182.465 220.512 179.257 233.378 177.766 241.012C173.827 261.168 173.523 303.066 173.523 303.066C173.523 303.066 166.573 318.459 166.409 325.308C166.234 332.611 169.826 338.419 169.418 343.197Z" fill="#FFA681"/>
<path d="M185.877 207.477L197.347 234.752L202.702 215.447L188.321 198.213C187.509 201.264 186.688 204.376 185.877 207.477Z" fill="#F97853"/>
<path d="M185.309 199.353C190.34 208.558 195.457 217.713 200.553 226.883C202.232 220.885 203.972 215.127 205.604 209.833C205.608 209.818 205.613 209.808 205.617 209.793C206.269 207.677 206.907 205.636 207.517 203.685C207.526 203.65 207.536 203.614 207.55 203.585C207.761 202.9 207.967 202.224 208.178 201.564V201.56C210.611 193.711 212.497 187.471 213.035 183.835C214.489 174.045 210.527 154.865 204.947 151.082C204.802 151.427 204.361 150.362 204.099 151.012C203.119 153.429 198.767 159.397 196.614 165.21C196.338 165.951 196.056 166.721 195.765 167.506C192.647 176.055 188.835 187.176 185.309 199.353Z" fill="#7846D1"/>
<path d="M247.342 148.432C254.608 148.432 259.729 141.36 259.944 141.059C260.25 140.63 260.192 139.999 259.817 139.651C259.442 139.303 258.889 139.368 258.583 139.796C258.517 139.888 253.748 146.431 247.342 146.431C241.012 146.431 237.151 139.027 237.113 138.952C236.869 138.475 236.332 138.313 235.915 138.591C235.497 138.868 235.354 139.479 235.597 139.957C235.773 140.303 239.991 148.432 247.342 148.432Z" fill="#6020BD"/>
<path d="M278.061 216.194C278.195 216.194 278.331 216.159 278.46 216.085C278.895 215.833 279.07 215.226 278.849 214.729L275.681 207.585C275.461 207.088 274.929 206.889 274.493 207.141C274.057 207.393 273.883 208 274.104 208.497L277.272 215.641C277.426 215.993 277.738 216.194 278.061 216.194Z" fill="#6020BD"/>
<path d="M284.664 210.343C284.778 210.424 284.909 210.476 285.053 210.491C285.539 210.54 285.969 210.13 286.012 209.575L286.633 201.6C286.676 201.045 286.317 200.554 285.83 200.505C285.343 200.456 284.913 200.866 284.871 201.421L284.25 209.396C284.219 209.789 284.39 210.147 284.664 210.343Z" fill="#6020BD"/>
<path d="M267.641 197.977C268.067 197.977 268.441 197.627 268.512 197.133L269.656 189.234C269.735 188.684 269.41 188.164 268.928 188.073C268.445 187.983 267.991 188.354 267.912 188.905L266.768 196.804C266.689 197.354 267.014 197.874 267.496 197.965C267.545 197.973 267.594 197.977 267.641 197.977Z" fill="#6020BD"/>
<path d="M239.177 200.917C239.331 200.917 239.485 200.871 239.627 200.776C240.047 200.493 240.187 199.874 239.937 199.393L236.363 192.505C236.114 192.026 235.572 191.866 235.151 192.151C234.731 192.435 234.592 193.053 234.841 193.533L238.416 200.423C238.58 200.741 238.875 200.917 239.177 200.917Z" fill="#6020BD"/>
<path d="M274.145 170.038C274.309 170.038 274.475 169.986 274.624 169.877L280.515 165.528C280.926 165.226 281.043 164.601 280.778 164.134C280.512 163.666 279.965 163.532 279.555 163.834L273.663 168.183C273.252 168.485 273.135 169.11 273.4 169.578C273.571 169.876 273.855 170.038 274.145 170.038Z" fill="#6020BD"/>
<path d="M247.899 234.222C248.033 234.222 248.169 234.187 248.298 234.113C248.733 233.862 248.908 233.254 248.687 232.757L245.519 225.613C245.298 225.116 244.767 224.917 244.331 225.168C243.896 225.42 243.721 226.027 243.942 226.524L247.11 233.668C247.265 234.02 247.576 234.222 247.899 234.222Z" fill="#6020BD"/>
<path d="M261.82 175.413C262.114 175.413 262.402 175.246 262.571 174.94C262.83 174.467 262.704 173.844 262.29 173.549L256.343 169.301C255.929 169.006 255.383 169.147 255.124 169.621C254.865 170.093 254.991 170.716 255.404 171.011L261.352 175.259C261.498 175.363 261.66 175.413 261.82 175.413Z" fill="#6020BD"/>
<path d="M275.965 145.708C275.953 145.903 275.988 146.094 276.067 146.253C276.202 146.549 276.47 146.759 276.785 146.784C277.272 146.823 277.693 146.404 277.728 145.848L278.009 141.251C277.452 140.871 276.886 140.485 276.308 140.101L275.965 145.708Z" fill="#6020BD"/>
<path d="M283.894 189.54C284.188 189.54 284.476 189.373 284.644 189.067C284.903 188.594 284.778 187.971 284.364 187.676L278.417 183.428C278.003 183.133 277.457 183.274 277.198 183.748C276.939 184.22 277.064 184.842 277.478 185.138L283.426 189.386C283.571 189.49 283.733 189.54 283.894 189.54Z" fill="#6020BD"/>
<path d="M236.465 154.68C236.631 154.68 236.8 154.627 236.95 154.514C237.357 154.207 237.47 153.583 237.201 153.117L233.81 147.244C233.543 146.779 232.993 146.649 232.586 146.956C232.179 147.264 232.066 147.888 232.334 148.355L235.726 154.228C235.895 154.52 236.177 154.68 236.465 154.68Z" fill="#6020BD"/>
<path d="M233.424 256.127C233.657 256.127 233.888 256.023 234.062 255.816L238.922 250.04C239.26 249.638 239.248 249 238.896 248.614C238.544 248.227 237.984 248.241 237.646 248.644L232.787 254.419C232.447 254.82 232.46 255.459 232.812 255.845C232.984 256.033 233.205 256.127 233.424 256.127Z" fill="#6020BD"/>
<path d="M251.28 254.925C251.513 254.925 251.744 254.822 251.918 254.615L256.778 248.838C257.117 248.437 257.104 247.799 256.752 247.413C256.399 247.026 255.84 247.04 255.502 247.441L250.643 253.217C250.305 253.619 250.316 254.257 250.668 254.644C250.84 254.832 251.061 254.925 251.28 254.925Z" fill="#6020BD"/>
<path d="M264.119 293.966C264.2 293.718 264.197 293.433 264.088 293.175L261.054 285.955C260.843 285.452 260.315 285.241 259.875 285.482C259.434 285.723 259.249 286.325 259.46 286.828L262.494 294.048C262.705 294.55 263.233 294.762 263.673 294.521C263.888 294.404 264.042 294.2 264.119 293.966Z" fill="#6020BD"/>
<path d="M212.875 317.787C212.957 317.539 212.952 317.254 212.844 316.996L209.81 309.776C209.599 309.273 209.071 309.062 208.63 309.303C208.19 309.544 208.004 310.146 208.216 310.649L211.249 317.869C211.461 318.372 211.988 318.583 212.429 318.342C212.644 318.225 212.798 318.022 212.875 317.787Z" fill="#6020BD"/>
<path d="M234.879 329.744C235.471 329.789 236.063 329.83 236.651 329.859L237.269 325.362C237.344 324.811 237.014 324.296 236.532 324.212C236.05 324.126 235.598 324.502 235.523 325.052L234.879 329.744Z" fill="#6020BD"/>
<path d="M227.822 316.152C228.013 316.001 228.151 315.764 228.189 315.481L229.275 307.57C229.35 307.02 229.021 306.504 228.538 306.418C228.055 306.331 227.604 306.708 227.528 307.259L226.442 315.169C226.367 315.72 226.696 316.235 227.179 316.322C227.414 316.365 227.642 316.297 227.822 316.152Z" fill="#6020BD"/>
<path d="M270.487 250.015C270.638 250.015 270.79 249.97 270.93 249.878C271.352 249.599 271.496 248.982 271.252 248.499L267.737 241.571C267.493 241.088 266.952 240.924 266.529 241.203C266.107 241.482 265.962 242.1 266.207 242.582L269.722 249.512C269.885 249.834 270.181 250.015 270.487 250.015Z" fill="#6020BD"/>
<path d="M260.166 232.694C260.486 232.694 260.795 232.495 260.953 232.148L264.169 225.033C264.393 224.538 264.222 223.929 263.788 223.673C263.355 223.416 262.822 223.612 262.597 224.108L259.38 231.223C259.156 231.718 259.326 232.327 259.761 232.582C259.891 232.658 260.029 232.694 260.166 232.694Z" fill="#6020BD"/>
<path d="M288.118 231.651C288.209 231.776 288.328 231.871 288.45 231.931C288.749 232.071 289.099 232.021 289.362 231.77L292.979 228.304C292.961 227.444 292.944 226.582 292.923 225.722L288.223 230.224C287.851 230.585 287.802 231.22 288.118 231.651Z" fill="#6020BD"/>
<path d="M260.211 157.206C260.532 157.206 260.841 157.007 260.998 156.66L264.216 149.545C264.44 149.05 264.269 148.441 263.835 148.185C263.402 147.929 262.869 148.124 262.644 148.62L259.428 155.735C259.204 156.23 259.374 156.839 259.808 157.095C259.936 157.171 260.075 157.206 260.211 157.206Z" fill="#6020BD"/>
<path d="M239.593 183.273C239.648 183.273 239.705 183.268 239.761 183.255C240.241 183.149 240.555 182.62 240.462 182.073L239.131 174.213C239.038 173.664 238.575 173.308 238.096 173.413C237.616 173.519 237.302 174.048 237.395 174.595L238.726 182.455C238.807 182.939 239.177 183.273 239.593 183.273Z" fill="#6020BD"/>
<path d="M251.072 190.176C251.128 190.176 251.184 190.17 251.241 190.158C251.721 190.052 252.034 189.523 251.942 188.975L250.611 181.115C250.518 180.567 250.054 180.212 249.575 180.315C249.095 180.421 248.782 180.95 248.875 181.497L250.206 189.359C250.287 189.841 250.657 190.176 251.072 190.176Z" fill="#6020BD"/>
<path d="M242.848 164.239C243.142 164.239 243.427 164.074 243.596 163.772L247.356 157.013C247.617 156.543 247.496 155.918 247.083 155.62C246.669 155.322 246.124 155.462 245.862 155.931L242.102 162.69C241.841 163.16 241.962 163.784 242.375 164.082C242.522 164.189 242.686 164.239 242.848 164.239Z" fill="#6020BD"/>
<path d="M277.342 233.943C277.584 233.649 277.656 233.205 277.494 232.818L274.472 225.593C274.262 225.09 273.734 224.877 273.294 225.117C272.851 225.357 272.666 225.959 272.877 226.462L275.899 233.688C276.109 234.19 276.637 234.403 277.077 234.163C277.181 234.108 277.269 234.033 277.342 233.943Z" fill="#6020BD"/>
<path d="M254.595 212.98C254.948 212.98 255.282 212.737 255.418 212.338L257.975 204.883C258.153 204.364 257.929 203.779 257.474 203.576C257.019 203.372 256.506 203.628 256.329 204.148L253.772 211.603C253.594 212.122 253.817 212.707 254.273 212.911C254.378 212.957 254.487 212.98 254.595 212.98Z" fill="#6020BD"/>
<path d="M226.5 259.03C226.635 259.03 226.77 258.995 226.899 258.921C227.334 258.669 227.509 258.062 227.288 257.565L224.12 250.421C223.9 249.924 223.368 249.725 222.932 249.976C222.497 250.227 222.322 250.835 222.543 251.332L225.711 258.476C225.866 258.827 226.177 259.03 226.5 259.03Z" fill="#6020BD"/>
<path d="M273.064 310.373C273.065 310.525 273.097 310.681 273.163 310.826C273.387 311.321 273.921 311.515 274.355 311.258L280.585 307.575C281.018 307.32 281.188 306.71 280.963 306.215C280.739 305.72 280.205 305.528 279.771 305.784L273.541 309.467C273.234 309.647 273.06 310.004 273.064 310.373Z" fill="#6020BD"/>
<path d="M289.977 314.952C289.977 315.107 290.008 315.262 290.074 315.407C290.298 315.902 290.832 316.092 291.266 315.837L293.976 314.236C293.976 313.506 293.976 312.755 293.971 311.97L290.455 314.046C290.148 314.226 289.972 314.585 289.977 314.952Z" fill="#6020BD"/>
<path d="M263.799 323.856L265.93 329.048C266.316 329.004 266.702 328.954 267.091 328.902C267.323 328.873 267.556 328.842 267.788 328.813L265.399 322.999C265.193 322.494 264.667 322.273 264.223 322.513C263.782 322.751 263.589 323.35 263.799 323.856Z" fill="#6020BD"/>
<path d="M215.002 240.812C215.428 240.812 215.802 240.461 215.874 239.968L217.018 232.068C217.098 231.519 216.771 230.999 216.289 230.908C215.806 230.818 215.353 231.189 215.273 231.74L214.129 239.639C214.05 240.188 214.375 240.708 214.857 240.799C214.905 240.807 214.954 240.812 215.002 240.812Z" fill="#6020BD"/>
<path d="M214.272 182.527C214.425 182.527 214.58 182.481 214.721 182.386C215.141 182.103 215.281 181.484 215.031 181.004L211.457 174.115C211.208 173.636 210.665 173.476 210.246 173.761C209.826 174.045 209.686 174.663 209.936 175.143L213.51 182.032C213.676 182.351 213.97 182.527 214.272 182.527Z" fill="#6020BD"/>
<path d="M225.764 210.529C225.929 210.529 226.095 210.477 226.243 210.368L232.135 206.02C232.545 205.717 232.663 205.092 232.397 204.625C232.132 204.157 231.585 204.023 231.175 204.325L225.283 208.674C224.873 208.976 224.755 209.601 225.021 210.069C225.191 210.367 225.474 210.529 225.764 210.529Z" fill="#6020BD"/>
<path d="M288.147 257.494C288.281 257.494 288.417 257.459 288.546 257.385C288.981 257.133 289.156 256.526 288.935 256.029L285.767 248.885C285.546 248.388 285.015 248.189 284.579 248.441C284.143 248.693 283.969 249.3 284.189 249.796L287.358 256.94C287.513 257.293 287.824 257.494 288.147 257.494Z" fill="#6020BD"/>
<path d="M215.726 221.381C216.02 221.381 216.308 221.214 216.477 220.908C216.736 220.435 216.61 219.812 216.196 219.517L210.249 215.269C209.835 214.974 209.289 215.116 209.03 215.589C208.771 216.061 208.897 216.683 209.311 216.979L215.258 221.227C215.403 221.331 215.566 221.381 215.726 221.381Z" fill="#6020BD"/>
<path d="M229.984 231.486C230.2 231.714 230.512 231.814 230.817 231.719C231.288 231.572 231.566 231.018 231.438 230.481L229.597 222.755C229.468 222.218 228.984 221.9 228.511 222.046C228.04 222.193 227.762 222.747 227.89 223.284L229.731 231.01C229.777 231.199 229.867 231.362 229.984 231.486Z" fill="#6020BD"/>
<path d="M204.883 149.941L206.422 152.602C206.592 152.892 206.873 153.052 207.163 153.052C207.329 153.052 207.495 153.002 207.645 152.887C208.052 152.582 208.166 151.957 207.899 151.491L206.189 148.53C205.699 149.01 205.259 149.48 204.883 149.941Z" fill="#6020BD"/>
<path d="M198.157 167.506L199.793 170.337C199.964 170.632 200.244 170.793 200.534 170.793C200.701 170.793 200.868 170.738 201.02 170.628C201.428 170.317 201.538 169.692 201.27 169.227L198.951 165.21C198.693 165.949 198.429 166.72 198.157 167.506Z" fill="#6020BD"/>
<path d="M274.633 282.437C274.866 282.437 275.097 282.334 275.271 282.127L280.131 276.352C280.469 275.95 280.457 275.312 280.105 274.925C279.753 274.538 279.193 274.552 278.855 274.955L273.996 280.73C273.658 281.131 273.669 281.769 274.021 282.156C274.192 282.344 274.413 282.437 274.633 282.437Z" fill="#6020BD"/>
<path d="M242.299 302.628C242.532 302.628 242.763 302.525 242.937 302.318L247.797 296.541C248.135 296.14 248.123 295.502 247.771 295.115C247.419 294.728 246.859 294.742 246.521 295.144L241.662 300.919C241.324 301.321 241.335 301.959 241.687 302.346C241.859 302.535 242.08 302.628 242.299 302.628Z" fill="#6020BD"/>
<path d="M233.313 294.608C233.459 294.402 233.535 294.132 233.503 293.847L232.626 285.904C232.565 285.351 232.123 284.959 231.639 285.029C231.153 285.098 230.81 285.602 230.872 286.156L231.749 294.1C231.809 294.653 232.252 295.044 232.736 294.975C232.973 294.941 233.174 294.803 233.313 294.608Z" fill="#6020BD"/>
<path d="M251.73 316.997C251.962 316.997 252.194 316.894 252.368 316.687L257.227 310.912C257.565 310.51 257.553 309.872 257.202 309.486C256.85 309.099 256.29 309.113 255.952 309.516L251.092 315.292C250.753 315.694 250.766 316.332 251.118 316.717C251.29 316.904 251.51 316.997 251.73 316.997Z" fill="#6020BD"/>
<path d="M199.42 295.141C199.416 295.826 199.42 296.502 199.42 297.167L204.905 297.693C205.391 297.743 205.821 297.328 205.86 296.772C205.904 296.217 205.54 295.731 205.053 295.681L199.42 295.141Z" fill="#6020BD"/>
<path d="M263.657 270.292C263.889 270.292 264.121 270.188 264.294 269.982L269.154 264.205C269.492 263.804 269.48 263.166 269.128 262.779C268.775 262.392 268.217 262.406 267.879 262.808L263.019 268.583C262.681 268.985 262.693 269.624 263.045 270.01C263.216 270.199 263.436 270.292 263.657 270.292Z" fill="#6020BD"/>
<path d="M240.277 267.782C240.292 268.046 240.399 268.303 240.591 268.488L245.961 273.64C246.334 273.999 246.892 273.944 247.207 273.518C247.521 273.09 247.473 272.455 247.099 272.097L241.729 266.944C241.356 266.585 240.798 266.64 240.483 267.067C240.33 267.274 240.262 267.531 240.277 267.782Z" fill="#6020BD"/>
<path d="M214.69 296.125C214.84 296.125 214.993 296.082 215.131 295.99C215.554 295.711 215.699 295.093 215.454 294.611L211.939 287.681C211.694 287.199 211.154 287.035 210.73 287.313C210.308 287.592 210.163 288.21 210.408 288.692L213.923 295.622C214.087 295.945 214.385 296.125 214.69 296.125Z" fill="#6020BD"/>
<path d="M208.605 275.529C208.926 275.529 209.234 275.33 209.392 274.983L212.609 267.868C212.833 267.373 212.662 266.764 212.228 266.509C211.795 266.252 211.262 266.448 211.037 266.943L207.82 274.058C207.596 274.553 207.766 275.162 208.2 275.418C208.329 275.493 208.468 275.529 208.605 275.529Z" fill="#6020BD"/>
<path d="M218.2 194.743C218.52 194.743 218.829 194.543 218.987 194.196L222.204 187.081C222.427 186.586 222.257 185.978 221.823 185.722C221.39 185.466 220.857 185.66 220.632 186.156L217.415 193.271C217.192 193.766 217.362 194.375 217.796 194.631C217.925 194.706 218.064 194.743 218.2 194.743Z" fill="#6020BD"/>
<path d="M214.687 164.883C214.743 164.883 214.799 164.878 214.856 164.865C215.336 164.759 215.649 164.23 215.556 163.683L214.225 155.823C214.133 155.275 213.669 154.918 213.19 155.023C212.71 155.129 212.397 155.658 212.489 156.205L213.82 164.065C213.902 164.549 214.272 164.883 214.687 164.883Z" fill="#6020BD"/>
<path d="M198.53 192.01C198.585 192.01 198.641 192.004 198.698 191.992C199.178 191.886 199.491 191.357 199.399 190.809L198.068 182.949C197.975 182.402 197.511 182.045 197.032 182.149C196.552 182.255 196.239 182.784 196.332 183.331L197.663 191.192C197.745 191.675 198.115 192.01 198.53 192.01Z" fill="#6020BD"/>
<path d="M226.167 171.786C226.223 171.786 226.279 171.78 226.336 171.768C226.816 171.662 227.129 171.133 227.036 170.586L225.705 162.725C225.613 162.177 225.149 161.822 224.67 161.925C224.19 162.031 223.877 162.56 223.969 163.107L225.3 170.968C225.381 171.45 225.752 171.786 226.167 171.786Z" fill="#6020BD"/>
<path d="M220.899 144.402C221.069 144.447 221.237 144.432 221.389 144.373C221.666 144.262 221.89 143.997 221.96 143.653L223.446 136.434C222.759 136.854 222.061 137.279 221.368 137.705L220.241 143.187C220.127 143.732 220.42 144.273 220.899 144.402Z" fill="#6020BD"/>
<path d="M200.671 204.164C200.963 204.164 201.25 203.999 201.419 203.696L205.179 196.937C205.44 196.466 205.318 195.843 204.907 195.545C204.493 195.247 203.948 195.386 203.686 195.855L199.926 202.614C199.664 203.085 199.786 203.709 200.198 204.007C200.345 204.113 200.509 204.164 200.671 204.164Z" fill="#6020BD"/>
<path d="M225.782 276.779C226.025 276.485 226.096 276.041 225.935 275.654L222.914 268.429C222.704 267.926 222.176 267.713 221.736 267.953C221.293 268.193 221.107 268.796 221.319 269.298L224.34 276.523C224.55 277.026 225.078 277.24 225.518 276.999C225.62 276.943 225.709 276.868 225.782 276.779Z" fill="#6020BD"/>
<path d="M287.974 290.358L293.88 291.449C293.875 290.773 293.871 290.093 293.862 289.403L288.259 288.362C287.777 288.277 287.32 288.648 287.246 289.197C287.167 289.747 287.491 290.268 287.974 290.358Z" fill="#6020BD"/>
<path d="M289.771 271.897L293.703 272.623C293.695 271.943 293.691 271.263 293.681 270.578L290.055 269.908C289.573 269.818 289.121 270.193 289.042 270.743C288.964 271.292 289.289 271.808 289.771 271.897Z" fill="#6020BD"/>
<path d="M203.034 255.815C203.388 255.815 203.722 255.571 203.857 255.173L206.415 247.718C206.593 247.199 206.369 246.614 205.913 246.41C205.458 246.207 204.945 246.463 204.768 246.983L202.211 254.438C202.033 254.957 202.258 255.542 202.712 255.745C202.819 255.792 202.928 255.815 203.034 255.815Z" fill="#6020BD"/>
<path d="M199.786 232.294C201.446 224.975 203.532 216.84 205.6 209.832C205.604 209.817 205.61 209.807 205.614 209.792C206.252 207.626 206.889 205.57 207.513 203.684C207.523 203.649 207.532 203.614 207.546 203.584C207.738 202.989 207.935 202.413 208.127 201.853C208.155 201.753 208.174 201.657 208.174 201.563V201.559C208.174 201.223 207.977 200.908 207.664 200.783C207.255 200.628 206.805 200.847 206.66 201.283C204.54 207.446 202.036 216.321 199.889 225.026C199.852 227.436 199.819 229.862 199.786 232.294Z" fill="#6020BD"/>
<path d="M225.138 90.9891C225.138 90.9891 218.981 83.7499 221.305 75.3274C223.628 66.9061 229.985 66.9982 229.985 66.9982C229.985 66.9982 233.694 58.0411 240.01 57.7452C246.327 57.4494 252.281 45.4819 258.028 48.7323C263.776 51.9828 257.405 59.0752 257.405 59.0752C257.405 59.0752 267.252 47.9939 270.499 51.2444C273.747 54.4948 265.991 63.2119 265.991 63.2119C265.991 63.2119 274.265 57.0069 276.983 59.3699C279.701 61.734 270.499 71.9291 270.499 71.9291C270.499 71.9291 276.453 83.3801 270.461 88.5146L225.138 90.9891Z" fill="#403657"/>
<path d="M268.156 93.4124C268.156 93.4124 272.093 87.8115 275.02 92.4431C277.947 97.0736 273.809 110.752 266.642 107.413L268.156 93.4124Z" fill="#F97853"/>
<path d="M268.207 103.186C268.472 103.186 268.715 103 268.79 102.714C269.902 98.4911 274.002 96.7788 274.043 96.7629C274.356 96.6355 274.513 96.2623 274.394 95.9301C274.276 95.5968 273.926 95.4284 273.615 95.5547C273.423 95.632 268.904 97.5036 267.625 102.366C267.534 102.71 267.723 103.066 268.045 103.163C268.098 103.178 268.153 103.186 268.207 103.186Z" fill="#EA5143"/>
<path d="M272.346 101.059C272.459 101.059 272.572 101.026 272.673 100.957C272.955 100.763 273.036 100.364 272.854 100.063C272.824 100.013 272.098 98.8324 270.581 98.1089C270.277 97.9621 269.917 98.1089 269.781 98.4343C269.644 98.7596 269.781 99.1419 270.086 99.2875C271.26 99.8473 271.83 100.754 271.836 100.763C271.952 100.955 272.147 101.059 272.346 101.059Z" fill="#EA5143"/>
<path d="M227.581 93.4124C227.581 93.4124 223.644 87.8115 220.717 92.4431C217.79 97.0736 221.928 110.752 229.096 107.413L227.581 93.4124Z" fill="#F97853"/>
<path d="M227.531 103.186C227.267 103.186 227.024 103 226.948 102.714C225.838 98.4911 221.737 96.7788 221.695 96.7629C221.383 96.6355 221.226 96.2623 221.344 95.9301C221.463 95.5968 221.812 95.4284 222.124 95.5547C222.316 95.632 226.835 97.5036 228.114 102.366C228.204 102.71 228.017 103.066 227.693 103.163C227.64 103.178 227.586 103.186 227.531 103.186Z" fill="#EA5143"/>
<path d="M223.391 101.059C223.278 101.059 223.165 101.026 223.064 100.957C222.783 100.763 222.702 100.364 222.883 100.063C222.913 100.013 223.638 98.8324 225.156 98.1089C225.46 97.9621 225.82 98.1089 225.956 98.4343C226.093 98.7596 225.956 99.1419 225.651 99.2875C224.477 99.8473 223.907 100.754 223.901 100.763C223.786 100.955 223.591 101.059 223.391 101.059Z" fill="#EA5143"/>
<path d="M238.177 119.015V132.618C238.177 132.618 241.98 139.545 247.121 140.016C252.258 140.494 256.823 134.053 256.823 134.053V119.971L238.177 119.015Z" fill="#FFA681"/>
<path d="M238.177 119.015V125.051C241.627 129.135 247.756 130.156 256.823 128.728V119.972L238.177 119.015Z" fill="#F97853"/>
<path d="M224.738 84.0832C224.971 89.369 225.443 95.9814 226.39 101.263V101.277C226.39 101.292 226.394 101.308 226.399 101.329C226.399 101.334 226.403 101.334 226.403 101.339C226.637 102.629 226.898 103.843 227.184 104.934C227.356 105.573 227.541 106.244 227.75 106.93C230.772 117.045 237.774 131.685 255.371 124.987C262.781 122.169 266.641 114.004 268.608 105.148C268.722 104.62 268.832 104.097 268.927 103.594C268.993 103.258 269.056 102.934 269.112 102.613L269.198 102.141C269.211 102.06 269.221 102.004 269.226 101.968C269.232 101.948 269.232 101.937 269.232 101.937C270.393 95.1281 270.569 88.2415 270.484 83.3209C270.393 78.3036 267.823 73.713 263.73 71.2407C252.645 64.5328 240.94 67.0358 233.235 70.1952C227.884 72.3841 224.462 77.9851 224.738 84.0832Z" fill="#FFA681"/>
<path d="M226.384 101.263C226.384 101.263 226.384 101.267 226.389 101.277C226.389 101.292 226.393 101.308 226.398 101.329C226.398 101.334 226.402 101.334 226.402 101.339C226.517 101.78 227.135 104.202 227.749 106.93C230.771 117.045 237.773 131.685 255.37 124.987C262.78 122.169 266.64 114.004 268.607 105.148C268.721 104.62 268.831 104.097 268.926 103.594C268.992 103.258 269.055 102.934 269.111 102.613L269.197 102.141C269.21 102.06 269.22 102.004 269.225 101.968C269.231 101.948 269.231 101.937 269.231 101.937L266.642 101.379C266.147 103.994 265.052 106.456 263.709 108.645C261.52 103.049 250.41 106.767 250.41 106.767L250.358 106.787C249.682 107.01 248.987 107.128 248.287 107.128C247.568 107.128 246.854 107.006 246.159 106.767C246.159 106.767 235.183 102.887 232.908 108.224C230.634 104.466 229.091 101.059 229.091 101.059L226.387 101.263H226.384ZM248.26 109.302C260.821 107.494 258.846 114.709 258.846 114.709C257.451 116.065 256.176 117.055 255.32 117.568C252.578 119.199 249.879 119.818 247.923 119.716C245.995 119.63 245.467 120.052 240.593 117.238C239.731 116.746 238.86 116.014 238.008 115.146C238.008 115.146 238.008 115.146 238.004 115.146V115.142C237.794 113.73 235.666 106.991 248.26 109.302Z" fill="#403657"/>
<path d="M236.878 93.9199C236.878 95.3716 237.58 96.5491 238.445 96.5491C239.31 96.5491 240.011 95.3716 240.011 93.9199C240.011 92.4682 239.31 91.2906 238.445 91.2906C237.579 91.2906 236.878 92.4682 236.878 93.9199Z" fill="#403657"/>
<path d="M256.463 93.9199C256.463 95.3716 257.165 96.5491 258.029 96.5491C258.895 96.5491 259.596 95.3716 259.596 93.9199C259.596 92.4682 258.894 91.2906 258.029 91.2906C257.165 91.2906 256.463 92.4682 256.463 93.9199Z" fill="#403657"/>
<path d="M232.867 85.0548C232.867 85.0548 239.341 82.3255 244.325 84.6225L243.827 87.5805C243.827 87.5805 236.511 86.9207 232.825 88.5135C232.495 87.3758 232.445 86.2244 232.867 85.0548Z" fill="#403657"/>
<path d="M263.649 85.0685C263.649 85.0685 257.127 82.3186 252.106 84.6327L252.608 87.6124C252.608 87.6124 259.978 86.9468 263.691 88.5533C264.024 87.4065 264.072 86.2471 263.649 85.0685Z" fill="#403657"/>
<path d="M247.659 105.67C246.637 105.67 245.623 105.246 245.466 105.177C245.157 105.043 245.009 104.666 245.135 104.336C245.26 104.006 245.615 103.846 245.924 103.981C246.471 104.217 247.785 104.589 248.353 104.225C248.463 104.155 248.613 104.016 248.651 103.623C248.869 101.366 248.29 93.8027 248.285 93.7264C248.257 93.3703 248.506 93.0586 248.839 93.029C249.174 92.9994 249.465 93.2645 249.493 93.6195C249.517 93.9358 250.087 101.38 249.857 103.755C249.77 104.65 249.33 105.107 248.976 105.333C248.589 105.584 248.123 105.67 247.659 105.67Z" fill="#F97853"/>
<path d="M255.38 110.593C254.921 113.062 253.392 117.602 248.243 117.602C243.082 117.602 241.635 113.453 241.138 110.593H255.38Z" fill="white"/>
<path d="M224.735 84.0809C224.972 89.3667 225.445 95.978 226.389 101.264L229.097 101.059C229.097 101.059 228.441 96.5957 228.138 93.6877C227.835 90.7798 227.321 85.3438 229.647 84.6657C231.967 83.9945 230.606 77.7928 233.834 75.1044C237.062 72.4103 244.283 71.6708 249.045 74.7984C253.805 77.9191 259.17 74.5617 261.364 75.1044C263.563 75.6414 266.542 78.8714 265.737 81.8897C264.925 84.9012 267.348 86.7364 267.936 89.8571C268.523 92.9778 266.646 101.379 266.646 101.379L269.232 101.935C270.395 95.1235 270.57 88.2415 270.486 83.3244C270.395 78.3036 267.827 73.7153 263.732 71.2407C252.642 64.5328 240.94 67.0335 233.236 70.1941C227.886 72.3853 224.462 77.9874 224.735 84.0809Z" fill="#403657"/>
<path d="M336.194 229.638C334.547 245.66 324.743 281.452 317.954 288.463C309.116 297.59 280.03 316.807 264.88 326.66C262.147 328.437 274.985 340.274 274.985 340.274C274.985 340.274 315.212 321.921 330.574 307.452C334.92 303.359 343.744 290.449 353.705 265.857C356.725 258.401 364.044 243.364 363.664 233.559C363.227 222.274 346.423 224.131 336.194 229.638Z" fill="#7846D1"/>
<path d="M304.805 321.669C304.805 321.669 293.864 326.101 289.986 330.978C286.109 335.854 280.985 339.99 282.231 341.911C283.477 343.831 289.155 338.217 289.155 338.217C289.155 338.217 290.712 344.389 296.217 345.054C301.724 345.72 312.144 334.227 312.144 334.227L304.805 321.669Z" fill="#FFA681"/>
<path d="M412.802 274.371C412.805 275.385 412.797 276.584 412.78 277.943C412.763 279.297 412.735 280.807 412.697 282.459C412.666 283.591 412.633 284.788 412.594 286.044C412.558 287.102 412.52 288.197 412.478 289.335C412.431 290.497 412.381 291.694 412.325 292.928C411.564 309.707 409.722 332.874 405.672 351.447H320.554C323.393 337.948 327.736 316.657 331.182 289.034C331.326 287.872 331.47 286.699 331.612 285.514C331.753 284.328 331.891 283.132 332.03 281.926C332.104 281.285 332.177 280.637 332.248 279.991C332.307 279.456 332.364 278.924 332.42 278.398C332.578 276.909 332.722 275.444 332.85 274.007C332.957 272.806 333.058 271.628 333.151 270.464C334.611 251.892 334.096 237.973 336.193 229.637C338.636 219.933 367.12 208.807 367.12 208.807L384.966 209.802C384.966 209.802 401.981 215.73 411.077 224.249C420.175 232.772 412.566 258.199 412.788 272.638C412.797 273.135 412.799 273.714 412.802 274.371Z" fill="#9C78ED"/>
<path d="M412.78 277.943C405.041 278.946 396.967 279.341 389.045 279.341C363.101 279.341 338.746 275.11 332.849 274.008C332.956 272.808 333.057 271.629 333.15 270.465C340.003 271.76 379.658 278.757 412.801 274.372C412.804 275.385 412.797 276.584 412.78 277.943Z" fill="#E0D5F8"/>
<path d="M412.697 282.459C412.666 283.591 412.633 284.788 412.594 286.044C404.911 287.028 396.904 287.415 389.045 287.415C361.636 287.415 336.001 282.692 332.029 281.927C332.103 281.286 332.176 280.638 332.247 279.992C332.306 279.458 332.364 278.925 332.419 278.399C336.365 279.166 378.061 287.015 412.697 282.459Z" fill="#E0D5F8"/>
<path d="M412.478 289.335C412.431 290.497 412.381 291.694 412.325 292.928C404.332 294.012 395.962 294.435 387.755 294.435C361.218 294.435 336.347 290.012 331.182 289.034C331.326 287.872 331.47 286.699 331.611 285.514C337.754 286.682 378.717 294.049 412.478 289.335Z" fill="#E0D5F8"/>
<path d="M372.268 227.073C381.141 227.073 389.327 217.01 389.682 216.568C389.907 216.288 389.876 215.866 389.614 215.626C389.352 215.386 388.957 215.418 388.731 215.698C388.645 215.804 380.072 226.342 371.503 225.708C371.161 225.681 370.859 225.96 370.836 226.328C370.811 226.695 371.071 227.015 371.417 227.04C371.7 227.063 371.985 227.073 372.268 227.073Z" fill="#7846D1"/>
<path d="M379.961 340.237C380.274 340.237 380.545 339.986 380.582 339.646C380.621 339.279 380.375 338.948 380.031 338.905C357.11 336.09 347.615 293.761 347.521 293.334C347.444 292.975 347.107 292.752 346.77 292.835C346.433 292.919 346.224 293.277 346.301 293.637C346.691 295.418 356.098 337.311 379.887 340.233C379.913 340.236 379.937 340.237 379.961 340.237Z" fill="#7846D1"/>
<path d="M370.834 327.429C371.044 327.429 371.249 327.316 371.367 327.112C371.548 326.798 371.458 326.386 371.163 326.192C358.972 318.173 357.16 306.353 357.143 306.235C357.09 305.871 356.775 305.616 356.43 305.675C356.089 305.73 355.853 306.07 355.904 306.434C355.976 306.942 357.797 318.97 370.507 327.33C370.608 327.397 370.722 327.429 370.834 327.429Z" fill="#7846D1"/>
<path d="M377.952 191.596C391.82 191.596 403.062 179.601 403.062 164.806C403.062 150.01 391.82 138.016 377.952 138.016C364.084 138.016 352.841 150.01 352.841 164.806C352.841 179.601 364.084 191.596 377.952 191.596Z" fill="#403657"/>
<path d="M353.252 160.003C353.252 160.003 346.141 157.908 347.078 150.545C347.876 144.278 354.777 148.341 354.17 143.443C353.563 138.545 352.215 134.092 358.154 132.868C363.348 131.798 363.436 135.595 370.257 130.085C378.316 123.577 384.506 138.649 391.699 139.102C402.308 139.77 403.646 146.17 404.69 151.291C405.733 156.412 401.65 160.003 401.65 160.003H353.252Z" fill="#403657"/>
<path d="M357.06 172.302C357.06 172.302 353.082 166.645 350.125 171.323C347.168 176.001 351.349 189.82 358.59 186.446L357.06 172.302Z" fill="#F97853"/>
<path d="M357.009 182.177C356.741 182.177 356.496 181.988 356.42 181.7C355.297 177.433 351.155 175.704 351.114 175.687C350.798 175.558 350.639 175.182 350.76 174.845C350.879 174.508 351.232 174.339 351.548 174.466C351.742 174.545 356.307 176.435 357.599 181.347C357.69 181.694 357.501 182.055 357.175 182.153C357.118 182.169 357.063 182.177 357.009 182.177Z" fill="#EA5143"/>
<path d="M352.827 180.027C352.713 180.027 352.598 179.994 352.496 179.924C352.211 179.728 352.13 179.324 352.313 179.022C352.344 178.972 353.076 177.778 354.61 177.047C354.917 176.899 355.28 177.047 355.418 177.375C355.556 177.704 355.418 178.091 355.11 178.238C353.924 178.804 353.348 179.719 353.343 179.728C353.225 179.923 353.028 180.027 352.827 180.027Z" fill="#EA5143"/>
<path d="M385.907 198.168V211.911C385.907 211.911 380.612 217.967 375.417 218.443C370.228 218.926 367.071 212.349 367.071 212.349V199.134L385.907 198.168Z" fill="#FFA681"/>
<path d="M385.908 198.168V204.265C382.422 208.392 376.231 209.422 367.07 207.98V199.134L385.908 198.168Z" fill="#F97853"/>
<path d="M399.488 162.875C399.249 168.216 398.772 174.894 397.817 180.234C397.578 181.567 397.31 182.82 397.009 183.942C394.298 194.068 387.518 211.433 368.537 204.2C360.154 201.008 356.269 191.045 354.537 180.914C353.362 174.033 353.185 167.08 353.27 162.112C353.362 157.04 355.956 152.405 360.093 149.904C371.297 143.128 383.119 145.654 390.903 148.846C396.306 151.059 399.763 156.719 399.488 162.875Z" fill="#FFA681"/>
<path d="M376.715 172.581V173.666C376.715 175.849 377.513 177.898 378.965 179.436C380.395 180.954 382.286 181.785 384.296 181.785H384.544C386.287 181.746 387.872 180.997 389.261 179.559C390.654 178.108 391.453 176.035 391.453 173.864V172.582C391.453 172.228 391.39 171.888 391.276 171.573C391.142 171.191 390.936 170.852 390.67 170.569C390.186 170.052 389.522 169.734 388.783 169.734H379.388C378.324 169.734 377.407 170.396 376.979 171.357C376.82 171.708 376.727 172.098 376.72 172.507C376.715 172.53 376.715 172.559 376.715 172.581ZM377.823 172.581C377.823 171.66 378.525 170.915 379.386 170.915H388.78C389.645 170.915 390.344 171.66 390.344 172.581V173.862C390.344 175.715 389.668 177.485 388.485 178.71C387.307 179.932 385.973 180.567 384.521 180.602H384.295C382.582 180.602 380.967 179.892 379.744 178.596C378.507 177.284 377.823 175.534 377.823 173.666V172.581Z" fill="#403657"/>
<path d="M357.905 172.581V173.666C357.905 175.849 358.707 177.898 360.155 179.436C361.585 180.954 363.476 181.785 365.486 181.785H365.736C367.477 181.746 369.065 180.997 370.451 179.559C371.844 178.108 372.645 176.035 372.645 173.864V172.582C372.645 172.563 372.645 172.547 372.641 172.528C372.637 172.142 372.556 171.771 372.416 171.436C372.002 170.431 371.064 169.734 369.974 169.734H360.576C359.753 169.734 359.014 170.135 358.522 170.762C358.285 171.069 358.105 171.429 358.008 171.818C357.938 172.061 357.905 172.317 357.905 172.581ZM359.014 172.581C359.014 171.66 359.716 170.915 360.576 170.915H369.974C370.835 170.915 371.536 171.66 371.536 172.581V173.862C371.536 175.715 370.857 177.485 369.679 178.71C368.5 179.932 367.166 180.567 365.715 180.602H365.486C363.771 180.602 362.158 179.892 360.938 178.596C359.696 177.284 359.013 175.534 359.013 173.666V172.581H359.014Z" fill="#403657"/>
<path d="M398.148 169.254C394.957 169.108 392.678 170.09 391.777 170.568C391.525 170.698 390.853 171.165 390.825 171.184L391.353 172.187C391.36 172.183 392.095 171.715 392.383 171.573C393.267 171.133 395.229 170.25 398.148 170.433V169.254Z" fill="#403657"/>
<path d="M377.46 172.627L377.824 171.509C377.759 171.485 376.203 170.913 374.493 170.913C372.674 170.913 371.503 171.51 371.453 171.535L371.937 172.599C371.946 172.595 372.945 172.096 374.493 172.096C376.01 172.097 377.446 172.622 377.46 172.627Z" fill="#403657"/>
<path d="M354.024 169.539V170.725C356.319 170.927 358.439 172.021 358.47 172.034L358.957 170.974C358.832 170.907 356.557 169.736 354.024 169.539Z" fill="#403657"/>
<path d="M366.602 174.096C366.602 175.563 365.894 176.753 365.02 176.753C364.145 176.753 363.437 175.564 363.437 174.096C363.437 172.63 364.146 171.44 365.02 171.44C365.893 171.44 366.602 172.629 366.602 174.096Z" fill="#403657"/>
<path d="M385.136 174.096C385.136 175.563 384.427 176.753 383.553 176.753C382.679 176.753 381.971 175.564 381.971 174.096C381.971 172.63 382.68 171.44 383.553 171.44C384.428 171.44 385.136 172.629 385.136 174.096Z" fill="#403657"/>
<path d="M359.871 165.939C359.871 165.939 366.459 163.161 371.532 165.5L371.109 168.012C371.109 168.012 365.615 166.704 360.235 168.844C359.899 167.686 359.442 167.13 359.871 165.939Z" fill="#403657"/>
<path d="M390.019 165.939C390.019 165.939 383.431 163.161 378.357 165.5L378.781 168.012C378.781 168.012 384.275 166.704 389.655 168.844C389.991 167.686 390.448 167.13 390.019 165.939Z" fill="#403657"/>
<path d="M375.258 185.228C376.29 185.228 377.314 184.799 377.473 184.731C377.785 184.594 377.934 184.214 377.808 183.88C377.681 183.546 377.322 183.386 377.01 183.521C376.458 183.76 375.131 184.136 374.555 183.768C374.444 183.696 374.293 183.557 374.254 183.161C374.034 180.881 374.618 173.24 374.624 173.162C374.652 172.803 374.401 172.488 374.066 172.458C373.728 172.427 373.433 172.696 373.405 173.055C373.381 173.375 372.805 180.895 373.038 183.295C373.125 184.198 373.57 184.66 373.927 184.889C374.319 185.139 374.79 185.228 375.258 185.228Z" fill="#F97853"/>
<path d="M367.673 188.542C368.173 191.226 369.834 196.165 375.435 196.165C381.049 196.165 382.623 191.651 383.163 188.542H367.673Z" fill="white"/>
<path d="M375.359 199.575C376.942 199.575 378.285 198.718 378.342 198.682C378.631 198.495 378.723 198.094 378.547 197.785C378.373 197.475 377.996 197.377 377.707 197.564C377.697 197.571 376.592 198.268 375.358 198.268C374.225 198.268 373.142 197.574 373.131 197.566C372.844 197.377 372.467 197.472 372.29 197.779C372.112 198.086 372.201 198.489 372.489 198.678C372.544 198.715 373.864 199.575 375.359 199.575Z" fill="#F97853"/>
<path d="M356.431 176.657C355.969 173.966 355.511 170.49 355.844 168.709C356.44 165.557 358.887 163.704 358.071 160.665C357.255 157.613 360.266 154.347 362.487 153.805C364.7 153.257 369.882 154.435 374.983 151.851C379.851 149.382 388.312 151.148 389.692 154.481C391.361 158.517 389.09 158.898 393.644 163.262C395.457 165.002 393.305 169.519 392.998 172.457C392.861 173.809 392.84 174.469 392.89 175.92L392.909 176.657H398.359C398.959 172.101 399.303 167.077 399.49 162.873C399.767 156.716 396.304 151.061 390.903 148.846C383.118 145.654 371.3 143.125 360.09 149.903C355.957 152.406 353.359 157.037 353.272 162.11C353.203 166.049 353.301 171.241 353.932 176.656H356.431V176.657Z" fill="#403657"/>
<path d="M395.942 179.17C395.925 177.648 396.026 176.127 396.275 174.63C396.615 172.582 397.172 170.723 399.137 169.87C400.718 169.183 402.406 169.169 403.606 171.07C406.563 175.748 403.269 190.308 396.029 186.934L395.942 179.17Z" fill="#FFA681"/>
<path d="M397.429 182.695C397.691 182.64 397.897 182.403 397.919 182.105C398.237 177.687 401.982 175.126 402.019 175.1C402.305 174.908 402.392 174.505 402.212 174.2C402.033 173.895 401.656 173.802 401.37 173.993C401.194 174.11 397.064 176.917 396.698 182.005C396.672 182.364 396.924 182.678 397.262 182.706C397.319 182.71 397.375 182.706 397.429 182.695Z" fill="#F97853"/>
<path d="M401.135 179.714C401.247 179.69 401.353 179.633 401.44 179.543C401.684 179.293 401.689 178.878 401.454 178.62C401.415 178.577 400.477 177.56 398.839 177.163C398.512 177.082 398.183 177.303 398.108 177.654C398.032 178.006 398.239 178.355 398.569 178.436C399.835 178.743 400.568 179.521 400.576 179.528C400.726 179.694 400.938 179.756 401.135 179.714Z" fill="#F97853"/>
<path d="M407.458 221.269C398.515 235.731 364.289 285.729 356.566 291.537C346.513 299.098 319.108 309.849 303.373 321.058C298.027 324.867 310.658 335.644 310.658 335.644C310.658 335.644 349.011 324.141 366.285 312.377C371.171 309.049 391.494 287.329 404.452 268.064C408.891 261.465 416.112 252.298 417.157 242.549C418.359 231.328 415.055 225.324 407.458 221.269Z" fill="#7846D1"/>
<path d="M339.622 351.447H233C231.637 351.447 230.532 350.269 230.532 348.815V339.75C230.532 338.296 231.637 337.118 233 337.118H339.622C340.984 337.118 342.089 338.296 342.089 339.75V348.815C342.088 350.269 340.984 351.447 339.622 351.447Z" fill="#1A0B42"/>
<path d="M230.556 351.447L209.587 267.668C208.41 262.962 211.734 258.344 216.299 258.344H262.44C265.553 258.344 268.286 260.554 269.128 263.752L292.218 351.447H230.556Z" fill="#403657"/>
<path d="M269.13 263.753L292.028 350.726H297.3L274.403 263.753C273.555 260.553 270.826 258.342 267.712 258.342H262.44C265.554 258.341 268.283 260.553 269.13 263.753Z" fill="#1A0B42"/>
<path d="M257.267 308.647C258.466 314.172 255.239 318.653 250.06 318.653C244.88 318.653 239.709 314.174 238.511 308.647C237.312 303.121 240.539 298.64 245.718 298.64C250.898 298.64 256.069 303.121 257.267 308.647Z" fill="#614C6E"/>
<path d="M400.245 42.8731C396.363 42.8731 393.204 39.5032 393.204 35.3608C393.204 31.2184 396.363 27.8485 400.245 27.8485C404.128 27.8485 407.287 31.2184 407.287 35.3608C407.287 39.5032 404.128 42.8731 400.245 42.8731ZM400.245 30.2036C397.581 30.2036 395.413 32.5166 395.413 35.3597C395.413 38.2028 397.581 40.5158 400.245 40.5158C402.91 40.5158 405.078 38.2028 405.078 35.3597C405.077 32.5166 402.909 30.2036 400.245 30.2036Z" fill="#7846D1"/>
<path d="M425.595 69.2293C421.712 69.2293 418.553 65.8594 418.553 61.717C418.553 57.5746 421.712 54.2047 425.595 54.2047C429.477 54.2047 432.636 57.5746 432.636 61.717C432.636 65.8594 429.477 69.2293 425.595 69.2293ZM425.595 56.5609C422.93 56.5609 420.762 58.8739 420.762 61.717C420.762 64.5602 422.93 66.8731 425.595 66.8731C428.259 66.8731 430.427 64.5602 430.427 61.717C430.427 58.8739 428.259 56.5609 425.595 56.5609Z" fill="#9C78ED"/>
<path d="M434.295 93.6422C433.685 93.6422 433.19 93.1144 433.19 92.4636V87.2665C433.19 86.6158 433.685 86.0879 434.295 86.0879C434.905 86.0879 435.4 86.6158 435.4 87.2665V92.4636C435.399 93.1144 434.905 93.6422 434.295 93.6422Z" fill="#7846D1"/>
<path d="M434.295 102.736C433.685 102.736 433.19 102.208 433.19 101.557V96.3602C433.19 95.7094 433.685 95.1815 434.295 95.1815C434.905 95.1815 435.4 95.7094 435.4 96.3602V101.557C435.399 102.209 434.905 102.736 434.295 102.736Z" fill="#7846D1"/>
<path d="M441.132 95.5911H436.757C436.147 95.5911 435.652 95.0632 435.652 94.4125C435.652 93.7617 436.147 93.2338 436.757 93.2338H441.132C441.742 93.2338 442.237 93.7617 442.237 94.4125C442.237 95.0632 441.742 95.5911 441.132 95.5911Z" fill="#7846D1"/>
<path d="M431.833 95.5912H427.458C426.848 95.5912 426.353 95.0633 426.353 94.4125C426.353 93.7617 426.848 93.2338 427.458 93.2338H431.833C432.443 93.2338 432.938 93.7617 432.938 94.4125C432.938 95.0633 432.443 95.5912 431.833 95.5912Z" fill="#7846D1"/>
<path d="M395.413 64.5215C394.803 64.5215 394.308 63.9936 394.308 63.3428V58.1458C394.308 57.495 394.803 56.9671 395.413 56.9671C396.023 56.9671 396.518 57.495 396.518 58.1458V63.3428C396.518 63.9936 396.023 64.5215 395.413 64.5215Z" fill="#5B23A9"/>
<path d="M395.413 73.6164C394.803 73.6164 394.308 73.0885 394.308 72.4377V67.2407C394.308 66.5899 394.803 66.062 395.413 66.062C396.023 66.062 396.518 66.5899 396.518 67.2407V72.4377C396.518 73.0885 396.023 73.6164 395.413 73.6164Z" fill="#5B23A9"/>
<path d="M402.251 66.4704H397.875C397.265 66.4704 396.771 65.9425 396.771 65.2917C396.771 64.641 397.265 64.1131 397.875 64.1131H402.251C402.861 64.1131 403.355 64.641 403.355 65.2917C403.354 65.9425 402.861 66.4704 402.251 66.4704Z" fill="#5B23A9"/>
<path d="M392.951 66.4704H388.576C387.966 66.4704 387.471 65.9425 387.471 65.2917C387.471 64.6409 387.966 64.113 388.576 64.113H392.951C393.561 64.113 394.056 64.6409 394.056 65.2917C394.055 65.9425 393.561 66.4704 392.951 66.4704Z" fill="#5B23A9"/>
<path d="M73.4497 8.38006C73.4497 4.23766 76.6084 0.867767 80.4911 0.867767C84.3738 0.867767 87.5324 4.23766 87.5324 8.38006C87.5324 12.5225 84.3738 15.8924 80.4911 15.8924C76.6084 15.8935 73.4497 12.5225 73.4497 8.38006ZM75.6593 8.38006C75.6593 11.2232 77.8272 13.5362 80.4921 13.5362C83.157 13.5362 85.325 11.2232 85.325 8.38006C85.325 5.53692 83.157 3.22396 80.4921 3.22396C77.8272 3.22396 75.6593 5.53692 75.6593 8.38006Z" fill="#7846D1"/>
<path d="M45.1709 37.0162C45.1709 32.8738 48.3295 29.5027 52.2123 29.5027C56.095 29.5027 59.2536 32.8726 59.2536 37.0162C59.2536 41.1597 56.095 44.5285 52.2123 44.5285C48.3295 44.5285 45.1709 41.1586 45.1709 37.0162ZM47.3794 37.0162C47.3794 39.8593 49.5474 42.1723 52.2123 42.1723C54.8772 42.1723 57.0451 39.8593 57.0451 37.0162C57.0451 34.173 54.8772 31.8601 52.2123 31.8601C49.5474 31.8601 47.3794 34.173 47.3794 37.0162Z" fill="#9C78ED"/>
<path d="M30.531 47.5583C31.141 47.5583 31.6358 47.0304 31.6358 46.3796V41.1825C31.6358 40.5318 31.141 40.0039 30.531 40.0039C29.9211 40.0039 29.4263 40.5318 29.4263 41.1825V46.3796C29.4263 47.0304 29.9211 47.5583 30.531 47.5583Z" fill="#7846D1"/>
<path d="M30.531 56.6531C31.141 56.6531 31.6358 56.1252 31.6358 55.4744V50.2774C31.6358 49.6266 31.141 49.0987 30.531 49.0987C29.9211 49.0987 29.4263 49.6266 29.4263 50.2774V55.4744C29.4263 56.1252 29.9211 56.6531 30.531 56.6531Z" fill="#7846D1"/>
<path d="M23.6941 49.5072H28.0695C28.6795 49.5072 29.1743 48.9793 29.1743 48.3285C29.1743 47.6777 28.6795 47.1498 28.0695 47.1498H23.6941C23.0842 47.1498 22.5894 47.6777 22.5894 48.3285C22.5894 48.9793 23.0842 49.5072 23.6941 49.5072Z" fill="#7846D1"/>
<path d="M32.9935 49.5072H37.3688C37.9788 49.5072 38.4736 48.9793 38.4736 48.3285C38.4736 47.6777 37.9788 47.1498 37.3688 47.1498H32.9935C32.3835 47.1498 31.8887 47.6777 31.8887 48.3285C31.8887 48.9793 32.3835 49.5072 32.9935 49.5072Z" fill="#7846D1"/>
<path d="M55.9827 7.60981C56.5927 7.60981 57.0875 7.08192 57.0875 6.43115V1.23409C57.0875 0.583321 56.5927 0.0554199 55.9827 0.0554199C55.3727 0.0554199 54.8779 0.583321 54.8779 1.23409V6.43115C54.879 7.08192 55.3738 7.60981 55.9827 7.60981Z" fill="#5B23A9"/>
<path d="M55.9827 16.7047C56.5927 16.7047 57.0875 16.1768 57.0875 15.526V10.329C57.0875 9.67822 56.5927 9.15033 55.9827 9.15033C55.3727 9.15033 54.8779 9.67822 54.8779 10.329V15.526C54.879 16.1768 55.3738 16.7047 55.9827 16.7047Z" fill="#5B23A9"/>
<path d="M49.1458 9.55876H53.5212C54.1312 9.55876 54.626 9.03086 54.626 8.38009C54.626 7.72932 54.1312 7.20142 53.5212 7.20142H49.1458C48.5358 7.20142 48.041 7.72932 48.041 8.38009C48.041 9.03086 48.5358 9.55876 49.1458 9.55876Z" fill="#5B23A9"/>
<path d="M58.4451 9.55876H62.8205C63.4305 9.55876 63.9253 9.03086 63.9253 8.38009C63.9253 7.72932 63.4305 7.20142 62.8205 7.20142H58.4451C57.8351 7.20142 57.3403 7.72932 57.3403 8.38009C57.3403 9.03086 57.8351 9.55876 58.4451 9.55876Z" fill="#5B23A9"/>
<path d="M345.095 16.3566V39.2325C345.095 42.2565 342.796 44.7094 339.962 44.7094H301.029L289.275 49.2079C288.068 49.671 286.913 48.4047 287.376 47.1305L291.822 34.8807V16.3554C291.822 13.3314 294.121 10.8785 296.957 10.8785H339.961C342.795 10.8785 345.095 13.3325 345.095 16.3566Z" fill="#9C78ED"/>
<g opacity="0.5">
<path d="M336.887 22.8278H301.171C300.388 22.8278 299.753 22.1509 299.753 21.3158C299.753 20.4807 300.388 19.8049 301.171 19.8049H336.887C337.67 19.8049 338.304 20.4819 338.304 21.3158C338.304 22.152 337.67 22.8278 336.887 22.8278Z" fill="#E0D5F8"/>
<path d="M336.887 28.9157H301.171C300.388 28.9157 299.753 28.2388 299.753 27.4037C299.753 26.5686 300.388 25.8928 301.171 25.8928H336.887C337.67 25.8928 338.304 26.5697 338.304 27.4037C338.304 28.2388 337.67 28.9157 336.887 28.9157Z" fill="#E0D5F8"/>
<path d="M336.887 35.0024H301.171C300.388 35.0024 299.753 34.3255 299.753 33.4915C299.753 32.6565 300.388 31.9795 301.171 31.9795H336.887C337.67 31.9795 338.304 32.6565 338.304 33.4915C338.304 34.3255 337.67 35.0024 336.887 35.0024Z" fill="#E0D5F8"/>
</g>
<path d="M459.936 360.003V360.821C459.936 365.537 456.352 369.36 451.928 369.36H36.6405C32.2182 369.36 28.6362 365.537 28.6362 360.821V360.003C28.6362 355.287 32.2182 351.463 36.6405 351.463H451.928C456.352 351.463 459.936 355.287 459.936 360.003Z" fill="#5B23A9"/>
<path d="M459.936 360.003V360.411H28.6362V360.003C28.6362 355.287 32.2182 351.463 36.6405 351.463H451.928C456.352 351.463 459.936 355.287 459.936 360.003Z" fill="#7846D1"/>
</svg>
