<svg width="134" height="80" viewBox="0 0 134 80" fill="none" xmlns="http://www.w3.org/2000/svg">
<path d="M37.7008 29.0545C37.7008 30.7008 37.8788 32.0356 38.1903 33.0145C38.5462 33.9933 38.9911 35.0612 39.6141 36.218C39.8365 36.574 39.9255 36.9299 39.9255 37.2414C39.9255 37.6863 39.6586 38.1313 39.0801 38.5762L36.277 40.4449C35.8766 40.7119 35.4761 40.8454 35.1202 40.8454C34.6752 40.8454 34.2303 40.6229 33.7854 40.2225C33.1624 39.5551 32.6285 38.8432 32.1836 38.1313C31.7386 37.3749 31.2937 36.5295 30.8043 35.5061C27.3337 39.5996 22.9733 41.6463 17.7231 41.6463C13.9856 41.6463 11.0045 40.5784 8.82429 38.4427C6.64409 36.307 5.53174 33.4594 5.53174 29.8999C5.53174 26.1179 6.86656 23.0478 9.58068 20.7341C12.2948 18.4205 15.8988 17.2636 20.4817 17.2636C21.9945 17.2636 23.5518 17.3971 25.198 17.6196C26.8443 17.842 28.5351 18.198 30.3148 18.5984V15.3504C30.3148 11.9689 29.6029 9.61068 28.2236 8.23137C26.7998 6.85206 24.3971 6.18465 20.9711 6.18465C19.4138 6.18465 17.8121 6.36262 16.1658 6.76307C14.5195 7.16351 12.9177 7.65295 11.3604 8.27586C10.6485 8.58732 10.1146 8.76529 9.80315 8.85428C9.49169 8.94327 9.26922 8.98776 9.09125 8.98776C8.46833 8.98776 8.15688 8.54283 8.15688 7.60845V5.42825C8.15688 4.71635 8.24587 4.18242 8.46833 3.87097C8.6908 3.55951 9.09125 3.24805 9.71416 2.9366C11.2714 2.13571 13.1402 1.4683 15.3204 0.934371C17.5006 0.355951 19.8143 0.0889877 22.2614 0.0889877C27.5562 0.0889877 31.4272 1.29032 33.9188 3.69299C36.366 6.09566 37.6118 9.74416 37.6118 14.6385V29.0545H37.7008ZM19.6363 35.8176C21.1046 35.8176 22.6174 35.5506 24.2192 35.0167C25.821 34.4828 27.2448 33.5039 28.4461 32.1691C29.158 31.3237 29.6919 30.3893 29.9589 29.3215C30.2258 28.2536 30.4038 26.9633 30.4038 25.4505V23.5818C29.1135 23.2703 27.7342 23.0033 26.3104 22.8254C24.8866 22.6474 23.5073 22.5584 22.128 22.5584C19.1469 22.5584 16.9667 23.1368 15.4984 24.3382C14.0301 25.5395 13.3182 27.2303 13.3182 29.455C13.3182 31.5462 13.8521 33.1034 14.9644 34.1713C16.0323 35.2836 17.5896 35.8176 19.6363 35.8176ZM55.3649 40.6229C54.564 40.6229 54.0301 40.4894 53.6741 40.178C53.3182 39.911 53.0067 39.2881 52.7397 38.4427L42.2837 4.04894C42.0167 3.15907 41.8832 2.58065 41.8832 2.26919C41.8832 1.55729 42.2392 1.15684 42.9511 1.15684H47.3115C48.1569 1.15684 48.7353 1.29032 49.0468 1.60178C49.4027 1.86874 49.6697 2.49166 49.9366 3.33704L57.4116 32.792L64.3527 3.33704C64.5751 2.44716 64.8421 1.86874 65.198 1.60178C65.554 1.33482 66.1769 1.15684 66.9778 1.15684H70.5373C71.3827 1.15684 71.9611 1.29032 72.3171 1.60178C72.673 1.86874 72.9845 2.49166 73.1624 3.33704L80.1925 33.1479L87.8899 3.33704C88.1569 2.44716 88.4683 1.86874 88.7798 1.60178C89.1357 1.33482 89.7142 1.15684 90.5151 1.15684H94.653C95.3649 1.15684 95.7653 1.51279 95.7653 2.26919C95.7653 2.49166 95.7208 2.71413 95.6763 2.98109C95.6319 3.24805 95.5429 3.604 95.3649 4.09344L84.6419 38.4872C84.3749 39.3771 84.0634 39.9555 83.7075 40.2225C83.3515 40.4894 82.7731 40.6674 82.0167 40.6674H78.1902C77.3449 40.6674 76.7664 40.5339 76.4105 40.2225C76.0545 39.911 75.7431 39.3326 75.5651 38.4427L68.6686 9.74416L61.8165 38.3982C61.594 39.2881 61.3271 39.8665 60.9711 40.178C60.6152 40.4894 59.9923 40.6229 59.1914 40.6229H55.3649ZM112.54 41.8242C110.226 41.8242 107.912 41.5573 105.687 41.0234C103.463 40.4894 101.728 39.911 100.571 39.2436C99.8588 38.8432 99.3693 38.3982 99.1914 37.9978C99.0134 37.5973 98.9244 37.1524 98.9244 36.7519V34.4828C98.9244 33.5484 99.2804 33.1034 99.9478 33.1034C100.215 33.1034 100.482 33.1479 100.749 33.2369C101.016 33.3259 101.416 33.5039 101.861 33.6819C103.374 34.3493 105.02 34.8832 106.755 35.2392C108.535 35.5951 110.27 35.7731 112.05 35.7731C114.853 35.7731 117.033 35.2836 118.546 34.3048C120.059 33.3259 120.86 31.9021 120.86 30.0779C120.86 28.832 120.459 27.8087 119.659 26.9633C118.858 26.1179 117.345 25.3615 115.165 24.6496L108.713 22.6474C105.465 21.624 103.062 20.1112 101.594 18.109C100.126 16.1513 99.3693 13.9711 99.3693 11.6574C99.3693 9.78865 99.7698 8.14238 100.571 6.71858C101.372 5.29477 102.439 4.04894 103.774 3.07008C105.109 2.04672 106.622 1.29032 108.402 0.756396C110.181 0.222469 112.05 0 114.008 0C114.987 0 116.01 0.0444939 116.989 0.177976C118.012 0.311457 118.947 0.489433 119.881 0.667408C120.771 0.889878 121.616 1.11235 122.417 1.37931C123.218 1.64627 123.841 1.91324 124.286 2.1802C124.909 2.53615 125.354 2.8921 125.621 3.29255C125.888 3.6485 126.021 4.13793 126.021 4.76085V6.85206C126.021 7.78643 125.665 8.27586 124.998 8.27586C124.642 8.27586 124.063 8.09789 123.307 7.74194C120.771 6.58509 117.923 6.00667 114.764 6.00667C112.228 6.00667 110.226 6.40712 108.847 7.2525C107.467 8.09789 106.755 9.38821 106.755 11.2125C106.755 12.4583 107.2 13.5261 108.09 14.3715C108.98 15.2169 110.626 16.0623 112.984 16.8187L119.303 18.8209C122.506 19.8443 124.82 21.2681 126.199 23.0923C127.578 24.9166 128.246 27.0078 128.246 29.3215C128.246 31.2347 127.845 32.97 127.089 34.4828C126.288 35.9955 125.22 37.3304 123.841 38.3982C122.462 39.5106 120.815 40.3115 118.902 40.8899C116.9 41.5128 114.809 41.8242 112.54 41.8242Z" fill="#252F3E"/>
<path fill-rule="evenodd" clip-rule="evenodd" d="M120.949 63.4484C106.31 74.2604 85.0421 80.0001 66.7551 80.0001C41.1266 80.0001 18.0343 70.5229 0.592666 54.772C-0.786644 53.5262 0.459184 51.8355 2.10546 52.8143C20.9709 63.7598 44.2412 70.3894 68.3124 70.3894C84.5526 70.3894 102.395 67.0079 118.813 60.0668C121.26 58.9545 123.351 61.6686 120.949 63.4484Z" fill="#FF9900"/>
<path fill-rule="evenodd" clip-rule="evenodd" d="M127.044 56.5073C125.176 54.1046 114.675 55.3505 109.914 55.9289C108.491 56.1069 108.268 54.861 109.558 53.9267C117.923 48.0535 131.672 49.7442 133.274 51.702C134.875 53.7042 132.829 67.4528 124.998 74.0379C123.796 75.0613 122.64 74.5273 123.173 73.1925C124.953 68.7876 128.913 58.8655 127.044 56.5073Z" fill="#FF9900"/>
</svg>
