<svg width="106" height="85" viewBox="0 0 106 85" fill="none" xmlns="http://www.w3.org/2000/svg">
<path d="M67.019 23.4063H70.2403L79.4213 14.2254L79.8723 10.3275C74.6128 5.68534 68.2568 2.4606 61.4046 0.957895C54.5524 -0.544812 47.4302 -0.275879 40.7108 1.73929C33.9914 3.75446 27.8967 7.44934 23.0023 12.4749C18.108 17.5004 14.5755 23.6908 12.7388 30.4611C13.7616 30.0419 14.8946 29.9739 15.9601 30.2678L34.322 27.2397C34.322 27.2397 35.2562 25.6934 35.7394 25.7901C39.6738 21.4692 45.1109 18.8155 50.9379 18.3723C56.7648 17.9292 62.5408 19.73 67.0834 23.4063H67.019Z" fill="#EA4335"/>
<path d="M92.4994 30.4612C90.3891 22.6901 86.0563 15.7039 80.0326 10.3598L67.1471 23.2453C69.8326 25.4396 71.9847 28.215 73.4412 31.3623C74.8976 34.5096 75.6204 37.9465 75.5549 41.4139V43.701C77.0609 43.701 78.5522 43.9977 79.9436 44.574C81.3349 45.1503 82.5992 45.9951 83.6641 47.06C84.729 48.1249 85.5737 49.3891 86.1501 50.7805C86.7264 52.1719 87.023 53.6631 87.023 55.1691C87.023 56.6752 86.7264 58.1664 86.1501 59.5578C85.5737 60.9492 84.729 62.2134 83.6641 63.2783C82.5992 64.3432 81.3349 65.188 79.9436 65.7643C78.5522 66.3406 77.0609 66.6372 75.5549 66.6372H52.6187L50.3315 68.9566V82.7119L52.6187 84.9991H75.5549C81.9598 85.049 88.2106 83.0359 93.3827 79.2579C98.5548 75.4798 102.373 70.1372 104.274 64.0206C106.174 57.904 106.055 51.3381 103.935 45.2943C101.814 39.2504 97.8048 34.0496 92.4994 30.4612Z" fill="#4285F4"/>
<path d="M29.652 84.8701H52.5882V66.5083H29.652C28.0179 66.5079 26.403 66.1563 24.9166 65.4774L21.6952 66.476L12.4499 75.657L11.6445 78.8783C16.8291 82.7933 23.1554 84.8983 29.652 84.8701Z" fill="#34A853"/>
<path d="M29.6518 25.3072C23.4371 25.3443 17.3893 27.3215 12.3529 30.9627C7.31658 34.6038 3.54321 39.727 1.55986 45.6167C-0.423493 51.5065 -0.51778 57.8686 1.29017 63.8146C3.09812 69.7605 6.71801 74.9933 11.6443 78.782L24.9485 65.4778C23.2578 64.7139 21.7777 63.5513 20.6351 62.0896C19.4925 60.628 18.7216 58.9109 18.3885 57.0859C18.0554 55.2608 18.1701 53.3821 18.7227 51.6111C19.2752 49.84 20.2492 48.2295 21.5611 46.9176C22.8729 45.6058 24.4835 44.6318 26.2545 44.0792C28.0256 43.5266 29.9042 43.412 31.7293 43.7451C33.5544 44.0782 35.2714 44.8491 36.7331 45.9917C38.1947 47.1342 39.3574 48.6144 40.1212 50.3051L53.4255 37.0008C50.6331 33.3502 47.034 30.395 42.9097 28.3664C38.7855 26.3379 34.2479 25.2908 29.6518 25.3072Z" fill="#FBBC05"/>
</svg>
