<svg width="500" height="500" viewBox="0 0 500 500" fill="none" xmlns="http://www.w3.org/2000/svg">
<path d="M500 382.398H0V382.648H500V382.398Z" fill="#F28705"/>
<path d="M449.901 398.494H416.779V398.744H449.901V398.494Z" fill="#F28705"/>
<path d="M331.22 401.208H322.527V401.458H331.22V401.208Z" fill="#F28705"/>
<path d="M415.778 389.208H396.586V389.458H415.778V389.208Z" fill="#F28705"/>
<path d="M95.652 390.888H52.459V391.138H95.652V390.888Z" fill="#F28705"/>
<path d="M110.889 390.888H104.556V391.138H110.889V390.888Z" fill="#F28705"/>
<path d="M225.147 395.111H131.471V395.361H225.147V395.111Z" fill="#F28705"/>
<path d="M453.31 337.8H260.212C257.065 337.8 254.505 335.239 254.505 332.092V60.66C254.505 57.513 257.066 54.952 260.212 54.952H453.31C456.458 54.952 459.018 57.513 459.018 60.66V332.092C459.019 335.239 456.458 337.8 453.31 337.8ZM260.212 55.203C257.203 55.203 254.755 57.651 254.755 60.661V332.093C254.755 335.103 257.203 337.551 260.212 337.551H453.31C456.32 337.551 458.768 335.103 458.768 332.093V60.66C458.768 57.651 456.32 55.202 453.31 55.202L260.212 55.203Z" fill="#F28705"/>
<path d="M85.633 102.85C85.743 89.748 96.394 79.16 109.522 79.16C112.685 79.16 115.702 79.78 118.465 80.897C123.157 71.299 133.013 64.686 144.417 64.686C158.208 64.686 169.732 74.357 172.598 87.285C185.568 88.119 195.831 98.897 195.831 112.077C195.831 125.802 184.705 136.927 170.981 136.927H91.906C82.177 136.927 74.29 129.04 74.29 119.311C74.29 111.793 79.002 105.379 85.633 102.85Z" fill="#E0E0E0"/>
<path d="M366.087 297.763C366.155 289.679 372.727 283.145 380.827 283.145C382.779 283.145 384.64 283.528 386.345 284.217C389.24 278.294 395.322 274.214 402.358 274.214C410.867 274.214 417.979 280.181 419.747 288.159C427.75 288.674 434.082 295.324 434.082 303.457C434.082 311.926 427.217 318.79 418.748 318.79H369.956C363.953 318.79 359.086 313.924 359.086 307.92C359.088 303.281 361.996 299.323 366.087 297.763Z" fill="#E0E0E0"/>
<path d="M102.151 254.225C102.266 240.491 113.431 229.391 127.192 229.391C130.508 229.391 133.671 230.041 136.567 231.212C141.485 221.15 151.817 214.218 163.771 214.218C178.227 214.218 190.308 224.356 193.312 237.908C206.908 238.782 217.666 250.08 217.666 263.897C217.666 278.284 206.003 289.947 191.616 289.947H108.725C98.5273 289.947 90.2593 281.68 90.2593 271.481C90.2603 263.6 95.2003 256.876 102.151 254.225Z" fill="#F0F0F0"/>
<path d="M119.393 277.994C119.393 280.081 117.701 281.774 115.613 281.774C113.525 281.774 111.833 280.082 111.833 277.994C111.833 275.906 113.525 274.214 115.613 274.214C117.701 274.214 119.393 275.907 119.393 277.994Z" fill="#F28705"/>
<path d="M133.644 277.994C133.644 280.081 131.952 281.774 129.864 281.774C127.776 281.774 126.083 280.082 126.083 277.994C126.083 275.906 127.776 274.214 129.864 274.214C131.952 274.214 133.644 275.907 133.644 277.994Z" fill="url(#paint0_linear_1134_1877)"/>
<path d="M360.701 133.262C360.781 123.75 368.514 116.062 378.045 116.062C380.341 116.062 382.532 116.513 384.538 117.323C387.944 110.354 395.1 105.554 403.379 105.554C413.391 105.554 421.759 112.575 423.839 121.961C433.255 122.567 440.706 130.392 440.706 139.961C440.706 149.925 432.628 158.003 422.664 158.003H365.255C358.192 158.003 352.466 152.277 352.466 145.214C352.466 139.755 355.887 135.098 360.701 133.262Z" fill="#F5F5F5"/>
<path d="M413.081 149.023C413.081 150.373 411.986 151.468 410.636 151.468C409.286 151.468 408.191 150.373 408.191 149.023C408.191 147.673 409.286 146.578 410.636 146.578C411.986 146.578 413.081 147.673 413.081 149.023Z" fill="url(#paint1_linear_1134_1877)"/>
<path d="M422.3 149.023C422.3 150.373 421.205 151.468 419.855 151.468C418.505 151.468 417.41 150.373 417.41 149.023C417.41 147.673 418.505 146.578 419.855 146.578C421.205 146.578 422.3 147.673 422.3 149.023Z" fill="url(#paint2_linear_1134_1877)"/>
<path d="M403.862 149.023C403.862 150.373 402.767 151.468 401.417 151.468C400.067 151.468 398.972 150.373 398.972 149.023C398.972 147.673 400.067 146.578 401.417 146.578C402.767 146.578 403.862 147.673 403.862 149.023Z" fill="#F28705"/>
<path d="M250 427.561C357.082 427.561 443.889 422.492 443.889 416.238C443.889 409.985 357.082 404.915 250 404.915C142.918 404.915 56.1108 409.985 56.1108 416.238C56.1108 422.492 142.918 427.561 250 427.561Z" fill="#F5F5F5"/>
<path d="M201.445 97.429H183.056C158.653 97.429 137.731 112.279 128.798 133.429H114.167C86.3071 133.429 63.7231 156.014 63.7231 183.874C63.7231 211.733 86.3081 234.318 114.167 234.318H201.445V97.429Z" fill="#444B8C"/>
<path d="M157.993 100.258L157.585 99.345C159.878 98.321 162.259 97.426 164.661 96.687L164.955 97.642C162.591 98.37 160.249 99.25 157.993 100.258Z" fill="#444B8C"/>
<path d="M135.173 117.885L134.393 117.259C139.006 111.502 144.551 106.653 150.872 102.848L151.388 103.705C145.168 107.449 139.713 112.22 135.173 117.885Z" fill="#444B8C"/>
<path opacity="0.2" d="M201.445 97.429H183.056C158.653 97.429 137.731 112.279 128.798 133.429H114.167C86.3071 133.429 63.7231 156.014 63.7231 183.874C63.7231 211.733 86.3081 234.318 114.167 234.318H201.445V97.429Z" fill="#444B8C"/>
<path opacity="0.5" d="M132.291 126.5H158.671L178.171 109.17H147.791C141.551 113.85 136.261 119.74 132.291 126.5Z" fill="#444B8C"/>
<path opacity="0.5" d="M72.3404 155.67C68.8404 160.84 66.2804 166.7 64.9004 173H95.0004V155.67H72.3404Z" fill="#444B8C"/>
<path opacity="0.5" d="M195.83 101.47H161.59C157.91 102.91 154.4 104.71 151.13 106.83H176.33L195.83 101.47Z" fill="#444B8C"/>
<path d="M301.857 172.231C296.82 150.92 278.277 134.836 255.756 133.524C246.846 112.321 225.886 97.429 201.445 97.429C176.302 97.429 154.852 113.192 146.405 135.37C142.003 134.116 137.361 133.429 132.556 133.429C104.696 133.429 82.1123 156.014 82.1123 183.874C82.1123 211.733 104.697 234.318 132.556 234.318H293.216C310.694 234.318 324.862 220.15 324.862 202.672C324.861 188.192 315.132 175.992 301.857 172.231Z" fill="#444B8C"/>
<path opacity="0.2" d="M300.771 176.082L298.501 175.442L297.961 173.152C293.281 153.352 275.831 138.702 255.521 137.512L253.031 137.372L252.071 135.072C243.481 114.632 223.611 101.432 201.441 101.432C200.731 101.432 200.031 101.442 199.331 101.472C220.631 102.292 239.511 115.292 247.821 135.072L248.781 137.372L251.271 137.512C271.581 138.702 289.031 153.352 293.711 173.152L294.251 175.442L296.521 176.082C308.351 179.432 316.611 190.362 316.611 202.672C316.611 217.912 304.211 230.322 288.971 230.322H293.221C308.461 230.322 320.861 217.912 320.861 202.672C320.861 190.363 312.601 179.432 300.771 176.082Z" fill="#444B8C"/>
<path d="M296.52 176.082L294.25 175.442L293.71 173.152C289.03 153.352 271.58 138.702 251.27 137.512L248.78 137.372L247.82 135.072C239.51 115.292 220.63 102.292 199.33 101.472H199.26C177.5 102.352 157.94 116.322 150.14 136.792L148.84 140.222L145.31 139.212C145.21 139.182 145.1 139.152 145 139.132C140.94 138.002 136.74 137.432 132.56 137.432C131.83 137.432 131.11 137.452 130.38 137.482C105.78 138.622 86.1104 158.992 86.1104 183.872C86.1104 209.482 106.95 230.322 132.56 230.322H288.97C304.21 230.322 316.61 217.912 316.61 202.672C316.61 190.363 308.35 179.432 296.52 176.082Z" fill="url(#paint3_linear_1134_1877)"/>
<path d="M181.359 170.717V210.413H221.361V170.717H234L201.361 134.032L168.72 170.717H181.359Z" fill="#444B8C"/>
<path d="M175.358 287.093H173.309C170.438 287.093 168.111 284.766 168.111 281.895V261.336H180.556V281.895C180.556 284.766 178.228 287.093 175.358 287.093Z" fill="#444B8C"/>
<path opacity="0.2" d="M175.358 287.093H173.309C170.438 287.093 168.111 284.766 168.111 281.895V261.336H180.556V281.895C180.556 284.766 178.228 287.093 175.358 287.093Z" fill="#444B8C"/>
<path d="M176.272 267.735H172.394C166.96 267.735 162.555 263.33 162.555 257.896V234.318H186.11V257.896C186.111 263.33 181.706 267.735 176.272 267.735Z" fill="#444B8C"/>
<path opacity="0.2" d="M186.111 240.222L162.556 243.778V234.318H186.111V240.222Z" fill="#444B8C"/>
<path d="M181.167 255.208C182.893 255.208 184.292 253.809 184.292 252.083C184.292 250.357 182.893 248.958 181.167 248.958C179.441 248.958 178.042 250.357 178.042 252.083C178.042 253.809 179.441 255.208 181.167 255.208Z" fill="url(#paint4_linear_1134_1877)"/>
<path opacity="0.5" d="M172.833 255.208C174.559 255.208 175.958 253.809 175.958 252.083C175.958 250.357 174.559 248.958 172.833 248.958C171.107 248.958 169.708 250.357 169.708 252.083C169.708 253.809 171.107 255.208 172.833 255.208Z" fill="url(#paint5_linear_1134_1877)"/>
<path d="M252.778 321.667H200.334C184.619 321.667 171.834 308.882 171.834 293.167V287.093H176.834V293.167C176.834 306.125 187.376 316.667 200.334 316.667H252.778V321.667Z" fill="#444B8C"/>
<path d="M375.189 196.333H289.245C282.072 196.333 276.204 202.201 276.204 209.374V403.196C276.204 410.369 282.072 416.237 289.245 416.237H375.189C382.362 416.237 388.23 410.369 388.23 403.196V209.374C388.23 202.202 382.362 196.333 375.189 196.333Z" fill="#444B8C"/>
<path opacity="0.2" d="M375.189 196.333H289.245C282.072 196.333 276.204 202.201 276.204 209.374V403.196C276.204 410.369 282.072 416.237 289.245 416.237H375.189C382.362 416.237 388.23 410.369 388.23 403.196V209.374C388.23 202.202 382.362 196.333 375.189 196.333Z" fill="url(#paint6_linear_1134_1877)"/>
<path d="M351.763 196.333H265.819C258.646 196.333 252.778 202.201 252.778 209.374V403.196C252.778 410.369 258.646 416.237 265.819 416.237H351.763C358.936 416.237 364.804 410.369 364.804 403.196V209.374C364.805 202.202 358.936 196.333 351.763 196.333Z" fill="#444B8C"/>
<path opacity="0.2" d="M265.819 411.891C261.025 411.891 257.125 407.991 257.125 403.197V209.375C257.125 204.581 261.025 200.681 265.819 200.681H351.763C356.557 200.681 360.457 204.581 360.457 209.375V403.197C360.457 407.991 356.557 411.891 351.763 411.891H265.819Z" fill="url(#paint7_linear_1134_1877)"/>
<path d="M269.864 411.891C265.07 411.891 261.17 407.991 261.17 403.197V209.375C261.17 204.581 265.07 200.681 269.864 200.681H351.763C356.557 200.681 360.457 204.581 360.457 209.375V403.197C360.457 407.991 356.557 411.891 351.763 411.891H269.864Z" fill="url(#paint8_linear_1134_1877)"/>
<path opacity="0.3" d="M346.933 226.107H274.694C270.975 226.107 267.932 223.064 267.932 219.345C267.932 215.626 270.975 212.583 274.694 212.583H346.933C350.652 212.583 353.695 215.626 353.695 219.345C353.695 223.064 350.652 226.107 346.933 226.107Z" fill="#444B8C"/>
<path d="M323.114 220.824H273.606C272.792 220.824 272.127 220.158 272.127 219.345C272.127 218.531 272.793 217.866 273.606 217.866H323.114C323.928 217.866 324.593 218.532 324.593 219.345C324.593 220.159 323.928 220.824 323.114 220.824Z" fill="url(#paint9_linear_1134_1877)"/>
<path d="M340.986 220.824C341.803 220.824 342.465 220.162 342.465 219.345C342.465 218.528 341.803 217.866 340.986 217.866C340.169 217.866 339.507 218.528 339.507 219.345C339.507 220.162 340.169 220.824 340.986 220.824Z" fill="#444B8C"/>
<path d="M347.507 220.824C348.324 220.824 348.986 220.162 348.986 219.345C348.986 218.528 348.324 217.866 347.507 217.866C346.69 217.866 346.028 218.528 346.028 219.345C346.028 220.162 346.69 220.824 347.507 220.824Z" fill="#444B8C"/>
<path d="M334.466 220.824C335.283 220.824 335.945 220.162 335.945 219.345C335.945 218.528 335.283 217.866 334.466 217.866C333.649 217.866 332.987 218.528 332.987 219.345C332.987 220.162 333.649 220.824 334.466 220.824Z" fill="#444B8C"/>
<path opacity="0.3" d="M346.933 247.842H274.694C270.975 247.842 267.932 244.799 267.932 241.08C267.932 237.361 270.975 234.318 274.694 234.318H346.933C350.652 234.318 353.695 237.361 353.695 241.08C353.695 244.799 350.652 247.842 346.933 247.842Z" fill="#444B8C"/>
<path d="M323.114 242.559H273.606C272.792 242.559 272.127 241.893 272.127 241.08C272.127 240.266 272.793 239.601 273.606 239.601H323.114C323.928 239.601 324.593 240.267 324.593 241.08C324.593 241.894 323.928 242.559 323.114 242.559Z" fill="url(#paint10_linear_1134_1877)"/>
<path d="M340.986 242.559C341.803 242.559 342.465 241.897 342.465 241.08C342.465 240.263 341.803 239.601 340.986 239.601C340.169 239.601 339.507 240.263 339.507 241.08C339.507 241.897 340.169 242.559 340.986 242.559Z" fill="#444B8C"/>
<path d="M347.507 242.559C348.324 242.559 348.986 241.897 348.986 241.08C348.986 240.263 348.324 239.601 347.507 239.601C346.69 239.601 346.028 240.263 346.028 241.08C346.028 241.897 346.69 242.559 347.507 242.559Z" fill="#444B8C"/>
<path opacity="0.3" d="M334.466 242.559C335.283 242.559 335.945 241.897 335.945 241.08C335.945 240.263 335.283 239.601 334.466 239.601C333.649 239.601 332.987 240.263 332.987 241.08C332.987 241.897 333.649 242.559 334.466 242.559Z" fill="#444B8C"/>
<path opacity="0.3" d="M346.933 269.577H274.694C270.975 269.577 267.932 266.534 267.932 262.815C267.932 259.096 270.975 256.053 274.694 256.053H346.933C350.652 256.053 353.695 259.096 353.695 262.815C353.695 266.534 350.652 269.577 346.933 269.577Z" fill="#444B8C"/>
<path d="M323.114 264.295H273.606C272.792 264.295 272.127 263.629 272.127 262.816C272.127 262.002 272.793 261.337 273.606 261.337H323.114C323.928 261.337 324.593 262.003 324.593 262.816C324.593 263.629 323.928 264.295 323.114 264.295Z" fill="url(#paint11_linear_1134_1877)"/>
<path d="M340.986 264.294C341.803 264.294 342.465 263.632 342.465 262.815C342.465 261.998 341.803 261.336 340.986 261.336C340.169 261.336 339.507 261.998 339.507 262.815C339.507 263.632 340.169 264.294 340.986 264.294Z" fill="#444B8C"/>
<path d="M347.507 264.294C348.324 264.294 348.986 263.632 348.986 262.815C348.986 261.998 348.324 261.336 347.507 261.336C346.69 261.336 346.028 261.998 346.028 262.815C346.028 263.632 346.69 264.294 347.507 264.294Z" fill="#444B8C"/>
<path opacity="0.6" d="M334.466 264.294C335.283 264.294 335.945 263.632 335.945 262.815C335.945 261.998 335.283 261.336 334.466 261.336C333.649 261.336 332.987 261.998 332.987 262.815C332.987 263.632 333.649 264.294 334.466 264.294Z" fill="#444B8C"/>
<path opacity="0.3" d="M346.933 291.313H274.694C270.975 291.313 267.932 288.27 267.932 284.551C267.932 280.832 270.975 277.789 274.694 277.789H346.933C350.652 277.789 353.695 280.832 353.695 284.551C353.695 288.27 350.652 291.313 346.933 291.313Z" fill="#444B8C"/>
<path d="M323.114 286.03H273.606C272.792 286.03 272.127 285.364 272.127 284.551C272.127 283.737 272.793 283.072 273.606 283.072H323.114C323.928 283.072 324.593 283.738 324.593 284.551C324.593 285.364 323.928 286.03 323.114 286.03Z" fill="url(#paint12_linear_1134_1877)"/>
<path d="M340.986 286.03C341.803 286.03 342.465 285.368 342.465 284.551C342.465 283.734 341.803 283.072 340.986 283.072C340.169 283.072 339.507 283.734 339.507 284.551C339.507 285.368 340.169 286.03 340.986 286.03Z" fill="#444B8C"/>
<path opacity="0.3" d="M347.507 286.03C348.324 286.03 348.986 285.368 348.986 284.551C348.986 283.734 348.324 283.072 347.507 283.072C346.69 283.072 346.028 283.734 346.028 284.551C346.028 285.368 346.69 286.03 347.507 286.03Z" fill="#444B8C"/>
<path opacity="0.6" d="M334.466 286.03C335.283 286.03 335.945 285.368 335.945 284.551C335.945 283.734 335.283 283.072 334.466 283.072C333.649 283.072 332.987 283.734 332.987 284.551C332.987 285.368 333.649 286.03 334.466 286.03Z" fill="#444B8C"/>
<path opacity="0.3" d="M346.933 313.048H274.694C270.975 313.048 267.932 310.005 267.932 306.286C267.932 302.567 270.975 299.524 274.694 299.524H346.933C350.652 299.524 353.695 302.567 353.695 306.286C353.695 310.005 350.652 313.048 346.933 313.048Z" fill="#444B8C"/>
<path d="M323.114 307.765H273.606C272.792 307.765 272.127 307.099 272.127 306.286C272.127 305.472 272.793 304.807 273.606 304.807H323.114C323.928 304.807 324.593 305.473 324.593 306.286C324.593 307.099 323.928 307.765 323.114 307.765Z" fill="url(#paint13_linear_1134_1877)"/>
<path d="M340.986 307.765C341.803 307.765 342.465 307.103 342.465 306.286C342.465 305.469 341.803 304.807 340.986 304.807C340.169 304.807 339.507 305.469 339.507 306.286C339.507 307.103 340.169 307.765 340.986 307.765Z" fill="#444B8C"/>
<path opacity="0.6" d="M347.507 307.765C348.324 307.765 348.986 307.103 348.986 306.286C348.986 305.469 348.324 304.807 347.507 304.807C346.69 304.807 346.028 305.469 346.028 306.286C346.028 307.103 346.69 307.765 347.507 307.765Z" fill="#444B8C"/>
<path d="M334.466 307.765C335.283 307.765 335.945 307.103 335.945 306.286C335.945 305.469 335.283 304.807 334.466 304.807C333.649 304.807 332.987 305.469 332.987 306.286C332.987 307.103 333.649 307.765 334.466 307.765Z" fill="#444B8C"/>
<path opacity="0.3" d="M346.933 334.783H274.694C270.975 334.783 267.932 331.74 267.932 328.021C267.932 324.302 270.975 321.259 274.694 321.259H346.933C350.652 321.259 353.695 324.302 353.695 328.021C353.695 331.74 350.652 334.783 346.933 334.783Z" fill="#444B8C"/>
<path d="M323.114 329.5H273.606C272.792 329.5 272.127 328.834 272.127 328.021C272.127 327.207 272.793 326.542 273.606 326.542H323.114C323.928 326.542 324.593 327.208 324.593 328.021C324.593 328.835 323.928 329.5 323.114 329.5Z" fill="url(#paint14_linear_1134_1877)"/>
<path opacity="0.3" d="M340.986 329.5C341.803 329.5 342.465 328.838 342.465 328.021C342.465 327.204 341.803 326.542 340.986 326.542C340.169 326.542 339.507 327.204 339.507 328.021C339.507 328.838 340.169 329.5 340.986 329.5Z" fill="#444B8C"/>
<path d="M347.507 329.5C348.324 329.5 348.986 328.838 348.986 328.021C348.986 327.204 348.324 326.542 347.507 326.542C346.69 326.542 346.028 327.204 346.028 328.021C346.028 328.838 346.69 329.5 347.507 329.5Z" fill="#444B8C"/>
<path d="M334.466 329.5C335.283 329.5 335.945 328.838 335.945 328.021C335.945 327.204 335.283 326.542 334.466 326.542C333.649 326.542 332.987 327.204 332.987 328.021C332.987 328.838 333.649 329.5 334.466 329.5Z" fill="#444B8C"/>
<path opacity="0.3" d="M346.933 356.518H274.694C270.975 356.518 267.932 353.475 267.932 349.756C267.932 346.037 270.975 342.994 274.694 342.994H346.933C350.652 342.994 353.695 346.037 353.695 349.756C353.695 353.475 350.652 356.518 346.933 356.518Z" fill="#444B8C"/>
<path d="M323.114 351.235H273.606C272.792 351.235 272.127 350.569 272.127 349.756C272.127 348.942 272.793 348.277 273.606 348.277H323.114C323.928 348.277 324.593 348.943 324.593 349.756C324.593 350.57 323.928 351.235 323.114 351.235Z" fill="url(#paint15_linear_1134_1877)"/>
<path opacity="0.3" d="M340.986 351.235C341.803 351.235 342.465 350.573 342.465 349.756C342.465 348.939 341.803 348.277 340.986 348.277C340.169 348.277 339.507 348.939 339.507 349.756C339.507 350.573 340.169 351.235 340.986 351.235Z" fill="#444B8C"/>
<path d="M347.507 351.235C348.324 351.235 348.986 350.573 348.986 349.756C348.986 348.939 348.324 348.277 347.507 348.277C346.69 348.277 346.028 348.939 346.028 349.756C346.028 350.573 346.69 351.235 347.507 351.235Z" fill="#444B8C"/>
<path opacity="0.3" d="M334.466 351.235C335.283 351.235 335.945 350.573 335.945 349.756C335.945 348.939 335.283 348.277 334.466 348.277C333.649 348.277 332.987 348.939 332.987 349.756C332.987 350.573 333.649 351.235 334.466 351.235Z" fill="#444B8C"/>
<path opacity="0.3" d="M346.933 378.253H274.694C270.975 378.253 267.932 375.21 267.932 371.491C267.932 367.772 270.975 364.729 274.694 364.729H346.933C350.652 364.729 353.695 367.772 353.695 371.491C353.695 375.21 350.652 378.253 346.933 378.253Z" fill="#444B8C"/>
<path d="M323.114 372.97H273.606C272.792 372.97 272.127 372.304 272.127 371.491C272.127 370.677 272.793 370.012 273.606 370.012H323.114C323.928 370.012 324.593 370.678 324.593 371.491C324.593 372.305 323.928 372.97 323.114 372.97Z" fill="url(#paint16_linear_1134_1877)"/>
<path d="M340.986 372.97C341.803 372.97 342.465 372.308 342.465 371.491C342.465 370.674 341.803 370.012 340.986 370.012C340.169 370.012 339.507 370.674 339.507 371.491C339.507 372.308 340.169 372.97 340.986 372.97Z" fill="#444B8C"/>
<path d="M347.507 372.97C348.324 372.97 348.986 372.308 348.986 371.491C348.986 370.674 348.324 370.012 347.507 370.012C346.69 370.012 346.028 370.674 346.028 371.491C346.028 372.308 346.69 372.97 347.507 372.97Z" fill="#444B8C"/>
<path d="M334.466 372.97C335.283 372.97 335.945 372.308 335.945 371.491C335.945 370.674 335.283 370.012 334.466 370.012C333.649 370.012 332.987 370.674 332.987 371.491C332.987 372.308 333.649 372.97 334.466 372.97Z" fill="#444B8C"/>
<path opacity="0.3" d="M346.933 399.988H274.694C270.975 399.988 267.932 396.945 267.932 393.226C267.932 389.507 270.975 386.464 274.694 386.464H346.933C350.652 386.464 353.695 389.507 353.695 393.226C353.695 396.946 350.652 399.988 346.933 399.988Z" fill="#444B8C"/>
<path d="M323.114 394.706H273.606C272.792 394.706 272.127 394.04 272.127 393.227C272.127 392.413 272.793 391.748 273.606 391.748H323.114C323.928 391.748 324.593 392.414 324.593 393.227C324.593 394.04 323.928 394.706 323.114 394.706Z" fill="url(#paint17_linear_1134_1877)"/>
<path d="M340.986 394.705C341.803 394.705 342.465 394.043 342.465 393.226C342.465 392.409 341.803 391.747 340.986 391.747C340.169 391.747 339.507 392.409 339.507 393.226C339.507 394.043 340.169 394.705 340.986 394.705Z" fill="#444B8C"/>
<path d="M347.507 394.705C348.324 394.705 348.986 394.043 348.986 393.226C348.986 392.409 348.324 391.747 347.507 391.747C346.69 391.747 346.028 392.409 346.028 393.226C346.028 394.043 346.69 394.705 347.507 394.705Z" fill="#444B8C"/>
<path opacity="0.6" d="M334.466 394.705C335.283 394.705 335.945 394.043 335.945 393.226C335.945 392.409 335.283 391.747 334.466 391.747C333.649 391.747 332.987 392.409 332.987 393.226C332.987 394.043 333.649 394.705 334.466 394.705Z" fill="#444B8C"/>
<path opacity="0.2" d="M381.573 260.159H371.461C369.83 260.159 368.496 258.824 368.496 257.193V244.701C368.496 243.07 369.831 241.736 371.461 241.736H381.573C383.204 241.736 384.539 243.071 384.539 244.701V257.193C384.539 258.824 383.204 260.159 381.573 260.159Z" fill="url(#paint18_linear_1134_1877)"/>
<path d="M262.917 195.198L274.229 200.114L267.743 207.682L258.285 203.583L262.917 195.198Z" fill="#CE7A63"/>
<path opacity="0.2" d="M262.918 195.202L274.233 200.12L270.6 204.356L260.322 199.897L262.918 195.202Z" fill="#444B8C"/>
<path d="M269.188 211.678L267.921 211.337C267.167 211.134 266.563 210.568 266.313 209.828L265.483 210.179C265.003 210.382 264.468 210.419 263.964 210.284L246.676 205.634C246.783 204.071 248.233 202.384 248.233 202.384C248.233 202.384 255.938 204.021 258.255 202.256C258.433 202.12 258.666 202.083 258.866 202.184C260.248 202.885 265.705 205.518 269.277 205.317C269.751 205.29 270.102 205.74 269.991 206.202C269.38 208.739 269.188 211.678 269.188 211.678Z" fill="#263238"/>
<path d="M364.544 159.597L359.698 169.744C352.549 184.722 334.932 192.252 320.866 186.36C312.655 182.913 303.689 175.637 297.587 172.309C292.367 183.743 282.601 196.358 275.124 205.136L260.004 197.523C265.65 184.564 274.444 164.322 280.022 151.176C282.048 146.413 286.782 143.145 291.777 143.01C316.918 142.331 364.544 159.597 364.544 159.597Z" fill="#263238"/>
<path d="M291.718 228.353L302.588 227.873L300.579 239.813L291.494 240.228L291.718 228.353Z" fill="#CE7A63"/>
<path opacity="0.2" d="M291.72 228.357L302.594 227.876L301.767 232.785L291.623 233.445L291.72 228.357Z" fill="#444B8C"/>
<path d="M304.747 240.358L303.495 240.751C302.749 240.985 301.936 240.831 301.328 240.341L300.816 241.083C300.52 241.512 300.089 241.83 299.591 241.987L282.509 247.346C281.76 245.97 282.078 243.768 282.078 243.768C282.078 243.768 289.458 241.013 290.465 238.28C290.543 238.069 290.719 237.913 290.942 237.891C292.484 237.74 298.501 237.032 301.408 234.945C301.793 234.668 302.331 234.859 302.486 235.308C303.333 237.775 304.747 240.358 304.747 240.358Z" fill="#263238"/>
<path d="M371.588 155.581L371.506 166.297C371.379 182.105 357.979 196.216 341.976 197.405C332.636 198.093 320.014 198.31 312.73 198.168C311.668 209.235 308.21 222.277 304.729 231.729L288.995 230.629C288.584 217.214 287.978 198.19 287.47 185.575C287.275 180.655 290.319 175.817 295.015 173.506C318.608 161.893 371.588 155.581 371.588 155.581Z" fill="#263238"/>
<path opacity="0.1" d="M301.382 231.869C301.346 231.869 301.309 231.864 301.273 231.853C301.076 231.793 300.964 231.584 301.024 231.387C303.403 223.566 307.688 199.149 307.879 187.948C307.881 187.841 307.928 187.74 308.009 187.671C308.09 187.601 308.195 187.569 308.302 187.584C331.286 190.641 346.852 189.602 353.317 184.578C364.673 175.754 364.511 161.471 361.631 154.023C361.556 153.83 361.652 153.614 361.845 153.54C362.038 153.465 362.254 153.561 362.328 153.754C365.288 161.41 365.454 176.095 353.775 185.169C347.094 190.361 331.905 191.441 308.616 188.38C308.328 199.813 304.098 223.843 301.738 231.606C301.691 231.765 301.543 231.869 301.382 231.869Z" fill="#444B8C"/>
<path opacity="0.2" d="M296.971 173.625C294.504 178.747 291.184 184.064 287.617 189.134C287.696 191.347 287.782 193.696 287.872 196.133C293.44 187.339 296.98 173.61 296.98 173.61C296.98 173.61 296.98 173.618 296.971 173.625Z" fill="#444B8C"/>
<path d="M337.677 105.14C337.254 106.688 336.856 108.036 336.394 109.454C335.955 110.859 335.463 112.241 334.971 113.626C333.959 116.387 332.911 119.138 331.69 121.858C330.485 124.588 329.219 127.296 327.716 129.998C326.239 132.713 324.595 135.396 322.54 138.116L321.897 138.967C321.488 139.508 320.955 139.928 320.384 140.205C319.277 140.737 318.135 141.178 316.989 141.548C315.852 141.942 314.668 142.19 313.506 142.423C312.329 142.625 311.146 142.756 309.948 142.791C309.351 142.813 308.743 142.793 308.138 142.771L307.21 142.697C306.881 142.665 306.612 142.607 306.177 142.581C304.25 142.469 302.779 140.815 302.891 138.889C302.911 138.551 302.978 138.226 303.086 137.922L304.412 134.247C304.461 134.112 304.672 133.934 304.823 133.772L305.327 133.294L306.349 132.36C307.025 131.743 307.696 131.161 308.334 130.562C308.987 129.997 309.598 129.394 310.206 128.843C310.818 128.293 311.371 127.701 311.943 127.175L309.787 129.263C310.913 127.328 311.968 125.052 313.006 122.729L313.763 120.955L314.484 119.131C314.977 117.919 315.454 116.683 315.915 115.437C316.834 112.945 317.743 110.411 318.612 107.863L321.178 100.293L321.239 100.112C322.764 95.613 327.647 93.203 332.145 94.728C336.469 96.192 338.857 100.79 337.677 105.14Z" fill="#CE7A63"/>
<path d="M329.426 91.065C324.861 92.375 318.72 97.416 316.61 108.833C319.667 113.583 334.022 109.916 334.022 109.916L329.426 91.065Z" fill="#444B8C"/>
<path d="M307.95 134.355L308.414 139.298C307.03 144.328 300.871 141.429 300.871 141.429L297.347 141.232C296.152 141.165 295.174 140.107 295.034 138.732L294.683 135.279C294.523 133.705 295.511 132.29 296.874 132.142L299.936 131.81C300.827 131.713 301.728 131.839 302.559 132.175L307.95 134.355Z" fill="#CE7A63"/>
<path d="M331.638 90.382C338.812 88.847 347.061 87.696 354.436 87.284C362.859 86.813 369.867 93.624 369.652 102.056C369.009 127.243 372.555 153.724 372.052 158.58C372.052 158.58 318.942 166.226 310.799 150.44C307.379 128.05 318.431 130.903 319.316 105.195C319.548 98.46 325.049 91.792 331.638 90.382Z" fill="#444B8C"/>
<path d="M327.45 113.149L327.629 113.098L327.661 112.905C327.938 111.239 329.267 110.025 330.894 109.952L331.093 109.944L331.159 109.751C331.728 108.092 333.18 107.019 334.888 106.978H334.894C336.648 107.081 338.29 108.287 339.02 110.026L339.142 110.317L339.421 110.236C339.429 110.234 339.438 110.231 339.446 110.23C339.767 110.14 340.101 110.097 340.438 110.103C340.497 110.104 340.555 110.107 340.613 110.11C342.596 110.239 344.28 111.986 344.405 114.087C344.534 116.25 342.963 117.982 340.904 117.948L328.331 117.739C327.106 117.719 326.047 116.654 325.97 115.367C325.907 114.328 326.516 113.416 327.45 113.149Z" fill="url(#paint19_linear_1134_1877)"/>
<path d="M369.083 95.834L369.568 96.912L369.992 97.893C370.268 98.543 370.514 99.194 370.766 99.843C371.269 101.139 371.704 102.453 372.134 103.771C372.966 106.414 373.696 109.104 374.245 111.873C374.521 113.258 374.766 114.66 374.976 116.079C375.163 117.505 375.309 118.952 375.413 120.417C375.621 123.356 375.571 126.401 375.154 129.567L375.057 130.304C374.929 131.274 374.565 132.184 374.054 132.946C372.947 134.583 371.831 135.772 370.705 136.785C369.581 137.795 368.471 138.644 367.368 139.423C365.169 140.967 362.942 142.156 360.736 143.257C358.511 144.322 356.284 145.258 354.023 146.067C351.741 146.873 349.525 147.574 347.082 148.135C344.745 148.671 342.416 147.212 341.88 144.875C341.495 143.195 342.14 141.52 343.401 140.511L343.585 140.366C345.255 139.035 347.08 137.689 348.785 136.352C350.51 135.015 352.205 133.683 353.805 132.327C355.421 131.002 356.922 129.607 358.23 128.287C358.872 127.625 359.452 126.964 359.906 126.351C360.353 125.74 360.705 125.186 360.779 124.889L359.679 128.268C359.669 126.365 359.432 124.31 359.097 122.197C358.725 120.082 358.23 117.914 357.65 115.729C357.039 113.549 356.391 111.343 355.641 109.156C355.282 108.058 354.88 106.972 354.501 105.885L353.362 102.813L353.19 102.349C351.54 97.899 353.809 92.955 358.258 91.304C362.516 89.724 367.238 91.76 369.083 95.834Z" fill="#CE7A63"/>
<path d="M357.229 87.396C360.896 87.802 368.667 90.555 373.778 101.087C368.76 111.004 355.667 114.778 355.667 114.778C355.667 114.778 346.556 92.667 357.229 87.396Z" fill="#444B8C"/>
<path d="M327.244 158.473H284.076C282.196 158.473 281.796 158.038 283.188 157.507L302.883 149.989C304.275 149.458 306.952 149.023 308.832 149.023H352C353.88 149.023 354.28 149.458 352.888 149.989L333.193 157.507C331.801 158.038 329.124 158.473 327.244 158.473Z" fill="#444B8C"/>
<path opacity="0.4" d="M327.244 158.473H284.076C282.196 158.473 281.796 158.038 283.188 157.507L302.883 149.989C304.275 149.458 306.952 149.023 308.832 149.023H352C353.88 149.023 354.28 149.458 352.888 149.989L333.193 157.507C331.801 158.038 329.124 158.473 327.244 158.473Z" fill="#444B8C"/>
<path d="M327.244 156.689H284.076C282.196 156.689 280.375 155.151 280.03 153.271L275.142 126.666C274.797 124.786 276.052 123.248 277.932 123.248H321.1C322.98 123.248 324.801 124.786 325.146 126.666L330.034 153.271C330.38 155.151 329.124 156.689 327.244 156.689Z" fill="#444B8C"/>
<path opacity="0.3" d="M327.244 156.689H284.076C282.196 156.689 280.375 155.151 280.03 153.271L275.142 126.666C274.797 124.786 276.052 123.248 277.932 123.248H321.1C322.98 123.248 324.801 124.786 325.146 126.666L330.034 153.271C330.38 155.151 329.124 156.689 327.244 156.689Z" fill="#444B8C"/>
<path opacity="0.3" d="M326.233 156.689H284.077C282.197 156.689 280.376 155.151 280.031 153.271L275.143 126.666C274.798 124.786 276.053 123.248 277.933 123.248H320.09C321.97 123.248 323.791 124.786 324.136 126.666L329.024 153.271C329.368 155.151 328.113 156.689 326.233 156.689Z" fill="#444B8C"/>
<path d="M345.853 142.213L348.014 144.484C350.038 149.292 343.407 150.825 343.407 150.825L340.516 152.85C339.536 153.537 338.113 153.311 337.152 152.317L334.74 149.821C333.64 148.684 333.541 146.96 334.52 146.001L336.72 143.845C337.36 143.218 338.146 142.759 339.006 142.509L342.833 141.397C343.914 141.084 345.078 141.399 345.853 142.213Z" fill="#CE7A63"/>
<path d="M334.533 92.98C334.797 91.883 335.851 90.072 337.162 89.265C337.418 87.931 337.211 86.54 336.428 85.018L348.349 75.04C349.092 80.01 350.841 86.641 353.293 88.795C350.561 91.315 345.539 95.863 339.286 96.926C333.032 97.99 333.957 95.377 334.533 92.98Z" fill="#CE7A63"/>
<path opacity="0.2" d="M336.652 85.482L346.831 81.239C345.549 86.415 339.786 90.694 337.247 88.64C337.327 87.633 337.145 86.594 336.652 85.482Z" fill="#444B8C"/>
<path d="M336.057 69.482C336.057 73.144 333.088 76.113 329.426 76.113C325.764 76.113 322.795 73.144 322.795 69.482C322.795 65.82 325.764 62.851 329.426 62.851C333.088 62.851 336.057 65.82 336.057 69.482Z" fill="#263238"/>
<path d="M347.469 65.754C349.031 73.334 349.928 78.515 346.456 82.838C339.557 91.426 333.292 88.759 329.488 81.779C326.064 75.497 324.084 64.156 330.609 59.271C337.037 54.459 345.907 58.174 347.469 65.754Z" fill="#CE7A63"/>
<path d="M332.583 63.745C331.048 65.495 327 69.162 321.111 65.856C315.222 62.55 317.616 54.641 321.167 52.111C326.311 48.444 331.445 50.745 331.445 50.745C331.445 50.745 330.959 46.537 336.876 46.37C342.793 46.203 342.501 50.412 342.501 50.412C342.501 50.412 350.168 47.222 353.834 53.12C357.245 58.608 352.16 62.87 352.16 62.87C352.16 62.87 357.471 65.154 355.723 70.666C354.223 75.395 349.917 75.372 349.917 75.372C349.917 75.372 344.25 75.769 343.292 71.639C342.334 67.509 344.125 64.453 344.125 64.453C344.125 64.453 335.042 67.995 332.583 63.745Z" fill="#263238"/>
<path d="M341.292 72.688C341.284 72.688 341.275 72.687 341.267 72.687L339.871 72.544C339.734 72.53 339.634 72.407 339.648 72.27C339.662 72.132 339.788 72.034 339.922 72.047L341.275 72.185L348.338 70.466C348.475 70.434 348.607 70.516 348.64 70.65C348.673 70.784 348.591 70.919 348.456 70.952L341.351 72.681C341.331 72.685 341.311 72.688 341.292 72.688Z" fill="#263238"/>
<path d="M351.478 63.646C351.251 63.646 351.02 63.634 350.784 63.61C350.509 63.582 350.309 63.337 350.337 63.062C350.365 62.787 350.618 62.584 350.885 62.616C352.452 62.776 353.73 62.307 354.397 61.331C354.918 60.568 354.978 59.623 354.557 58.8C354.431 58.554 354.528 58.253 354.774 58.127C355.021 58.001 355.321 58.098 355.447 58.344C356.03 59.481 355.944 60.842 355.223 61.896C354.449 63.026 353.107 63.646 351.478 63.646Z" fill="#263238"/>
<path d="M324.002 68.539C323.081 68.539 322.075 68.406 320.977 68.103C318.139 67.321 316.334 65.264 316.026 62.459C315.704 59.524 317.15 56.414 319.391 55.226C319.635 55.097 319.938 55.189 320.067 55.433C320.196 55.677 320.103 55.98 319.86 56.109C317.961 57.116 316.74 59.799 317.021 62.35C317.174 63.747 317.927 66.226 321.244 67.14C327.105 68.754 330.057 64.98 331.295 62.586C331.422 62.341 331.723 62.244 331.969 62.372C332.215 62.499 332.31 62.801 332.184 63.046C331.037 65.259 328.567 68.539 324.002 68.539Z" fill="#263238"/>
<path d="M335.099 80.009C334.758 80.154 334.386 80.277 333.979 80.369C333.869 80.394 333.766 80.321 333.748 80.206C333.73 80.092 333.802 79.98 333.915 79.954C336.886 79.281 337.939 76.799 337.949 76.774C337.994 76.664 338.113 76.609 338.215 76.65C338.317 76.692 338.363 76.814 338.318 76.923C338.278 77.021 337.432 79.02 335.099 80.009Z" fill="#263238"/>
<path opacity="0.2" d="M338.07 69.85C338.07 69.85 339.311 68.773 340.66 69.012C339.346 69.748 338.07 69.85 338.07 69.85Z" fill="#444B8C"/>
<path opacity="0.2" d="M338.311 70.453C338.311 70.453 339.623 69.727 340.774 70.304C339.463 70.681 338.311 70.453 338.311 70.453Z" fill="#444B8C"/>
<path opacity="0.2" d="M327.829 72.736C327.829 72.736 326.974 72.26 326.678 72.806C327.401 73.006 327.829 72.736 327.829 72.736Z" fill="#444B8C"/>
<path opacity="0.2" d="M327.931 73.343C327.931 73.343 327.213 72.891 327.129 73.609C327.69 73.74 327.931 73.343 327.931 73.343Z" fill="#444B8C"/>
<path d="M352.158 73.99C351.552 75.98 350.077 77.5 348.546 78.273C346.244 79.436 344.572 77.502 344.775 75.072C344.958 72.884 346.377 69.643 348.897 69.489C351.381 69.337 352.851 71.715 352.158 73.99Z" fill="#CE7A63"/>
<path d="M336.201 70.781C336.366 71.388 336.176 71.965 335.778 72.069C335.38 72.173 334.923 71.765 334.758 71.158C334.593 70.551 334.783 69.974 335.182 69.87C335.58 69.766 336.036 70.174 336.201 70.781Z" fill="#263238"/>
<path d="M329.786 72.61C329.951 73.217 329.761 73.794 329.363 73.898C328.965 74.002 328.508 73.594 328.343 72.987C328.178 72.38 328.368 71.803 328.766 71.699C329.165 71.594 329.621 72.002 329.786 72.61Z" fill="#263238"/>
<path d="M326.087 77.151C325.695 77.151 325.285 76.922 325.089 76.573L324.07 74.75C323.945 74.527 323.926 74.28 324.019 74.073C324.108 73.874 324.293 73.731 324.526 73.679L329.727 72.524C330.169 72.426 330.699 72.669 330.928 73.08L331.947 74.903C332.072 75.126 332.09 75.373 331.998 75.58C331.909 75.779 331.724 75.922 331.491 75.974L326.29 77.129C326.225 77.144 326.156 77.151 326.087 77.151ZM329.932 73.003C329.899 73.003 329.867 73.006 329.836 73.013L324.635 74.168C324.58 74.18 324.507 74.209 324.476 74.278C324.449 74.339 324.46 74.422 324.507 74.507L325.526 76.329C325.647 76.546 325.956 76.693 326.182 76.641L331.383 75.486C331.438 75.474 331.511 75.445 331.542 75.376C331.569 75.315 331.558 75.232 331.511 75.147L330.492 73.324C330.387 73.138 330.143 73.003 329.932 73.003Z" fill="#263238"/>
<path d="M331.918 72.672L334.119 77.483C334.119 77.483 332.472 78.737 331.016 78.408C330.518 75.644 331.918 72.672 331.918 72.672Z" fill="#BA4D3C"/>
<path d="M334.71 75.237C334.318 75.237 333.908 75.008 333.713 74.659L332.693 72.837C332.568 72.614 332.55 72.367 332.642 72.16C332.731 71.961 332.916 71.818 333.149 71.766L338.35 70.611C338.796 70.513 339.322 70.757 339.551 71.167L340.571 72.989C340.696 73.212 340.715 73.459 340.622 73.666C340.533 73.865 340.348 74.008 340.115 74.061L334.914 75.216C334.848 75.23 334.779 75.237 334.71 75.237ZM338.555 71.089C338.522 71.089 338.49 71.092 338.459 71.099L333.258 72.254C333.203 72.266 333.13 72.295 333.099 72.364C333.072 72.425 333.083 72.508 333.13 72.593L334.15 74.416C334.271 74.632 334.576 74.78 334.806 74.728L340.007 73.573C340.062 73.561 340.135 73.532 340.166 73.463C340.193 73.402 340.182 73.319 340.135 73.234L339.115 71.412C339.01 71.223 338.766 71.089 338.555 71.089Z" fill="#263238"/>
<path d="M331.126 74.196C331.1 74.196 331.073 74.192 331.046 74.183C330.918 74.138 330.848 74.005 330.888 73.876C330.902 73.832 331.247 72.794 333.378 73.217C333.513 73.244 333.601 73.375 333.574 73.511C333.547 73.646 333.418 73.736 333.28 73.707C331.635 73.382 331.365 74.026 331.363 74.032C331.325 74.132 331.228 74.196 331.126 74.196Z" fill="#263238"/>
<path d="M337.669 68.579C337.726 68.556 337.778 68.518 337.818 68.466C337.943 68.306 337.914 68.074 337.752 67.948C336.131 66.687 334.506 67.215 334.438 67.238C334.244 67.303 334.142 67.513 334.209 67.706C334.276 67.898 334.486 68.002 334.679 67.937C334.732 67.92 336.003 67.521 337.297 68.528C337.408 68.613 337.55 68.628 337.669 68.579Z" fill="#263238"/>
<path d="M325.791 71.715C325.906 71.682 326.003 71.595 326.041 71.472C326.528 69.921 327.804 69.54 327.858 69.525C328.054 69.469 328.167 69.266 328.111 69.07C328.054 68.875 327.851 68.76 327.655 68.814C327.584 68.835 325.943 69.304 325.333 71.247C325.272 71.441 325.381 71.649 325.577 71.711C325.649 71.734 325.723 71.734 325.791 71.715Z" fill="#263238"/>
<path opacity="0.2" d="M252.778 337.444V403.197C252.778 410.37 258.646 416.238 265.819 416.238H281.833L276.111 343.667L252.778 337.444Z" fill="#444B8C"/>
<path d="M228.939 338.005L222.548 345.977C221.386 347.426 219.639 348.286 217.854 348.286H160.14C157.077 348.286 154.388 350.769 154.135 353.832L149.051 415.265C148.798 418.328 151.075 420.811 154.138 420.811H267.135C270.198 420.811 272.887 418.328 273.14 415.265L279.265 341.243C279.518 338.18 277.241 335.697 274.178 335.697H233.632C231.848 335.696 230.101 336.556 228.939 338.005Z" fill="#444B8C"/>
<path opacity="0.3" d="M228.939 338.005L222.548 345.977C221.386 347.426 219.639 348.286 217.854 348.286H160.14C157.077 348.286 154.388 350.769 154.135 353.832L149.051 415.265C148.798 418.328 151.075 420.811 154.138 420.811H267.135C270.198 420.811 272.887 418.328 273.14 415.265L279.265 341.243C279.518 338.18 277.241 335.697 274.178 335.697H233.632C231.848 335.696 230.101 336.556 228.939 338.005Z" fill="#444B8C"/>
<path d="M206.12 342.375L200.939 349.926C199.997 351.299 198.38 352.113 196.595 352.113H149.129C146.066 352.113 143.754 354.465 143.966 357.366L148.209 415.556C148.421 418.457 151.075 420.81 154.138 420.81H267.135C270.198 420.81 272.51 418.458 272.298 415.556L267.185 345.441C266.973 342.54 264.319 340.187 261.256 340.187H210.463C208.678 340.188 207.062 341.002 206.12 342.375Z" fill="#444B8C"/>
<defs>
<linearGradient id="paint0_linear_1134_1877" x1="129.863" y1="274.214" x2="129.863" y2="281.774" gradientUnits="userSpaceOnUse">
<stop stop-color="#6763FF"/>
<stop offset="1" stop-color="#F370EA"/>
</linearGradient>
<linearGradient id="paint1_linear_1134_1877" x1="410.636" y1="146.578" x2="410.636" y2="151.468" gradientUnits="userSpaceOnUse">
<stop stop-color="#6763FF"/>
<stop offset="1" stop-color="#F370EA"/>
</linearGradient>
<linearGradient id="paint2_linear_1134_1877" x1="419.855" y1="146.578" x2="419.855" y2="151.468" gradientUnits="userSpaceOnUse">
<stop stop-color="#6763FF"/>
<stop offset="1" stop-color="#F370EA"/>
</linearGradient>
<linearGradient id="paint3_linear_1134_1877" x1="201.36" y1="101.472" x2="201.36" y2="230.322" gradientUnits="userSpaceOnUse">
<stop stop-color="#6763FF"/>
<stop offset="1" stop-color="#F370EA"/>
</linearGradient>
<linearGradient id="paint4_linear_1134_1877" x1="181.167" y1="248.958" x2="181.167" y2="255.208" gradientUnits="userSpaceOnUse">
<stop stop-color="#6763FF"/>
<stop offset="1" stop-color="#F370EA"/>
</linearGradient>
<linearGradient id="paint5_linear_1134_1877" x1="172.833" y1="248.958" x2="172.833" y2="255.208" gradientUnits="userSpaceOnUse">
<stop stop-color="#6763FF"/>
<stop offset="1" stop-color="#F370EA"/>
</linearGradient>
<linearGradient id="paint6_linear_1134_1877" x1="332.217" y1="196.333" x2="332.217" y2="416.237" gradientUnits="userSpaceOnUse">
<stop stop-color="#6763FF"/>
<stop offset="1" stop-color="#F370EA"/>
</linearGradient>
<linearGradient id="paint7_linear_1134_1877" x1="308.791" y1="200.681" x2="308.791" y2="411.891" gradientUnits="userSpaceOnUse">
<stop stop-color="#6763FF"/>
<stop offset="1" stop-color="#F370EA"/>
</linearGradient>
<linearGradient id="paint8_linear_1134_1877" x1="310.813" y1="200.681" x2="310.813" y2="411.891" gradientUnits="userSpaceOnUse">
<stop stop-color="#6763FF"/>
<stop offset="1" stop-color="#F370EA"/>
</linearGradient>
<linearGradient id="paint9_linear_1134_1877" x1="298.36" y1="217.866" x2="298.36" y2="220.824" gradientUnits="userSpaceOnUse">
<stop stop-color="#6763FF"/>
<stop offset="1" stop-color="#F370EA"/>
</linearGradient>
<linearGradient id="paint10_linear_1134_1877" x1="298.36" y1="239.601" x2="298.36" y2="242.559" gradientUnits="userSpaceOnUse">
<stop stop-color="#6763FF"/>
<stop offset="1" stop-color="#F370EA"/>
</linearGradient>
<linearGradient id="paint11_linear_1134_1877" x1="298.36" y1="261.337" x2="298.36" y2="264.295" gradientUnits="userSpaceOnUse">
<stop stop-color="#6763FF"/>
<stop offset="1" stop-color="#F370EA"/>
</linearGradient>
<linearGradient id="paint12_linear_1134_1877" x1="298.36" y1="283.072" x2="298.36" y2="286.03" gradientUnits="userSpaceOnUse">
<stop stop-color="#6763FF"/>
<stop offset="1" stop-color="#F370EA"/>
</linearGradient>
<linearGradient id="paint13_linear_1134_1877" x1="298.36" y1="304.807" x2="298.36" y2="307.765" gradientUnits="userSpaceOnUse">
<stop stop-color="#6763FF"/>
<stop offset="1" stop-color="#F370EA"/>
</linearGradient>
<linearGradient id="paint14_linear_1134_1877" x1="298.36" y1="326.542" x2="298.36" y2="329.5" gradientUnits="userSpaceOnUse">
<stop stop-color="#6763FF"/>
<stop offset="1" stop-color="#F370EA"/>
</linearGradient>
<linearGradient id="paint15_linear_1134_1877" x1="298.36" y1="348.277" x2="298.36" y2="351.235" gradientUnits="userSpaceOnUse">
<stop stop-color="#6763FF"/>
<stop offset="1" stop-color="#F370EA"/>
</linearGradient>
<linearGradient id="paint16_linear_1134_1877" x1="298.36" y1="370.012" x2="298.36" y2="372.97" gradientUnits="userSpaceOnUse">
<stop stop-color="#6763FF"/>
<stop offset="1" stop-color="#F370EA"/>
</linearGradient>
<linearGradient id="paint17_linear_1134_1877" x1="298.36" y1="391.748" x2="298.36" y2="394.706" gradientUnits="userSpaceOnUse">
<stop stop-color="#6763FF"/>
<stop offset="1" stop-color="#F370EA"/>
</linearGradient>
<linearGradient id="paint18_linear_1134_1877" x1="376.517" y1="241.736" x2="376.517" y2="260.159" gradientUnits="userSpaceOnUse">
<stop stop-color="#6763FF"/>
<stop offset="1" stop-color="#F370EA"/>
</linearGradient>
<linearGradient id="paint19_linear_1134_1877" x1="335.189" y1="106.978" x2="335.189" y2="117.949" gradientUnits="userSpaceOnUse">
<stop stop-color="#6763FF"/>
<stop offset="1" stop-color="#F370EA"/>
</linearGradient>
</defs>
</svg>
