<svg width="145" height="145" viewBox="0 0 145 145" fill="none" xmlns="http://www.w3.org/2000/svg">
<path d="M72.386 144.772C112.364 144.772 144.772 112.364 144.772 72.386C144.772 32.4083 112.364 0 72.386 0C32.4083 0 0 32.4083 0 72.386C0 112.364 32.4083 144.772 72.386 144.772Z" fill="#2B5971"/>
<mask id="mask0_1160_502" style="mask-type:luminance" maskUnits="userSpaceOnUse" x="0" y="0" width="145" height="145">
<path d="M72.386 144.772C112.364 144.772 144.772 112.364 144.772 72.386C144.772 32.4083 112.364 0 72.386 0C32.4083 0 0 32.4083 0 72.386C0 112.364 32.4083 144.772 72.386 144.772Z" fill="white"/>
</mask>
<g mask="url(#mask0_1160_502)">
<path d="M102.171 63.438C102.171 46.728 88.6261 29.1 71.9161 29.1C55.2061 29.1 41.6611 46.728 41.6611 63.438C41.6611 80.148 55.2061 93.693 71.9161 93.693C88.6261 93.692 102.171 80.147 102.171 63.438Z" fill="#583A2F"/>
<path d="M54.9742 127.85H93.3862C93.3862 127.85 97.3062 86 96.8062 69.425C96.3062 52.85 80.4722 42.683 66.3062 42.683C52.1402 42.683 37.4742 106.608 54.9742 127.85Z" fill="#583A2F"/>
<path d="M107.052 116.94C103.965 111.096 89.7942 106.694 80.5532 104.383V84.606H64.2192V104.383C54.9782 106.694 40.8072 111.096 37.7202 116.94C34.2712 129.198 31.3862 144.773 31.3862 144.773H72.3862H113.386C113.386 144.773 111.437 128.073 107.052 116.94Z" fill="#F1C9A5"/>
<path d="M107.052 116.94C103.965 111.096 89.7942 106.694 80.5532 104.383V84.606H72.3862V102.564V111.942V144.773H113.386C113.386 144.773 111.437 128.073 107.052 116.94Z" fill="#E4B692"/>
<path opacity="0.1" d="M64.2192 97.273C65.6882 101.49 71.6162 103.907 75.9702 103.907C77.5452 103.907 79.0772 103.643 80.5532 103.16V84.606H64.2192V97.273Z" fill="#DDAC8C"/>
<path d="M93.3862 67.357C93.3862 50.283 83.9842 40.574 72.3862 40.574C60.7882 40.574 51.3862 50.283 51.3862 67.357C51.3862 84.431 60.7882 98.274 72.3862 98.274C83.9832 98.274 93.3862 84.432 93.3862 67.357Z" fill="#F1C9A5"/>
<path d="M90.1893 79.199C86.3823 78.833 83.8123 75.059 84.4563 70.776C85.0933 66.489 88.6983 63.306 92.5073 63.671C96.3123 64.036 98.8783 67.808 98.2363 72.095C97.5983 76.382 93.9963 79.562 90.1893 79.199Z" fill="#E4B692"/>
<path d="M45.8213 72.0949C45.1783 67.8079 47.7453 64.0359 51.5483 63.6709C55.3593 63.3069 58.9643 66.4889 59.6033 70.7759C60.2463 75.0589 57.6733 78.8329 53.8693 79.1989C50.0613 79.5619 46.4603 76.3819 45.8213 72.0949Z" fill="#F1C9A5"/>
<path d="M93.3862 67.357C93.3862 50.283 83.9842 40.574 72.3862 40.574V98.274C83.9832 98.274 93.3862 84.432 93.3862 67.357Z" fill="#E4B692"/>
<path d="M80.5532 104.384V99.923C77.9132 100.15 75.1832 100.27 72.3862 100.27C69.5892 100.27 66.8592 100.15 64.2192 99.923V104.384C54.9782 106.695 40.8072 111.097 37.7202 116.941C34.2712 129.199 31.3862 144.774 31.3862 144.774H72.3862H113.386C113.386 144.774 111.438 128.074 107.052 116.941C103.965 111.097 89.7942 106.694 80.5532 104.384Z" fill="#C51C39"/>
<path d="M62.373 104.678C62.373 104.687 62.373 104.695 62.373 104.703" stroke="white" stroke-width="1.4308" stroke-linecap="round" stroke-linejoin="round"/>
<path d="M62.5601 106.61C63.4601 111.215 67.5171 114.689 72.3871 114.689C77.5901 114.689 81.8661 110.721 82.3531 105.646" stroke="white" stroke-width="1.4308" stroke-linecap="round" stroke-linejoin="round" stroke-dasharray="0.05 1.92"/>
<path d="M82.3989 104.703C82.3989 104.694 82.3989 104.686 82.3989 104.678" stroke="white" stroke-width="1.4308" stroke-linecap="round" stroke-linejoin="round"/>
<path d="M41.6611 63.438C41.6611 63.438 37.9731 124.615 35.2231 144.774H56.2231L51.9551 88.005" fill="#583A2F"/>
<path d="M102.17 63.438C102.17 63.438 105.858 124.615 108.608 144.774H87.6084L90.3894 91.266" fill="#583A2F"/>
<path d="M73.5941 37.1489C61.0431 37.1489 49.6621 51.1259 49.6621 64.3709C49.6621 64.4219 49.6651 64.4709 49.6651 64.5209H61.5181L62.6401 55.6819V64.5209H74.6401V55.6819L76.7441 64.5209H84.3581V57.1819L86.1841 64.5209H95.1081C95.1081 64.4699 95.1111 64.4209 95.1111 64.3709C95.1111 51.1259 86.1441 37.1489 73.5941 37.1489Z" fill="#583A2F"/>
</g>
</svg>
