<svg width="145" height="145" viewBox="0 0 145 145" fill="none" xmlns="http://www.w3.org/2000/svg">
<path d="M72.386 144.772C112.364 144.772 144.772 112.364 144.772 72.386C144.772 32.4083 112.364 0 72.386 0C32.4083 0 0 32.4083 0 72.386C0 112.364 32.4083 144.772 72.386 144.772Z" fill="#14B0BF"/>
<mask id="mask0_1160_436" style="mask-type:luminance" maskUnits="userSpaceOnUse" x="0" y="0" width="145" height="145">
<path d="M72.386 144.772C112.364 144.772 144.772 112.364 144.772 72.386C144.772 32.4083 112.364 0 72.386 0C32.4083 0 0 32.4083 0 72.386C0 112.364 32.4083 144.772 72.386 144.772Z" fill="white"/>
</mask>
<g mask="url(#mask0_1160_436)">
<path d="M107.052 116.94C102.386 108.107 72.3857 102.564 72.3857 102.564C72.3857 102.564 42.3857 108.107 37.7197 116.94C34.2707 129.198 31.3857 144.773 31.3857 144.773H72.3857H113.386C113.386 144.773 111.437 128.073 107.052 116.94Z" fill="#F1C9A5"/>
<path d="M72.3857 102.564C72.3857 102.564 102.386 108.107 107.052 116.94C111.438 128.073 113.386 144.773 113.386 144.773H72.3857V102.564Z" fill="#E4B692"/>
<path d="M80.5527 84.606H64.2188V111.942H80.5527V84.606Z" fill="#F1C9A5"/>
<path d="M80.5527 84.606H72.3857V111.942H80.5527V84.606Z" fill="#E4B692"/>
<path opacity="0.1" d="M64.2188 97.273C65.6877 101.49 71.6157 103.907 75.9697 103.907C77.5447 103.907 79.0767 103.643 80.5527 103.16V84.606H64.2188V97.273Z" fill="#DDAC8C"/>
<path d="M93.3857 67.357C93.3857 50.283 83.9837 40.574 72.3857 40.574C60.7877 40.574 51.3857 50.283 51.3857 67.357C51.3857 90.323 60.7877 98.274 72.3857 98.274C83.9827 98.274 93.3857 89.366 93.3857 67.357Z" fill="#F1C9A5"/>
<path d="M90.1888 79.197C86.3818 78.798 83.8118 74.697 84.4558 70.041C85.0928 65.381 88.6978 61.921 92.5068 62.317C96.3118 62.713 98.8778 66.813 98.2358 71.473C97.5978 76.134 93.9958 79.591 90.1888 79.197Z" fill="#E4B692"/>
<path d="M46.6836 71.474C46.0406 66.814 48.6076 62.714 52.4106 62.318C56.2206 61.921 59.8266 65.381 60.4656 70.042C61.1076 74.698 58.5356 78.8 54.7316 79.198C50.9236 79.591 47.3216 76.134 46.6836 71.474Z" fill="#F1C9A5"/>
<path d="M93.3857 67.357C93.3857 50.283 83.9837 40.574 72.3857 40.574V98.274C83.9827 98.274 93.3857 89.366 93.3857 67.357Z" fill="#E4B692"/>
<path d="M107.052 116.94C104.326 111.782 92.9698 107.749 83.9868 105.284L72.3858 144.773L60.7848 105.284C51.8018 107.749 40.4448 111.782 37.7188 116.94C34.2698 129.198 31.3848 144.773 31.3848 144.773H72.3858H113.385C113.386 144.773 111.437 128.073 107.052 116.94Z" fill="#0D313D"/>
<path d="M60.4116 105.284L72.3856 144.773L84.0306 105.284L72.3856 118.544L60.4116 105.284Z" fill="#F1F2F2"/>
<path d="M72.3857 144.773L90.1137 125.028L84.0307 122.724L94.6137 108.349L84.3297 105.284L72.3857 144.773Z" fill="#2B5770"/>
<path d="M72.3857 144.773L54.6567 125.028L60.7397 122.724L50.1567 108.349L60.4407 105.284L72.3857 144.773Z" fill="#2B5770"/>
<path d="M57.3579 121.332L66.4349 112.895L72.3699 118.543L64.2179 104.382L59.2389 104.765C58.8819 110.271 57.3579 121.332 57.3579 121.332Z" fill="white"/>
<path d="M87.3836 121.332L78.3066 112.895L72.3706 118.543L80.5226 104.382L85.5016 104.765C85.8596 110.271 87.3836 121.332 87.3836 121.332Z" fill="white"/>
<path d="M95.4416 63.508C95.4416 63.508 91.6976 60.683 90.0936 68.975C90.6146 61.183 90.2356 50.434 83.9126 48.467C80.3996 54.788 66.4946 58.86 57.3636 56.613C58.0646 63.778 55.9596 69.679 53.5706 71.223C53.7106 65.463 53.7086 61.95 50.0566 63.075C49.0746 50.995 55.6906 35.682 73.5306 35.682C91.3716 35.683 97.2686 47.773 95.4416 63.508Z" fill="#262421"/>
</g>
</svg>
