<svg width="110" height="110" viewBox="0 0 110 110" fill="none" xmlns="http://www.w3.org/2000/svg">
<rect x="1.5" y="1.5" width="107" height="107" rx="18.5" fill="white" fill-opacity="0.1" stroke="#F28705" stroke-width="3"/>
<path d="M15 53.1375C15 43.125 23.125 35 33.1375 35C37.95 35 42.5625 36.9125 45.9625 40.3125L55 49.3375L64.025 40.3125C67.4375 36.9125 72.05 35 76.8625 35C86.875 35 95 43.125 95 53.1375V56.85C95 66.875 86.875 75 76.8625 75C72.05 75 67.4375 73.0875 64.0375 69.6875L55 60.6625L45.975 69.6875C42.5625 73.0875 37.95 75 33.1375 75C23.125 75 15 66.875 15 56.8625V53.1375ZM49.3375 55L40.3125 45.975C38.4125 44.075 35.825 43 33.1375 43C27.5375 43 23 47.5375 23 53.1375V56.85C23 62.45 27.5375 66.9875 33.1375 66.9875C35.825 66.9875 38.4125 65.925 40.3125 64.0125L49.3375 55ZM60.65 55L69.675 64.025C71.575 65.925 74.1625 67 76.85 67C82.45 67 86.9875 62.4625 86.9875 56.8625V53.1375C86.9875 47.5375 82.45 43 76.85 43C74.1625 43 71.575 44.0625 69.675 45.975L60.6625 55H60.65Z" fill="#F28705"/>
</svg>
