<svg width="450" height="454" viewBox="0 0 450 454" fill="none" xmlns="http://www.w3.org/2000/svg">
<mask id="mask0_312_1216" style="mask-type:luminance" maskUnits="userSpaceOnUse" x="5" y="0" width="442" height="444">
<path d="M232.424 443.123C205.714 443.123 185.307 439.387 177.169 437.734C152.519 432.727 108.659 423.818 70.8425 392.762H382.162C377.99 396.148 374.108 398.933 370.686 401.388C323.568 435.197 271.317 443.123 232.424 443.123ZM30.4733 344.492C-10.2743 271.929 2.28544 173.771 45.0692 106.314C53.9233 92.3525 100.694 14.8684 195.755 2.44147C205.19 1.20911 214.892 0.584839 224.715 0.584839C274.793 0.584839 328.311 16.7606 368.91 50.7762C451.544 120.006 462.421 246.498 427.072 330.358L429.438 166.927C429.438 163.198 425.2 156.043 417.41 156.043C417.121 156.043 416.826 156.053 416.525 156.074L368.547 154.832L364.173 68.9428C363.594 57.5784 354.211 48.6592 342.831 48.6592H156.332C148.342 47.7115 141.829 46.8641 137.187 46.235C136.862 46.1913 136.542 46.1703 136.227 46.1703C133.741 46.1703 131.517 47.4835 130.264 49.4824C119.915 52.2512 112.296 61.6943 112.296 72.9164V148.203L44.4255 146.446C44.2722 146.441 44.1184 146.44 43.9654 146.44C39.2708 146.44 34.7603 148.298 31.4283 151.62C27.9876 155.048 26.1048 159.738 26.2196 164.592L30.4733 344.492Z" fill="white"/>
</mask>
<g mask="url(#mask0_312_1216)">
<path d="M232.424 443.123C205.714 443.123 185.307 439.387 177.169 437.734C152.519 432.727 108.659 423.818 70.8425 392.762H382.162C377.99 396.148 374.108 398.933 370.686 401.388C323.568 435.197 271.317 443.123 232.424 443.123ZM30.4733 344.492C-10.2743 271.929 2.28544 173.771 45.0692 106.314C53.9233 92.3525 100.694 14.8684 195.755 2.44147C205.19 1.20911 214.892 0.584839 224.715 0.584839C274.793 0.584839 328.311 16.7606 368.91 50.7762C451.544 120.006 462.421 246.498 427.072 330.358L429.438 166.927C429.438 163.198 425.2 156.043 417.41 156.043C417.121 156.043 416.826 156.053 416.525 156.074L368.547 154.832L364.173 68.9428C363.594 57.5784 354.211 48.6592 342.831 48.6592H156.332C148.342 47.7115 141.829 46.8641 137.187 46.235C136.862 46.1913 136.542 46.1703 136.227 46.1703C133.741 46.1703 131.517 47.4835 130.264 49.4824C119.915 52.2512 112.296 61.6943 112.296 72.9164V148.203L44.4255 146.446C44.2722 146.441 44.1184 146.44 43.9654 146.44C39.2708 146.44 34.7603 148.298 31.4283 151.62C27.9876 155.048 26.1048 159.738 26.2196 164.592L30.4733 344.492Z" fill="url(#paint0_linear_312_1216)"/>
</g>
<path d="M395.502 52.937C395.352 53.0663 395.141 53.1213 394.934 53.0647C394.139 52.8496 393.337 52.6507 392.549 52.4728C392.214 52.3968 392.004 52.0653 392.08 51.7305C392.156 51.3957 392.489 51.1855 392.822 51.2615C393.628 51.4426 394.448 51.6464 395.26 51.8664C395.591 51.9553 395.787 52.2965 395.696 52.6281C395.662 52.7526 395.594 52.8577 395.502 52.937Z" fill="#7F74D1"/>
<path d="M407.859 57.8291C407.67 57.9924 407.395 58.0313 407.162 57.9067C405.686 57.1224 404.164 56.393 402.634 55.7396C402.319 55.6038 402.173 55.2399 402.307 54.9245C402.443 54.6075 402.807 54.462 403.122 54.5962C404.685 55.2641 406.239 56.0081 407.744 56.8102C408.048 56.972 408.163 57.3472 408.002 57.6512C407.964 57.7207 407.916 57.7806 407.859 57.8291ZM418.829 65.3364C418.599 65.5321 418.255 65.5385 418.019 65.3347C416.759 64.2496 415.433 63.2032 414.079 62.2232C413.801 62.0226 413.74 61.6345 413.94 61.3563C414.144 61.0798 414.529 61.0167 414.807 61.2172C416.19 62.2167 417.543 63.2857 418.831 64.3935C419.089 64.6167 419.119 65.0097 418.895 65.2701C418.874 65.2927 418.852 65.3154 418.829 65.3364ZM427.861 75.0852L427.824 75.1143C427.548 75.3181 427.16 75.2582 426.956 74.9817C426.084 73.7962 425.156 72.6302 424.197 71.5159C424.069 71.3671 423.94 71.2183 423.81 71.0712C423.584 70.814 423.61 70.421 423.867 70.1946L423.873 70.1898C424.13 69.9682 424.519 69.9957 424.745 70.2512C424.878 70.4016 425.009 70.5536 425.14 70.7057C426.118 71.8442 427.066 73.0345 427.957 74.2458C428.151 74.5094 428.106 74.8749 427.861 75.0852ZM434.487 86.6081C434.44 86.6485 434.387 86.6808 434.329 86.7067C434.013 86.8426 433.648 86.6987 433.512 86.3849C432.847 84.855 432.11 83.3364 431.319 81.8695C431.156 81.5671 431.267 81.1919 431.57 81.0286C431.872 80.8652 432.249 80.9768 432.412 81.2792C433.221 82.7768 433.973 84.3277 434.651 85.89C434.762 86.1455 434.688 86.435 434.487 86.6081ZM438.388 99.3132C438.309 99.3811 438.21 99.4313 438.099 99.4523C437.762 99.5154 437.437 99.2938 437.372 98.9574C437.064 97.3175 436.68 95.6728 436.234 94.0685C436.142 93.7385 436.336 93.3957 436.666 93.3035C436.996 93.2113 437.339 93.4054 437.431 93.7353C437.887 95.372 438.278 97.0523 438.594 98.7261C438.636 98.9526 438.551 99.1725 438.388 99.3132ZM439.386 112.563C439.271 112.662 439.121 112.72 438.957 112.714C438.615 112.701 438.348 112.413 438.359 112.07C438.42 110.406 438.411 108.717 438.33 107.052C438.314 106.709 438.579 106.419 438.92 106.402C439.263 106.385 439.554 106.649 439.57 106.992C439.653 108.693 439.664 110.417 439.601 112.115C439.595 112.296 439.512 112.455 439.386 112.563ZM437.413 125.7C437.263 125.83 437.054 125.886 436.847 125.83C436.515 125.741 436.32 125.401 436.409 125.07C436.839 123.462 437.206 121.816 437.497 120.172C437.557 119.834 437.879 119.608 438.217 119.668C438.555 119.729 438.779 120.051 438.72 120.389C438.422 122.066 438.049 123.75 437.609 125.391C437.575 125.516 437.505 125.623 437.413 125.7ZM432.555 138.067C432.367 138.229 432.091 138.27 431.859 138.145C431.555 137.985 431.439 137.61 431.601 137.306C432.38 135.829 433.106 134.306 433.756 132.774C433.889 132.459 434.254 132.312 434.57 132.446C434.885 132.58 435.032 132.944 434.9 133.261C434.237 134.823 433.496 136.379 432.699 137.886C432.661 137.957 432.611 138.019 432.555 138.067ZM425.08 149.058C424.852 149.256 424.507 149.262 424.271 149.06C424.011 148.837 423.98 148.444 424.203 148.183C425.287 146.919 426.33 145.589 427.303 144.236C427.502 143.954 427.892 143.893 428.17 144.093C428.448 144.294 428.513 144.682 428.313 144.96C427.318 146.343 426.252 147.7 425.148 148.99C425.127 149.016 425.104 149.039 425.08 149.058ZM418.727 155.425C417.627 156.371 416.481 157.287 415.32 158.146C415.043 158.349 414.655 158.291 414.45 158.016C414.247 157.74 414.299 157.353 414.581 157.148C415.916 156.158 417.228 155.095 418.483 153.991L418.488 153.984C418.745 153.763 419.135 153.79 419.36 154.046C419.586 154.303 419.562 154.696 419.305 154.922C419.112 155.091 418.92 155.259 418.727 155.425Z" fill="#7F74D1"/>
<path d="M408.38 162.559C408.346 162.588 408.311 162.614 408.27 162.635C407.528 163.038 406.778 163.424 406.04 163.785C405.731 163.935 405.359 163.808 405.209 163.5C405.058 163.191 405.188 162.821 405.493 162.669C406.216 162.315 406.951 161.936 407.678 161.542C407.979 161.378 408.358 161.492 408.521 161.792C408.662 162.054 408.597 162.373 408.38 162.559Z" fill="#7F74D1"/>
<path d="M371.015 167.006C370.857 167.142 370.635 167.196 370.422 167.128C369.633 166.877 368.834 166.604 368.046 166.317C367.723 166.199 367.558 165.844 367.674 165.52C367.792 165.198 368.148 165.032 368.471 165.15C369.241 165.431 370.026 165.698 370.797 165.942C371.124 166.046 371.305 166.397 371.201 166.723C371.166 166.837 371.099 166.934 371.015 167.006Z" fill="#7F74D1"/>
<path d="M355.967 60.8825C355.947 60.9003 355.926 60.9149 355.905 60.9294C354.54 61.84 353.198 62.82 351.915 63.8405C351.649 64.054 351.257 64.0103 351.044 63.7418C350.829 63.4734 350.866 63.082 351.142 62.8685C352.451 61.827 353.821 60.8259 355.216 59.896C355.501 59.7068 355.887 59.7828 356.077 60.069C356.253 60.3327 356.2 60.682 355.967 60.8825ZM342.671 73.0588C342.448 73.2497 342.115 73.261 341.877 73.0717C341.61 72.8566 341.567 72.4653 341.782 72.1984C342.835 70.8885 343.951 69.6108 345.102 68.4027C345.343 68.1553 345.733 68.144 345.98 68.3801C346.229 68.6162 346.239 69.0108 346.003 69.2583C344.876 70.4421 343.781 71.6922 342.751 72.9763C342.726 73.007 342.699 73.0329 342.671 73.0588ZM335.641 84.0852C335.458 84.2421 335.192 84.2841 334.96 84.1709C334.653 84.0189 334.527 83.6469 334.679 83.3397C335.418 81.8421 336.231 80.3542 337.097 78.9165C337.273 78.6189 337.656 78.5267 337.949 78.703C338.243 78.8809 338.339 79.2626 338.161 79.5553C337.313 80.9655 336.516 82.4227 335.793 83.8879C335.754 83.9656 335.703 84.0318 335.641 84.0852ZM331.184 96.3763C331.038 96.5025 330.835 96.5575 330.632 96.5089C330.299 96.4281 330.094 96.0933 330.175 95.7602C330.568 94.13 331.035 92.4998 331.564 90.9116C331.674 90.5882 332.025 90.4103 332.35 90.5187C332.675 90.627 332.851 90.9796 332.743 91.3046C332.225 92.8588 331.768 94.4566 331.383 96.0513C331.351 96.1823 331.279 96.2938 331.184 96.3763ZM329.539 109.343C329.428 109.439 329.282 109.495 329.124 109.494C328.781 109.487 328.507 109.204 328.512 108.861C328.54 107.186 328.637 105.493 328.803 103.829C328.839 103.489 329.143 103.238 329.484 103.274C329.825 103.308 330.075 103.612 330.041 103.953C329.877 105.582 329.78 107.241 329.756 108.881C329.753 109.067 329.669 109.232 329.539 109.343ZM330.768 122.361C330.692 122.427 330.597 122.476 330.49 122.498C330.154 122.568 329.825 122.351 329.756 122.015C329.416 120.376 329.143 118.702 328.942 117.04C328.9 116.699 329.143 116.39 329.484 116.348C329.825 116.307 330.134 116.55 330.176 116.891C330.372 118.518 330.641 120.158 330.972 121.764C331.021 121.992 330.935 122.218 330.768 122.361ZM334.802 134.801C334.758 134.838 334.708 134.87 334.651 134.896C334.339 135.037 333.971 134.898 333.83 134.584C333.142 133.059 332.512 131.484 331.954 129.904C331.839 129.58 332.007 129.224 332.332 129.111C332.656 128.998 333.011 129.166 333.125 129.49C333.671 131.037 334.289 132.58 334.963 134.074C335.078 134.33 335.006 134.626 334.802 134.801ZM341.457 146.058L341.424 146.084C341.149 146.291 340.76 146.236 340.554 145.961C339.548 144.624 338.588 143.226 337.698 141.806C337.516 141.515 337.604 141.132 337.894 140.949C338.185 140.768 338.568 140.856 338.749 141.147C339.623 142.536 340.562 143.906 341.547 145.214C341.745 145.478 341.703 145.846 341.457 146.058ZM350.424 155.579C350.196 155.776 349.854 155.783 349.617 155.581C348.34 154.495 347.094 153.342 345.915 152.157C345.673 151.914 345.675 151.52 345.919 151.279C346.165 151.033 346.556 151.038 346.797 151.282C347.952 152.443 349.171 153.57 350.423 154.635C350.683 154.856 350.715 155.249 350.494 155.511C350.471 155.535 350.449 155.558 350.424 155.579ZM361.255 162.912C361.068 163.075 360.793 163.114 360.56 162.991C359.083 162.21 357.618 161.356 356.203 160.45C355.915 160.266 355.831 159.881 356.015 159.593C356.201 159.305 356.584 159.219 356.874 159.404C358.258 160.29 359.694 161.128 361.14 161.893C361.443 162.053 361.559 162.428 361.399 162.732C361.362 162.803 361.312 162.863 361.255 162.912Z" fill="#7F74D1"/>
<path d="M365.288 55.8075C365.242 55.848 365.188 55.8819 365.13 55.9078C364.375 56.2345 363.624 56.579 362.897 56.9315C362.588 57.0819 362.216 56.9526 362.067 56.6437C361.917 56.3348 362.044 55.9628 362.355 55.814C363.097 55.4534 363.865 55.1024 364.635 54.7677C364.95 54.6318 365.316 54.7757 365.452 55.0895C365.563 55.3466 365.489 55.6361 365.288 55.8075Z" fill="#7F74D1"/>
<path d="M375.8 66.019C375.501 66.0724 375.268 66.3101 375.221 66.6109L373.878 75.1904C370.153 76.7931 366.658 79.0039 363.553 81.7921L355.206 79.4228C354.914 79.3387 354.6 79.4519 354.427 79.7009L348.471 88.2449C348.296 88.4939 348.301 88.8271 348.479 89.0729L353.592 96.0853C352.049 99.9618 351.186 104.005 350.969 108.055L343.386 112.284C343.121 112.432 342.977 112.733 343.03 113.032L344.861 123.286C344.914 123.585 345.152 123.818 345.453 123.865L354.031 125.209C355.635 128.933 357.846 132.428 360.634 135.532L358.265 143.88C358.18 144.173 358.292 144.486 358.543 144.659L367.087 150.616C367.336 150.789 367.669 150.786 367.915 150.606L374.927 145.494C378.804 147.037 382.848 147.9 386.896 148.117L391.125 155.7C391.274 155.966 391.575 156.108 391.874 156.055L402.128 154.224C402.427 154.17 402.66 153.933 402.707 153.632L404.051 145.054C407.775 143.45 411.27 141.241 414.373 138.452L422.722 140.822C423.014 140.906 423.328 140.793 423.501 140.544L429.458 132C429.631 131.749 429.627 131.417 429.448 131.172L424.336 124.159C425.879 120.283 426.742 116.238 426.959 112.188L434.542 107.959C434.807 107.812 434.95 107.511 434.896 107.212L433.066 96.9586C433.012 96.6594 432.775 96.4266 432.475 96.3797L423.896 95.0357C422.292 91.3112 420.082 87.8163 417.293 84.7112L419.663 76.3645C419.748 76.0718 419.634 75.7581 419.385 75.585L410.841 69.6287C410.591 69.454 410.259 69.4589 410.013 69.6368L403.001 74.7505C399.124 73.2077 395.08 72.344 391.032 72.1273L386.801 64.5441C386.654 64.2772 386.353 64.1349 386.054 64.1883L375.8 66.019Z" fill="#7F74D1"/>
<path d="M383.531 103.82C382.489 104.716 381.684 105.861 381.186 107.181C380.4 109.259 380.469 111.519 381.385 113.543C382.298 115.568 383.945 117.116 386.023 117.9C388.101 118.686 390.36 118.615 392.385 117.701C394.41 116.789 395.958 115.141 396.742 113.063C397.528 110.985 397.457 108.726 396.543 106.701C395.629 104.676 393.983 103.128 391.905 102.344C389.827 101.558 387.567 101.627 385.543 102.541C384.804 102.876 384.128 103.306 383.531 103.82ZM395.615 117.834C394.882 118.465 394.056 118.992 393.152 119.401C390.673 120.519 387.907 120.606 385.363 119.644C382.821 118.683 380.804 116.788 379.685 114.31C378.566 111.831 378.48 109.065 379.442 106.523C380.403 103.979 382.297 101.962 384.776 100.843C387.254 99.7239 390.021 99.6382 392.563 100.6C395.107 101.561 397.124 103.455 398.243 105.934C399.36 108.413 399.448 111.179 398.486 113.721C397.876 115.337 396.888 116.739 395.615 117.834Z" fill="#BDD0FB"/>
<path d="M406.021 130.096C397.22 137.665 384.07 138.654 374.118 131.718C372.282 130.437 370.661 128.962 369.264 127.339C361.692 118.537 360.702 105.386 367.639 95.4318C367.765 95.2539 367.891 95.076 368.02 94.8997C368.891 93.7159 369.858 92.6065 370.904 91.5924C371.027 91.4728 371.15 91.3563 371.274 91.2399L372.546 92.6048C371.294 93.7693 370.159 95.0792 369.169 96.4976L369.141 96.538C361.545 107.482 364.251 122.568 375.183 130.188C386.13 137.818 401.242 135.121 408.874 124.174C415.315 114.933 414.395 102.721 407.367 94.5488C406.07 93.0415 404.564 91.6717 402.859 90.483C399.261 87.9746 395.058 86.49 390.704 86.1908L390.832 84.3326C395.522 84.6544 400.049 86.2523 403.925 88.9547C405.761 90.2339 407.383 91.7089 408.778 93.3342C416.35 102.134 417.34 115.287 410.404 125.239C409.123 127.077 407.646 128.699 406.021 130.096Z" fill="#BDD0FB"/>
<path d="M355.446 7.57618C355.355 7.65375 355.227 7.68767 355.105 7.65373C354.626 7.52445 354.144 7.40486 353.67 7.29819C353.469 7.25294 353.343 7.05255 353.389 6.85216C353.434 6.65176 353.634 6.52408 353.835 6.57095C354.319 6.67923 354.81 6.80044 355.299 6.93296C355.498 6.98629 355.616 7.19155 355.562 7.39033C355.541 7.46629 355.499 7.52931 355.446 7.57618Z" fill="#7F74D1"/>
<path d="M362.873 10.518C362.76 10.615 362.593 10.6377 362.454 10.5633C361.566 10.091 360.651 9.65278 359.732 9.25979C359.543 9.17893 359.456 8.96058 359.536 8.77136C359.617 8.58052 359.836 8.49321 360.027 8.57407C360.965 8.97515 361.899 9.42314 362.803 9.90508C362.986 10.0021 363.056 10.2269 362.959 10.4096C362.936 10.4517 362.907 10.4873 362.873 10.518ZM369.466 15.0285C369.329 15.1466 369.122 15.1498 368.98 15.0285C368.221 14.3751 367.425 13.746 366.612 13.1574C366.444 13.0377 366.407 12.8032 366.528 12.6366C366.651 12.47 366.882 12.4328 367.049 12.5525C367.88 13.1541 368.693 13.7962 369.466 14.4625C369.623 14.5967 369.641 14.8328 369.505 14.9881L369.466 15.0285ZM374.896 20.8878L374.873 20.9056C374.706 21.0285 374.473 20.9929 374.351 20.8264C373.827 20.1131 373.269 19.4129 372.693 18.7434C372.615 18.6544 372.538 18.5638 372.46 18.4765C372.324 18.3213 372.339 18.0851 372.494 17.9493L372.497 17.946C372.652 17.8134 372.885 17.8296 373.021 17.9832C373.1 18.0738 373.18 18.1644 373.259 18.2565C373.848 18.9406 374.417 19.6555 374.952 20.3832C375.069 20.5417 375.041 20.7617 374.896 20.8878ZM378.877 27.8145C378.85 27.8371 378.817 27.8582 378.782 27.8727C378.593 27.9552 378.373 27.8695 378.29 27.6803C377.892 26.7601 377.448 25.8479 376.972 24.9665C376.875 24.7838 376.941 24.559 377.124 24.4603C377.305 24.3617 377.532 24.4296 377.63 24.6107C378.115 25.5115 378.568 26.4431 378.976 27.3827C379.042 27.5363 378.997 27.7094 378.877 27.8145ZM381.222 35.4496C381.174 35.4916 381.114 35.5207 381.048 35.5336C380.845 35.5708 380.65 35.4382 380.611 35.2361C380.425 34.2495 380.195 33.2614 379.927 32.2975C379.872 32.0986 379.988 31.8932 380.187 31.8382C380.384 31.7832 380.591 31.8997 380.646 32.0986C380.92 33.0819 381.154 34.091 381.345 35.097C381.371 35.2328 381.319 35.3655 381.222 35.4496ZM381.821 43.4145C381.753 43.4727 381.662 43.5083 381.563 43.5035C381.358 43.497 381.196 43.3239 381.204 43.1169C381.242 42.1175 381.235 41.1035 381.187 40.1008C381.177 39.8954 381.335 39.7207 381.541 39.7094C381.748 39.6997 381.922 39.8582 381.932 40.0652C381.982 41.0873 381.989 42.1239 381.952 43.1444C381.947 43.2528 381.897 43.3482 381.821 43.4145ZM380.635 51.3099C380.546 51.3875 380.42 51.4215 380.296 51.3876C380.097 51.3342 379.979 51.1288 380.032 50.9299C380.291 49.9644 380.511 48.9746 380.685 47.9865C380.722 47.7843 380.915 47.6485 381.119 47.6841C381.322 47.7212 381.457 47.9137 381.421 48.1175C381.242 49.125 381.017 50.1374 380.753 51.1239C380.732 51.1983 380.69 51.263 380.635 51.3099ZM377.716 58.7428C377.603 58.8398 377.436 58.8641 377.297 58.7897C377.114 58.6927 377.045 58.4679 377.142 58.2851C377.611 57.3973 378.048 56.4819 378.437 55.5617C378.517 55.3708 378.736 55.2835 378.927 55.3643C379.117 55.4436 379.205 55.6636 379.125 55.8528C378.727 56.7924 378.28 57.7288 377.802 58.6344C377.779 58.6765 377.75 58.7137 377.716 58.7428ZM373.223 65.3493C373.086 65.4673 372.879 65.4706 372.736 65.3493C372.581 65.215 372.562 64.9789 372.696 64.822C373.348 64.0619 373.974 63.263 374.559 62.4495C374.679 62.2797 374.913 62.2441 375.081 62.3654C375.248 62.4851 375.287 62.718 375.166 62.8862C374.567 63.7159 373.928 64.5325 373.264 65.3088C373.251 65.3234 373.238 65.3363 373.223 65.3493ZM369.405 69.1757C368.743 69.7433 368.055 70.2932 367.356 70.8107C367.191 70.9336 366.956 70.8981 366.834 70.7315C366.712 70.5665 366.743 70.3336 366.913 70.2107C367.717 69.6156 368.504 68.9768 369.258 68.3121L369.261 68.3088C369.416 68.1762 369.649 68.1924 369.785 68.346C369.921 68.4997 369.906 68.7358 369.751 68.8733C369.636 68.9735 369.521 69.0754 369.405 69.1757Z" fill="#7F74D1"/>
<path d="M363.184 73.4636C363.165 73.4797 363.142 73.4959 363.12 73.5088C362.673 73.7512 362.222 73.9823 361.779 74.1989C361.593 74.2894 361.37 74.2134 361.279 74.0292C361.189 73.8434 361.266 73.6203 361.451 73.5298C361.884 73.3165 362.325 73.0886 362.764 72.8527C362.945 72.7541 363.171 72.822 363.268 73.003C363.354 73.1597 363.315 73.3521 363.184 73.4636Z" fill="#7F74D1"/>
<path d="M335.318 76.1349C335.224 76.2173 335.089 76.2496 334.962 76.2092C334.488 76.0573 334.008 75.8941 333.534 75.7228C333.34 75.6517 333.239 75.4367 333.31 75.2444C333.382 75.0505 333.595 74.9503 333.789 75.0214C334.252 75.1895 334.722 75.3494 335.188 75.4981C335.384 75.5595 335.492 75.7696 335.431 75.9652C335.408 76.0347 335.369 76.0912 335.318 76.1349Z" fill="#7F74D1"/>
<path d="M326.274 12.352L326.237 12.3811C325.417 12.9277 324.61 13.5164 323.84 14.1293C323.678 14.2587 323.444 14.2328 323.314 14.0711C323.186 13.9094 323.207 13.6749 323.374 13.5455C324.16 12.9196 324.985 12.318 325.823 11.7585C325.994 11.6452 326.225 11.6905 326.34 11.862C326.445 12.0221 326.414 12.2307 326.274 12.352ZM318.283 19.67C318.149 19.7849 317.948 19.7929 317.806 19.6781C317.644 19.5487 317.62 19.3142 317.748 19.1525C318.38 18.3649 319.051 17.5983 319.743 16.8722C319.887 16.7234 320.122 16.7169 320.272 16.8576C320.421 17.0016 320.427 17.2377 320.285 17.3865C319.607 18.0981 318.949 18.8501 318.33 19.6215C318.315 19.6393 318.299 19.6555 318.283 19.67ZM314.057 26.2975C313.947 26.3913 313.787 26.4172 313.648 26.3493C313.464 26.2571 313.388 26.0339 313.48 25.8495C313.923 24.9503 314.411 24.0544 314.932 23.1908C315.037 23.0129 315.268 22.9563 315.445 23.063C315.621 23.1698 315.678 23.3994 315.572 23.5757C315.063 24.4231 314.583 25.2981 314.148 26.1795C314.125 26.2264 314.094 26.2652 314.057 26.2975ZM311.379 33.6851C311.29 33.7595 311.169 33.7935 311.047 33.7644C310.847 33.7159 310.724 33.5137 310.772 33.3148C311.009 32.3347 311.29 31.3547 311.607 30.4005C311.673 30.2064 311.884 30.0997 312.079 30.1644C312.275 30.2291 312.38 30.4409 312.315 30.6366C312.005 31.5714 311.73 32.5304 311.497 33.4894C311.479 33.5687 311.436 33.635 311.379 33.6851ZM310.389 41.4787C310.323 41.5353 310.236 41.5692 310.14 41.5692C309.935 41.5644 309.77 41.3946 309.773 41.1892C309.789 40.1816 309.847 39.1644 309.948 38.1649C309.969 37.9595 310.151 37.8091 310.357 37.8301C310.562 37.8512 310.711 38.0339 310.692 38.2393C310.593 39.2178 310.535 40.214 310.52 41.2005C310.519 41.3121 310.468 41.4107 310.389 41.4787ZM311.13 49.3029C311.083 49.3417 311.026 49.3709 310.962 49.3838C310.76 49.4258 310.562 49.2965 310.52 49.0943C310.316 48.1094 310.151 47.1035 310.032 46.104C310.006 45.8986 310.151 45.7143 310.357 45.6884C310.562 45.6641 310.748 45.8097 310.772 46.015C310.89 46.9935 311.052 47.9784 311.251 48.9439C311.28 49.0813 311.228 49.2172 311.13 49.3029ZM313.552 56.7779C313.527 56.8021 313.496 56.8215 313.462 56.8361C313.274 56.9202 313.054 56.8377 312.969 56.6485C312.555 55.7315 312.176 54.7854 311.841 53.8361C311.772 53.642 311.874 53.4285 312.069 53.3606C312.264 53.2911 312.477 53.393 312.545 53.587C312.873 54.517 313.245 55.4436 313.65 56.3428C313.719 56.4964 313.675 56.6727 313.552 56.7779ZM317.552 63.546L317.533 63.5606C317.368 63.6851 317.135 63.6512 317.01 63.4878C316.405 62.6824 315.828 61.8431 315.294 60.9892C315.184 60.8145 315.238 60.5849 315.411 60.4749C315.585 60.3649 315.817 60.4183 315.927 60.593C316.451 61.4291 317.015 62.2506 317.607 63.0382C317.727 63.1967 317.701 63.4183 317.552 63.546ZM322.942 69.2679C322.806 69.386 322.599 69.3892 322.457 69.2695C321.689 68.6161 320.94 67.9239 320.232 67.2107C320.088 67.0652 320.088 66.8274 320.235 66.6835C320.382 66.5347 320.617 66.538 320.762 66.6851C321.456 67.3822 322.189 68.0614 322.941 68.7002C323.099 68.8329 323.117 69.069 322.984 69.2258C322.971 69.242 322.957 69.255 322.942 69.2679ZM329.452 73.6749C329.338 73.7719 329.174 73.7962 329.034 73.7218C328.147 73.2528 327.265 72.7401 326.416 72.1951C326.243 72.0835 326.191 71.8539 326.303 71.6792C326.414 71.5078 326.644 71.4544 326.819 71.566C327.652 72.0997 328.514 72.6027 329.384 73.062C329.565 73.159 329.634 73.3838 329.539 73.5665C329.516 73.6086 329.487 73.6458 329.452 73.6749Z" fill="#7F74D1"/>
<path d="M331.876 9.30229C331.849 9.32653 331.816 9.34591 331.781 9.36207C331.328 9.55923 330.877 9.76612 330.438 9.97783C330.254 10.0667 330.031 9.98912 329.94 9.80489C329.85 9.61903 329.927 9.39601 330.113 9.30551C330.56 9.08895 331.021 8.87888 331.485 8.67687C331.674 8.59607 331.892 8.68172 331.975 8.8708C332.043 9.02433 331.997 9.19886 331.876 9.30229Z" fill="#7F74D1"/>
<path d="M338.195 15.4394C338.015 15.4717 337.875 15.6141 337.847 15.7952L337.039 20.951C334.8 21.9149 332.699 23.2426 330.835 24.9197L325.816 23.4949C325.642 23.4448 325.453 23.5127 325.349 23.6615L321.768 28.7979C321.665 28.9483 321.667 29.1472 321.773 29.296L324.846 33.509C323.919 35.8394 323.4 38.2701 323.271 40.7041L318.712 43.2464C318.553 43.3354 318.468 43.5165 318.498 43.696L319.6 49.8577C319.632 50.0388 319.774 50.178 319.956 50.2071L325.111 51.014C326.075 53.2523 327.403 55.3531 329.08 57.2195L327.655 62.2362C327.605 62.4124 327.671 62.6 327.822 62.7052L332.958 66.2841C333.107 66.3893 333.308 66.386 333.456 66.2793L337.669 63.2065C340 64.1332 342.43 64.6523 344.864 64.7833L347.407 69.3407C347.496 69.5009 347.675 69.5866 347.856 69.5542L354.018 68.4545C354.199 68.4221 354.338 68.2782 354.367 68.0987L355.174 62.9413C357.413 61.9774 359.513 60.6496 361.378 58.9742L366.396 60.3974C366.571 60.4475 366.76 60.3812 366.865 60.2308L370.444 55.096C370.55 54.9456 370.546 54.7451 370.44 54.5979L367.367 50.3833C368.294 48.0529 368.813 45.6222 368.942 43.1882L373.501 40.6475C373.66 40.5585 373.745 40.3774 373.713 40.1979L372.613 34.0346C372.581 33.855 372.439 33.7143 372.257 33.6869L367.102 32.8782C366.138 30.6399 364.81 28.5391 363.133 26.6744L364.558 21.6577C364.608 21.4814 364.541 21.2922 364.391 21.1887L359.255 17.6081C359.106 17.5046 358.905 17.5062 358.758 17.6146L354.544 20.6858C352.213 19.7591 349.782 19.2399 347.348 19.1106L344.806 14.5531C344.717 14.393 344.538 14.3073 344.357 14.3397L338.195 15.4394Z" fill="#7F74D1"/>
<path d="M342.841 38.1601C342.215 38.6971 341.731 39.386 341.431 40.1784C340.958 41.4286 341 42.7854 341.55 44.0032C342.1 45.2194 343.09 46.1493 344.338 46.6216C345.587 47.0938 346.945 47.0518 348.162 46.5019C349.379 45.9536 350.309 44.9639 350.781 43.7138C351.254 42.4653 351.212 41.1068 350.662 39.8906C350.112 38.6728 349.122 37.7429 347.874 37.2706C346.625 36.7984 345.267 36.8421 344.05 37.3903C343.606 37.5909 343.2 37.8496 342.841 38.1601ZM350.104 46.5811C349.664 46.9612 349.167 47.2782 348.622 47.5224C347.133 48.1952 345.472 48.2469 343.942 47.6696C342.414 47.0922 341.202 45.9536 340.53 44.4642C339.857 42.973 339.805 41.3121 340.383 39.7822C340.962 38.2539 342.1 37.0426 343.59 36.3698C345.079 35.697 346.742 35.6453 348.27 36.2243C349.798 36.8016 351.011 37.9402 351.682 39.4297C352.355 40.9192 352.407 42.5817 351.829 44.11C351.462 45.0804 350.869 45.9229 350.104 46.5811Z" fill="#BDD0FB"/>
<path d="M356.358 53.9509C351.068 58.5002 343.164 59.0953 337.184 54.9261C336.079 54.1562 335.105 53.27 334.264 52.2948C329.715 47.0048 329.12 39.0996 333.289 33.1174C333.364 33.0107 333.44 32.904 333.517 32.7972C334.041 32.0856 334.622 31.4193 335.251 30.8096C335.325 30.7385 335.4 30.6673 335.474 30.5978L336.238 31.4177C335.485 32.118 334.803 32.9056 334.208 33.7579L334.192 33.7821C329.626 40.3595 331.252 49.4274 337.824 54.0075C344.403 58.5924 353.486 56.9719 358.072 50.3913C361.944 44.8376 361.391 37.4986 357.166 32.587C356.387 31.6797 355.483 30.8565 354.457 30.1433C352.294 28.6344 349.767 27.7433 347.152 27.5638L347.228 26.4463C350.047 26.6403 352.767 27.5994 355.098 29.2231C356.201 29.9929 357.176 30.8808 358.015 31.856C362.566 37.146 363.162 45.0495 358.991 51.0333C358.221 52.1363 357.335 53.1115 356.358 53.9509Z" fill="#BDD0FB"/>
<mask id="mask1_312_1216" style="mask-type:luminance" maskUnits="userSpaceOnUse" x="26" y="146" width="404" height="247">
<path d="M419.228 392.762H38.4894C34.6169 392.762 31.4485 389.597 31.4485 385.728L30.4735 344.492L26.2198 164.592C26.105 159.738 27.9878 155.048 31.4285 151.62C34.7605 148.298 39.271 146.44 43.9656 146.44C44.1186 146.44 44.2724 146.441 44.4257 146.446L112.297 148.203V156.569L45.8891 154.788C45.7779 154.785 45.6663 154.783 45.5553 154.783C42.261 154.783 39.0965 156.09 36.7576 158.424C34.34 160.835 33.0102 164.134 33.096 167.548L38.3996 378.979C38.3996 382.643 41.3972 385.641 45.0608 385.641H117.976C120.527 387.661 123.75 388.866 127.25 388.866C127.342 388.866 127.434 388.864 127.526 388.862L304.824 385.641H410.047C413.71 385.641 416.708 382.643 416.708 378.979L419.697 180.35C419.356 168.729 409.437 164.344 403.049 164.344C402.868 164.344 402.688 164.348 402.514 164.356L368.985 163.457L368.547 154.832L416.526 156.074C416.826 156.053 417.121 156.043 417.41 156.043C425.201 156.043 429.438 163.198 429.438 166.927L427.072 330.358L426.27 385.728C426.27 389.597 423.101 392.762 419.228 392.762Z" fill="white"/>
</mask>
<g mask="url(#mask1_312_1216)">
<path d="M419.228 392.762H38.4894C34.6169 392.762 31.4485 389.597 31.4485 385.728L30.4735 344.492L26.2198 164.592C26.105 159.738 27.9878 155.048 31.4285 151.62C34.7605 148.298 39.271 146.44 43.9656 146.44C44.1186 146.44 44.2724 146.441 44.4257 146.446L112.297 148.203V156.569L45.8891 154.788C45.7779 154.785 45.6663 154.783 45.5553 154.783C42.261 154.783 39.0965 156.09 36.7576 158.424C34.34 160.835 33.0102 164.134 33.096 167.548L38.3996 378.979C38.3996 382.643 41.3972 385.641 45.0608 385.641H117.976C120.527 387.661 123.75 388.866 127.25 388.866C127.342 388.866 127.434 388.864 127.526 388.862L304.824 385.641H410.047C413.71 385.641 416.708 382.643 416.708 378.979L419.697 180.35C419.356 168.729 409.437 164.344 403.049 164.344C402.868 164.344 402.688 164.348 402.514 164.356L368.985 163.457L368.547 154.832L416.526 156.074C416.826 156.053 417.121 156.043 417.41 156.043C425.201 156.043 429.438 163.198 429.438 166.927L427.072 330.358L426.27 385.728C426.27 389.597 423.101 392.762 419.228 392.762Z" fill="url(#paint1_linear_312_1216)"/>
</g>
<path d="M38.4003 378.979C38.4003 382.643 41.3979 385.641 45.0614 385.641H410.048C413.711 385.641 416.709 382.643 416.709 378.979L419.698 180.35C419.347 168.397 408.867 164.102 402.514 164.356L45.8898 154.788C42.4763 154.696 39.1759 156.011 36.7583 158.424C34.3407 160.835 33.0108 164.134 33.0967 167.548L38.4003 378.979Z" fill="#7F74D1"/>
<path d="M403.765 284.618H403.755C403.21 284.61 402.78 284.167 402.788 283.626L403.024 267.519C403.032 266.983 403.469 266.556 403.999 266.556H404.015C404.554 266.564 404.984 267.007 404.976 267.548L404.74 283.655C404.732 284.189 404.297 284.618 403.765 284.618Z" fill="#BDD0FB"/>
<path d="M413.343 245.142H413.329C412.79 245.136 412.36 244.691 412.368 244.153L413.274 182.456C413.256 178.791 412.143 175.866 409.966 173.78C405.902 169.885 399.451 170.084 399.178 170.097L285.194 167.04C284.654 167.028 284.23 166.578 284.245 166.039C284.257 165.501 284.671 165.042 285.246 165.09L399.163 168.147C399.871 168.105 406.742 167.987 411.317 172.369C413.891 174.836 415.206 178.233 415.226 182.466L414.32 244.182C414.312 244.715 413.875 245.142 413.343 245.142Z" fill="#BDD0FB"/>
<mask id="mask2_312_1216" style="mask-type:luminance" maskUnits="userSpaceOnUse" x="0" y="391" width="450" height="20">
<path d="M1.4764 410.925H448.524C449.027 410.925 449.439 410.514 449.439 410.011V392.614C449.439 392.112 449.027 391.701 448.524 391.701H1.47624C0.973437 391.701 0.562012 392.112 0.562012 392.614V410.011C0.562012 410.514 0.973433 410.925 1.4764 410.925Z" fill="white"/>
</mask>
<g mask="url(#mask2_312_1216)">
<path d="M1.4764 410.925H448.524C449.027 410.925 449.439 410.514 449.439 410.011V392.614C449.439 392.112 449.027 391.701 448.524 391.701H1.47624C0.973437 391.701 0.562012 392.112 0.562012 392.614V410.011C0.562012 410.514 0.973433 410.925 1.4764 410.925Z" fill="url(#paint2_linear_312_1216)"/>
</g>
<mask id="mask3_312_1216" style="mask-type:luminance" maskUnits="userSpaceOnUse" x="112" y="48" width="268" height="341">
<path d="M127.25 388.866C123.75 388.866 120.527 387.661 117.977 385.641C114.519 382.903 112.297 378.669 112.297 373.908V156.569V148.203V72.9165C112.297 61.6944 119.916 52.2513 130.265 49.4825C129.582 50.5726 129.187 51.8664 129.196 53.2637L131.052 368.788C131.07 371.815 133.355 374.351 136.366 374.666C148.444 375.931 165.823 376.429 185.709 376.429C247.292 376.429 332.786 371.657 358.248 370.149C362.366 369.907 365.511 366.384 365.293 362.265L349.328 61.8675C349.142 58.3807 346.253 55.7025 342.82 55.7025C342.652 55.7025 342.482 55.709 342.31 55.7219C326.287 56.9526 309.598 57.4637 292.916 57.4637C239.959 57.4637 187.13 52.3111 156.333 48.6593H342.831C354.212 48.6593 363.595 57.5785 364.174 68.9429L368.547 154.832L368.985 163.457L369.184 167.343L369.283 169.295L379.4 368.008C379.853 376.903 372.852 384.404 363.948 384.567L304.824 385.641L127.527 388.863C127.434 388.864 127.342 388.866 127.25 388.866Z" fill="white"/>
</mask>
<g mask="url(#mask3_312_1216)">
<path d="M127.25 388.866C123.75 388.866 120.527 387.661 117.977 385.641C114.519 382.903 112.297 378.669 112.297 373.908V156.569V148.203V72.9165C112.297 61.6944 119.916 52.2513 130.265 49.4825C129.582 50.5726 129.187 51.8664 129.196 53.2637L131.052 368.788C131.07 371.815 133.355 374.351 136.366 374.666C148.444 375.931 165.823 376.429 185.709 376.429C247.292 376.429 332.786 371.657 358.248 370.149C362.366 369.907 365.511 366.384 365.293 362.265L349.328 61.8675C349.142 58.3807 346.253 55.7025 342.82 55.7025C342.652 55.7025 342.482 55.709 342.31 55.7219C326.287 56.9526 309.598 57.4637 292.916 57.4637C239.959 57.4637 187.13 52.3111 156.333 48.6593H342.831C354.212 48.6593 363.595 57.5785 364.174 68.9429L368.547 154.832L368.985 163.457L369.184 167.343L369.283 169.295L379.4 368.008C379.853 376.903 372.852 384.404 363.948 384.567L304.824 385.641L127.527 388.863C127.434 388.864 127.342 388.866 127.25 388.866Z" fill="#372D5B"/>
</g>
<path d="M162.081 383.779H162.073L135.62 383.437C126.773 383.322 119.577 376.033 119.577 367.186V327.245C119.577 326.933 119.831 326.681 120.143 326.681C120.453 326.681 120.707 326.933 120.707 327.245V367.186C120.707 375.417 127.403 382.201 135.634 382.308L162.088 382.649C162.4 382.654 162.649 382.909 162.646 383.222C162.641 383.53 162.389 383.779 162.081 383.779Z" fill="#7F74D1"/>
<path d="M120.143 315.438C119.831 315.438 119.577 315.185 119.577 314.873V308.406C119.577 308.092 119.831 307.84 120.143 307.84C120.453 307.84 120.707 308.092 120.707 308.406V314.873C120.707 315.185 120.453 315.438 120.143 315.438Z" fill="#7F74D1"/>
<path d="M129.196 53.2636C129.172 48.9763 132.94 45.6593 137.188 46.235C165.356 50.055 262.223 61.8706 342.311 55.7219C345.964 55.4421 349.134 58.2092 349.328 61.8674L365.293 362.265C365.512 366.384 362.366 369.907 358.249 370.149C324.566 372.143 185.847 379.85 136.367 374.666C133.355 374.351 131.07 371.815 131.053 368.788L129.196 53.2636Z" fill="#504984"/>
<g filter="url(#filter0_d_312_1216)">
<path d="M132.514 60.7903C132.49 56.6663 136.118 53.4738 140.204 54.0285C167.313 57.7045 260.533 69.0738 337.604 63.1579C341.119 62.8878 344.169 65.5514 344.356 69.0706L359.72 358.157C359.93 362.121 356.905 365.511 352.942 365.746C320.526 367.664 187.032 375.079 139.415 370.091C136.517 369.789 134.318 367.348 134.3 364.434L132.514 60.7903Z" fill="url(#paint3_linear_312_1216)" fill-opacity="0.7" shape-rendering="crispEdges"/>
</g>
<path d="M206.227 149.463C189.285 149.463 171.728 149.024 164.311 148.814C162.249 148.756 160.583 147.118 160.488 145.056L157.609 83.0793C157.498 80.6841 159.412 78.6949 161.79 78.6949C161.84 78.6949 161.89 78.6965 161.94 78.6981L229.784 81.0706C232.106 81.1515 234.071 82.8253 234.498 85.1105C237.147 99.2518 236.305 133.081 235.92 144.705C235.844 146.991 234.036 148.838 231.752 148.958C224.604 149.33 215.508 149.463 206.227 149.463Z" fill="#F1F5FE"/>
<path d="M327.346 88.4743H254.79C253.461 88.4743 252.012 87.4474 251.57 86.194L251.214 85.1832C250.778 83.9444 251.483 82.9465 252.781 82.9465C252.798 82.9465 252.812 82.9465 252.828 82.9465L327.225 84.2727C328.553 84.2953 329.669 85.2511 329.701 86.3945C329.735 87.5379 328.674 88.4743 327.346 88.4743Z" fill="#E5ECFD"/>
<path d="M327.346 100.028H254.79C253.461 100.028 252.012 99.0027 251.57 97.7478L251.214 96.737C250.778 95.4982 251.483 94.5003 252.783 94.5003C252.798 94.5003 252.812 94.5003 252.828 94.5003L327.225 95.8264C328.553 95.8507 329.669 96.8049 329.701 97.9483C329.735 99.0917 328.674 100.028 327.346 100.028Z" fill="#E5ECFD"/>
<path d="M327.346 111.75H254.79C253.461 111.75 252.012 110.725 251.57 109.47L251.214 108.459C250.778 107.22 251.483 106.222 252.781 106.222C252.798 106.222 252.812 106.222 252.828 106.222L327.225 107.548C328.553 107.573 329.669 108.527 329.701 109.67C329.735 110.813 328.674 111.75 327.346 111.75Z" fill="#E5ECFD"/>
<path d="M334.572 168.279H164.441C163.111 168.279 161.347 167.429 160.519 166.389L159.094 164.6C158.271 163.567 158.672 162.729 159.982 162.729C159.99 162.729 159.998 162.729 160.006 162.729L334.297 164.102C335.627 164.112 336.776 165.056 336.851 166.2C336.927 167.345 335.902 168.279 334.572 168.279Z" fill="#E5ECFD"/>
<path d="M334.572 183.101H164.441C163.111 183.101 161.347 182.251 160.519 181.209L159.094 179.42C158.271 178.387 158.672 177.549 159.982 177.549C159.99 177.549 159.998 177.549 160.006 177.549L334.297 178.924C335.627 178.934 336.776 179.878 336.851 181.022C336.927 182.165 335.902 183.101 334.572 183.101Z" fill="#E5ECFD"/>
<path d="M179.887 250.761C179.877 250.761 179.868 250.761 179.858 250.761L168.104 250.649C166.658 250.634 165.458 249.648 165.324 248.365L164.29 238.502C164.184 237.481 165.031 236.579 166.176 236.5C169.267 236.289 175.983 235.607 179.169 235.567C179.182 235.567 179.197 235.567 179.209 235.567C180.542 235.567 181.705 236.378 182.019 237.536C182.633 239.81 182.552 244.34 182.446 248.522C182.413 249.766 181.278 250.761 179.887 250.761Z" fill="#E5ECFD"/>
<path d="M198.163 247.599C196.506 247.599 195.055 246.483 194.631 244.879C194.02 242.561 195.768 240.294 198.162 240.294C198.168 240.294 198.175 240.294 198.179 240.294L334.286 240.915C335.783 240.921 337.003 242.12 337.035 243.616C337.069 245.155 335.836 246.425 334.297 246.439L198.194 247.599C198.184 247.599 198.173 247.599 198.163 247.599Z" fill="#E5ECFD"/>
<path d="M179.887 282.289C179.877 282.289 179.868 282.289 179.858 282.289L168.104 282.176C166.658 282.161 165.458 281.176 165.324 279.892L164.29 270.029C164.184 269.01 165.031 268.106 166.176 268.028C169.267 267.816 175.983 267.134 179.169 267.095C179.182 267.095 179.197 267.095 179.209 267.095C180.542 267.095 181.705 267.905 182.019 269.063C182.633 271.337 182.552 275.868 182.446 280.049C182.413 281.294 181.278 282.289 179.887 282.289Z" fill="#E5ECFD"/>
<path d="M198.163 279.126C196.506 279.126 195.055 278.01 194.631 276.405C194.02 274.088 195.768 271.822 198.163 271.822C198.168 271.822 198.175 271.822 198.179 271.822L334.286 272.442C335.783 272.45 337.003 273.646 337.035 275.144C337.069 276.684 335.837 277.953 334.297 277.966L198.194 279.126C198.184 279.126 198.173 279.126 198.163 279.126Z" fill="#E5ECFD"/>
<path d="M179.887 313.816C179.877 313.816 179.868 313.816 179.858 313.816L168.104 313.702C166.658 313.689 165.458 312.703 165.324 311.419L164.29 301.557C164.184 300.536 165.031 299.632 166.176 299.555C169.267 299.343 175.983 298.662 179.169 298.622C179.182 298.622 179.197 298.622 179.209 298.622C180.542 298.622 181.705 299.432 182.019 300.591C182.633 302.864 182.552 307.395 182.446 311.577C182.413 312.821 181.278 313.816 179.887 313.816Z" fill="#E5ECFD"/>
<path d="M198.163 310.654C196.505 310.654 195.055 309.536 194.631 307.932C194.02 305.615 195.768 303.349 198.163 303.349C198.168 303.349 198.175 303.349 198.179 303.349L334.286 303.97C335.783 303.976 337.003 305.175 337.035 306.671C337.069 308.21 335.836 309.48 334.297 309.493L198.194 310.654C198.184 310.654 198.173 310.654 198.163 310.654Z" fill="#E5ECFD"/>
<path d="M179.887 345.342C179.877 345.342 179.868 345.342 179.858 345.342L168.104 345.229C166.658 345.216 165.458 344.231 165.324 342.947L164.29 333.084C164.184 332.063 165.031 331.161 166.176 331.081C169.267 330.871 175.983 330.189 179.169 330.148C179.182 330.148 179.197 330.148 179.209 330.148C180.542 330.148 181.705 330.96 182.019 332.118C182.633 334.39 182.552 338.922 182.446 343.104C182.413 344.348 181.278 345.342 179.887 345.342Z" fill="#E5ECFD"/>
<path d="M198.163 342.181C196.505 342.181 195.055 341.065 194.631 339.46C194.02 337.143 195.768 334.875 198.163 334.875C198.168 334.875 198.175 334.875 198.179 334.875L334.286 335.497C335.783 335.503 337.003 336.701 337.035 338.197C337.069 339.737 335.836 341.006 334.297 341.019L198.194 342.181C198.184 342.181 198.173 342.181 198.163 342.181Z" fill="#E5ECFD"/>
<path d="M178.589 223.329C178.58 223.329 178.57 223.329 178.56 223.329L166.804 223.216C165.36 223.203 164.159 222.216 164.024 220.934L162.991 211.07C162.884 210.05 163.733 209.147 164.878 209.068C167.969 208.856 174.685 208.175 177.87 208.135C177.884 208.135 177.897 208.135 177.912 208.135C179.244 208.135 180.407 208.945 180.721 210.105C181.335 212.377 181.253 216.908 181.148 221.091C181.116 222.334 179.98 223.329 178.589 223.329Z" fill="#E5ECFD"/>
<path d="M196.865 220.167C195.209 220.167 193.756 219.051 193.334 217.447C192.723 215.128 194.471 212.862 196.865 212.862C196.871 212.862 196.876 212.862 196.882 212.862L332.989 213.483C334.486 213.489 335.704 214.688 335.736 216.184C335.77 217.723 334.54 218.993 333 219.006L196.897 220.167C196.886 220.167 196.876 220.167 196.865 220.167Z" fill="#E5ECFD"/>
<mask id="mask4_312_1216" style="mask-type:luminance" maskUnits="userSpaceOnUse" x="227" y="3" width="33" height="35">
<path d="M242.193 25.2027C238.97 25.2027 236.358 22.5909 236.358 19.3677C236.358 16.1445 238.97 13.531 242.193 13.531C245.417 13.531 248.03 16.1445 248.03 19.3677C248.03 22.5909 245.417 25.2027 242.193 25.2027ZM252.486 7.88358C245.035 2.70029 238.556 2.80217 233.996 4.14935C229.834 5.37684 227.138 9.39245 227.535 13.7121L229.501 35.1811L252.906 37.2577C252.906 37.2577 267.099 18.0496 252.486 7.88358Z" fill="white"/>
</mask>
<g mask="url(#mask4_312_1216)">
<path d="M242.193 25.2027C238.97 25.2027 236.358 22.5909 236.358 19.3677C236.358 16.1445 238.97 13.531 242.193 13.531C245.417 13.531 248.03 16.1445 248.03 19.3677C248.03 22.5909 245.417 25.2027 242.193 25.2027ZM252.486 7.88358C245.035 2.70029 238.556 2.80217 233.996 4.14935C229.834 5.37684 227.138 9.39245 227.535 13.7121L229.501 35.1811L252.906 37.2577C252.906 37.2577 267.099 18.0496 252.486 7.88358Z" fill="#282142"/>
</g>
<path d="M231.225 19.4502C230.937 19.4502 230.689 19.2303 230.663 18.9359L230.424 16.3419C230.047 12.226 232.636 8.39471 236.581 7.23029C239.375 6.40549 242.253 6.28742 245.135 6.87933C245.44 6.94078 245.637 7.24 245.574 7.54566C245.513 7.85132 245.217 8.04537 244.908 7.98553C242.209 7.43244 239.515 7.54242 236.901 8.31385C233.473 9.32625 231.221 12.6594 231.55 16.2384L231.787 18.8341C231.816 19.1446 231.587 19.4195 231.276 19.4486C231.259 19.4502 231.242 19.4502 231.225 19.4502ZM231.839 26.1505C231.55 26.1505 231.304 25.9306 231.276 25.6362L230.964 22.2173C230.935 21.9068 231.163 21.6319 231.474 21.6044C231.791 21.5737 232.061 21.805 232.088 22.1155L232.402 25.5343C232.429 25.8448 232.201 26.1198 231.891 26.1473C231.873 26.1489 231.855 26.1505 231.839 26.1505Z" fill="#7F74D1"/>
<mask id="mask5_312_1216" style="mask-type:luminance" maskUnits="userSpaceOnUse" x="197" y="31" width="89" height="20">
<path d="M197.557 49.0555V38.2604C197.557 34.5359 200.646 31.5504 204.369 31.6782L278.786 34.2286C282.089 34.3418 284.764 36.9488 284.961 40.2464L285.582 50.6178L197.557 49.0555Z" fill="white"/>
</mask>
<g mask="url(#mask5_312_1216)">
<path d="M197.557 49.0555V38.2604C197.557 34.5359 200.646 31.5504 204.369 31.6782L278.786 34.2286C282.089 34.3418 284.764 36.9488 284.961 40.2464L285.582 50.6178L197.557 49.0555Z" fill="#282142"/>
</g>
<path d="M225.305 35.7456H222.105C221.793 35.7456 221.541 35.4935 221.541 35.1816C221.541 34.8697 221.793 34.6176 222.105 34.6176H225.305C225.618 34.6176 225.87 34.8697 225.87 35.1816C225.87 35.4935 225.618 35.7456 225.305 35.7456Z" fill="#7F74D1"/>
<path d="M201.585 45.6657C201.273 45.6657 201.021 45.4134 201.021 45.1013V40.7347C201.021 37.3611 203.765 34.6167 207.139 34.6167H218.905C219.217 34.6167 219.469 34.8689 219.469 35.1811C219.469 35.4932 219.217 35.7455 218.905 35.7455H207.139C204.388 35.7455 202.15 37.9838 202.15 40.7347V45.1013C202.15 45.4134 201.898 45.6657 201.585 45.6657Z" fill="#7F74D1"/>
<mask id="mask6_312_1216" style="mask-type:luminance" maskUnits="userSpaceOnUse" x="166" y="45" width="149" height="19">
<path d="M167.235 51.7805C167.414 48.043 170.499 45.1045 174.239 45.1045L304.371 45.1013C309.05 45.1013 313.051 48.4684 313.848 53.0792L313.96 53.7147C314.833 58.7654 310.945 63.3843 305.82 63.3843H172.313C169.245 63.3843 166.802 60.8193 166.949 57.7562L167.235 51.7805Z" fill="white"/>
</mask>
<g mask="url(#mask6_312_1216)">
<path d="M167.235 51.7805C167.414 48.043 170.499 45.1045 174.239 45.1045L304.371 45.1013C309.05 45.1013 313.051 48.4684 313.848 53.0792L313.96 53.7147C314.833 58.7654 310.945 63.3843 305.82 63.3843H172.313C169.245 63.3843 166.802 60.8193 166.949 57.7562L167.235 51.7805Z" fill="#372D5B"/>
</g>
<mask id="mask7_312_1216" style="mask-type:luminance" maskUnits="userSpaceOnUse" x="182" y="86" width="28" height="58">
<path d="M188.214 137.683C188.214 135.695 188.748 134.165 189.819 133.094C190.888 132.025 192.444 131.49 194.483 131.49C196.547 131.49 198.107 132.038 199.165 133.133C200.221 134.228 200.75 135.745 200.75 137.683C200.75 139.596 200.208 141.106 199.126 142.214C198.044 143.322 196.496 143.875 194.483 143.875C192.468 143.875 190.92 143.333 189.838 142.251C188.755 141.169 188.214 139.646 188.214 137.683ZM189.989 125.071V122.429C189.989 120.011 190.361 117.904 191.103 116.104C191.845 114.304 193.199 112.371 195.162 110.307C197.024 108.268 198.214 106.67 198.73 105.512C199.246 104.354 199.504 102.881 199.504 101.094C199.504 99.4572 199.126 98.1246 198.371 97.0912C197.617 96.0594 196.42 95.5435 194.784 95.5435C192.065 95.5435 189.207 96.5122 186.212 98.4513L182.664 90.8987C186.615 88.206 190.995 86.8588 195.804 86.8588C199.957 86.8588 203.235 88.0103 205.64 90.3133C208.044 92.6162 209.247 95.82 209.247 99.923C209.247 102.794 208.831 105.229 208 107.23C207.17 109.23 205.445 111.642 202.828 114.46C201.14 116.299 200.064 117.714 199.598 118.709C199.133 119.704 198.9 121.056 198.9 122.768V125.071H189.989Z" fill="white"/>
</mask>
<g mask="url(#mask7_312_1216)">
<path d="M188.214 137.683C188.214 135.695 188.748 134.165 189.819 133.094C190.888 132.025 192.444 131.49 194.483 131.49C196.547 131.49 198.107 132.038 199.165 133.133C200.221 134.228 200.75 135.745 200.75 137.683C200.75 139.596 200.208 141.106 199.126 142.214C198.044 143.322 196.496 143.875 194.483 143.875C192.468 143.875 190.92 143.333 189.838 142.251C188.755 141.169 188.214 139.646 188.214 137.683ZM189.989 125.071V122.429C189.989 120.011 190.361 117.904 191.103 116.104C191.845 114.304 193.199 112.371 195.162 110.307C197.024 108.268 198.214 106.67 198.73 105.512C199.246 104.354 199.504 102.881 199.504 101.094C199.504 99.4572 199.126 98.1246 198.371 97.0912C197.617 96.0594 196.42 95.5435 194.784 95.5435C192.065 95.5435 189.207 96.5122 186.212 98.4513L182.664 90.8987C186.615 88.206 190.995 86.8588 195.804 86.8588C199.957 86.8588 203.235 88.0103 205.64 90.3133C208.044 92.6162 209.247 95.82 209.247 99.923C209.247 102.794 208.831 105.229 208 107.23C207.17 109.23 205.445 111.642 202.828 114.46C201.14 116.299 200.064 117.714 199.598 118.709C199.133 119.704 198.9 121.056 198.9 122.768V125.071H189.989Z" fill="#F28705"/>
</g>
<mask id="mask8_312_1216" style="mask-type:luminance" maskUnits="userSpaceOnUse" x="99" y="439" width="30" height="14">
<path d="M100.978 439.12C100.978 439.12 100.124 443.948 99.7065 448.728C99.5431 450.596 100.982 452.218 102.857 452.296C109.221 452.561 122.836 453.077 127.721 452.859C128.456 452.826 128.937 452.074 128.663 451.39C128.437 450.818 127.997 450.355 127.437 450.098L104.948 439.762L100.978 439.12Z" fill="white"/>
</mask>
<g mask="url(#mask8_312_1216)">
<path d="M100.978 439.12C100.978 439.12 100.124 443.948 99.7065 448.728C99.5431 450.596 100.982 452.218 102.857 452.296C109.221 452.561 122.836 453.077 127.721 452.859C128.456 452.826 128.937 452.074 128.663 451.39C128.437 450.818 127.997 450.355 127.437 450.098L104.948 439.762L100.978 439.12Z" fill="url(#paint4_linear_312_1216)"/>
</g>
<mask id="mask9_312_1216" style="mask-type:luminance" maskUnits="userSpaceOnUse" x="100" y="435" width="8" height="8">
<path d="M100.279 436.284L100.963 442.059C100.963 442.059 104.903 443.893 107.594 441.827L105.962 435.391L100.279 436.284Z" fill="white"/>
</mask>
<g mask="url(#mask9_312_1216)">
<path d="M100.279 436.284L100.963 442.059C100.963 442.059 104.903 443.893 107.594 441.827L105.962 435.391L100.279 436.284Z" fill="url(#paint5_linear_312_1216)"/>
</g>
<mask id="mask10_312_1216" style="mask-type:luminance" maskUnits="userSpaceOnUse" x="82" y="327" width="26" height="112">
<path d="M100.793 327.706C100.497 329.213 99.2053 402.968 107.088 436.02C107.217 436.558 106.944 437.115 106.431 437.325C105.221 437.818 102.851 438.533 100.009 438.629C99.1293 438.659 98.3417 438.087 98.0926 437.243C95.8398 429.574 85.0409 391.153 83.6321 354.451C82.0582 313.439 83.6321 353.053 83.6321 353.053L84.5554 327.703L100.793 327.706Z" fill="white"/>
</mask>
<g mask="url(#mask10_312_1216)">
<path d="M100.793 327.706C100.497 329.213 99.2053 402.968 107.088 436.02C107.217 436.558 106.944 437.115 106.431 437.325C105.221 437.818 102.851 438.533 100.009 438.629C99.1293 438.659 98.3417 438.087 98.0926 437.243C95.8398 429.574 85.0409 391.153 83.6321 354.451C82.0582 313.439 83.6321 353.053 83.6321 353.053L84.5554 327.703L100.793 327.706Z" fill="url(#paint6_linear_312_1216)"/>
</g>
<mask id="mask11_312_1216" style="mask-type:luminance" maskUnits="userSpaceOnUse" x="72" y="441" width="13" height="13">
<path d="M75.1072 441.638C75.1072 441.638 73.7497 444.077 72.4352 450.554C72.1977 451.724 73.0151 452.843 74.203 452.959C76.3048 453.166 79.5402 453.433 82.1319 453.415C83.3265 453.405 84.259 452.366 84.1149 451.18C83.8279 448.816 82.9335 444.938 80.1708 441.913L75.1072 441.638Z" fill="white"/>
</mask>
<g mask="url(#mask11_312_1216)">
<path d="M75.1072 441.638C75.1072 441.638 73.7497 444.077 72.4352 450.554C72.1977 451.724 73.0151 452.843 74.203 452.959C76.3048 453.166 79.5402 453.433 82.1319 453.415C83.3265 453.405 84.259 452.366 84.1149 451.18C83.8279 448.816 82.9335 444.938 80.1708 441.913L75.1072 441.638Z" fill="url(#paint7_linear_312_1216)"/>
</g>
<mask id="mask12_312_1216" style="mask-type:luminance" maskUnits="userSpaceOnUse" x="73" y="433" width="8" height="11">
<path d="M73.915 434.21L75.5161 442.945C75.5161 442.945 77.0992 444.122 80.2309 443.268L79.4667 433.872L73.915 434.21Z" fill="white"/>
</mask>
<g mask="url(#mask12_312_1216)">
<path d="M73.915 434.21L75.5161 442.945C75.5161 442.945 77.0992 444.122 80.2309 443.268L79.4667 433.872L73.915 434.21Z" fill="url(#paint8_linear_312_1216)"/>
</g>
<mask id="mask13_312_1216" style="mask-type:luminance" maskUnits="userSpaceOnUse" x="67" y="325" width="35" height="114">
<path d="M69.5896 329.969C63.1417 368.881 70.9883 426.147 73.6346 437.354C73.7967 438.04 74.3504 438.565 75.0458 438.682C76.2271 438.878 78.1718 439.036 80.0891 438.48C80.7497 438.287 81.2137 437.692 81.2407 437.005C81.5957 427.943 80.9567 372.316 86.9645 350.332C87.2685 349.217 87.9494 348.247 88.8906 347.577L100.553 339.287L101.445 325.887L69.5896 329.969Z" fill="white"/>
</mask>
<g mask="url(#mask13_312_1216)">
<path d="M69.5896 329.969C63.1417 368.881 70.9883 426.147 73.6346 437.354C73.7967 438.04 74.3504 438.565 75.0458 438.682C76.2271 438.878 78.1718 439.036 80.0891 438.48C80.7497 438.287 81.2137 437.692 81.2407 437.005C81.5957 427.943 80.9567 372.316 86.9645 350.332C87.2685 349.217 87.9494 348.247 88.8906 347.577L100.553 339.287L101.445 325.887L69.5896 329.969Z" fill="url(#paint9_linear_312_1216)"/>
</g>
<mask id="mask14_312_1216" style="mask-type:luminance" maskUnits="userSpaceOnUse" x="67" y="253" width="72" height="82">
<path d="M110.674 256.237C91.3513 255.916 70.0311 261.31 70.0311 261.31C64.2713 294.918 69.0239 333.682 69.0239 333.682C83.9831 337.605 100.858 331.284 100.858 331.284C103.345 317.236 114.945 277.702 114.945 277.702C124.387 276.532 132.164 273.806 138.569 270.206C133.683 264.543 131.38 257.336 130.379 253.078C123.548 255.2 116.634 256.335 110.674 256.237Z" fill="white"/>
</mask>
<g mask="url(#mask14_312_1216)">
<path d="M110.674 256.237C91.3513 255.916 70.0311 261.31 70.0311 261.31C64.2713 294.918 69.0239 333.682 69.0239 333.682C83.9831 337.605 100.858 331.284 100.858 331.284C103.345 317.236 114.945 277.702 114.945 277.702C124.387 276.532 132.164 273.806 138.569 270.206C133.683 264.543 131.38 257.336 130.379 253.078C123.548 255.2 116.634 256.335 110.674 256.237Z" fill="#F28705"/>
</g>
<mask id="mask15_312_1216" style="mask-type:luminance" maskUnits="userSpaceOnUse" x="130" y="226" width="38" height="45">
<path d="M167.752 227.775C165.854 225.481 163.451 226.567 163.451 226.567C160.607 238.578 145.698 248.317 130.379 253.078C131.38 257.336 133.683 264.543 138.569 270.206C163.991 255.913 167.752 227.775 167.752 227.775Z" fill="white"/>
</mask>
<g mask="url(#mask15_312_1216)">
<path d="M167.752 227.775C165.854 225.481 163.451 226.567 163.451 226.567C160.607 238.578 145.698 248.317 130.379 253.078C131.38 257.336 133.683 264.543 138.569 270.206C163.991 255.913 167.752 227.775 167.752 227.775Z" fill="url(#paint10_linear_312_1216)"/>
</g>
<mask id="mask16_312_1216" style="mask-type:luminance" maskUnits="userSpaceOnUse" x="163" y="207" width="13" height="23">
<path d="M167.292 228.357C167.491 228.989 165.19 229.95 163.836 227.369C163.789 226.13 163.036 220.828 163.776 219.819C167.714 214.45 175.351 207.717 175.351 207.717C176.642 208.992 175.579 210.242 175.579 210.242L171.874 214.102C172.649 215.501 173.595 216.683 174.036 218.378C174.373 219.661 174.167 221.031 173.519 222.198C172.869 223.369 171.982 224.893 171.143 226.085C169.555 228.341 167.292 228.357 167.292 228.357Z" fill="white"/>
</mask>
<g mask="url(#mask16_312_1216)">
<path d="M167.292 228.357C167.491 228.989 165.19 229.95 163.836 227.369C163.789 226.13 163.036 220.828 163.776 219.819C167.714 214.45 175.351 207.717 175.351 207.717C176.642 208.992 175.579 210.242 175.579 210.242L171.874 214.102C172.649 215.501 173.595 216.683 174.036 218.378C174.373 219.661 174.167 221.031 173.519 222.198C172.869 223.369 171.982 224.893 171.143 226.085C169.555 228.341 167.292 228.357 167.292 228.357Z" fill="url(#paint11_linear_312_1216)"/>
</g>
<mask id="mask17_312_1216" style="mask-type:luminance" maskUnits="userSpaceOnUse" x="165" y="216" width="6" height="10">
<path d="M170.253 216.606L166.878 219.468L165.817 222.316L168.827 225.656C168.827 225.656 169.839 220.002 170.591 218.779C171.343 217.555 170.953 216.963 170.253 216.606Z" fill="white"/>
</mask>
<g mask="url(#mask17_312_1216)">
<path d="M170.253 216.606L166.878 219.468L165.817 222.316L168.827 225.656C168.827 225.656 169.839 220.002 170.591 218.779C171.343 217.555 170.953 216.963 170.253 216.606Z" fill="url(#paint12_linear_312_1216)"/>
</g>
<mask id="mask18_312_1216" style="mask-type:luminance" maskUnits="userSpaceOnUse" x="49" y="261" width="29" height="33">
<path d="M77.4425 280.02L70.0311 261.31C70.0311 261.31 51.9823 273.573 49.0142 289.122C52.4245 289.372 58.63 290.26 64.7042 293.327C66.0391 285.984 77.4425 280.02 77.4425 280.02Z" fill="white"/>
</mask>
<g mask="url(#mask18_312_1216)">
<path d="M77.4425 280.02L70.0311 261.31C70.0311 261.31 51.9823 273.573 49.0142 289.122C52.4245 289.372 58.63 290.26 64.7042 293.327C66.0391 285.984 77.4425 280.02 77.4425 280.02Z" fill="url(#paint13_linear_312_1216)"/>
</g>
<mask id="mask19_312_1216" style="mask-type:luminance" maskUnits="userSpaceOnUse" x="48" y="289" width="48" height="25">
<path d="M93.2152 297.625C93.2152 297.625 72.9517 309.079 66.1143 299.299C64.6947 297.268 64.3554 295.251 64.7051 293.327C58.6308 290.26 52.4253 289.372 49.015 289.122C48.12 293.809 48.5932 298.795 51.3475 303.832C63.3244 325.741 95.8983 302.623 95.8983 302.623L93.2152 297.625Z" fill="white"/>
</mask>
<g mask="url(#mask19_312_1216)">
<path d="M93.2152 297.625C93.2152 297.625 72.9517 309.079 66.1143 299.299C64.6947 297.268 64.3554 295.251 64.7051 293.327C58.6308 290.26 52.4253 289.372 49.015 289.122C48.12 293.809 48.5932 298.795 51.3475 303.832C63.3244 325.741 95.8983 302.623 95.8983 302.623L93.2152 297.625Z" fill="url(#paint14_linear_312_1216)"/>
</g>
<mask id="mask20_312_1216" style="mask-type:luminance" maskUnits="userSpaceOnUse" x="90" y="270" width="52" height="44">
<path d="M90.7816 312.114L101.84 273.493C101.967 273.054 102.34 272.734 102.793 272.681C104.797 272.448 110.603 271.791 117.308 271.224C125.383 270.541 134.76 269.988 140.363 270.459C141.159 270.525 141.641 271.368 141.287 272.084C138.101 278.532 124.993 304.756 118.429 313.347C118.212 313.631 117.875 313.798 117.516 313.795L91.8571 313.555C91.1099 313.549 90.5762 312.832 90.7816 312.114Z" fill="white"/>
</mask>
<g mask="url(#mask20_312_1216)">
<path d="M90.7816 312.114L101.84 273.493C101.967 273.054 102.34 272.734 102.793 272.681C104.797 272.448 110.603 271.791 117.308 271.224C125.383 270.541 134.76 269.988 140.363 270.459C141.159 270.525 141.641 271.368 141.287 272.084C138.101 278.532 124.993 304.756 118.429 313.347C118.212 313.631 117.875 313.798 117.516 313.795L91.8571 313.555C91.1099 313.549 90.5762 312.832 90.7816 312.114Z" fill="#372D5B"/>
</g>
<path d="M118.454 267.876L126.472 266.54C126.899 266.469 127.249 266.877 127.113 267.287L126.32 269.692C126.251 269.902 126.068 270.054 125.85 270.084L118.134 271.114C117.734 271.167 117.404 270.805 117.497 270.412L117.988 268.313C118.042 268.086 118.224 267.913 118.454 267.876Z" fill="#282142"/>
<path d="M112.45 274.664L113.11 271.224C113.177 270.878 113.461 270.617 113.811 270.582L130.006 268.939C130.551 268.884 130.987 269.383 130.86 269.915L129.829 274.203C129.747 274.546 129.449 274.793 129.097 274.811L113.27 275.608C112.756 275.634 112.352 275.17 112.45 274.664Z" fill="#282142"/>
<mask id="mask21_312_1216" style="mask-type:luminance" maskUnits="userSpaceOnUse" x="92" y="289" width="16" height="14">
<path d="M93.4529 302.783C93.4529 302.783 91.9133 296.448 92.5343 294.202C93.1553 291.954 94.3602 289.064 98.3726 289.706C102.387 290.348 107.12 292.039 107.12 292.039C107.12 292.039 106.881 294.967 103.831 294.022L105.723 295.486C105.723 295.486 105.451 297.829 102.875 296.577L104.635 298.518C104.635 298.518 103.528 300.443 101.633 299.209C99.7375 297.973 98.8287 303.546 93.4529 302.783Z" fill="white"/>
</mask>
<g mask="url(#mask21_312_1216)">
<path d="M93.4529 302.783C93.4529 302.783 91.9133 296.448 92.5343 294.202C93.1553 291.954 94.3602 289.064 98.3726 289.706C102.387 290.348 107.12 292.039 107.12 292.039C107.12 292.039 106.881 294.967 103.831 294.022L105.723 295.486C105.723 295.486 105.451 297.829 102.875 296.577L104.635 298.518C104.635 298.518 103.528 300.443 101.633 299.209C99.7375 297.973 98.8287 303.546 93.4529 302.783Z" fill="url(#paint15_linear_312_1216)"/>
</g>
<mask id="mask22_312_1216" style="mask-type:luminance" maskUnits="userSpaceOnUse" x="84" y="240" width="20" height="21">
<path d="M91.1032 240.549L84.9548 258.329C84.8529 258.624 84.974 258.95 85.2467 259.101C86.9226 260.027 92.9614 262.706 100.237 258.092C100.996 257.611 101.512 256.829 101.627 255.937L103.618 240.549H91.1032Z" fill="white"/>
</mask>
<g mask="url(#mask22_312_1216)">
<path d="M91.1032 240.549L84.9548 258.329C84.8529 258.624 84.974 258.95 85.2467 259.101C86.9226 260.027 92.9614 262.706 100.237 258.092C100.996 257.611 101.512 256.829 101.627 255.937L103.618 240.549H91.1032Z" fill="url(#paint16_linear_312_1216)"/>
</g>
<mask id="mask23_312_1216" style="mask-type:luminance" maskUnits="userSpaceOnUse" x="88" y="224" width="23" height="22">
<path d="M104.481 224.084C104.481 224.084 111.232 236.793 110.366 241.926C109.501 247.06 101.134 246.692 93.8268 242.522L88.7212 228.8L104.481 224.084Z" fill="white"/>
</mask>
<g mask="url(#mask23_312_1216)">
<path d="M104.481 224.084C104.481 224.084 111.232 236.793 110.366 241.926C109.501 247.06 101.134 246.692 93.8268 242.522L88.7212 228.8L104.481 224.084Z" fill="url(#paint17_linear_312_1216)"/>
</g>
<mask id="mask24_312_1216" style="mask-type:luminance" maskUnits="userSpaceOnUse" x="79" y="214" width="29" height="30">
<path d="M94.1501 235.783C94.4476 235.651 94.556 235.288 94.3797 235.017C93.8379 234.19 92.8239 232.503 92.5005 231.029C92.5005 231.029 91.2875 230.251 95.5894 229.22C99.8929 228.19 106.309 226.592 107.657 222.929C108.972 219.358 105.518 210.379 100.006 217.534C99.7959 217.806 99.3851 217.812 99.1765 217.541C98.2724 216.363 95.8967 213.923 92.5975 215.403C89.5118 216.787 89.1641 219.05 89.2061 220.19C89.2191 220.525 88.9183 220.785 88.59 220.722C87.0293 220.424 83.2839 220.169 81.536 224.011C80.0963 227.175 81.0321 228.967 81.8842 229.843C82.1604 230.126 82.0394 230.594 81.6607 230.71C80.6352 231.024 79.3108 231.894 79.4433 234.295C79.6267 237.617 83.3405 237.324 84.398 237.174C84.5714 237.148 84.7459 237.208 84.8632 237.337C85.77 238.342 89.8547 242.602 94.2762 243.116C94.6595 243.16 94.9555 242.781 94.8309 242.417L92.9177 236.856C92.8288 236.597 92.9517 236.314 93.2008 236.204L94.1501 235.783Z" fill="white"/>
</mask>
<g mask="url(#mask24_312_1216)">
<path d="M94.1501 235.783C94.4476 235.651 94.556 235.288 94.3797 235.017C93.8379 234.19 92.8239 232.503 92.5005 231.029C92.5005 231.029 91.2875 230.251 95.5894 229.22C99.8929 228.19 106.309 226.592 107.657 222.929C108.972 219.358 105.518 210.379 100.006 217.534C99.7959 217.806 99.3851 217.812 99.1765 217.541C98.2724 216.363 95.8967 213.923 92.5975 215.403C89.5118 216.787 89.1641 219.05 89.2061 220.19C89.2191 220.525 88.9183 220.785 88.59 220.722C87.0293 220.424 83.2839 220.169 81.536 224.011C80.0963 227.175 81.0321 228.967 81.8842 229.843C82.1604 230.126 82.0394 230.594 81.6607 230.71C80.6352 231.024 79.3108 231.894 79.4433 234.295C79.6267 237.617 83.3405 237.324 84.398 237.174C84.5714 237.148 84.7459 237.208 84.8632 237.337C85.77 238.342 89.8547 242.602 94.2762 243.116C94.6595 243.16 94.9555 242.781 94.8309 242.417L92.9177 236.856C92.8288 236.597 92.9517 236.314 93.2008 236.204L94.1501 235.783Z" fill="url(#paint18_linear_312_1216)"/>
</g>
<mask id="mask25_312_1216" style="mask-type:luminance" maskUnits="userSpaceOnUse" x="89" y="234" width="8" height="6">
<path d="M94.9199 236.573C94.9199 236.573 90.1118 233.273 89.7609 236.052C89.4099 238.829 94.0903 240.074 96.4078 239.039L94.9199 236.573Z" fill="white"/>
</mask>
<g mask="url(#mask25_312_1216)">
<path d="M94.9199 236.573C94.9199 236.573 90.1118 233.273 89.7609 236.052C89.4099 238.829 94.0903 240.074 96.4078 239.039L94.9199 236.573Z" fill="url(#paint19_linear_312_1216)"/>
</g>
<mask id="mask26_312_1216" style="mask-type:luminance" maskUnits="userSpaceOnUse" x="322" y="232" width="45" height="51">
<path d="M323.684 232.853C324 232.248 324.896 232.343 325.078 233.002C325.755 235.437 327.393 239.687 330.829 241.196C331.003 241.272 331.166 241.348 331.324 241.426C331.481 240.958 331.483 240.417 331.109 239.846C330.04 238.212 331.97 235.982 331.97 235.982C331.97 235.982 332.097 237.947 333.59 239.183C334.876 240.248 335.494 242.619 334.614 244.563C332.754 251.788 329.969 261.342 340.818 268.322C351.666 275.302 366.944 255.148 366.944 255.148L359.361 279.187C359.361 279.187 347.657 287.823 334.045 275.679C320.431 263.534 329.453 245.862 329.453 245.862C329.453 245.862 319.07 241.673 323.684 232.853Z" fill="white"/>
</mask>
<g mask="url(#mask26_312_1216)">
<path d="M323.684 232.853C324 232.248 324.896 232.343 325.078 233.002C325.755 235.437 327.393 239.687 330.829 241.196C331.003 241.272 331.166 241.348 331.324 241.426C331.481 240.958 331.483 240.417 331.109 239.846C330.04 238.212 331.97 235.982 331.97 235.982C331.97 235.982 332.097 237.947 333.59 239.183C334.876 240.248 335.494 242.619 334.614 244.563C332.754 251.788 329.969 261.342 340.818 268.322C351.666 275.302 366.944 255.148 366.944 255.148L359.361 279.187C359.361 279.187 347.657 287.823 334.045 275.679C320.431 263.534 329.453 245.862 329.453 245.862C329.453 245.862 319.07 241.673 323.684 232.853Z" fill="url(#paint20_linear_312_1216)"/>
</g>
<mask id="mask27_312_1216" style="mask-type:luminance" maskUnits="userSpaceOnUse" x="363" y="208" width="53" height="62">
<path d="M368.844 219.831C368.844 219.831 365.701 205.732 381.85 209.464C381.85 209.464 389.688 208.183 390.088 215.582C390.088 215.582 395.14 218.912 391.44 225.315C391.44 225.315 406.458 219.514 412.999 232.677C419.543 245.839 413.528 253.081 407.224 254.967C407.224 254.967 412.332 257.532 409.914 263.323C407.496 269.115 395.252 273.197 388.019 266.154C388.019 266.154 367.437 268.874 367.849 254.336C367.849 254.336 358.277 248.155 368.331 236.141C378.385 224.126 368.844 219.831 368.844 219.831Z" fill="white"/>
</mask>
<g mask="url(#mask27_312_1216)">
<path d="M368.844 219.831C368.844 219.831 365.701 205.732 381.85 209.464C381.85 209.464 389.688 208.183 390.088 215.582C390.088 215.582 395.14 218.912 391.44 225.315C391.44 225.315 406.458 219.514 412.999 232.677C419.543 245.839 413.528 253.081 407.224 254.967C407.224 254.967 412.332 257.532 409.914 263.323C407.496 269.115 395.252 273.197 388.019 266.154C388.019 266.154 367.437 268.874 367.849 254.336C367.849 254.336 358.277 248.155 368.331 236.141C378.385 224.126 368.844 219.831 368.844 219.831Z" fill="url(#paint21_linear_312_1216)"/>
</g>
<mask id="mask28_312_1216" style="mask-type:luminance" maskUnits="userSpaceOnUse" x="355" y="251" width="37" height="65">
<path d="M367.957 252.507C371.201 251.535 380.651 249.739 389.638 258.033C391.162 259.439 391.786 261.577 391.241 263.579C388.828 272.466 382.459 298.72 388.044 310.081C388.044 310.081 378.203 320.93 367.466 312.185C367.466 312.185 362.649 291.192 356.339 281.975C351.984 275.613 363.285 258.082 366.144 253.846C366.578 253.204 367.217 252.73 367.957 252.507Z" fill="white"/>
</mask>
<g mask="url(#mask28_312_1216)">
<path d="M367.957 252.507C371.201 251.535 380.651 249.739 389.638 258.033C391.162 259.439 391.786 261.577 391.241 263.579C388.828 272.466 382.459 298.72 388.044 310.081C388.044 310.081 378.203 320.93 367.466 312.185C367.466 312.185 362.649 291.192 356.339 281.975C351.984 275.613 363.285 258.082 366.144 253.846C366.578 253.204 367.217 252.73 367.957 252.507Z" fill="#F28705"/>
</g>
<mask id="mask29_312_1216" style="mask-type:luminance" maskUnits="userSpaceOnUse" x="370" y="234" width="13" height="22">
<path d="M376.917 234.852C376.917 234.852 381.717 248.427 382.078 254.416C382.078 254.416 376.773 256.827 371.776 252.756C371.776 252.756 371.25 239.197 370.493 236.77L376.917 234.852Z" fill="white"/>
</mask>
<g mask="url(#mask29_312_1216)">
<path d="M376.917 234.852C376.917 234.852 381.717 248.427 382.078 254.416C382.078 254.416 376.773 256.827 371.776 252.756C371.776 252.756 371.25 239.197 370.493 236.77L376.917 234.852Z" fill="url(#paint22_linear_312_1216)"/>
</g>
<mask id="mask30_312_1216" style="mask-type:luminance" maskUnits="userSpaceOnUse" x="362" y="216" width="21" height="25">
<path d="M370.25 216.342C370.25 216.342 357.697 233.91 365.201 239.013C372.705 244.115 381.64 231.63 381.64 231.63C381.64 231.63 384.553 222.016 381.508 218.754C378.463 215.493 370.25 216.342 370.25 216.342Z" fill="white"/>
</mask>
<g mask="url(#mask30_312_1216)">
<path d="M370.25 216.342C370.25 216.342 357.697 233.91 365.201 239.013C372.705 244.115 381.64 231.63 381.64 231.63C381.64 231.63 384.553 222.016 381.508 218.754C378.463 215.493 370.25 216.342 370.25 216.342Z" fill="url(#paint23_linear_312_1216)"/>
</g>
<mask id="mask31_312_1216" style="mask-type:luminance" maskUnits="userSpaceOnUse" x="369" y="211" width="18" height="21">
<path d="M376.061 212.145C376.061 212.145 370.294 213.512 369.485 216.121C368.678 218.729 377.664 221.149 380.182 221.268L382.21 231.797C382.21 231.797 388.206 221.891 385.831 216.171C383.457 210.451 376.061 212.145 376.061 212.145Z" fill="white"/>
</mask>
<g mask="url(#mask31_312_1216)">
<path d="M376.061 212.145C376.061 212.145 370.294 213.512 369.485 216.121C368.678 218.729 377.664 221.149 380.182 221.268L382.21 231.797C382.21 231.797 388.206 221.891 385.831 216.171C383.457 210.451 376.061 212.145 376.061 212.145Z" fill="url(#paint24_linear_312_1216)"/>
</g>
<mask id="mask32_312_1216" style="mask-type:luminance" maskUnits="userSpaceOnUse" x="379" y="227" width="8" height="7">
<path d="M379.207 230.338C379.207 230.338 384.094 224.679 386.036 228.368C387.98 232.057 381.639 234.828 379.444 233.016L379.207 230.338Z" fill="white"/>
</mask>
<g mask="url(#mask32_312_1216)">
<path d="M379.207 230.338C379.207 230.338 384.094 224.679 386.036 228.368C387.98 232.057 381.639 234.828 379.444 233.016L379.207 230.338Z" fill="url(#paint25_linear_312_1216)"/>
</g>
<mask id="mask33_312_1216" style="mask-type:luminance" maskUnits="userSpaceOnUse" x="352" y="356" width="42" height="91">
<path d="M354.932 356.265C354.969 357.219 353.295 364.778 352.384 368.812C352.019 370.434 352.274 372.132 353.099 373.575L384.639 426.658C385.02 427.3 385.299 427.995 385.467 428.723C386.046 431.213 387.244 437.319 386.618 442.872L384.987 446.262L392.043 444.659L393.579 425.71L391.58 424.492C389.854 423.439 388.511 421.866 387.742 419.998C384.889 413.07 377.808 395.435 375.982 386.843C373.908 377.074 363.061 369.142 363.061 369.142L364.967 364.638L354.932 356.265Z" fill="white"/>
</mask>
<g mask="url(#mask33_312_1216)">
<path d="M354.932 356.265C354.969 357.219 353.295 364.778 352.384 368.812C352.019 370.434 352.274 372.132 353.099 373.575L384.639 426.658C385.02 427.3 385.299 427.995 385.467 428.723C386.046 431.213 387.244 437.319 386.618 442.872L384.987 446.262L392.043 444.659L393.579 425.71L391.58 424.492C389.854 423.439 388.511 421.866 387.742 419.998C384.889 413.07 377.808 395.435 375.982 386.843C373.908 377.074 363.061 369.142 363.061 369.142L364.967 364.638L354.932 356.265Z" fill="url(#paint26_linear_312_1216)"/>
</g>
<mask id="mask34_312_1216" style="mask-type:luminance" maskUnits="userSpaceOnUse" x="382" y="424" width="18" height="25">
<path d="M399.885 438.138C399.885 438.138 396.075 432.096 395.627 429.745C395.179 427.393 393.93 423.24 391.58 424.492C391.58 424.492 390.474 435.915 390.856 440.378C391.237 444.842 385.81 444.698 385.81 444.698C385.81 444.698 384.314 444.908 383.218 446.005C382.462 446.76 383.002 448.073 384.07 448.141C385.846 448.256 388.668 448.285 391.63 447.713C392.666 447.514 393.432 446.632 393.495 445.579L394.278 432.433L399.084 438.501L399.885 438.138Z" fill="white"/>
</mask>
<g mask="url(#mask34_312_1216)">
<path d="M399.885 438.138C399.885 438.138 396.075 432.096 395.627 429.745C395.179 427.393 393.93 423.24 391.58 424.492C391.58 424.492 390.474 435.915 390.856 440.378C391.237 444.842 385.81 444.698 385.81 444.698C385.81 444.698 384.314 444.908 383.218 446.005C382.462 446.76 383.002 448.073 384.07 448.141C385.846 448.256 388.668 448.285 391.63 447.713C392.666 447.514 393.432 446.632 393.495 445.579L394.278 432.433L399.084 438.501L399.885 438.138Z" fill="url(#paint27_linear_312_1216)"/>
</g>
<mask id="mask35_312_1216" style="mask-type:luminance" maskUnits="userSpaceOnUse" x="367" y="363" width="23" height="85">
<path d="M373.774 364.722C373.774 364.722 374.885 412.203 375.037 418.947C375.188 425.691 373.972 440.636 367.211 445.102L370.153 447.279C370.153 447.279 373.829 444.155 377.421 438.142C381.456 431.387 382.676 430.153 382.676 430.153L381.336 427.411C380.751 426.21 380.578 424.853 380.848 423.545C382.307 416.474 387.181 392.956 388.511 387.891C390.079 381.912 390.191 373.929 384.731 367.246C379.271 360.562 373.774 364.722 373.774 364.722Z" fill="white"/>
</mask>
<g mask="url(#mask35_312_1216)">
<path d="M373.774 364.722C373.774 364.722 374.885 412.203 375.037 418.947C375.188 425.691 373.972 440.636 367.211 445.102L370.153 447.279C370.153 447.279 373.829 444.155 377.421 438.142C381.456 431.387 382.676 430.153 382.676 430.153L381.336 427.411C380.751 426.21 380.578 424.853 380.848 423.545C382.307 416.474 387.181 392.956 388.511 387.891C390.079 381.912 390.191 373.929 384.731 367.246C379.271 360.562 373.774 364.722 373.774 364.722Z" fill="url(#paint28_linear_312_1216)"/>
</g>
<mask id="mask36_312_1216" style="mask-type:luminance" maskUnits="userSpaceOnUse" x="363" y="429" width="22" height="21">
<path d="M380.017 449.42C380.225 449.422 380.405 449.272 380.434 449.065C380.659 447.481 381.595 441.135 382.362 439.492C383.24 437.61 386.107 429.688 382.36 429.016C382.36 429.016 373.045 442.626 371.256 444.46C369.467 446.296 367.211 445.102 367.211 445.102C367.211 445.102 365.469 445.617 364.155 447.295C363.53 448.094 364.113 449.268 365.127 449.278L371.402 449.338C373.224 449.354 374.862 448.248 375.54 446.556C376.645 443.797 378.542 439.751 380.752 437.956L379.604 448.958C379.578 449.204 379.769 449.417 380.017 449.42Z" fill="white"/>
</mask>
<g mask="url(#mask36_312_1216)">
<path d="M380.017 449.42C380.225 449.422 380.405 449.272 380.434 449.065C380.659 447.481 381.595 441.135 382.362 439.492C383.24 437.61 386.107 429.688 382.36 429.016C382.36 429.016 373.045 442.626 371.256 444.46C369.467 446.296 367.211 445.102 367.211 445.102C367.211 445.102 365.469 445.617 364.155 447.295C363.53 448.094 364.113 449.268 365.127 449.278L371.402 449.338C373.224 449.354 374.862 448.248 375.54 446.556C376.645 443.797 378.542 439.751 380.752 437.956L379.604 448.958C379.578 449.204 379.769 449.417 380.017 449.42Z" fill="url(#paint29_linear_312_1216)"/>
</g>
<mask id="mask37_312_1216" style="mask-type:luminance" maskUnits="userSpaceOnUse" x="351" y="303" width="48" height="70">
<path d="M365.981 307.067C365.981 307.067 367.394 311.574 365.222 318.996L351.747 366.053C351.535 366.792 351.935 367.565 352.658 367.825C356.689 369.271 369.94 373.361 388.027 372.114C388.937 372.051 389.701 371.406 389.898 370.515C391.09 365.15 395.157 346.848 395.993 343.086C399.184 328.757 402.747 313.303 387.076 303.958C379.853 307.052 373.117 308.875 365.981 307.067Z" fill="white"/>
</mask>
<g mask="url(#mask37_312_1216)">
<path d="M365.981 307.067C365.981 307.067 367.394 311.574 365.222 318.996L351.747 366.053C351.535 366.792 351.935 367.565 352.658 367.825C356.689 369.271 369.94 373.361 388.027 372.114C388.937 372.051 389.701 371.406 389.898 370.515C391.09 365.15 395.157 346.848 395.993 343.086C399.184 328.757 402.747 313.303 387.076 303.958C379.853 307.052 373.117 308.875 365.981 307.067Z" fill="url(#paint30_linear_312_1216)"/>
</g>
<mask id="mask38_312_1216" style="mask-type:luminance" maskUnits="userSpaceOnUse" x="378" y="258" width="33" height="52">
<path d="M390.923 259.806C390.923 259.806 406.254 272.547 410.06 289.958C413.864 307.369 387.656 309.219 387.656 309.219C387.656 309.219 384.098 305.246 379.874 306.663C375.65 308.079 379.547 299.729 384.489 299.75C389.432 299.773 387.142 303.68 394.133 300.514C400.943 297.43 405.153 287.888 387.776 273.426C386.77 272.587 385.966 271.52 385.481 270.3C382.106 261.803 384.784 256.233 390.923 259.806Z" fill="white"/>
</mask>
<g mask="url(#mask38_312_1216)">
<path d="M390.923 259.806C390.923 259.806 406.254 272.547 410.06 289.958C413.864 307.369 387.656 309.219 387.656 309.219C387.656 309.219 384.098 305.246 379.874 306.663C375.65 308.079 379.547 299.729 384.489 299.75C389.432 299.773 387.142 303.68 394.133 300.514C400.943 297.43 405.153 287.888 387.776 273.426C386.77 272.587 385.966 271.52 385.481 270.3C382.106 261.803 384.784 256.233 390.923 259.806Z" fill="url(#paint31_linear_312_1216)"/>
</g>
<defs>
<filter id="filter0_d_312_1216" x="128.514" y="53.9657" width="235.216" height="325.821" filterUnits="userSpaceOnUse" color-interpolation-filters="sRGB">
<feFlood flood-opacity="0" result="BackgroundImageFix"/>
<feColorMatrix in="SourceAlpha" type="matrix" values="0 0 0 0 0 0 0 0 0 0 0 0 0 0 0 0 0 0 127 0" result="hardAlpha"/>
<feOffset dy="4"/>
<feGaussianBlur stdDeviation="2"/>
<feComposite in2="hardAlpha" operator="out"/>
<feColorMatrix type="matrix" values="0 0 0 0 0 0 0 0 0 0 0 0 0 0 0 0 0 0 0.25 0"/>
<feBlend mode="normal" in2="BackgroundImageFix" result="effect1_dropShadow_312_1216"/>
<feBlend mode="normal" in="SourceGraphic" in2="effect1_dropShadow_312_1216" result="shape"/>
</filter>
<linearGradient id="paint0_linear_312_1216" x1="503.382" y1="573.735" x2="109.607" y2="84.6916" gradientUnits="userSpaceOnUse">
<stop stop-color="#DAE3FE"/>
<stop offset="1" stop-color="#E9EFFD"/>
</linearGradient>
<linearGradient id="paint1_linear_312_1216" x1="157.112" y1="389.275" x2="328.107" y2="102.831" gradientUnits="userSpaceOnUse">
<stop stop-color="#26264F"/>
<stop offset="1" stop-color="#444B8C"/>
</linearGradient>
<linearGradient id="paint2_linear_312_1216" x1="225.001" y1="410.925" x2="225.001" y2="391.701" gradientUnits="userSpaceOnUse">
<stop stop-color="#26264F"/>
<stop offset="1" stop-color="#323260"/>
</linearGradient>
<linearGradient id="paint3_linear_312_1216" x1="246.122" y1="371.787" x2="246.122" y2="53.9657" gradientUnits="userSpaceOnUse">
<stop stop-color="#F9968B"/>
<stop offset="1" stop-color="#6763FF"/>
</linearGradient>
<linearGradient id="paint4_linear_312_1216" x1="127.009" y1="432.448" x2="44.6545" y2="522.026" gradientUnits="userSpaceOnUse">
<stop stop-color="#09005D"/>
<stop offset="1" stop-color="#1A0F91"/>
</linearGradient>
<linearGradient id="paint5_linear_312_1216" x1="100.279" y1="439.101" x2="107.594" y2="439.101" gradientUnits="userSpaceOnUse">
<stop stop-color="#FEBBBA"/>
<stop offset="1" stop-color="#FF928E"/>
</linearGradient>
<linearGradient id="paint6_linear_312_1216" x1="133.494" y1="331.143" x2="63.4186" y2="426.121" gradientUnits="userSpaceOnUse">
<stop stop-color="#4042E2"/>
<stop offset="1" stop-color="#4F52FF"/>
</linearGradient>
<linearGradient id="paint7_linear_312_1216" x1="108.535" y1="415.462" x2="26.1806" y2="505.04" gradientUnits="userSpaceOnUse">
<stop stop-color="#09005D"/>
<stop offset="1" stop-color="#1A0F91"/>
</linearGradient>
<linearGradient id="paint8_linear_312_1216" x1="73.915" y1="438.726" x2="80.231" y2="438.726" gradientUnits="userSpaceOnUse">
<stop stop-color="#FEBBBA"/>
<stop offset="1" stop-color="#FF928E"/>
</linearGradient>
<linearGradient id="paint9_linear_312_1216" x1="121.004" y1="321.929" x2="50.9288" y2="416.908" gradientUnits="userSpaceOnUse">
<stop stop-color="#4042E2"/>
<stop offset="1" stop-color="#4F52FF"/>
</linearGradient>
<linearGradient id="paint10_linear_312_1216" x1="161.989" y1="204.716" x2="149.082" y2="241.592" gradientUnits="userSpaceOnUse">
<stop stop-color="#FEBBBA"/>
<stop offset="1" stop-color="#FF928E"/>
</linearGradient>
<linearGradient id="paint11_linear_312_1216" x1="173.021" y1="208.576" x2="160.114" y2="245.452" gradientUnits="userSpaceOnUse">
<stop stop-color="#FEBBBA"/>
<stop offset="1" stop-color="#FF928E"/>
</linearGradient>
<linearGradient id="paint12_linear_312_1216" x1="163.106" y1="232.136" x2="172.828" y2="212.525" gradientUnits="userSpaceOnUse">
<stop stop-color="#FEBBBA"/>
<stop offset="1" stop-color="#FF928E"/>
</linearGradient>
<linearGradient id="paint13_linear_312_1216" x1="102.072" y1="241.173" x2="-7.9315" y2="353.355" gradientUnits="userSpaceOnUse">
<stop stop-color="#F28705"/>
<stop offset="1" stop-color="#FF928E"/>
</linearGradient>
<linearGradient id="paint14_linear_312_1216" x1="48.6035" y1="301.193" x2="95.8978" y2="301.193" gradientUnits="userSpaceOnUse">
<stop stop-color="#FEBBBA"/>
<stop offset="1" stop-color="#FF928E"/>
</linearGradient>
<linearGradient id="paint15_linear_312_1216" x1="92.3855" y1="296.235" x2="107.12" y2="296.235" gradientUnits="userSpaceOnUse">
<stop stop-color="#FEBBBA"/>
<stop offset="1" stop-color="#FF928E"/>
</linearGradient>
<linearGradient id="paint16_linear_312_1216" x1="84.919" y1="250.633" x2="103.618" y2="250.633" gradientUnits="userSpaceOnUse">
<stop stop-color="#FEBBBA"/>
<stop offset="1" stop-color="#FF928E"/>
</linearGradient>
<linearGradient id="paint17_linear_312_1216" x1="108.065" y1="238.738" x2="87.506" y2="226.199" gradientUnits="userSpaceOnUse">
<stop stop-color="#FEBBBA"/>
<stop offset="1" stop-color="#FF928E"/>
</linearGradient>
<linearGradient id="paint18_linear_312_1216" x1="76.6228" y1="212.98" x2="103.183" y2="233.958" gradientUnits="userSpaceOnUse">
<stop stop-color="#09005D"/>
<stop offset="1" stop-color="#1A0F91"/>
</linearGradient>
<linearGradient id="paint19_linear_312_1216" x1="102.665" y1="243.414" x2="84.1676" y2="232.132" gradientUnits="userSpaceOnUse">
<stop stop-color="#FEBBBA"/>
<stop offset="1" stop-color="#FF928E"/>
</linearGradient>
<linearGradient id="paint20_linear_312_1216" x1="319.051" y1="215.93" x2="359.835" y2="281.293" gradientUnits="userSpaceOnUse">
<stop stop-color="#FEBBBA"/>
<stop offset="1" stop-color="#FF928E"/>
</linearGradient>
<linearGradient id="paint21_linear_312_1216" x1="432.269" y1="209.914" x2="391.074" y2="237.38" gradientUnits="userSpaceOnUse">
<stop stop-color="#09005D"/>
<stop offset="1" stop-color="#1A0F91"/>
</linearGradient>
<linearGradient id="paint22_linear_312_1216" x1="369.282" y1="261.145" x2="376.928" y2="244.164" gradientUnits="userSpaceOnUse">
<stop stop-color="#FEBBBA"/>
<stop offset="1" stop-color="#FF928E"/>
</linearGradient>
<linearGradient id="paint23_linear_312_1216" x1="368.888" y1="219.876" x2="384.406" y2="253.472" gradientUnits="userSpaceOnUse">
<stop stop-color="#FEBBBA"/>
<stop offset="1" stop-color="#FF928E"/>
</linearGradient>
<linearGradient id="paint24_linear_312_1216" x1="421.198" y1="193.309" x2="380.002" y2="220.776" gradientUnits="userSpaceOnUse">
<stop stop-color="#09005D"/>
<stop offset="1" stop-color="#1A0F91"/>
</linearGradient>
<linearGradient id="paint25_linear_312_1216" x1="376.189" y1="216.504" x2="391.706" y2="250.1" gradientUnits="userSpaceOnUse">
<stop stop-color="#FEBBBA"/>
<stop offset="1" stop-color="#FF928E"/>
</linearGradient>
<linearGradient id="paint26_linear_312_1216" x1="412.189" y1="472.617" x2="355.22" y2="369.789" gradientUnits="userSpaceOnUse">
<stop stop-color="#FEBBBA"/>
<stop offset="1" stop-color="#FF928E"/>
</linearGradient>
<linearGradient id="paint27_linear_312_1216" x1="399.903" y1="436.337" x2="382.967" y2="436.176" gradientUnits="userSpaceOnUse">
<stop stop-color="#09005D"/>
<stop offset="1" stop-color="#1A0F91"/>
</linearGradient>
<linearGradient id="paint28_linear_312_1216" x1="400.583" y1="391.516" x2="456.674" y2="363.199" gradientUnits="userSpaceOnUse">
<stop stop-color="#FEBBBA"/>
<stop offset="1" stop-color="#FF928E"/>
</linearGradient>
<linearGradient id="paint29_linear_312_1216" x1="384.171" y1="439.246" x2="363.982" y2="439.054" gradientUnits="userSpaceOnUse">
<stop stop-color="#09005D"/>
<stop offset="1" stop-color="#1A0F91"/>
</linearGradient>
<linearGradient id="paint30_linear_312_1216" x1="357.893" y1="303.203" x2="405.236" y2="411.482" gradientUnits="userSpaceOnUse">
<stop stop-color="#09005D"/>
<stop offset="1" stop-color="#1A0F91"/>
</linearGradient>
<linearGradient id="paint31_linear_312_1216" x1="406.717" y1="313.976" x2="325.061" y2="192.905" gradientUnits="userSpaceOnUse">
<stop stop-color="#FEBBBA"/>
<stop offset="1" stop-color="#FF928E"/>
</linearGradient>
</defs>
</svg>
